<svg xmlns="http://www.w3.org/2000/svg" viewBox="0 0 42.93 29.57"><defs><style>.cls-1{fill:#070707;}.cls-2{fill:#080808;}.cls-3{fill:#090909;}.cls-4{fill:#0a0a0a;}.cls-5{fill:#0b0b0b;}.cls-6{fill:#0c0c0c;}.cls-7{fill:#0d0d0d;}.cls-8{fill:#0e0e0e;}.cls-9{fill:#0f0f0f;}.cls-10{fill:#101010;}.cls-11{fill:#111;}.cls-12{fill:#121212;}.cls-13{fill:#131313;}.cls-14{fill:#141414;}.cls-15{fill:#151515;}.cls-16{fill:#161616;}.cls-17{fill:#171717;}.cls-18{fill:#33e512;}.cls-19{fill:#33e712;}.cls-20{fill:#34e812;}.cls-21{fill:#34ea12;}.cls-22{fill:#35ec12;}.cls-23{fill:#35ed13;}.cls-24{fill:#35ef13;}.cls-25{fill:#36f013;}.cls-26{fill:#36f213;}.cls-27{fill:#36f413;}.cls-28{fill:#37f513;}.cls-29{fill:#37f713;}.cls-30{fill:#38f914;}.cls-31{fill:#38fa14;}.cls-32{fill:#38fc14;}.cls-33{fill:#39fd14;}.cls-34{fill:#39ff14;}</style></defs><title>logo_standalone_6</title><g id="Layer_2" data-name="Layer 2"><g id="cli"><rect class="cls-1" width="41.88" height="28.55" rx="0.28"/><rect class="cls-2" x="0.07" y="0.06" width="41.88" height="28.55" rx="0.28"/><rect class="cls-3" x="0.13" y="0.13" width="41.88" height="28.55" rx="0.28"/><rect class="cls-4" x="0.2" y="0.19" width="41.88" height="28.55" rx="0.28"/><rect class="cls-5" x="0.26" y="0.26" width="41.88" height="28.55" rx="0.28"/><rect class="cls-6" x="0.33" y="0.32" width="41.88" height="28.55" rx="0.28"/><rect class="cls-7" x="0.39" y="0.38" width="41.88" height="28.55" rx="0.28"/><rect class="cls-8" x="0.46" y="0.45" width="41.88" height="28.55" rx="0.28"/><rect class="cls-9" x="0.52" y="0.51" width="41.88" height="28.55" rx="0.28"/><rect class="cls-10" x="0.59" y="0.58" width="41.88" height="28.55" rx="0.28"/><rect class="cls-11" x="0.65" y="0.64" width="41.88" height="28.55" rx="0.28"/><rect class="cls-12" x="0.72" y="0.7" width="41.88" height="28.55" rx="0.28"/><rect class="cls-13" x="0.78" y="0.77" width="41.88" height="28.55" rx="0.28"/><rect class="cls-14" x="0.85" y="0.83" width="41.88" height="28.55" rx="0.28"/><rect class="cls-15" x="0.91" y="0.89" width="41.88" height="28.55" rx="0.28"/><rect class="cls-16" x="0.98" y="0.96" width="41.88" height="28.55" rx="0.28"/><rect class="cls-17" x="1.04" y="1.02" width="41.88" height="28.55" rx="0.28"/><polygon class="cls-18" points="9.74 8.99 5.02 12.05 5.02 13.38 11.79 8.99 5.02 4.6 5.02 5.93 9.74 8.99"/><polygon class="cls-19" points="9.79 8.99 5.07 12.05 5.07 13.38 11.85 8.99 5.07 4.6 5.07 5.93 9.79 8.99"/><polygon class="cls-20" points="9.84 8.99 5.12 12.05 5.12 13.38 11.9 8.99 5.12 4.6 5.12 5.93 9.84 8.99"/><polygon class="cls-21" points="9.89 8.99 5.17 12.05 5.17 13.38 11.95 8.99 5.17 4.6 5.17 5.93 9.89 8.99"/><polygon class="cls-22" points="9.95 8.99 5.23 12.05 5.23 13.38 12 8.99 5.23 4.6 5.23 5.93 9.95 8.99"/><polygon class="cls-23" points="10 8.99 5.28 12.05 5.28 13.38 12.06 8.99 5.28 4.6 5.28 5.93 10 8.99"/><polygon class="cls-24" points="10.05 8.99 5.33 12.05 5.33 13.38 12.11 8.99 5.33 4.6 5.33 5.93 10.05 8.99"/><polygon class="cls-25" points="10.1 8.99 5.38 12.05 5.38 13.38 12.16 8.99 5.38 4.6 5.38 5.93 10.1 8.99"/><polygon class="cls-26" points="10.16 8.99 5.44 12.05 5.44 13.38 12.21 8.99 5.44 4.6 5.44 5.93 10.16 8.99"/><polygon class="cls-27" points="10.21 8.99 5.49 12.05 5.49 13.38 12.27 8.99 5.49 4.6 5.49 5.93 10.21 8.99"/><polygon class="cls-28" points="10.26 8.99 5.54 12.05 5.54 13.38 12.32 8.99 5.54 4.6 5.54 5.93 10.26 8.99"/><polygon class="cls-29" points="10.31 8.99 5.59 12.05 5.59 13.38 12.37 8.99 5.59 4.6 5.59 5.93 10.31 8.99"/><polygon class="cls-30" points="10.37 8.99 5.64 12.05 5.64 13.38 12.42 8.99 5.64 4.6 5.64 5.93 10.37 8.99"/><polygon class="cls-31" points="10.42 8.99 5.7 12.05 5.7 13.38 12.47 8.99 5.7 4.6 5.7 5.93 10.42 8.99"/><polygon class="cls-32" points="10.47 8.99 5.75 12.05 5.75 13.38 12.53 8.99 5.75 4.6 5.75 5.93 10.47 8.99"/><polygon class="cls-33" points="10.52 8.99 5.8 12.05 5.8 13.38 12.58 8.99 5.8 4.6 5.8 5.93 10.52 8.99"/><polygon class="cls-34" points="10.57 8.99 5.86 12.05 5.86 13.38 12.63 8.99 5.86 4.6 5.86 5.93 10.57 8.99"/><rect class="cls-18" x="10.21" y="12.25" width="4.05" height="1.7" rx="0.26"/><rect class="cls-19" x="10.23" y="12.27" width="4.05" height="1.7" rx="0.26"/><rect class="cls-20" x="10.24" y="12.29" width="4.05" height="1.7" rx="0.26"/><rect class="cls-21" x="10.26" y="12.3" width="4.05" height="1.7" rx="0.26"/><rect class="cls-22" x="10.28" y="12.32" width="4.05" height="1.7" rx="0.26"/><rect class="cls-23" x="10.29" y="12.34" width="4.05" height="1.7" rx="0.26"/><rect class="cls-24" x="10.31" y="12.36" width="4.05" height="1.7" rx="0.26"/><rect class="cls-25" x="10.32" y="12.37" width="4.05" height="1.7" rx="0.26"/><rect class="cls-26" x="10.34" y="12.39" width="4.05" height="1.7" rx="0.26"/><rect class="cls-27" x="10.35" y="12.41" width="4.05" height="1.7" rx="0.26"/><rect class="cls-28" x="10.37" y="12.43" width="4.05" height="1.7" rx="0.26"/><rect class="cls-29" x="10.39" y="12.44" width="4.05" height="1.7" rx="0.26"/><rect class="cls-30" x="10.4" y="12.46" width="4.05" height="1.7" rx="0.26"/><rect class="cls-31" x="10.42" y="12.48" width="4.05" height="1.7" rx="0.26"/><rect class="cls-32" x="10.43" y="12.5" width="4.05" height="1.7" rx="0.26"/><rect class="cls-33" x="10.45" y="12.51" width="4.05" height="1.7" rx="0.26"/><rect class="cls-34" x="10.47" y="12.53" width="4.05" height="1.7" rx="0.26"/></g></g></svg>