<svg xmlns="http://www.w3.org/2000/svg" viewBox="0 0 111.52 107.15"><defs><style>.cls-1{fill:#cdcdcd;}.cls-2{fill:#c8c8c8;}.cls-3{fill:#ac2d37;}.cls-4{fill:#812229;}.cls-5{fill:#585858;}.cls-6{fill:#3b3b3b;}.cls-7{fill:#ea636d;}.cls-8{fill:#e53c49;}.cls-9{fill:#565656;}.cls-10{fill:#d9d9d9;}.cls-11{fill:#bfbfbf;}.cls-12{fill:#e5e5e5;}.cls-13{fill:#fff;}.cls-14{fill:#919191;}.cls-15{fill:#070707;}.cls-16{fill:#080808;}.cls-17{fill:#090909;}.cls-18{fill:#0a0a0a;}.cls-19{fill:#0b0b0b;}.cls-20{fill:#0c0c0c;}.cls-21{fill:#0d0d0d;}.cls-22{fill:#0e0e0e;}.cls-23{fill:#0f0f0f;}.cls-24{fill:#101010;}.cls-25{fill:#111;}.cls-26{fill:#121212;}.cls-27{fill:#131313;}.cls-28{fill:#141414;}.cls-29{fill:#151515;}.cls-30{fill:#161616;}.cls-31{fill:#171717;}.cls-32{fill:#33e512;}.cls-33{fill:#33e712;}.cls-34{fill:#34e812;}.cls-35{fill:#34ea12;}.cls-36{fill:#35ec12;}.cls-37{fill:#35ed13;}.cls-38{fill:#35ef13;}.cls-39{fill:#36f013;}.cls-40{fill:#36f213;}.cls-41{fill:#36f413;}.cls-42{fill:#37f513;}.cls-43{fill:#37f713;}.cls-44{fill:#38f914;}.cls-45{fill:#38fa14;}.cls-46{fill:#38fc14;}.cls-47{fill:#39fd14;}.cls-48{fill:#39ff14;}</style></defs><title>logo_2</title><g id="Layer_2" data-name="Layer 2"><g id="cli"><g id="BG"><rect class="cls-1" x="30.6" y="21.5" width="69.4" height="78.5"/><polygon class="cls-2" points="98.7 18.8 29.2 18.8 1.5 0 70.9 0 98.7 18.8"/></g><ellipse class="cls-3" cx="80.4" cy="39" rx="3.5" ry="3.3"/><ellipse class="cls-4" cx="80.4" cy="39" rx="2.7" ry="2.6"/><ellipse cx="80.4" cy="39" rx="2" ry="1.9"/><polygon class="cls-5" points="84.1 49.4 76.7 49.5 80.4 43.3 84.1 49.4"/><polygon class="cls-6" points="78.8 57.9 82 62.2 82 49.4 80.4 46.8 78.8 49.4 78.8 57.9"/><polygon class="cls-5" points="48.4 48.9 51.6 53.9 51.6 70 48.5 70 48.4 48.9"/><polygon class="cls-7" points="48.5 70 46.3 72 46.3 77.8 50 75.2 50 70 48.5 70"/><polygon class="cls-8" points="51.6 70 53.9 72 53.9 77.8 50.1 75.2 50.1 70 51.6 70"/><polygon class="cls-9" points="71.9 77.8 81.9 77.8 81.9 65 63.3 39.1 48.3 39.1 48.3 44.4 71.9 77.8"/><ellipse class="cls-3" cx="56.2" cy="64.4" rx="2.5" ry="2.3"/><polygon class="cls-10" points="98.7 18.8 100 21.5 30.6 21.5 29.2 18.8 98.7 18.8"/><polygon class="cls-11" points="1.5 0 0 2.9 27.8 21.4 29.2 18.8 1.5 0"/><polyline class="cls-12" points="27.8 99.3 30.6 100 30.6 21.5 29.2 18.8 27.8 21.4"/><polygon class="cls-13" points="27.8 21.4 30.6 21.5 29.2 18.8 27.8 21.4"/><polygon class="cls-6" points="48.3 39.1 75.6 77.8 71.9 77.8 48.3 44.4 48.3 39.1"/><polygon class="cls-14" points="0 2.9 27.8 21.4 27.8 99.3 0 80.5 0 2.9"/><rect class="cls-15" x="87.91" y="90.89" width="23.03" height="15.7" rx="0.15"/><rect class="cls-16" x="87.95" y="90.92" width="23.03" height="15.7" rx="0.15"/><rect class="cls-17" x="87.98" y="90.96" width="23.03" height="15.7" rx="0.15"/><rect class="cls-18" x="88.02" y="90.99" width="23.03" height="15.7" rx="0.15"/><rect class="cls-19" x="88.05" y="91.03" width="23.03" height="15.7" rx="0.15"/><rect class="cls-20" x="88.09" y="91.06" width="23.03" height="15.7" rx="0.15"/><rect class="cls-21" x="88.13" y="91.1" width="23.03" height="15.7" rx="0.15"/><rect class="cls-22" x="88.16" y="91.13" width="23.03" height="15.7" rx="0.15"/><rect class="cls-23" x="88.2" y="91.17" width="23.03" height="15.7" rx="0.15"/><rect class="cls-24" x="88.23" y="91.2" width="23.03" height="15.7" rx="0.15"/><rect class="cls-25" x="88.27" y="91.24" width="23.03" height="15.7" rx="0.15"/><rect class="cls-26" x="88.3" y="91.27" width="23.03" height="15.7" rx="0.15"/><rect class="cls-27" x="88.34" y="91.31" width="23.03" height="15.7" rx="0.15"/><rect class="cls-28" x="88.38" y="91.34" width="23.03" height="15.7" rx="0.15"/><rect class="cls-29" x="88.41" y="91.38" width="23.03" height="15.7" rx="0.15"/><rect class="cls-30" x="88.45" y="91.42" width="23.03" height="15.7" rx="0.15"/><rect class="cls-31" x="88.48" y="91.45" width="23.03" height="15.7" rx="0.15"/><polygon class="cls-32" points="93.26 95.83 90.67 97.52 90.67 98.25 94.4 95.83 90.67 93.42 90.67 94.15 93.26 95.83"/><polygon class="cls-33" points="93.29 95.83 90.7 97.52 90.7 98.25 94.42 95.83 90.7 93.42 90.7 94.15 93.29 95.83"/><polygon class="cls-34" points="93.32 95.83 90.73 97.52 90.73 98.25 94.45 95.83 90.73 93.42 90.73 94.15 93.32 95.83"/><polygon class="cls-35" points="93.35 95.83 90.75 97.52 90.75 98.25 94.48 95.83 90.75 93.42 90.75 94.15 93.35 95.83"/><polygon class="cls-36" points="93.38 95.83 90.78 97.52 90.78 98.25 94.51 95.83 90.78 93.42 90.78 94.15 93.38 95.83"/><polygon class="cls-37" points="93.41 95.83 90.81 97.52 90.81 98.25 94.54 95.83 90.81 93.42 90.81 94.15 93.41 95.83"/><polygon class="cls-38" points="93.44 95.83 90.84 97.52 90.84 98.25 94.57 95.83 90.84 93.42 90.84 94.15 93.44 95.83"/><polygon class="cls-39" points="93.47 95.83 90.87 97.52 90.87 98.25 94.6 95.83 90.87 93.42 90.87 94.15 93.47 95.83"/><polygon class="cls-40" points="93.5 95.83 90.9 97.52 90.9 98.25 94.63 95.83 90.9 93.42 90.9 94.15 93.5 95.83"/><polygon class="cls-41" points="93.52 95.83 90.93 97.52 90.93 98.25 94.66 95.83 90.93 93.42 90.93 94.15 93.52 95.83"/><polygon class="cls-42" points="93.55 95.83 90.96 97.52 90.96 98.25 94.68 95.83 90.96 93.42 90.96 94.15 93.55 95.83"/><polygon class="cls-43" points="93.58 95.83 90.99 97.52 90.99 98.25 94.71 95.83 90.99 93.42 90.99 94.15 93.58 95.83"/><polygon class="cls-44" points="93.61 95.83 91.01 97.52 91.01 98.25 94.74 95.83 91.01 93.42 91.01 94.15 93.61 95.83"/><polygon class="cls-45" points="93.64 95.83 91.04 97.52 91.04 98.25 94.77 95.83 91.04 93.42 91.04 94.15 93.64 95.83"/><polygon class="cls-46" points="93.67 95.83 91.07 97.52 91.07 98.25 94.8 95.83 91.07 93.42 91.07 94.15 93.67 95.83"/><polygon class="cls-47" points="93.7 95.83 91.1 97.52 91.1 98.25 94.83 95.83 91.1 93.42 91.1 94.15 93.7 95.83"/><polygon class="cls-48" points="93.72 95.83 91.13 97.52 91.13 98.25 94.86 95.83 91.13 93.42 91.13 94.15 93.72 95.83"/><rect class="cls-32" x="93.53" y="97.62" width="2.23" height="0.94" rx="0.14"/><rect class="cls-33" x="93.53" y="97.63" width="2.23" height="0.94" rx="0.14"/><rect class="cls-34" x="93.54" y="97.64" width="2.23" height="0.94" rx="0.14"/><rect class="cls-35" x="93.55" y="97.65" width="2.23" height="0.94" rx="0.14"/><rect class="cls-36" x="93.56" y="97.66" width="2.23" height="0.94" rx="0.14"/><rect class="cls-37" x="93.57" y="97.67" width="2.23" height="0.94" rx="0.14"/><rect class="cls-38" x="93.58" y="97.68" width="2.23" height="0.94" rx="0.14"/><rect class="cls-39" x="93.59" y="97.69" width="2.23" height="0.94" rx="0.14"/><rect class="cls-40" x="93.6" y="97.7" width="2.23" height="0.94" rx="0.14"/><rect class="cls-41" x="93.6" y="97.71" width="2.23" height="0.94" rx="0.14"/><rect class="cls-42" x="93.61" y="97.72" width="2.23" height="0.94" rx="0.14"/><rect class="cls-43" x="93.62" y="97.73" width="2.23" height="0.94" rx="0.14"/><rect class="cls-44" x="93.63" y="97.74" width="2.23" height="0.94" rx="0.14"/><rect class="cls-45" x="93.64" y="97.75" width="2.23" height="0.94" rx="0.14"/><rect class="cls-46" x="93.65" y="97.76" width="2.23" height="0.94" rx="0.14"/><rect class="cls-47" x="93.66" y="97.77" width="2.23" height="0.94" rx="0.14"/><rect class="cls-48" x="93.67" y="97.78" width="2.23" height="0.94" rx="0.14"/></g></g></svg>