<?xml version="1.0" encoding="iso-8859-1"?>
<!-- Generator: Adobe Illustrator 19.0.0, SVG Export Plug-In . SVG Version: 6.00 Build 0)  -->
<svg version="1.1" id="Layer_1" xmlns="http://www.w3.org/2000/svg" xmlns:xlink="http://www.w3.org/1999/xlink" x="0px" y="0px"
	 viewBox="0 0 512 512" style="enable-background:new 0 0 512 512;" xml:space="preserve">
<circle style="fill:#263A7A;" cx="256" cy="256" r="256"/>
<path style="fill:#121149;" d="M274.253,511.345c101.633-7.161,186.878-73.642,221.344-165.036L238.411,89.122l-101.36,62.869
	l-32.754,168.943l28.389,48.843L274.253,511.345z"/>
<path style="fill:#FFC61B;" d="M305.778,341.333c-74.619,0-135.111-60.492-135.111-135.111c0-50.079,27.267-93.762,67.744-117.1
	C154.009,97.914,88.207,169.27,88.207,256c0,92.67,75.124,167.793,167.793,167.793c86.73,0,158.086-65.803,166.878-150.204
	C399.539,314.066,355.857,341.333,305.778,341.333z"/>
<path style="fill:#EAA22F;" d="M305.778,341.333c-37.017,0-70.546-14.898-94.949-39.012l-72.894,72.894
	c30.318,30.027,72.023,48.578,118.065,48.578c86.73,0,158.086-65.803,166.878-150.204
	C399.539,314.066,355.857,341.333,305.778,341.333z"/>
<g>
</g>
<g>
</g>
<g>
</g>
<g>
</g>
<g>
</g>
<g>
</g>
<g>
</g>
<g>
</g>
<g>
</g>
<g>
</g>
<g>
</g>
<g>
</g>
<g>
</g>
<g>
</g>
<g>
</g>
</svg>
