<?xml version="1.0" encoding="utf-8"?>
<!-- Generator: Adobe Illustrator 24.0.1, SVG Export Plug-In . SVG Version: 6.00 Build 0)  -->
<svg version="1.1" id="Layer_1" xmlns="http://www.w3.org/2000/svg" xmlns:xlink="http://www.w3.org/1999/xlink" x="0px" y="0px"
	 viewBox="0 0 1600 1200" style="enable-background:new 0 0 1600 1200;" xml:space="preserve">
<style type="text/css">
	.st0{fill:#F3F3F3;}
	.st1{fill:#B1B5BA;}
	.st2{fill:#FFFFFF;}
	.st3{fill:#DCDCDC;}
	.st4{fill:#E9E9E9;}
	.st5{fill:#D9DCDE;}
	.st6{opacity:0.2;enable-background:new    ;}
	.st7{fill:#BBBDBF;}
	.st8{fill:#ABBDD5;}
	.st9{fill:#858990;}
	.st10{fill:#F39494;}
	.st11{fill:#21252B;}
	.st12{fill:#FB9C9C;}
	.st13{opacity:0.4;enable-background:new    ;}
	.st14{opacity:0.15;enable-background:new    ;}
	.st15{fill:#E53C49;}
	.st16{fill:#3F4249;}
	.st17{fill:#F69797;}
	.st18{fill:#61656D;}
	.st19{opacity:0.6;enable-background:new    ;}
	.st20{opacity:0.6;}
	.st21{fill:#F59696;}
	.st22{opacity:0.15;}
	.st23{opacity:0.3;fill:#FFFFFF;enable-background:new    ;}
	.st24{opacity:0.6;fill:#FFFFFF;enable-background:new    ;}
	.st25{opacity:0.2;fill:#FFFFFF;enable-background:new    ;}
</style>
<path class="st0" d="M131,548.7c-0.4-15.1,4.5-29.9,13.8-41.8l261.4-339.3c14.2-16.7,35.6-25.3,57.3-23l749.4,78.3
	c23.2,2.4,43.4,16.9,53.2,38.2l204.6,445.4c3.6,8,5.7,16.6,5.9,25.3l14.2,393H144.2L131,548.7z"/>
<path class="st0" d="M1476.6,731.7c-0.4-8.7-2.3-17.3-5.9-25.3L1266.1,261c-9.8-21.3-30-35.7-53.2-38.2l-749.4-78.3
	c-21.8-2.2-43.2,6.3-57.3,23L144.7,506.9c-9.3,12-14.2,26.6-13.8,41.8l9.3,408.1h1344.4L1476.6,731.7z"/>
<path class="st1" d="M1444,1052l-71-56.1h101.1l12.3,8.3v-0.5l-11.7-7.9h11.4V995h-12.6l-55.8-37.4h67v-0.8H140.3v0.8h69.9
	L154.1,995h-12.9v0.8h11.7l-11.6,7.7v0.2l11.9-8h101.5l-71.4,56.1h-40.8v0.7h39.9l-39.2,30.8v0.6l39.9-31.4h113.9l-74.7,72h0.8
	l74.7-72h113.9l-58.2,72h0.8l58.1-72h113.9l-41.6,72h0.8l41.5-72h113.9l-24.9,72h0.8l24.9-72h113.9l-8.3,72h0.8l8.2-72h113.9l8.2,72
	h0.8l-8.3-72h113.9l24.9,72h0.8l-24.9-72H1100l41.5,72h0.8l-41.6-72h113.9l58.1,72h0.8l-58.2-72h113.9l74.7,72h0.8l-74.7-72h113.9
	l45.4,35.7v-0.6l-44.6-35.1h43.3v-0.7H1444L1444,1052z M1417.1,957.7l55.8,37.4h-101l-47.3-37.4H1417.1z M1324,957.7l47.3,37.4
	h-100.9l-38.7-37.4H1324z M1231.1,957.7l38.7,37.4H1169l-30.2-37.4H1231.1z M1138,957.7l30.2,37.4h-100.5l-21.5-37.4H1138z
	 M1045.5,957.7l21.4,37.4H966l-12.9-37.4H1045.5z M952.5,957.7l12.9,37.4H864.5l-4.4-37.4H952.5z M859.6,957.7l4.4,37.4H763.2
	l4.2-37.4H859.6z M766.9,957.7l-4.4,37.4h-101l12.7-37.4H766.9z M673.7,957.7L660.9,995H560.5l21.5-37.4H673.7z M581.4,957.7
	L559.8,995H458.9l29.6-36.9h-0.6L458.2,995H357.7l38.5-37h-0.6l-38.5,37H256.4l47.5-37.4H581.4L581.4,957.7z M154.5,995l55.8-37.4
	h93L255.7,995H154.5z M297.8,1052H184l71.4-56.1h100.9L297.8,1052z M412.3,1052H298.5l58.4-56.1h100.7L412.3,1052z M526.9,1052
	H413.1l45.2-56.1h101.1L526.9,1052z M641.4,1052H527.6l32.4-56.1h100.6L641.4,1052z M755.9,1052H642.1l19.1-56.1h101.1L755.9,1052z
	 M756.8,1052l6.4-56.1h100.9l6.5,56.1H756.8z M871.3,1052l-6.5-56.1h101l19.4,56.1H871.3z M985.9,1052l-19.5-56.1h101.1l32.2,56.1
	H985.9z M1100.4,1052l-32.3-56.1h100.7l45.4,56.1H1100.4z M1214.9,1052l-45.5-56.1h101.1l58.1,56.1H1214.9z M1329.5,1052l-58.2-56.1
	h101l71,56.1H1329.5z"/>
<path class="st1" d="M1535.3,1126.1H98.3c-0.5,0-0.7-0.4-0.7-0.7c0-0.4,0.4-0.7,0.7-0.7h1437.2c0.5,0,0.7,0.4,0.7,0.7
	C1536.3,1125.8,1535.8,1126.1,1535.3,1126.1z"/>
<path class="st2" d="M321.3,721.9H134.4l5.8,235h180.9v-235H321.3z"/>
<path class="st3" d="M321.3,729.7H134.4l1.3,46.3h185.4v-46.3H321.3z"/>
<path class="st3" d="M321.3,721.9H134.4l1.2,50.3h185.5v-50.3H321.3z"/>
<path class="st3" d="M179.5,721.9H177v235h2.5V721.9z"/>
<path class="st2" d="M612,721.9H325.8v235H612V721.9z"/>
<path class="st3" d="M612,729.7H325.8V776H612V729.7z"/>
<path class="st3" d="M612,721.9H325.8v50.3H612V721.9z"/>
<path class="st3" d="M470.3,721.9h-2.5v235h2.5V721.9z"/>
<path class="st3" d="M198.6,801h-8.1v46.3h8.1V801z"/>
<path class="st3" d="M168.4,801h-8.1v46.3h8.1V801z"/>
<path class="st3" d="M489.4,801h-8.1v46.3h8.1V801z"/>
<path class="st3" d="M459.1,801H451v46.3h8.1V801z"/>
<path class="st4" d="M616,701.1H134.4v20.7h481.5v-20.7H616z"/>
<path class="st2" d="M268.5,739H235v5.8h33.5V739z"/>
<path class="st2" d="M413.4,739h-33.5v5.8h33.5V739z"/>
<path class="st2" d="M558.3,739h-33.5v5.8h33.5V739z"/>
<path class="st3" d="M353.4,323.9h-51.2v170.2h51.2V323.9z"/>
<path class="st4" d="M325.5,323.9h-39.8L154.6,494.2h171V323.9H325.5z"/>
<path class="st2" d="M200.8,323.9h-2.3v170.2h2.3V323.9z"/>
<path class="st2" d="M216.5,438.9h-7.1v40.8h7.1V438.9z"/>
<path class="st2" d="M190,438.9h-7.1v40.8h7.1V438.9z"/>
<path class="st4" d="M581,323.9H329.5v170.2H581V323.9z"/>
<path class="st2" d="M456.5,323.9h-2.3v170.2h2.3V323.9z"/>
<path class="st2" d="M472.2,438.9h-7.1v40.8h7.1V438.9z"/>
<path class="st2" d="M445.6,438.9h-7.1v40.8h7.1V438.9z"/>
<path class="st2" d="M581,494.3H154.5l-7,9.2h433.7v-9.2H581z"/>
<path class="st4" d="M581,499.5H150.4l-3,3.9H581V499.5z"/>
<path class="st5" d="M1337.8,425.7h-240.6v531.1h240.6V425.7z"/>
<path class="st3" d="M1319.7,956.8h-237.8c-0.7,0-1.5-0.6-1.5-1.3v-32.2c0-0.7,0.6-1.3,1.5-1.3h237.8c0.7,0,1.5,0.6,1.5,1.3v32.2
	C1321.1,956.2,1320.5,956.8,1319.7,956.8z"/>
<path class="st4" d="M1321.1,425.7h-240.7v518.7h240.7V425.7z"/>
<path class="st2" d="M1321.1,753.3h-240.7v5h240.7V753.3z"/>
<path class="st2" d="M1107.6,615.7h-12.8V738h12.8V615.7z"/>
<path class="st2" d="M1107.6,768.9h-12.8v122.3h12.8V768.9z"/>
<path class="st6" d="M302,560.7H169c-1.9,0-3.5-1.6-3.5-3.5V547c0-1.9,1.6-3.5,3.5-3.5h133c1.9,0,3.5,1.6,3.5,3.5v10.2
	C305.5,559.1,304,560.7,302,560.7z"/>
<path class="st7" d="M190.8,589.5h-7.5v8.6h7.5V589.5z"/>
<path class="st7" d="M187,589.5h-3.7v8.6h3.7V589.5z"/>
<path class="st2" d="M218,627.7c0,17.1-13.9,31-31,31s-31-13.9-31-31s13.9-31,31-31S218,610.7,218,627.7z"/>
<path class="st4" d="M211.9,627.7c0,13.8-11.1,24.9-24.9,24.9s-24.9-11.1-24.9-24.9s11.1-24.9,24.9-24.9S211.9,613.9,211.9,627.7z"
	/>
<path class="st8" d="M192.1,555c-0.4-2.4-2.5-4.2-5.1-4.2c-2.7,0-4.8,1.8-5.1,4.2l0,0v34.5h10.3L192.1,555L192.1,555z M187,557.3
	c-1,0-1.8-0.8-1.8-1.8c0-1,0.8-1.8,1.8-1.8c1,0,1.8,0.8,1.8,1.8C188.8,556.6,188,557.3,187,557.3z"/>
<path class="st7" d="M246.3,582.1h-5.8v6.7h5.8V582.1z"/>
<path class="st7" d="M243.4,582.1h-2.9v6.7h2.9V582.1z"/>
<path class="st2" d="M267.6,611.4c0,13.2-10.8,23.9-23.9,23.9s-23.9-10.8-23.9-23.9c0-13.2,10.8-23.9,23.9-23.9
	C256.8,587.4,267.6,598.2,267.6,611.4z"/>
<path class="st4" d="M243.6,630.7c10.6,0,19.4-8.7,19.4-19.4c0-10.6-8.7-19.4-19.4-19.4c-10.6,0-19.4,8.7-19.4,19.4
	C224.3,622.1,233,630.7,243.6,630.7z"/>
<path class="st8" d="M247.2,555.4c-0.2-1.8-1.9-3.3-4-3.3c-2.1,0-3.7,1.5-4,3.3l0,0v26.7h8L247.2,555.4L247.2,555.4z M243.4,557.2
	c-0.7,0-1.3-0.6-1.3-1.3s0.6-1.3,1.3-1.3c0.7,0,1.3,0.6,1.3,1.3C244.7,556.6,244.1,557.2,243.4,557.2z"/>
<path class="st2" d="M187.5,555.7c0,0.2-0.2,0.5-0.5,0.5c-0.2,0-0.5-0.2-0.5-0.5v-7c0-0.2,0.2-0.5,0.5-0.5c0.2,0,0.5,0.2,0.5,0.5
	V555.7z"/>
<path class="st2" d="M243.8,555.7c0,0.2-0.2,0.5-0.5,0.5c-0.2,0-0.5-0.2-0.5-0.5v-7c0-0.2,0.2-0.5,0.5-0.5c0.2,0,0.5,0.2,0.5,0.5
	V555.7z"/>
<path class="st2" d="M288.7,555.7c0,0.2-0.2,0.5-0.5,0.5c-0.2,0-0.5-0.2-0.5-0.5v-7c0-0.2,0.2-0.5,0.5-0.5c0.2,0,0.5,0.2,0.5,0.5
	V555.7z"/>
<path class="st1" d="M1535.3,1126.1H98.3c-0.5,0-0.7-0.4-0.7-0.7c0-0.4,0.4-0.7,0.7-0.7h1437.2c0.5,0,0.7,0.4,0.7,0.7
	C1536.3,1125.8,1535.8,1126.1,1535.3,1126.1z"/>
<path class="st1" d="M936.6,643.9h22.3l-67.2,480.5h-8.7L936.6,643.9z"/>
<path class="st1" d="M1271.9,1124.7h-8.7l-67.2-480.8h22.3L1271.9,1124.7z"/>
<path class="st9" d="M882.9,1124.4h3.7l57.8-467.1c0.5-3.3,3-5.9,6.3-6l7.3-0.7l1-6.5h-22.3L882.9,1124.4z"/>
<path class="st9" d="M1266.4,1124.7l-59.9-466.9c-0.5-3.4,1.8-6.7,5.2-7.4l7.1-1.5l-0.6-5.2h-22.3l67.2,480.8L1266.4,1124.7
	L1266.4,1124.7L1266.4,1124.7z"/>
<path class="st1" d="M868.3,643.9h22.3l-67.1,480.6h-8.7L868.3,643.9z"/>
<path class="st1" d="M1203.4,1124.7h-8.7l-67.1-480.8h22.3L1203.4,1124.7z"/>
<path class="st9" d="M814.7,1124.6h3.7l22.6-172c0,0,0,0,6.9-4l41.6-298.1l1-6.5h-22.3L814.7,1124.6z"/>
<path class="st9" d="M1197.9,1124.7l-22-170.7c7.9-5.4,7.9-5.4,7.9-5.4l-34-304.8h-22.3l67.1,480.8L1197.9,1124.7L1197.9,1124.7
	L1197.9,1124.7L1197.9,1124.7z"/>
<path class="st9" d="M1257.5,635.5c0,4.6-3,8.5-6.9,8.5h-208c-3.7,0-6.9-3.7-6.9-8.5c0-4.6,3-8.5,6.9-8.5h208
	C1254.4,627,1257.5,630.7,1257.5,635.5z"/>
<path class="st1" d="M1097.5,635.5c0,4.6-3.7,8.5-8.5,8.5H831.6c-4.6,0-8.5-3.7-8.5-8.5c0-4.6,3.7-8.5,8.5-8.5h257.5
	C1093.7,627,1097.5,630.7,1097.5,635.5z"/>
<path class="st1" d="M603.8,881.1h18.5l-37.4,243.5h-7.3L603.8,881.1z"/>
<path class="st9" d="M577.8,1124.6h3.1l29.5-232.2c0.4-2.8,2.5-4.8,5.3-5.1l6-0.6l0.7-5.4H604L577.8,1124.6z"/>
<path class="st1" d="M546.8,881.1h18.6l-37.4,243.5h-7.3L546.8,881.1z"/>
<path class="st1" d="M760,1124.7h-7.3l-52.6-239h18.5L760,1124.7z"/>
<path class="st9" d="M520.8,1124.6h3.1l19-144.2c0,0,0,0,5.8-3.3l16-90.6l0.7-5.4h-18.5L520.8,1124.6z"/>
<path class="st9" d="M755.4,1124.7l-30.1-144l7.5-1.7l-20.7-93.4h-12l52.6,239L755.4,1124.7L755.4,1124.7z"/>
<path class="st9" d="M541.9,662.9h161.9c4.1,0,7.4,3.3,7.4,7.4v222.1c0,4.1-3.3,7.4-7.4,7.4H541.9c-4.1,0-7.4-3.3-7.4-7.4V670.3
	C534.5,666.2,537.7,662.9,541.9,662.9z"/>
<path class="st1" d="M541.5,663.9c3.9,0,7,3.1,7,7v227.7c0,0-3.1,0-7,0s-7-3.1-7-7V670.9C534.5,667,537.6,663.9,541.5,663.9z"/>
<path class="st9" d="M766.1,892.7c0,3.9-3.1,7-7,7H645.4c-3.9,0-7-3.1-7-7s3.1-7,7-7h113.7C762.9,885.7,766.1,888.8,766.1,892.7z"/>
<path class="st1" d="M680.3,891.7c0.6,4.4-2.7,8.1-7,8.1H541.5c-3.9,0-7-3.1-7-7c0-3.9,3.1-7,7-7h131.6
	C676.6,885.7,679.9,888.1,680.3,891.7z"/>
<path class="st10" d="M731.3,696.2l13.1,62.6l-5.4,46.4l-14.9,0.6l-30.4-102L731.3,696.2z"/>
<path class="st11" d="M655.4,673.9c-1-0.2-1.8-0.6-2.8-1c-1-0.4-1.9-0.7-2.8-1.1c-0.6-0.2-1.3-0.5-1.9-0.7s-1.3-0.4-1.9-0.6
	c-1.2-0.2-2.5-0.5-3.9-0.6c-0.7,0-1.3-0.1-2.1-0.1c-0.7,0-1.5,0-2.2,0c-1,0-1.9,0.1-3,0.2c-1.1,0.1-2.2,0.2-3.1,0.5
	c-1.3,0.2-2.7,0.5-4,0.7c-0.7,0.1-1.3,0.2-2.1,0.4c-10.9,1.7-17.2-5.8-16.1-4.7l-0.1-0.1c0,0-0.1-0.1-0.1,0l-0.1-0.1
	c-2.5-2.4-3.6-4.2-8.3-8c-2.9-2.3-4.8-3.4-6.3-4.8c-2.3-2.2-4.7-7.6-4.2-14.8c0.1-1,0.2-2.7,0.6-4c0.7-3.4,1.8-5.9,2.4-8.7
	c0.8-3.7,0.7-5.3,0.7-6.5c-0.2-2.9-0.8-4.8-0.8-4.7c-1.1-3.3-6.4-14.6-2.5-22.5c3-6,13.8-11.9,13.8-11.9
	c16.7-10.8,13.1-18.5,22.9-28.1c7.5-7.3,23.7-10.5,31.4-7.5c0.7,0.2,2.9-0.6,4.7-1.2c3.7-1.2,6.7-1.9,13.3,1.2
	c2.3,1.1,4.6,2.8,6.5,4.4c10.4,8.6,9.7,16.7,11.9,23.7c0,0,0,0,0-0.1c0.4,1.2,0.8,2.3,1.3,3.5c0.6,1.3,1.3,2.5,2.1,3.7
	c3.5,5.6,12.2,13.5,8.2,30.4c-1.8,7.6-5.4,10.2-3.9,20.1c0.5,2.7,1.5,5.7,1.3,5.3c0.8,2.4,1.6,4.8,2.2,7.4c0.1,0.6,0.2,1.3,0.4,1.9
	c0.1,0.7,0.2,1.3,0.2,2.1c0.5,5.8-1.3,9.4-6.5,13.5c-0.6,0.5-1.1,0.8-1.7,1.2c-0.6,0.4-1.2,0.7-1.8,1c-2.2,1.1-4.7,1.7-7.1,2.2
	c-1.2,0.2-2.4,0.5-3.6,0.8C672,670.2,667.9,677.8,655.4,673.9z"/>
<path class="st12" d="M945,1038.1c0,0,11.1,33,15.2,43.7c3.3,8.3,14.9,13.5,18.3,14.6c0.1,0,0.1,0,0.2,0.1l39.9,15.2
	c3.9,1.3-0.7,8.7-0.7,8.7c-0.8,1.1-2.1,1.7-3.6,1.5c-1.1-0.1-1.9-0.8-2.8-1.5c-0.1-0.1-0.2-0.1-0.2-0.1h-0.7c-0.1,0-0.2,0.1-0.4,0.2
	c-0.7,0.8-1.8,1.3-2.8,1.3c-1,0-2.4-0.5-3.1-1.3c-0.4-0.4-1-0.2-1.3,0.1c-0.6,0.7-1.5,1.1-2.4,1.1c-0.8,0-1.9-0.4-2.7-1
	c-0.4-0.2-1-0.2-1.3,0.1c-0.5,0.5-1.3,0.8-2.1,0.8c-1.2,0-2.2-0.6-2.7-1.6h-0.4l-56.7-0.8h3c-6.2-0.1-14.2-5.1-14.4-11.2l-0.2-4.1
	c-0.2-5.1-21-65.4-21-65.4L945,1038.1z"/>
<path class="st11" d="M1027,1119.4c-0.2-5.6-3.7-10.5-9.1-12.3l-37.3-11.4c-1.5-0.5-2.8,0.2-3.3,1.7c-1.5,4.7-5,14.9-11.9,22
	l-40-0.1c-1.5,0-2.7,1.2-2.7,2.5c0,1.5,1.2,2.7,2.7,2.7l99.1,0.1c1.5,0,2.5-1.2,2.5-2.5L1027,1119.4L1027,1119.4z"/>
<path class="st13" d="M1027,1119.4c-0.1-4.5-2.4-8.3-6-10.9c4.6,3.3,3.7,6.7-2.8,6.4c-34.3-1.7-43.5-1.7-47.5-2.1
	c0.1-0.1,0.1-0.2,0.1-0.4c-1.6,2.3-3.1,4.7-5.2,6.8h-40.2c-1.5,0-2.7,1.2-2.7,2.5c0,1.5,1.2,2.7,2.7,2.7h99.2c1.5,0,2.7-1.2,2.7-2.7
	v-2.4H1027L1027,1119.4L1027,1119.4z"/>
<path class="st13" d="M1027,1117.4l-60.7,1.2l-0.8,0.8l61.6-1.2V1117.4z"/>
<path class="st14" d="M1019.8,1116.2c-0.6,0.7-1.5,1.1-2.4,1.1c-0.8,0-1.9-0.4-2.7-1c-0.4-0.2-1-0.2-1.3,0.1
	c-0.5,0.5-1.3,0.8-2.1,0.8c-1.2,0-2.2-0.6-2.7-1.6h-0.4l-56.7-0.8h3c-6.2-0.1-14.2-5.1-14.3-11.2l-0.2-4.1
	c-0.2-4.2-14.8-47-19.5-61.1l-18.4,0.4c0,0,20.8,60.4,21,65.4l0.2,4.1c0.2,6.2,8.2,11.1,14.3,11.2h-3l56.7,0.8h0.4
	c0.5,1,1.5,1.6,2.5,1.6c0.7,0,1.6-0.4,2.1-0.8c0.4-0.4,1-0.4,1.3-0.1c0.8,0.6,1.9,1,2.7,1c1,0,1.8-0.4,2.4-1.1
	c0.4-0.4,1-0.5,1.3-0.1c0.8,0.8,2.2,1.3,3.1,1.3c1.1,0,2.2-0.5,2.8-1.3c0.1-0.1,0.2-0.2,0.4-0.2h0.7c0,0,0.1,0,0.1,0.1
	c0.8,0.6,1.7,1.3,2.8,1.5c1.6,0.2,2.8-0.4,3.6-1.5C1017.9,1120.6,1019.2,1118.4,1019.8,1116.2
	C1020,1116.1,1019.8,1116.2,1019.8,1116.2z"/>
<path class="st12" d="M817.3,1039.3l-2.4,42c-0.7,10.4,7.9,14.5,17.8,17.9c0.1,0,0.1,0,0.2,0.1l39.3,13.1c3.7,1.3-0.7,8.5-0.7,8.5
	c-0.8,1.1-2.1,1.7-3.6,1.5c-1-0.1-1.8-0.7-2.7-1.3c-0.1-0.1-0.1-0.1-0.1-0.1h-0.7c-0.1,0-0.2,0.1-0.4,0.2c-0.7,0.8-1.7,1.3-2.8,1.3
	c-1,0-2.3-0.5-3.1-1.3c-0.4-0.4-1-0.2-1.2,0.1c-0.6,0.7-1.3,1.1-2.3,1.1c-0.8,0-1.8-0.4-2.7-1c-0.4-0.2-1-0.2-1.2,0.1
	c-0.5,0.5-1.3,0.8-1.9,0.8c-1.1,0-2.1-0.6-2.5-1.5h-0.4l-55.6-0.8h-0.8c-6-0.1-12.8-5-13.1-10.9l-0.2-4c-0.2-5-0.8-62.7-0.8-62.7
	L817.3,1039.3z"/>
<path class="st11" d="M880.3,1119.7c-0.2-5.4-3.6-10.3-8.8-12.1l-36.4-11c-1.3-0.5-2.8,0.2-3.3,1.6c-1.3,4.6-4.8,14.5-11.6,21.5
	l-39.1-0.1c-1.3,0-2.5,1.1-2.5,2.5s1.1,2.5,2.5,2.5l96.6,0.1c1.3,0,2.5-1.1,2.5-2.5L880.3,1119.7L880.3,1119.7z"/>
<path class="st13" d="M880.3,1119.7c-0.1-4.4-2.4-8.2-5.9-10.6c4.5,3.3,3.7,6.4-2.8,6.2c-33.5-1.6-42.5-1.6-46.4-1.9
	c0.1-0.1,0.1-0.2,0.1-0.4c-1.5,2.3-3.1,4.6-5.1,6.5H781c-1.3,0-2.5,1.1-2.5,2.5s1.1,2.5,2.5,2.5h96.8c1.3,0,2.5-1.1,2.5-2.5
	L880.3,1119.7L880.3,1119.7L880.3,1119.7z"/>
<path class="st13" d="M880.3,1117.8l-59.3,1.1l-0.8,0.8l60.1-1.2V1117.8z"/>
<path class="st14" d="M872.4,1117.8c-0.5,0.5-1.2,0.8-1.9,0.8c-1.1,0-2.1-0.6-2.5-1.5h-0.4l-55.6-0.8h-1c-6-0.1-12.8-5-13.1-10.9
	l-0.2-4c-0.2-4.4-0.7-50.2-0.8-60.6l-21.8,1.6c0,0,0.6,57.8,0.8,62.7l0.2,4c0.2,5.9,7.1,10.8,13.1,10.9h0.8l55.6,0.8h0.4
	c0.5,1,1.3,1.5,2.5,1.5c0.7,0,1.5-0.4,1.9-0.8c0.4-0.4,1-0.4,1.2-0.1c0.8,0.6,1.8,1,2.7,1c1,0,1.7-0.4,2.3-1.1
	c0.4-0.4,1-0.5,1.2-0.1c0.8,0.8,2.1,1.2,3.1,1.2c1.1,0,2.1-0.5,2.8-1.2c0.1-0.1,0.2-0.2,0.4-0.2h0.7c0,0,0.1,0,0.1,0.1
	c0.8,0.6,1.7,1.2,2.7,1.5c1.6,0.2,2.8-0.4,3.6-1.5c0,0,1-1.6,1.6-3.3C872.9,1117.5,872.6,1117.7,872.4,1117.8z"/>
<path class="st15" d="M666.2,638.4h10.5l18.6,3.3c0.7,1,8.6-0.1,9.9,10.8c0.1,1.7,0.4,3.4,0.6,5.1c2.5,24.9,13.5,31.8,15.4,47.5
	c2.5,22.5-18.7,26.7-21,51.2c-3.9,41.6,1.7,64.3,1.7,64.3H570c0,0-0.4-0.8,0.2-4.7c0.5-3.3,1.6-8.6,3.9-17.2c5.6-20.6-1-77.6-1-77.6
	l-6.7-36.5c-4.1-22.9,12.6-44.3,35.8-45.7L666.2,638.4z"/>
<path class="st15" d="M676.7,638.4l16.9-0.2c14.8-0.8,27.9,9.2,31.1,23.7l11.9,60.1l-23.8,3L676.7,638.4z"/>
<path class="st16" d="M728.5,820.4h121.2c12.1,0,22.7,7.7,26.4,19.2l79.3,229h-43.3c0,0-19.1-44.6-42.9-78.6
	c-25.3-36-44.9-101-44.9-101h-193c-17.5,0-31.8-14.3-31.8-31.8v-36.8H728.5z"/>
<path class="st14" d="M869.3,989.9c22.9,34.6,42.9,78.6,42.9,78.6h19l-82.1-229c-3.7-11.5-14.4-19.2-26.4-19.2h-94.2h-27H599.4v36.8
	c0,17.5,14.3,31.8,31.8,31.8h166.1h27C824.3,889,842.3,949.2,869.3,989.9z"/>
<path class="st17" d="M693.6,792.6l11,1.5l23.6-2.1c2.5,0.2,3.6,0.7,5.4,2.3l14.5,12.9c1,0.8,1,2.3,0.2,3.1c-0.7,1-2.2,1.2-3.1,0.4
	l-13.8-10l9,10.5c1,1.2,0.5,3-1,3.6c-0.8,0.4-1.7,0.1-2.3-0.5l-12-11.7l9.1,9c1.1,1.1,0.7,2.9-0.7,3.4c-0.7,0.4-1.5,0.1-2.1-0.2
	l-12.7-9.3l8.6,6.4c1,0.7,1,2.3,0,2.9c-0.5,0.4-1.2,0.5-1.8,0.2l-11.6-4.8c-1.1-0.5-2.4-0.5-3.5,0.1l-4.5,2.2
	c-3.6,1.8-7.6,2.8-11.6,2.8h-7.3C677.1,815.2,693.6,792.6,693.6,792.6z"/>
<path class="st18" d="M727.5,812.3c-0.1,0-0.1,0-0.2-0.1l-7.9-5.8c-0.1-0.1-0.2-0.4-0.1-0.6c0.1-0.2,0.4-0.2,0.6-0.1l7.9,5.8
	c0.1,0.1,0.2,0.4,0.1,0.6C727.8,812.2,727.5,812.3,727.5,812.3z"/>
<path class="st18" d="M734.3,812c-0.1,0-0.2,0-0.2-0.1l-8.6-8.3c-0.1-0.1-0.1-0.4,0-0.5c0.1-0.1,0.4-0.1,0.6,0l8.6,8.3
	c0.1,0.1,0.1,0.4,0,0.5C734.5,812,734.3,812,734.3,812z"/>
<path class="st18" d="M716.7,808.9c2.7,1.3,7,3.6,8.6,4.5c2.2,1.2,2.8-0.4,2.8-0.4c0.1,0.7-0.1,1.5-0.7,1.9
	c-0.6,0.4-1.2,0.5-1.8,0.2l-11.6-4.8c-1.1-0.5-2.4-0.5-3.5,0.1l2.3-1.3C714.1,808.3,715.4,808.3,716.7,808.9z"/>
<path class="st17" d="M693.6,792.6l-78.1-17.9l-6.2-49.5h-35.6l8.7,50.6c2.4,15.7,6,28.8,21.9,30.5l83,9L693.6,792.6z"/>
<path class="st11" d="M674.5,815.2h93.1c0.7,0,1.5,0.6,1.5,1.5v2.4c0,0.7-0.6,1.5-1.5,1.5h-93.1c-0.7,0-1.5-0.6-1.5-1.5v-2.4
	C673.1,815.9,673.7,815.2,674.5,815.2z"/>
<path class="st19" d="M674.5,815.2h93.1c0.7,0,1.5,0.6,1.5,1.5v2.4c0,0.7-0.6,1.5-1.5,1.5h-93.1c-0.7,0-1.5-0.6-1.5-1.5v-2.4
	C673.1,815.9,673.7,815.2,674.5,815.2z"/>
<path class="st11" d="M737.3,815.2h162.4c0.7,0,1.5,0.6,1.5,1.5v2.4c0,0.7-0.6,1.5-1.5,1.5H737.3c-0.7,0-1.5-0.6-1.5-1.5v-2.4
	C736,815.9,736.6,815.2,737.3,815.2z"/>
<g class="st20">
	<path class="st19" d="M897.7,816.1H732.3c-0.2,0-0.5-0.2-0.5-0.5c0-0.2,0.2-0.5,0.5-0.5h165.3c0.2,0,0.5,0.2,0.5,0.5
		C898.2,816,897.9,816.1,897.7,816.1z"/>
</g>
<path class="st11" d="M736.9,815.2h24.4c1.9,0,3.5-1.3,3.9-3.3l20.6-107.8c0.5-2.4-1.5-4.6-3.9-4.6h-24.4c-1.9,0-3.5,1.3-3.9,3.3
	l-20.4,107.8C732.7,813,734.5,815.2,736.9,815.2z"/>
<path class="st19" d="M736.9,815.2h24.4c1.9,0,3.5-1.3,3.9-3.3l20.6-107.8c0.5-2.4-1.5-4.6-3.9-4.6h-24.4c-1.9,0-3.5,1.3-3.9,3.3
	l-20.4,107.8C732.7,813,734.5,815.2,736.9,815.2z"/>
<path class="st11" d="M740.5,815.2h157.1c1.9,0,3.5-1.3,3.9-3.3L922,704.1c0.5-2.4-1.5-4.6-3.9-4.6h-157c-1.9,0-3.5,1.3-3.9,3.3
	l-20.6,107.8C736.2,813,738,815.2,740.5,815.2z"/>
<path class="st19" d="M830.2,754.3c-1,2.2,0.1,4.1,2.3,4.1c0.1,0,0.2,0,0.4,0c-2.5,2.8-6.4,4.8-9.8,4.7c-4.6-0.1-6.8-3.9-4.7-8.5
	c1.9-4.6,7.5-8.2,12.1-8.1c2.9,0.1,5,1.6,5.3,4C833.6,750.6,831.2,752.2,830.2,754.3z"/>
<path class="st14" d="M603.9,682.1l10.6,41.5c2.7,10.3,13.2,16.4,23.5,13.7l-3.5,3.4c-7.9,7.7-11.6,18.6-10.3,29.5l0.8,6.5
	l68.7,15.7l-78.1-17.9L603.9,682.1z"/>
<path class="st16" d="M812.5,825.1c-4.5-3-9.8-4.7-15.4-4.7H570v34.1c0,19,15.5,34.5,34.5,34.5h159.2c-0.7,10.9-2.4,46.9,5.4,96.6
	c5.8,37.4,6.3,82.7,6.3,82.7l40.2,0.5l13.2-212.1C829.3,847.1,826.2,832.7,812.5,825.1z"/>
<path class="st11" d="M652.2,637.1c6.9,0,12.5-5.6,12.5-12.5s-5.6-12.5-12.5-12.5s-12.5,5.6-12.5,12.5
	C639.6,631.5,645.3,637.1,652.2,637.1z"/>
<path class="st21" d="M629.1,588.5l-6.2,42.7c-0.5,3.4-3.3,6.2-6.7,6.7l-5.1,0.8l10.4,8.1c10.4,8.2,23.9,11,36.5,7.7
	c2.3-0.6,4.6-1.3,6.8-2.4l6-2.4c0,0-0.6-5.8-2.2-11.2c-0.6-2.2-0.8-3.7-0.8-6.3c0-11.9,0.1-46.9,0.1-46.9L629.1,588.5z"/>
<path class="st21" d="M655.3,626.9l-2.1-0.1c-14.8-1.1-25.6-13.8-24.6-28.4l2.8-37.3c0.4-5,4.6-8.5,9.6-8.2l34.8,2.4
	c6.3,0.5,11.1,6,10.6,12.3l-2.5,34.6C682.6,616.9,669.9,628,655.3,626.9z"/>
<path class="st11" d="M659.3,594.7c1.6,0,2.9-1.3,2.9-2.9s-1.3-2.9-2.9-2.9c-1.6,0-2.9,1.3-2.9,2.9
	C656.4,593.4,657.7,594.7,659.3,594.7z"/>
<path class="st2" d="M660.6,592c0.4,0,0.6-0.2,0.6-0.6c0-0.4-0.2-0.6-0.6-0.6c-0.4,0-0.6,0.2-0.6,0.6C660,591.8,660.3,592,660.6,592
	z"/>
<path class="st11" d="M681.6,597.2c1.6,0,2.9-1.3,2.9-2.9c0-1.6-1.3-2.9-2.9-2.9c-1.6,0-2.9,1.3-2.9,2.9
	C678.6,596,680,597.2,681.6,597.2z"/>
<path class="st2" d="M682.9,594.4c0.4,0,0.6-0.2,0.6-0.6c0-0.4-0.2-0.6-0.6-0.6c-0.4,0-0.6,0.2-0.6,0.6
	C682.3,594.2,682.5,594.4,682.9,594.4z"/>
<g class="st22">
	<path class="st14" d="M667.2,604.1l-3.9-0.1c-0.5,0-0.8-0.5-0.8-0.8c0-0.5,0.5-0.8,0.8-0.8l3.9,0.1c1,0,1.8-0.7,1.8-1.7
		c0-1-0.7-1.8-1.7-1.9c-0.5,0-0.8-0.5-0.8-0.8c0-0.5,0.5-0.8,0.8-0.8c1.9,0.1,3.4,1.7,3.4,3.5C670.7,602.7,669.1,604.2,667.2,604.1z
		"/>
</g>
<path class="st14" d="M667.6,624.8c-4.4,1.9-9.1,2.4-14,2.2c-1.1-0.1-2.2-0.2-3.3-0.4c-0.4,0-0.8-0.1-1.2-0.2c-0.1,0-0.1,0-0.2,0
	c-0.6-0.2-1.2-0.2-1.8-0.5c-0.2,0-0.5-0.2-0.7-0.2c-4.1-1.2-7-3-9-4.4c-0.4-0.2-0.8-0.2-1.1,0.1c-0.2,0.4-0.2,0.8,0.1,1.1
	c2.4,1.8,6.3,4.1,11.6,5.3c2.7,2.4,7.1,5.7,13.4,6.4c2.1,0.2,4.1,0.2,6,0v-9.4H667.6z"/>
<path class="st2" d="M681.1,580.3c-3.6-0.1-6.9,1.5-9.2,4c-3-1.5-5.9-1.1-7.1-0.7c-1.7-3.9-5.6-6.5-10-6.8
	c-6.4-0.2-11.7,4.8-12.1,11.1c-0.2,6.4,4.8,11.7,11.1,12c6.4,0.2,11.7-4.7,12.1-11.1c0-1.3-0.2-2.5-0.5-3.7c1.1-0.2,3.4-0.5,5.7,0.6
	c-1.2,1.7-1.8,3.7-1.9,5.9c-0.2,6.4,4.8,11.7,11.1,12.1c6.4,0.2,11.7-4.8,12-11.1C692.7,586.1,687.6,580.7,681.1,580.3z
	 M654.1,598.6c-5.6-0.1-9.8-4.8-9.7-10.4c0.1-5.6,4.8-9.8,10.4-9.7s9.8,4.8,9.7,10.4C664.3,594.3,659.5,598.8,654.1,598.6z
	 M680.3,602.1c-5.6-0.1-9.8-4.8-9.7-10.4c0.1-5.6,4.8-9.8,10.4-9.7s9.8,4.8,9.7,10.4C690.6,598,685.9,602.2,680.3,602.1z"/>
<path class="st21" d="M659.7,690.2c0,0,0.1-0.1,0.2-0.4c-0.1,0.1-0.2,0.1-0.4,0.2C659.5,690,659.7,690.1,659.7,690.2z"/>
<path class="st21" d="M673.7,668.5c4.8-7.1-1.2-20.1-5.2-30.1l-57.4,0.4c2.7,6.5,7,14.6,12.1,20.8c5,6,12,10.5,18.6,14.6l28.2-0.1
	C671.3,672.1,672.6,670.3,673.7,668.5z"/>
<path class="st11" d="M641.8,674.2c8.3,5.2,19.4,9.4,21,15.6c0.1-0.1,0,0,0.1-0.1c1.1-1.8,2.5-9,7-15.6L641.8,674.2z"/>
<path class="st11" d="M629.9,560.2c-0.2-8,2.5-2.5,6.5-7.3c3.9-4.7,25.3-4.1,25.3-4.1c4,1.8,5.9,5.8,3.7,12.8
	c-8.2,28.3-35.6,20.8-35.6,20.8V560.2z"/>
<path class="st21" d="M630.8,600c0,0-12.7,0.6-15-12c-2.3-12.7,13.4-14.5,15.1-1.7l1.2,13.9L630.8,600z"/>
<path class="st14" d="M620,581.5c1.5-1,2.7-1.1,3.9-0.8c1.2,0.2,2.2,1.1,3,2.5c0.8,1.5,1.3,3.1,1.2,5v1.3c0,1-1.7,1.2-1.7,0
	c-0.1-1.5-0.1-1.5-0.1-1.5c0-0.5-0.1-2.8-1-4.1c-0.6-1-1.2-1.6-1.9-1.8c-0.7-0.2-1.6,0-2.7,0.6c-0.4,0.2-0.8,0.1-1.2-0.2
	C619.4,582.2,619.5,581.8,620,581.5z"/>
<path class="st8" d="M627.5,597.8c1.3,0,2.5-1.1,2.5-2.5c0-1.5-1.1-2.5-2.5-2.5c-1.5,0-2.5,1.1-2.5,2.5
	C624.9,596.7,626.2,597.8,627.5,597.8z"/>
<path class="st14" d="M628.3,597.7c-1.6,0-2.8-1.3-2.7-2.8c0-0.5,0.2-1.1,0.5-1.5c-0.6,0.4-1.1,1.2-1.2,2.1c0,1.5,1,2.5,2.4,2.5
	c0.5,0,1.1-0.1,1.5-0.5C628.7,597.6,628.5,597.6,628.3,597.7z"/>
<path class="st11" d="M690.5,574.9c4.2-27.5-20.4-23.8-20.4-23.8c-2.5,0.4-4,2.2-4.4,6.5c-1.1,12.6,10.2,17.7,16.2,17.7
	C684.1,575.2,690.5,574.9,690.5,574.9z"/>
<path class="st10" d="M715.5,792l14.5-5.8c1.7-0.7,6.2-0.7,7.6,0.4l-0.4,2.8l-5.6,5.3L715.5,792z"/>
<path class="st10" d="M629.2,777.9l76,15.7c0.4,0,1,0,1.3-0.1l23.3-4.2c2.5-0.4,5-0.4,7.4,0l17.8,10.8c2.1,1.1,1.8,2.9,1.8,2.9
	c-0.1,1.3-1.2,2.2-2.4,1.9l-16-7.9l16.2,8.1c1.3,0.5,2.1,1.8,1.6,3.3c-0.5,1.3-1.7,2.1-3,1.7l-16.1-4.5l15.1,4.2
	c1.2,0.4,2.2,1.6,1.9,2.9c-0.1,1.3-1.3,2.4-2.8,2.2l-15.1-1.6l11.9,1.3c1.1,0.1,1.9,1.2,1.8,2.3c-0.1,1.1-1,2.1-2.3,1.9l-45.8-1.6
	l-73.7-8.6L629.2,777.9z"/>
<path class="st14" d="M750,817c-0.1,1.1-1,2.1-2.2,1.9l-45.8-1.6l-73.9-8.3l-20.8-2.4c0,0-1.8-0.1-2.4-0.2
	c-7-1.2-15.4-2.8-19.8-18.6l-11.1-62.4h11.9l7.3,46.9c2.3,15,6.3,26.6,21.2,28.7l90.7,12.6L750,817z"/>
<path class="st14" d="M719.4,790.4l11-4.4c2.3-1,7.3,0.5,7.3,0.5l0.8-4.1L732,782c-1.2-0.1-2.4,0.4-3.4,1.1L719.4,790.4z"/>
<path class="st2" d="M666.4,607.9c0.1-1.2-4.7-2.4-6.9-2.5c-2.2-0.1-5.3-2.5-5.4-1.3c-0.1,1.2,0.7,4.1,5.1,5.7
	C661.2,610.5,666.3,609.1,666.4,607.9z"/>
<path class="st9" d="M1104.4,627H1090c-1.1,0-2.1-0.6-2.7-1.5c-4.5-7.1-8.3-26-8.6-44.9c0-1.2,1-2.3,2.3-2.3h32.7
	c1.2,0,2.3,1,2.3,2.3c-0.4,17.8-4.4,36.9-8.7,44.6C1106.6,626.4,1105.5,627,1104.4,627z"/>
<g class="st22">
	<path class="st14" d="M1092.8,625.4c-2.1-7.1-3.7-26-3.9-44.9c0-1.2,0.5-2.3,1-2.3h-5.4c-1,0-1.8,1-1.8,2.3
		c0.2,18.9,3.3,37.7,6.8,44.9c0.5,1,1.2,1.5,2.1,1.5h2.4C1093.5,627,1093,626.4,1092.8,625.4z"/>
</g>
<path class="st9" d="M1110.1,615.1c-0.1,0-0.2,0-0.2,0c-1-0.1-1.6-1.1-1.5-1.9c0.4-2.8,3.5-6.5,8.5-12.6c2.3-2.8,4.6-5.6,6.5-8.2
	c1.9-2.8,1.6-5.7,0.7-7.4c-0.6-1.2-1.6-1.9-2.5-1.9c-4.8,0-6.2,3.6-6.9,7.5c-0.2,1-1.1,1.6-2.1,1.5c-1-0.2-1.6-1.1-1.5-2.1
	c0.5-2.5,1.9-10.3,10.3-10.3c2.3,0,4.4,1.5,5.7,3.9c1.3,2.7,1.8,7-1.1,11c-1.9,2.7-4.4,5.6-6.7,8.3c-3.5,4.1-7.5,8.8-7.7,10.9
	C1111.6,614.5,1110.9,615.1,1110.1,615.1z"/>
<path class="st9" d="M1066.8,531.3c-11.1,0.4-21.9,3.3-30.7,4.5c-3.5,0.5-5.7,4.1-4.4,7.5l1.6,4c2.2,5.7,2.5,12,1,17.9l-13.7,50.7
	c-1.6,5.6,2.7,11,8.5,11h37.7c5.8,0,9.9-5.4,8.5-11l-13.7-50.4c-1.7-6.2-1.2-12.6,1.1-18.5l5.6-13.5
	C1068.6,532.4,1067.9,531.2,1066.8,531.3z"/>
<path class="st14" d="M1075.1,615.9l-13.7-50.4c-1.7-6.2-1.2-12.6,1.2-18.5l5.6-13.5c0.4-1-0.4-2.2-1.5-2.2c-1.6,0-3.1,0.1-4.7,0.4
	c0.5,0.4,0.8,1.1,0.5,1.8l-5.3,13.5c-2.3,5.8-2.7,12.3-1.1,18.5l13.1,50.4c1.5,5.6-2.5,11-8.1,11h5.6
	C1072.4,627,1076.7,621.4,1075.1,615.9z"/>
<path class="st9" d="M1026.7,595.4c-0.4,0-0.7-0.1-1.1-0.2c-1.3-0.6-1.8-2.1-1.3-3.4c1.5-3.1-2.3-9.8-5.9-16.1
	c-6.3-11-14.2-24.7-3-34.2c7.6-6.5,17.1-0.5,21.4,4.1c1,1,1,2.7-0.1,3.6c-1,1-2.7,1-3.6-0.1c-0.4-0.4-8.5-8.8-14.4-3.7
	c-7.4,6.3-2.9,15.6,4.1,27.9c4.6,8.1,8.7,15.1,6.2,20.7C1028.7,594.8,1027.7,595.4,1026.7,595.4z"/>
<path class="st15" d="M573.9,725.3c0,0,9.6,39.7,2.1,69.3s-13.3,34.5-7.1,39.3s31.6-15.2,57.7-13.4l-4.2-6.5l-35.6-11.6L573.9,725.3
	z"/>
<path class="st14" d="M603.5,806.1l26.4,2.9l1.7,11.4c0,0-13.1-0.4-22.7,1.6c-12.5,2.5-35.8,14.6-38.7,12.3
	c-2.9-2.3-4.6-2.4-3.1-9.9s11.5-29,9.3-62.3c-2.2-33.3-2.4-36.9-2.4-36.9l11.6,64C587.1,798.2,594.5,805,603.5,806.1z"/>
<path class="st8" d="M692.4,445.1h116c7.9,0,14.2,6.3,14.2,14.2v34c0,7.9-6.3,14.2-14.2,14.2h-100c-0.5,0-1,0-1.6,0
	c-8.2,0.5-15.7,4.7-20.9,11.1l-4.4,5.4h-9.7l6.3-30.7v-34C678.3,451.4,684.7,445.1,692.4,445.1z"/>
<path class="st23" d="M692.4,445.1h116c7.9,0,14.2,6.3,14.2,14.2v34c0,7.9-6.3,14.2-14.2,14.2h-100c-0.5,0-1,0-1.6,0
	c-8.2,0.5-15.7,4.7-20.9,11.1l-4.4,5.4h-9.7l6.3-30.7v-34C678.3,451.4,684.7,445.1,692.4,445.1z"/>
<path class="st8" d="M686.9,445.1h116c7.9,0,14.2,6.3,14.2,14.2v34c0,7.9-6.3,14.2-14.2,14.2h-100c-7,0-13.9,2.5-19.2,7.1l-10.9,9.4
	v-30.7v-34C672.7,451.4,679,445.1,686.9,445.1z"/>
<path class="st24" d="M686.9,445.1h116c7.9,0,14.2,6.3,14.2,14.2v34c0,7.9-6.3,14.2-14.2,14.2h-100c-7,0-13.9,2.5-19.2,7.1
	l-10.9,9.4v-30.7v-34C672.7,451.4,679,445.1,686.9,445.1z"/>
<path class="st2" d="M712.3,483.7c4.4,0,7.9-3.5,7.9-7.9s-3.5-7.9-7.9-7.9c-4.4,0-7.9,3.5-7.9,7.9S707.9,483.7,712.3,483.7z"/>
<path class="st2" d="M744.8,483.7c4.4,0,7.9-3.5,7.9-7.9s-3.5-7.9-7.9-7.9c-4.4,0-7.9,3.5-7.9,7.9S740.6,483.7,744.8,483.7z"/>
<path class="st2" d="M777.3,483.7c4.4,0,7.9-3.5,7.9-7.9s-3.5-7.9-7.9-7.9s-7.9,3.5-7.9,7.9S773.1,483.7,777.3,483.7z"/>
<path class="st8" d="M824,553.3h128c6.4,0,11.6,5.2,11.6,11.6v81.5c0,6.4-5.2,11.6-11.6,11.6H837.1c-0.4,0-0.8,0-1.2,0
	c-6.7,0.4-12.9,3.9-17.1,9.1l-3.5,4.5h-8l5.1-25.2v-81.6C812.5,558.5,817.7,553.3,824,553.3z"/>
<path class="st23" d="M824,553.3h128c6.4,0,11.6,5.2,11.6,11.6v81.5c0,6.4-5.2,11.6-11.6,11.6H837.1c-0.4,0-0.8,0-1.2,0
	c-6.7,0.4-12.9,3.9-17.1,9.1l-3.5,4.5h-8l5.1-25.2v-81.6C812.5,558.5,817.7,553.3,824,553.3z"/>
<path class="st8" d="M818,553.3h128c6.4,0,11.6,5.2,11.6,11.6v81.5c0,6.4-5.2,11.6-11.6,11.6H831c-5.8,0-11.4,2.1-15.7,5.8l-8.8,7.7
	v-25.2v-81.6C806.4,558.5,811.6,553.3,818,553.3z"/>
<path class="st24" d="M818,553.3h128c6.4,0,11.6,5.2,11.6,11.6v81.5c0,6.4-5.2,11.6-11.6,11.6H831c-5.8,0-11.4,2.1-15.7,5.8
	l-8.8,7.7v-25.2v-81.6C806.4,558.5,811.6,553.3,818,553.3z"/>
<path class="st8" d="M922,613.8h-91.4c-2.9,0-5.2-2.3-5.2-5.2v-4.1c0-2.9,2.3-5.2,5.2-5.2H922c2.9,0,5.2,2.3,5.2,5.2v4.1
	C927.2,611.5,924.9,613.8,922,613.8z"/>
<path class="st8" d="M937.1,638h-91.4c-2.9,0-5.2-2.3-5.2-5.2v-4.1c0-2.9,2.3-5.2,5.2-5.2h91.4c2.9,0,5.2,2.3,5.2,5.2v4.1
	C942.3,635.7,939.9,638,937.1,638z"/>
<path class="st8" d="M876.9,627.2h-28.4v2.1h28.4V627.2z"/>
<path class="st8" d="M864.2,632.3h-15.8v2.1h15.8V632.3z"/>
<path class="st8" d="M937.1,589.4h-91.4c-2.9,0-5.2-2.3-5.2-5.2v-4.1c0-2.9,2.3-5.2,5.2-5.2h91.4c2.9,0,5.2,2.3,5.2,5.2v4.1
	C942.3,587.1,939.9,589.4,937.1,589.4z"/>
<path class="st8" d="M922,613.8h-91.4c-2.9,0-5.2-2.3-5.2-5.2v-4.1c0-2.9,2.3-5.2,5.2-5.2H922c2.9,0,5.2,2.3,5.2,5.2v4.1
	C927.2,611.5,924.9,613.8,922,613.8z"/>
<path class="st2" d="M937.1,638h-91.4c-2.9,0-5.2-2.3-5.2-5.2v-4.1c0-2.9,2.3-5.2,5.2-5.2h91.4c2.9,0,5.2,2.3,5.2,5.2v4.1
	C942.3,635.7,939.9,638,937.1,638z"/>
<path class="st2" d="M937.1,589.4h-91.4c-2.9,0-5.2-2.3-5.2-5.2v-4.1c0-2.9,2.3-5.2,5.2-5.2h91.4c2.9,0,5.2,2.3,5.2,5.2v4.1
	C942.3,587.1,939.9,589.4,937.1,589.4z"/>
<path class="st8" d="M849.4,578.6h26.4c0.6,0,1.1,0.5,1.1,1.1s-0.5,1.1-1.1,1.1h-26.4c-0.6,0-1.1-0.5-1.1-1.1
	C848.3,579,848.8,578.6,849.4,578.6z"/>
<path class="st8" d="M849.4,583.6h13.8c0.6,0,1.1,0.5,1.1,1.1s-0.5,1.1-1.1,1.1h-13.8c-0.6,0-1.1-0.5-1.1-1.1
	C848.3,584,848.8,583.6,849.4,583.6z"/>
<path class="st2" d="M834.1,603h26.5c0.6,0,1.1,0.5,1.1,1.1s-0.5,1.1-1.1,1.1h-26.4c-0.6,0-1.1-0.5-1.1-1.1S833.6,603,834.1,603z"/>
<path class="st2" d="M834.1,608h13.8c0.6,0,1.1,0.5,1.1,1.1s-0.5,1.1-1.1,1.1h-13.8c-0.6,0-1.1-0.5-1.1-1.1
	C833.1,608.5,833.6,608,834.1,608z"/>
<path class="st8" d="M849.7,627.2h75.2c0.6,0,1.1,0.5,1.1,1.1s-0.5,1.1-1.1,1.1h-75.2c-0.6,0-1.1-0.5-1.1-1.1
	C848.7,627.6,849.1,627.2,849.7,627.2z"/>
<path class="st8" d="M849.7,632.2h40.9c0.6,0,1.1,0.5,1.1,1.1s-0.5,1.1-1.1,1.1h-40.9c-0.6,0-1.1-0.5-1.1-1.1
	C848.7,632.7,849.1,632.2,849.7,632.2z"/>
<path class="st8" d="M904.1,304.7h114.1c4.6,0,8.2,3.6,8.2,8.2v155.4c0,4.6-3.6,8.2-8.2,8.2H904.1c-4.6,0-8.2-3.6-8.2-8.2V312.9
	C895.9,308.3,899.5,304.7,904.1,304.7z"/>
<path class="st23" d="M904.1,304.7h114.1c4.6,0,8.2,3.6,8.2,8.2v155.4c0,4.6-3.6,8.2-8.2,8.2H904.1c-4.6,0-8.2-3.6-8.2-8.2V312.9
	C895.9,308.3,899.5,304.7,904.1,304.7z"/>
<path class="st8" d="M897,304.7H1011c4.6,0,8.2,3.6,8.2,8.2v155.4c0,4.6-3.6,8.2-8.2,8.2H897c-4.6,0-8.2-3.6-8.2-8.2V312.9
	C888.9,308.3,892.5,304.7,897,304.7z"/>
<path class="st24" d="M897,304.7H1011c4.6,0,8.2,3.6,8.2,8.2v155.4c0,4.6-3.6,8.2-8.2,8.2H897c-4.6,0-8.2-3.6-8.2-8.2V312.9
	C888.9,308.3,892.5,304.7,897,304.7z"/>
<path class="st8" d="M954,455.2c-10.6,0-19.2-8.6-19.2-19.2s8.6-19.2,19.2-19.2c10.6,0,19.2,8.6,19.2,19.2S964.7,455.2,954,455.2z"
	/>
<path class="st2" d="M950.1,445l-7.4-7.4c-0.4-0.4-0.4-1,0-1.5l1.9-1.9c0.4-0.4,1-0.4,1.5,0l4.7,4.7l11.4-11.4c0.4-0.4,1-0.4,1.5,0
	l1.9,1.9c0.4,0.4,0.4,1,0,1.5l-14,14C951,445.3,950.4,445.3,950.1,445z"/>
<path class="st2" d="M995.2,336.8h-82.2c-2.4,0-4.4-1.9-4.4-4.5c0-2.4,1.9-4.4,4.4-4.4h82.2c2.4,0,4.4,1.9,4.4,4.4
	C999.6,334.8,997.6,336.8,995.2,336.8z"/>
<path class="st8" d="M997,353.8h-85.8c-1.5,0-2.7-1.2-2.7-2.7s1.2-2.7,2.7-2.7H997c1.5,0,2.7,1.2,2.7,2.7S998.4,353.8,997,353.8z"/>
<path class="st8" d="M997,366.3h-85.8c-1.5,0-2.7-1.2-2.7-2.7s1.2-2.7,2.7-2.7H997c1.5,0,2.7,1.2,2.7,2.7S998.4,366.3,997,366.3z"/>
<path class="st8" d="M997,378.9h-85.8c-1.5,0-2.7-1.2-2.7-2.7c0-1.5,1.2-2.7,2.7-2.7H997c1.5,0,2.7,1.2,2.7,2.7
	C999.6,377.7,998.4,378.9,997,378.9z"/>
<path class="st8" d="M997,391.5h-85.8c-1.5,0-2.7-1.2-2.7-2.7s1.2-2.7,2.7-2.7H997c1.5,0,2.7,1.2,2.7,2.7S998.4,391.5,997,391.5z"/>
<path class="st25" d="M997,353.8h-85.8c-1.5,0-2.7-1.2-2.7-2.7s1.2-2.7,2.7-2.7H997c1.5,0,2.7,1.2,2.7,2.7S998.4,353.8,997,353.8z"
	/>
<path class="st25" d="M997,366.3h-85.8c-1.5,0-2.7-1.2-2.7-2.7s1.2-2.7,2.7-2.7H997c1.5,0,2.7,1.2,2.7,2.7S998.4,366.3,997,366.3z"
	/>
<path class="st25" d="M997,378.9h-85.8c-1.5,0-2.7-1.2-2.7-2.7c0-1.5,1.2-2.7,2.7-2.7H997c1.5,0,2.7,1.2,2.7,2.7
	C999.6,377.7,998.4,378.9,997,378.9z"/>
<path class="st25" d="M997,391.5h-85.8c-1.5,0-2.7-1.2-2.7-2.7s1.2-2.7,2.7-2.7H997c1.5,0,2.7,1.2,2.7,2.7S998.4,391.5,997,391.5z"
	/>
<path class="st2" d="M1106.7,573.3c0.4,0,0.6-0.2,0.6-0.6c0-5.1,4.1-9.3,9.3-9.3h4.6c4,0,7.3-3.1,7.3-7.3s-3.3-7.3-7.3-7.3h-25.6
	c-3.3,0-5.8-2.7-5.8-5.8c0-3.3,2.7-5.9,5.8-5.9h6.2c4.1,0,7.4-3.4,7.4-7.4c0-0.4-0.2-0.6-0.7-0.6c-0.4,0-0.6,0.2-0.6,0.6
	c0,3.4-2.7,6-6,6h-6.2c-4,0-7.3,3.3-7.3,7.3s3.1,7.3,7.3,7.3h25.6c3.3,0,5.9,2.7,5.9,5.9c0,3.1-2.7,5.8-5.9,5.8h-4.6
	c-5.8,0-10.6,4.8-10.6,10.6C1106.1,573,1106.3,573.3,1106.7,573.3z"/>
<path class="st2" d="M1091.9,577.5c0.4,0,0.6-0.2,0.6-0.6v-1.6c0-1.2,1-2.2,2.2-2.2c2.1,0,3.5-1.6,3.5-3.5v-2.8
	c0-2.1-1.6-3.5-3.5-3.5h-4.2c-5.7,0-10.5-4.7-10.5-10.5v-5.2c0-0.4-0.2-0.6-0.7-0.6c-0.4,0-0.6,0.2-0.6,0.6v5.1
	c0,6.5,5.3,11.9,11.9,11.9h4.2c1.2,0,2.2,1,2.2,2.2v2.8c0,1.2-1,2.2-2.2,2.2c-2.1,0-3.5,1.6-3.5,3.5v1.6
	C1091.2,577,1091.6,577.5,1091.9,577.5z"/>
<path class="st2" d="M689.5,724l-2.7,3.5l2.4-0.2l-3.3,4l7-1.1l-2.5-2.8l2.1-0.1L689.5,724z"/>
<path class="st11" d="M689,730.6l0.1,2.4l1.1-0.2l0.1-2.4L689,730.6z"/>
<path class="st2" d="M577.8,815.9l-2.7,3.5l2.4-0.2l-3.3,4l7-1.1l-2.5-2.8l2.1-0.1L577.8,815.9z"/>
<path class="st11" d="M577.3,822.6l0.1,2.4l1.1-0.2l0.1-2.4L577.3,822.6z"/>
<path class="st2" d="M696.1,750.3l-2.7,3.5l2.4-0.2l-3.3,4l7-1.1l-2.5-2.8l2.1-0.1L696.1,750.3z"/>
<path class="st11" d="M695.6,757l0.1,2.4l1.1-0.2l0.1-2.4L695.6,757z"/>
<path class="st2" d="M699.6,661.9l-2.7,3.5l2.4-0.2l-3.3,4l7-1.1l-2.5-2.8l2.1-0.1L699.6,661.9z"/>
<path class="st11" d="M699.1,668.6l0.1,2.4l1.1-0.2l0.1-2.4L699.1,668.6z"/>
<path class="st2" d="M721,652.4l-2.2,2.9l2.4-0.2l-3.3,4l5.8-1c0,0-0.7-1.8-1.2-2.9C721.8,654,721.9,654,721,652.4z"/>
<path class="st11" d="M721,658.4l0.1,2.4l1.1-0.2l0.1-2.4L721,658.4z"/>
<path class="st2" d="M587.7,647.2l-2.7,3.5l2.4-0.2l-3.3,4l7-1.1l-2.5-2.8l2.1-0.1L587.7,647.2z"/>
<path class="st11" d="M587.2,653.8l0.1,2.4l1.1-0.2l0.1-2.4L587.2,653.8z"/>
<path class="st2" d="M624.6,695.4l-2.7,3.5l2.4-0.2l-3.3,4l7-1.1l-2.5-2.8l2.1-0.1L624.6,695.4z"/>
<path class="st11" d="M624.1,702.1l0.1,2.4l1.1-0.2l0.1-2.4L624.1,702.1z"/>
<path class="st2" d="M671.3,761.1l-2.7,3.5l2.4-0.2l-3.3,4l7-1.1l-2.5-2.8l2.1-0.1L671.3,761.1z"/>
<path class="st11" d="M670.8,767.8l0.1,2.4l1.1-0.2l0.1-2.4L670.8,767.8z"/>
<path class="st2" d="M643.7,737.4l-2.7,3.5l2.4-0.2l-3.3,4l7-1.1l-2.5-2.8l2.1-0.1L643.7,737.4z"/>
<path class="st11" d="M643.2,744.1l0.1,2.4l1.1-0.2l0.1-2.4L643.2,744.1z"/>
<path class="st2" d="M597,804.4l-2.4,2.9l7-1.1l-0.4-0.4C599.3,805.3,597,804.4,597,804.4z"/>
<path class="st11" d="M597.7,806.7l0.1,2.4l1.1-0.2l0.1-2.4L597.7,806.7z"/>
<path class="st2" d="M700.9,693.5l-2.7,3.5l2.4-0.2l-3.3,4l7-1.1l-2.5-2.8l2.1-0.1L700.9,693.5z"/>
<path class="st11" d="M700.4,700.2l0.1,2.4l1.1-0.2l0.1-2.4L700.4,700.2z"/>
<path class="st2" d="M580.7,706.4L578,710l2.4-0.2l-3.3,4l7-1.1l-2.5-2.8l2.1-0.1L580.7,706.4z"/>
<path class="st11" d="M580.2,713.1l0.1,2.4l1.1-0.2l0.1-2.4L580.2,713.1z"/>
<path class="st2" d="M662,708.5l-2.7,3.5l2.4-0.2l-3.3,4l7-1.1l-2.5-2.8l2.1-0.1L662,708.5z"/>
<path class="st11" d="M661.5,715.2l0.1,2.4l1.1-0.2l0.1-2.4L661.5,715.2z"/>
<path class="st2" d="M594.7,677.7l-2.7,3.5l2.4-0.2l-3.3,4l7-1.1l-2.5-2.8l2.1-0.1L594.7,677.7z"/>
<path class="st11" d="M594.2,684.3l0.1,2.4l1.1-0.2l0.1-2.4L594.2,684.3z"/>
<path class="st14" d="M752.3,809.9c0.4-0.1,0.6-0.4,0.7-0.6c0-0.4-0.1-1-0.7-1l-13.4-4c-0.4,0-1,0.1-1,0.7c-0.1,0.4,0.1,1,0.7,1
	l13.4,4C752.2,810,752.2,810,752.3,809.9z"/>
<path class="st14" d="M753.9,804.7c0.4,0,0.6-0.2,0.8-0.5c0.1-0.4,0-1-0.5-1.1l-12.6-6.2c-0.4-0.1-1,0-1.1,0.5c-0.1,0.4,0,1,0.5,1.1
	l12.6,6.2C753.8,804.7,753.8,804.7,753.9,804.7z"/>
<path class="st14" d="M748.2,814.6c0.4-0.1,0.6-0.4,0.6-0.8c0-0.4-0.2-0.8-0.7-1l-11.9-1.3c-0.4,0-0.8,0.2-1,0.7
	c0,0.4,0.2,0.8,0.7,1l11.9,1.3C748.1,814.7,748.1,814.7,748.2,814.6z"/>
<path class="st14" d="M609.6,638.5l-5.6,0.1c-23.8,0.4-41.6,21.9-37.5,45.4l7.4,41.4h11.9l-8.8-49c-3-17.1,8.2-33.4,25.3-36.5
	L609.6,638.5z"/>
<path class="st14" d="M704.7,740.9c7.7-14.4,18-18.7,16.4-36c-1.7-15.7-12.8-22.6-15.4-47.5c1.1,11.2,6.5,19.6,12,28.4
	c9.2,15.1,7.9,31.4,0,47.3c-2.2,4.5-7.5,19.7-7.9,25L704.7,740.9z"/>
<path class="st14" d="M788.6,965.9c-7.7-49.7-6.2-85.8-5.4-96.6h-159c-0.2,0-0.4,0-0.6,0c-25.2-0.4-30.6-35.6-6.8-43.8l14.9-5.1
	c0,0-11.7-0.4-16.3,0.4c-6.5,1.1-24.7,6.4-35.3,11.5c-7.1,3.4-9.8,2.1-9.8,2.1v20.1c0,19,15.5,34.5,34.5,34.5h159.2
	c-0.7,10.9-2.4,46.9,5.4,96.6c5.8,37.4,6.3,82.7,6.3,82.7l21,0.2C796.4,1068.6,794.4,1003.2,788.6,965.9z"/>
</svg>
