<?xml version="1.0" encoding="utf-8"?>
<!-- Generator: Adobe Illustrator 24.0.1, SVG Export Plug-In . SVG Version: 6.00 Build 0)  -->
<svg version="1.1" id="Layer_1" xmlns="http://www.w3.org/2000/svg" xmlns:xlink="http://www.w3.org/1999/xlink" x="0px" y="0px"
	 viewBox="0 0 1329.5 824.5" style="enable-background:new 0 0 1329.5 824.5;" xml:space="preserve">
<style type="text/css">
	.st0{fill:#F2F2F2;}
	.st1{fill:#FFFFFF;}
	.st2{fill:#E8E8E8;}
	.st3{fill:#F99A9A;}
	.st4{opacity:0.15;enable-background:new    ;}
	.st5{fill:#21252B;}
	.st6{opacity:0.45;}
	.st7{opacity:0.3;enable-background:new    ;}
	.st8{fill:#3F4249;}
	.st9{fill:#242830;}
	.st10{opacity:0.5;enable-background:new    ;}
	.st11{fill:#3B3B3B;}
	.st12{opacity:0.2;enable-background:new    ;}
	.st13{opacity:0.8;enable-background:new    ;}
	.st14{fill:#E53C49;}
	.st15{fill:none;stroke:#FFFFFF;stroke-width:23;stroke-linecap:round;stroke-linejoin:round;}
	.st16{fill:#B0B4B9;}
	.st17{fill:#84888F;}
	.st18{opacity:0.9;fill:#FFFFFF;enable-background:new    ;}
	.st19{opacity:0.7;fill-rule:evenodd;clip-rule:evenodd;fill:#FFFFFF;enable-background:new    ;}
	.st20{fill:#D8DBDD;}
	.st21{opacity:0.5;fill:#FFFFFF;enable-background:new    ;}
	.st22{opacity:0.7;fill:#FFFFFF;enable-background:new    ;}
	.st23{fill:#FFD16E;}
	.st24{fill:#F69797;}
	.st25{fill:#FA9B9B;}
	.st26{opacity:0.15;}
	.st27{opacity:0.6;enable-background:new    ;}
	.st28{opacity:0.6;}
	.st29{fill:#FB9C9C;}
	.st30{opacity:0.2;fill:#FFFFFF;enable-background:new    ;}
	.st31{opacity:0.3;}
	.st32{fill:#22548B;}
	.st33{fill:#23568F;}
	.st34{fill:#245992;}
	.st35{fill:#255B96;}
	.st36{fill:#265D9A;}
	.st37{fill:#275F9D;}
	.st38{fill:#2862A1;}
	.st39{fill:#2964A5;}
	.st40{fill:#2A66A9;}
	.st41{fill:#2A68AC;}
	.st42{fill:#2B6BB0;}
	.st43{fill:#2C6DB4;}
	.st44{fill:#2D6FB7;}
	.st45{fill:#2E71BB;}
	.st46{fill:#2F74BF;}
	.st47{fill:#3076C2;}
	.st48{fill:#3178C6;}
	.st49{fill-rule:evenodd;clip-rule:evenodd;fill:#FFFFFF;}
</style>
<title>ts_support</title>
<g id="Layer_2_1_">
	<g id="Layer_1-2">
		<path class="st0" d="M1261.1,824.1H74.8l-74-456.7c-2.7-16.5,1.6-33.4,11.9-46.7L224.2,46.8c11.1-14.3,28-23,46.1-23.5L1051.5,0
			c24.4-0.7,46.9,13.3,57,35.5l215.6,476c5.6,12.3,6.9,26.2,3.7,39.3L1261.1,824.1z"/>
		<path class="st1" d="M1216.6,504.9H719.3v263.7h497.3V504.9z"/>
		<path class="st0" d="M1204.6,756.5V516.9H731.4v239.5H1204.6z"/>
		<path class="st0" d="M1203.9,756.5V516.9H731.4v239.5H1203.9z"/>
		<path class="st2" d="M1246.7,768.5V504.9h-30v263.7H1246.7z"/>
		<path class="st1" d="M1204.6,643.2v-12.9H731.4v12.9L1204.6,643.2z"/>
		<path class="st2" d="M839.6,525.7h-25.2v104.6h25.2V525.7z"/>
		<path class="st1" d="M839.6,630.3h67.3V525.7h-67.3V630.3z"/>
		<path class="st2" d="M862,537.7h-14.2v92.6H862V537.7z"/>
		<path class="st1" d="M862,630.3h37.9v-92.6H862V630.3z"/>
		<path class="st2" d="M905.1,630.3h-21L872,543h21L905.1,630.3z"/>
		<path class="st1" d="M905.1,630.3h56.2L949.2,543H893L905.1,630.3z"/>
		<path class="st2" d="M820.6,756.5h-21l-12.1-87.3h21L820.6,756.5z"/>
		<path class="st1" d="M820.6,756.5h56.2l-12.1-87.3h-56.2L820.6,756.5z"/>
		<path class="st1" d="M1122.5,756.5v-27.1H993.4v27.1H1122.5z"/>
		<path class="st1" d="M1084.4,708.2v-21.9h-91.1v21.9H1084.4z"/>
		<path class="st1" d="M1106,729.4v-21.1H993.4v21.2L1106,729.4z"/>
		<path class="st2" d="M1099.9,545.6h-20.4v84.7h20.4V545.6z"/>
		<path class="st1" d="M1099.9,630.3h54.6v-84.7h-54.6V630.3z"/>
		<path class="st2" d="M1145,555.3h-19.6v75h19.6V555.3z"/>
		<path class="st1" d="M1145,630.3h33.5v-75H1145V630.3z"/>
		<path class="st2" d="M1084.4,704.6h-91.1v3.7h91.1V704.6z"/>
		<path class="st2" d="M1106,725.7H993.4v3.7H1106V725.7z"/>
		<path class="st2" d="M1122.5,752.8H993.4v3.7h129.1V752.8z"/>
		<path class="st1" d="M1239.5,768.5l4.6,51.4c0.4,1.6-0.5,3.3-2.1,3.7c-1.6,0.4-3.3-0.5-3.7-2.1l-13.4-53L1239.5,768.5z"/>
		<path class="st2" d="M1237.8,798.5l-5.6-1.3l-7.2-28.5h14.6l4.6,51.4c0.3,1.4-0.5,2.8-1.8,3.4L1237.8,798.5z"/>
		<path class="st1" d="M1187,768.5l4.6,51.4c0.4,1.6-0.5,3.3-2.1,3.7c-1.6,0.4-3.3-0.5-3.7-2.1l-13.4-53L1187,768.5z"/>
		<path class="st2" d="M1182.1,774.3l-8.4-1.6l-1.4-4.1h14.6l4.6,51.4c0.3,1.4-0.5,2.8-1.8,3.4L1182.1,774.3z"/>
		<path class="st1" d="M798,768.5l-4.6,51.4c-0.4,1.6,0.5,3.3,2.1,3.7c1.6,0.4,3.3-0.5,3.7-2.1l0,0l13.5-53L798,768.5z"/>
		<path class="st2" d="M800.6,795.9l-5-1.3l2.4-26.1h14.6l-13.5,53c-0.4,1.2-1.6,2.1-2.8,2h-0.2L800.6,795.9z"/>
		<path class="st1" d="M744.1,768.5l-4.6,51.4c-0.4,1.6,0.5,3.3,2.1,3.7c1.6,0.4,3.3-0.5,3.7-2.1l0,0l13.5-53L744.1,768.5z"/>
		<path class="st2" d="M749.8,773l-6.4-1.2l0.7-3.3h14.6l-13.5,53c-0.4,1.2-1.6,2.1-2.8,2h-0.2L749.8,773z"/>
		<path class="st3" d="M484.4,363.8l25-75.9l-42-6.3l-22.3,76.5l2,6.3C452.9,382.8,479.2,382.4,484.4,363.8z"/>
		<path class="st3" d="M426.1,276.2L396.8,234c-0.6-1.2-0.2-2.6,0.8-3.3l0.1-0.1c1-0.9,2.6-0.7,3.5,0.3c0.1,0.1,0.2,0.3,0.3,0.4
			c3,4.1,10.5,13.2,10.5,13.2s-9.2-14.3-11.6-19.4c-0.5-1.1-0.2-2.4,0.7-3.2l0,0c1.1-0.9,2.8-0.8,3.7,0.3c0.1,0.1,0.2,0.2,0.3,0.4
			c3.3,5.8,11.2,17.3,11.2,17.3c-5.4-10.9-9.5-17.1-10.6-20.2c-0.5-1.4,0.3-2.9,1.7-3.4c1.2-0.4,2.5,0.1,3.1,1.2l10.3,18.9l3.6-8.3
			l15.4,3.4c1.4,0.4,2.2,1.8,1.8,3.2c-0.3,1.2-1.5,2-2.7,1.9l-8.8-0.9l-1.2,7.9c-0.1,0.6,0,1.2,0.3,1.7c0,0,4.3,4.7,7,5
			c1.5,0,2-1.2,2-2.7v-1.6c-0.2-11.9,7.3-9.2,7.3-9.2l0.7,12.8c0,0,4.5,10-0.5,16.7l37,70c5.8,11,1.6,24.6-9.4,30.4
			c-6.8,3.6-15,3.5-21.7-0.3c-3.3-1.9-5.7-5.1-6.5-8.8l-14.8-63L426.1,276.2z"/>
		<path class="st4" d="M422.1,238.8l-1.4-2.4l3.6-8.2L422.1,238.8z"/>
		<path class="st4" d="M417.6,238.6l-1.3,1.3L406,220.4c-0.5-0.8-0.6-1.8-0.2-2.7l0.2-0.4L417.6,238.6z"/>
		<path class="st4" d="M412.1,244.4c0,0-9.3-14.6-11.8-19.8c-0.2-0.6-0.1-1.1,0.1-1.7l13.1,20.1L412.1,244.4z"/>
		<path class="st4" d="M441.6,237.1c-0.9,0.5-1.7,1.2-2.1,2.2c-2,3.6-0.6,9-1.7,10.4s-2.9,0.2-3.5-0.1c-1.4-0.9-2.8-2-4-3.2l4,4.3
			c1.2,1.3,3.3,1.4,4.6,0.2c0.3-0.3,0.5-0.5,0.7-0.9l0,0c0.6-1.2-0.4-5.1-0.3-6.1S439.4,239.4,441.6,237.1z"/>
		<path class="st4" d="M482.6,339.9L462.5,298l3.4-11.3l18.7,52.3c0.2,0.6,0,1.2-0.6,1.4S482.8,340.4,482.6,339.9L482.6,339.9z"/>
		<path class="st3" d="M758.8,381.9l-92.9-29.4c-3.9-1.3-7.2-4-9.4-7.5l-27.2-44.8l39.9-14.4l21.3,46.7l72.5,34.8"/>
		<path class="st4" d="M748.5,384.2l2.4-5.7c-14.8-5.2-60.5-26.4-78-33.4c-4.8-1.9-8.8-5.4-11.3-9.9l-21.9-38.2l-7.5,7.7l22.4,37.9
			c2.7,4.5,6.9,8,12,9.7L748.5,384.2z"/>
		<path class="st3" d="M590.6,176.8l-0.3,39.2c0,1-0.3,1.9-0.9,2.7l0.6,1.5c-9.5,14.2-30.1,16.1-43.3,5.3c-1.3-1.1-1.9-2.8-1.7-4.5
			l7.2-47.3L590.6,176.8z"/>
		<path class="st3" d="M547.9,157.3c0,0-7.8,51.7,20.7,53.8c27.8,2.1,28.7-50.2,28.7-50.2l0.8-15l-35.8-6.3l-9.1,4.7L547.9,157.3z"
			/>
		<path class="st4" d="M547.3,206.8l2.1-14.2c2.6,9.1,7.9,16.8,17.3,18.3h-0.1l2,0.3c7.4,0.6,13.6-2.9,18.3-10.2
			c0.1-0.3,0.5-0.5,0.8-0.4c0.3,0.1,0.5,0.5,0.4,0.8c0,0.1-0.1,0.2-0.2,0.2c-5,7.8-11.5,11.4-19.5,10.9c-1.7-0.1-3.3-0.4-4.9-0.9
			C557.7,212.1,551.9,210.4,547.3,206.8z"/>
		<path class="st5" d="M554.7,145.8c0,0-9.1-6-13.3,4.3c-3.6,8.7,2.5,18.1,2.5,18.1l5.2-0.6c2.2-0.1,3.7-1.1,3.9-3.2L554.7,145.8z"
			/>
		<path class="st5" d="M548.2,139.5c-0.8,9.8,7.6,12.4,11.1,12.7l28.1,2.4c2.3,0.2,4,2.2,3.9,4.5l-0.5,9c-0.1,1.2,0.8,2.3,2,2.5
			l1.7,0.2l1.9,2.4c11.1-2.7,15.6-34-4.7-40.3c-2.2-0.7-4-2.3-5-4.3c-3-6.1-15.1-7.7-21.2-0.9c-1.2,1.4-3,2.2-4.9,2.1
			C553.4,129.5,548.6,134.1,548.2,139.5z"/>
		<path class="st3" d="M594.5,173.7c0.3-2.5,2.5-4.4,5.1-4.2c0.9,0.1,1.7,0.4,2.5,1l0.1,0.1c4.9,4.2,1.7,17.4-9,16.2L594.5,173.7z"
			/>
		<path class="st3" d="M541.4,166.8l0.1-0.1c2.2-1.3,5-0.6,6.3,1.6c0.5,0.8,0.7,1.7,0.7,2.6l-0.6,12.6
			C537.1,183.1,536,170.2,541.4,166.8z"/>
		<path class="st5" d="M593.1,175.3c0,0.7,0.5,1.3,1.1,1.3c0.6,0.1,1.3-0.3,1.4-0.9l1.2-8.5l-3.5,0.1L593.1,175.3z"/>
		<path class="st5" d="M546.2,171.9c0,0.7,0.5,1.3,1.1,1.3c0.6,0.1,1.3-0.3,1.4-0.9l1.2-8.5l-3.5,0.1L546.2,171.9z"/>
		<path class="st3" d="M559.1,153.4c0.5,0.1,1,0.1,1.4,0c0.3,0,0.6-0.3,0.6-0.7c0-0.3-0.3-0.6-0.7-0.6l0,0c-0.1,0-5.7,0.3-8.1-3.4
			c-0.2-0.3-0.6-0.4-0.9-0.2c-0.3,0.2-0.4,0.6-0.2,0.9C553.4,152.5,557.1,153.3,559.1,153.4z"/>
		<path class="st5" d="M580.3,181.1c1.4,0,2.5-1.1,2.5-2.5c0-1.4-1.1-2.5-2.5-2.5c-1.4,0-2.5,1.1-2.5,2.5c0,0,0,0,0,0
			C577.8,179.9,578.9,181,580.3,181.1z"/>
		<path class="st1" d="M581.4,178.9c0.3,0,0.6-0.3,0.6-0.6c0-0.3-0.3-0.6-0.6-0.6c-0.3,0-0.6,0.3-0.6,0.6
			C580.8,178.6,581.1,178.9,581.4,178.9C581.4,178.9,581.4,178.9,581.4,178.9z"/>
		<path class="st5" d="M561.2,179.6c1.4,0,2.5-1.1,2.5-2.5c0-1.4-1.1-2.5-2.5-2.5c-1.4,0-2.5,1.1-2.5,2.5c0,0,0,0,0,0
			C558.7,178.5,559.8,179.6,561.2,179.6z"/>
		<path class="st1" d="M562.3,177.5c0.3,0,0.6-0.3,0.6-0.6v0c0-0.3-0.3-0.6-0.6-0.6s-0.6,0.3-0.6,0.6l0,0
			C561.8,177.3,562,177.5,562.3,177.5C562.3,177.5,562.3,177.5,562.3,177.5z"/>
		<g class="st6">
			<path class="st7" d="M569.5,190.3l-2-0.2c-0.4-0.1-0.7-0.4-0.6-0.8c0.1-0.3,0.3-0.6,0.7-0.6l2,0.2c0.8,0,1.5-0.7,1.5-1.5
				c0-0.8-0.6-1.4-1.4-1.5c-0.4-0.1-0.7-0.4-0.6-0.8c0.1-0.3,0.3-0.6,0.7-0.6c1.6,0.1,2.8,1.4,2.7,3c0,0,0,0.1,0,0.1
				c0,1.5-1.2,2.8-2.7,2.8C569.7,190.3,569.6,190.3,569.5,190.3z"/>
		</g>
		<path class="st5" d="M550.5,174.1l-0.2,2.8c-0.4,5.3,3.7,10,9,10.3c5.3,0.4,10-3.7,10.3-9c0-0.1,0-0.2,0-0.2l0.2-2.8
			c0.1-0.8-0.1-1.5-0.6-2.2l3.7,0.2c-0.5,0.6-0.8,1.3-0.9,2.1L572,178c-0.4,5.3,3.7,10,9,10.3c5.3,0.4,10-3.7,10.3-9
			c0-0.1,0-0.2,0-0.2l0.2-2.8c0.2-1.9-1.3-3.7-3.3-3.8c0,0-0.1,0-0.1,0l-12.1-0.7H576l-9.4-0.6l-1.4-0.1l-10.8-0.6
			c-2-0.2-3.7,1.3-3.8,3.3C550.5,173.9,550.5,174,550.5,174.1z M575.8,173.2L575.8,173.2l12.2,0.7c1.2,0.1,2.1,1.1,2,2.3l-0.2,2.8
			c-0.3,4.5-4.2,8-8.7,7.7s-8-4.2-7.7-8.7l0.2-2.8c0-1.1,0.9-2,2-2C575.6,173.2,575.7,173.2,575.8,173.2z M551.9,174
			c0.1-1.2,1.1-2.1,2.3-2l10.8,0.6l1.4,0.1c1.2,0.1,2.1,1.1,2,2.3l-0.2,2.8c-0.3,4.5-4.2,8-8.7,7.7s-8-4.2-7.7-8.7L551.9,174z"/>
		<g class="st6">
			<path class="st7" d="M597.1,180.6c0.4,0,0.7-0.3,0.8-0.7l0.2-1.5c0-1.2,0.5-2.4,1.3-3.3c0.3-0.3,0.7-0.4,1.1-0.4
				c0.4,0.1,0.8-0.2,0.8-0.6c0.1-0.4-0.2-0.7-0.5-0.8c-0.8-0.1-1.6,0.1-2.3,0.6c-1.2,1.1-1.9,2.7-1.9,4.3l-0.2,1.5
				C596.4,180.1,596.7,180.4,597.1,180.6z"/>
		</g>
		<g class="st6">
			<path class="st7" d="M544.7,176.7c-0.4,0-0.7-0.4-0.7-0.8v-1.5c0.2-1.2-0.1-2.5-0.9-3.4c-0.3-0.4-0.7-0.6-1.1-0.6
				c-0.4,0.1-0.8-0.2-0.8-0.6c-0.1-0.4,0.2-0.8,0.6-0.8c0,0,0.1,0,0.1,0c0.8,0,1.6,0.4,2.1,1c1,0.9,1.3,2.5,1.2,4.6v1.5
				C545.5,176.4,545.2,176.7,544.7,176.7z"/>
		</g>
		<g class="st6">
			<path class="st7" d="M564.8,198.2C564.8,198.3,564.9,198.3,564.8,198.2l3.2,1.3c0.4,0.1,0.8,0,1-0.4c0.2-0.4,0-0.8-0.4-1
				c0,0,0,0-0.1,0l-3.1-1.3c-0.4-0.2-0.8,0-1,0.3c0,0,0,0,0,0C564.3,197.6,564.5,198.1,564.8,198.2z"/>
		</g>
		<g class="st6">
			<path class="st7" d="M564.6,194.7c5.6,2.8,9.3,0.5,10.7-0.8c0.3-0.3,0.3-0.7,0-1c-0.3-0.3-0.7-0.3-1,0l0,0
				c-1.4,1.3-5.4,3.7-11.7-1c-0.3-0.3-0.7-0.3-1,0c-0.3,0.3-0.3,0.7,0,1c0,0,0.1,0.1,0.1,0.1C562.7,193.6,563.6,194.2,564.6,194.7z"
				/>
		</g>
		<path class="st8" d="M624.4,428.4l-10.6,345.9h-31.9L564,478.7c0-3.6-3-6.5-6.5-6.4c-3.6,0-6.5,3-6.5,6.5l-16.1,295.5h-31.9
			L493.1,432L624.4,428.4z"/>
		<path class="st3" d="M610.5,794.3l0.9-27.8h-27.1l1.2,28.7L610.5,794.3z"/>
		<path class="st4" d="M584.5,774.3l0.9,20.9l6.5-0.2l-0.2-12.3c0-2,1.3-3.7,3.2-4.2l16.2-4.2L584.5,774.3z"/>
		<path class="st3" d="M506.5,794.3l-0.9-27.8h27.2l-1.2,28.7L506.5,794.3z"/>
		<path class="st9" d="M585.5,819.5v-24.3c0-7.4,6-13.3,13.3-13.3h0.6c6,0,11.2,4.2,12.4,10.2c0.7,3.5,2.3,6.7,4.6,9.4l3.8,4.5
			c3.2,3.8,5,8.6,5,13.6L585.5,819.5z"/>
		<path class="st1" d="M608.5,794.8c0.2,0,0.4-0.1,0.5-0.3c0.1-0.3,0.1-0.6-0.2-0.7c-4.6-2.6-10.1-2.6-14.7,0
			c-0.2,0.2-0.3,0.5-0.1,0.7s0.5,0.3,0.7,0.1c4.2-2.4,9.4-2.4,13.6,0C608.3,794.8,608.4,794.8,608.5,794.8z"/>
		<path class="st1" d="M610.1,798.2c0.2,0,0.4-0.1,0.5-0.3c0.1-0.3,0.1-0.6-0.2-0.7c-4.6-2.6-10.1-2.6-14.7,0
			c-0.2,0.2-0.3,0.5-0.1,0.7s0.5,0.3,0.7,0.1c4.2-2.4,9.4-2.4,13.6,0C609.9,798.2,610,798.2,610.1,798.2z"/>
		<path class="st1" d="M611.8,801.9c0.2,0,0.4-0.1,0.5-0.3c0.1-0.3,0.1-0.6-0.2-0.7c-4.6-2.6-10.1-2.6-14.7,0
			c-0.2,0.2-0.3,0.5-0.1,0.7s0.5,0.3,0.7,0.1c4.2-2.4,9.4-2.4,13.6,0C611.7,801.9,611.8,801.9,611.8,801.9z"/>
		<path class="st10" d="M623.5,824.5h-36.3c-0.9,0-1.7-0.8-1.7-1.7c0,0,0,0,0,0v-3.2h39.8v3.2C625.3,823.8,624.5,824.5,623.5,824.5
			C623.6,824.6,623.5,824.6,623.5,824.5z"/>
		<path class="st11" d="M614.5,774.3l0.3-11.1h-34.3l0.7,11.1H614.5z"/>
		<path class="st5" d="M580.4,763.2l0.7,11.1h33.4l0.3-11.1H580.4z"/>
		<path class="st4" d="M557.5,472.6c3.4,0,6.3,2.7,6.5,6.1l17.2,284.5h10.2l-4.1-271.7c-0.2-10.5-8.7-18.9-19.2-18.9L557.5,472.6z"
			/>
		<path class="st12" d="M581.1,774.3l-0.7-11.1h11l0.2,11.1H581.1z"/>
		<path class="st4" d="M506,774.3l0.6,20l11.3,0.4l-0.2-13.5c0-1.3,0.8-2.4,2-2.9l12.8-4.1H506V774.3z"/>
		<path class="st4" d="M493.2,434.5l9.7,339.8h3.1l-0.3-7.8h11.8l-5-333.1L493.2,434.5z"/>
		<path class="st9" d="M531.6,819.5v-24.3c0-7.4-6-13.3-13.3-13.3h-0.6c-6,0-11.2,4.2-12.4,10.2c-0.7,3.5-2.3,6.7-4.6,9.4l-3.8,4.5
			c-3.2,3.8-5,8.6-5,13.6L531.6,819.5z"/>
		<path class="st1" d="M508.5,794.8c0.1,0,0.2,0,0.3-0.1c4.2-2.5,9.4-2.5,13.6,0c0.2,0.2,0.5,0.1,0.7-0.1c0.2-0.2,0.1-0.5-0.1-0.7
			c0,0,0,0,0,0c-4.5-2.6-10.1-2.6-14.7,0c-0.3,0.1-0.3,0.5-0.2,0.7C508.3,794.7,508.4,794.8,508.5,794.8z"/>
		<path class="st1" d="M507,798.2c0.1,0,0.2,0,0.3-0.1c4.2-2.5,9.4-2.5,13.6,0c0.2,0.1,0.5,0.1,0.7-0.1c0.1-0.2,0.1-0.5-0.1-0.6
			c-4.5-2.6-10.1-2.6-14.7,0c-0.3,0.1-0.3,0.5-0.2,0.7S506.8,798.2,507,798.2z"/>
		<path class="st1" d="M505.2,801.9c0.1,0,0.2,0,0.3-0.1c4.2-2.5,9.4-2.5,13.6,0c0.2,0.2,0.5,0.1,0.7-0.1c0.2-0.2,0.1-0.5-0.1-0.7
			c0,0,0,0,0,0c-4.5-2.6-10.2-2.6-14.7,0c-0.3,0.1-0.3,0.5-0.2,0.7C504.9,801.8,505.1,801.9,505.2,801.9z"/>
		<path class="st8" d="M493.6,824.5h36.3c0.9,0,1.7-0.8,1.7-1.7c0,0,0,0,0,0v-3.2h-39.8v3.2C491.8,823.8,492.6,824.6,493.6,824.5z"
			/>
		<path class="st10" d="M623.5,824.5h-36.3c-0.9,0-1.7-0.8-1.7-1.7c0,0,0,0,0,0v-3.2h39.8v3.2C625.3,823.8,624.5,824.5,623.5,824.5
			C623.6,824.6,623.5,824.6,623.5,824.5z"/>
		<path class="st13" d="M623.5,824.5h-36.3c-0.9,0-1.7-0.8-1.7-1.7c0,0,0,0,0,0v-3.2h39.8v3.2C625.3,823.8,624.5,824.5,623.5,824.5
			C623.6,824.6,623.5,824.6,623.5,824.5z"/>
		<path class="st13" d="M493.6,824.5h36.3c0.9,0,1.7-0.8,1.7-1.7c0,0,0,0,0,0v-3.2h-39.8v3.2C491.8,823.8,492.6,824.6,493.6,824.5z"
			/>
		<path class="st5" d="M536.3,763.2l-0.7,11.1h-33.4l-0.2-11.1H536.3z"/>
		<path class="st12" d="M517.5,763.2v11.1h-15.3l-0.2-11.1H517.5z"/>
		<path class="st1" d="M590.2,216.8l28.8,7.7c0.7,0.1,1.3,0.3,1.9,0.5c15.2,4.3,27.7,15.1,34.1,29.5l14.2,31.4l-36.8,18.8
			l-10.5-14.9"/>
		<path class="st14" d="M485.8,359.5l2.2,68c0.1,3.8,3.1,6.8,6.8,7l127.2-2.2c3.9,0.2,7.2-2.7,7.5-6.5l-5-140.4l39.9,6.9l19.9-31.5
			l-31.9-22.3c-8.3-5.8-17.7-10.1-27.5-12.7l-34.6-8.9c0,0-6.3,15.4-22.6,14.7c-21.5-0.9-21.9-15.6-21.9-15.6l-40.1,6.8
			c-15.5,2.6-27.9,14.3-31.5,29.6l-11.4,45l40.4,11l7.2-23.2L485.8,359.5z"/>
		<path class="st12" d="M632.1,304.8l-10.1-15l0.8-19.9l18.5,30.2L632.1,304.8z"/>
		<path class="st15" d="M614.8,332.6l22.5,34.1l80.6-64.9"/>
		<path class="st16" d="M976.1,143.6c0-37.4-28.1-68.7-65.2-72.8v-0.5h-8.1c-40.5,0-73.3,32.8-73.3,73.3c0,40.5,32.8,73.3,73.3,73.3
			l8.1-0.5C948,212.3,976.1,181,976.1,143.6z"/>
		<path class="st17" d="M896.9,216.9c40.5,0,73.3-32.8,73.3-73.3s-32.8-73.3-73.3-73.3s-73.3,32.8-73.3,73.3
			S856.4,216.9,896.9,216.9L896.9,216.9z"/>
		<path class="st1" d="M896.9,208.8c36,0,65.2-29.2,65.2-65.2s-29.2-65.2-65.2-65.2s-65.2,29.2-65.2,65.2S860.9,208.8,896.9,208.8
			C896.9,208.8,896.9,208.8,896.9,208.8z"/>
		<path class="st17" d="M896.9,208.8c36,0,65.2-29.2,65.2-65.2s-29.2-65.2-65.2-65.2s-65.2,29.2-65.2,65.2S860.9,208.8,896.9,208.8
			C896.9,208.8,896.9,208.8,896.9,208.8z"/>
		<path class="st18" d="M896.9,208.8c36,0,65.2-29.2,65.2-65.2s-29.2-65.2-65.2-65.2s-65.2,29.2-65.2,65.2S860.9,208.8,896.9,208.8
			C896.9,208.8,896.9,208.8,896.9,208.8z"/>
		<path class="st16" d="M896.9,78.4c1.2,0,2.4,0,3.6,0.2c-35.9,1.9-63.5,32.6-61.6,68.5c1.8,33.3,28.3,59.9,61.6,61.6
			c-1.1,0-2.3,0.2-3.6,0.2c-36,0-65.2-29.2-65.2-65.2S860.9,78.4,896.9,78.4z"/>
		<path class="st11" d="M898.8,148.9l-1.8-48.2c0-1.9,1.5-3.4,3.3-3.4c1.8,0,3.3,1.3,3.4,3.1l1.5,41.4l27.6-0.8
			c1.9,0,3.4,1.5,3.5,3.4c0,1.9-1.5,3.4-3.4,3.4L898.8,148.9z"/>
		<path class="st19" d="M859.8,95.7l94.6,78.7c0,0,2.5-5.3,3.3-7c0.6-1.5,2-6,2-6l-57-82.8C902.7,78.5,881.8,75.8,859.8,95.7z"/>
		<path class="st19" d="M846.4,174.4l66.7,32.4c-4.8,1.6-9.9,2.1-14.9,1.7C883.6,207.5,861.5,200.3,846.4,174.4z"/>
		<path class="st16" d="M180,552.6h-68.2c-1.9,0-3.5-1.5-3.5-3.5s1.5-3.5,3.5-3.5H180V552.6z"/>
		<path class="st16" d="M189.4,549.3h-68.8v211.8h68.8V549.3z"/>
		<path class="st20" d="M397.7,549.3H187.3v211.8h210.4V549.3z"/>
		<path class="st16" d="M197.9,579l189.9-0.2V745H197.9V579z M386.3,580.5H199.4v163h186.8L386.3,580.5z"/>
		<path class="st20" d="M405.5,552.6H179.8c-1.9,0-3.5-1.5-3.5-3.5s1.5-3.5,3.5-3.5h225.6c1.9,0,3.4,1.5,3.5,3.4c0,0,0,0,0,0.1
			C408.9,551.1,407.4,552.6,405.5,552.6z"/>
		<path class="st16" d="M387.8,660.8H197.9v1.5h189.9V660.8z"/>
		<path class="st16" d="M301,605.5c2.9,0,5.3-2.4,5.3-5.3c0-2.9-2.4-5.3-5.3-5.3c-2.9,0-5.3,2.4-5.3,5.3
			C295.8,603.1,298.1,605.5,301,605.5C301,605.5,301,605.5,301,605.5z"/>
		<path class="st4" d="M299.1,600.2c0-2.3,1.4-4.3,3.6-5c-0.6-0.2-1.1-0.3-1.7-0.3c-2.9,0-5.3,2.3-5.3,5.3c0,2.9,2.3,5.3,5.3,5.3
			c0.6,0,1.2-0.1,1.8-0.3C300.6,604.4,299.1,602.4,299.1,600.2z"/>
		<path class="st16" d="M301,687.3c2.9,0,5.3-2.4,5.3-5.3c0-2.9-2.4-5.3-5.3-5.3c-2.9,0-5.3,2.4-5.3,5.3
			C295.8,684.9,298.1,687.2,301,687.3C301,687.3,301,687.3,301,687.3z"/>
		<path class="st4" d="M299.1,682c0-2.3,1.4-4.3,3.6-5c-0.6-0.2-1.1-0.3-1.7-0.3c-2.9,0.1-5.2,2.5-5.2,5.4c0.1,2.9,2.5,5.2,5.4,5.2
			c0.5,0,1-0.1,1.5-0.3C300.5,686.3,299.1,684.3,299.1,682z"/>
		<path class="st16" d="M176.4,559.8l10.9-7.1h210.4v3.3L176.4,559.8z"/>
		<path class="st20" d="M134.1,761.1l-5.3,58.6c-0.4,1.9,0.8,3.7,2.6,4.1c1.7,0.4,3.4-0.6,4-2.2l15.3-60.5H134.1z"/>
		<path class="st16" d="M136.1,795.3l6.4-1.5l8.2-32.5H134l-5.3,58.6c-0.3,1.6,0.5,3.2,2,3.9L136.1,795.3z"/>
		<path class="st20" d="M194,761.1l-5.3,58.6c-0.4,1.9,0.8,3.7,2.6,4.1c1.7,0.4,3.4-0.6,4-2.2l15.3-60.5H194z"/>
		<path class="st16" d="M199.6,767.6l9.6-1.8l1.6-4.7h-16.7l-5.3,58.6c-0.3,1.6,0.5,3.2,2,3.9L199.6,767.6z"/>
		<path class="st20" d="M325.8,761.1l5.3,58.6c0.4,1.9-0.8,3.7-2.6,4.1c-1.7,0.4-3.4-0.6-4-2.2l-15.3-60.5H325.8z"/>
		<path class="st16" d="M322.9,792.3l5.7-1.4l-2.7-29.8h-16.7l15.3,60.5c0.5,1.4,1.8,2.3,3.3,2.3h0.2L322.9,792.3z"/>
		<path class="st20" d="M387.3,761.1l5.3,58.6c0.4,1.9-0.8,3.7-2.6,4.1c-1.7,0.4-3.4-0.6-4-2.2l-15.3-60.5H387.3z"/>
		<path class="st16" d="M380.8,766.2l7.3-1.3l-0.8-3.8h-16.7l15.4,60.5c0.5,1.4,1.8,2.3,3.3,2.3h0.2L380.8,766.2z"/>
		<path class="st20" d="M252.2,522.2h-34.1v23.6h34.1L252.2,522.2L252.2,522.2z"/>
		<path class="st16" d="M252.2,522.2h-90.9v23.6h56.8v-17.3h34.1V522.2z"/>
		<path class="st16" d="M295.1,545.7h-21.3c-3.3,0-5.9-2.6-5.9-5.9s2.6-5.9,5.9-5.9l0,0h21.3L295.1,545.7L295.1,545.7z"/>
		<path class="st20" d="M359.3,545.7h-64.2V534h64.2c3.3,0,5.9,2.6,5.9,5.9S362.6,545.8,359.3,545.7L359.3,545.7z"/>
		<path class="st16" d="M317.2,536.8h-28.9V534h28.9c0.8,0,1.4,0.6,1.4,1.4S318,536.9,317.2,536.8L317.2,536.8z"/>
		<path class="st16" d="M200.2,90.5h155.5c1.9,0,3.5,1.6,3.5,3.5v357.6c0,1.9-1.6,3.5-3.5,3.5H200.2c-1.9,0-3.5-1.6-3.5-3.5V94
			C196.7,92.1,198.3,90.5,200.2,90.5z"/>
		<path class="st20" d="M207.3,90.5h155.5c1.9,0,3.5,1.6,3.5,3.5v357.6c0,1.9-1.6,3.5-3.5,3.5H207.3c-1.9,0-3.5-1.6-3.5-3.5V94
			C203.8,92.1,205.3,90.5,207.3,90.5C207.3,90.5,207.3,90.5,207.3,90.5z"/>
		<path class="st16" d="M238.1,156.2h-6.6v169.8h6.6V156.2z"/>
		<path class="st16" d="M352.1,181.4v-6.6H215.2v6.6H352.1z"/>
		<path class="st16" d="M275.8,192.6h-29.1v29.1h29.1V192.6z"/>
		<path class="st16" d="M319.6,229.9h-29.1V259h29.1V229.9z"/>
		<path class="st16" d="M355.1,196.4H326v29.1h29.1L355.1,196.4z"/>
		<path class="st16" d="M344.9,273.8h-29.1v29.1h29.1V273.8z"/>
		<path class="st11" d="M755,256.5c0-2.7,0.5-5.5,1.5-8c-23.2-14.8-53-20.6-80.5-20.6s-57.3,5.8-80.5,20.6c4.5,11.2-1,24-12.3,28.5
			c-2.6,1-5.3,1.5-8,1.5c0.5,35.4,4,77.6,21,110c18.4,35,55.1,59.2,79.8,70.4c24.7-11.2,61.4-35.4,79.8-70.4
			c17-32.4,20.5-74.6,21-110C764.8,278.4,755,268.6,755,256.5z"/>
		<path class="st21" d="M755,256.5c0-2.7,0.5-5.5,1.5-8c-23.2-14.8-53-20.6-80.5-20.6s-57.3,5.8-80.5,20.6c4.5,11.2-1,24-12.3,28.5
			c-2.6,1-5.3,1.5-8,1.5c0.5,35.4,4,77.6,21,110c18.4,35,55.1,59.2,79.8,70.4c24.7-11.2,61.4-35.4,79.8-70.4
			c17-32.4,20.5-74.6,21-110C764.8,278.4,755,268.6,755,256.5z"/>
		<path class="st11" d="M676.1,440.6c-23.4-12-51.1-32.9-65.2-59.8c-14-26.6-17.7-61.9-18.8-89.8c12.9-6.3,21.2-19.4,21.5-33.8
			c17.2-8.4,38.9-13,62.5-13s45.3,4.6,62.5,13c0.3,14.4,8.6,27.4,21.5,33.8c-1.1,28-4.8,63.2-18.8,89.8
			C727.2,407.7,699.5,428.6,676.1,440.6z"/>
		<path class="st11" d="M676.1,440.6c-23.4-12-51.1-32.9-65.2-59.8c-14-26.6-17.7-61.9-18.8-89.8c12.9-6.3,21.2-19.4,21.5-33.8
			c17.2-8.4,38.9-13,62.5-13s45.3,4.6,62.5,13c0.3,14.4,8.6,27.4,21.5,33.8c-1.1,28-4.8,63.2-18.8,89.8
			C727.2,407.7,699.5,428.6,676.1,440.6z"/>
		<path class="st22" d="M676.1,434.3c-21.9-11.2-47.8-30.8-61-56c-13.1-24.9-16.6-57.9-17.6-84.1c12.1-5.9,19.9-18.1,20.1-31.6
			c16.1-7.9,36.4-12.1,58.5-12.1s42.4,4.3,58.5,12.1c0.3,13.5,8.1,25.7,20.1,31.6c-1,26.2-4.5,59.2-17.6,84.1
			C723.9,403.5,698,423.1,676.1,434.3z"/>
		<path class="st23" d="M760.1,291L760.1,291c-0.3-0.2-0.6-0.3-1-0.5L760.1,291z"/>
		<path class="st3" d="M771.2,296c-0.7-1.5-0.2-3.3,1.3-4c0.2-0.1,0.3-0.1,0.5-0.2l11.3-3.1c1.1-0.3,2.3,0.3,2.7,1.4l1.2,3.5
			c0.4,1.1-0.2,2.4-1.3,2.8c-0.2,0.1-0.4,0.1-0.6,0.1l-12.3,1.1C772.9,297.7,771.8,297.1,771.2,296z"/>
		<path class="st3" d="M767.5,308.8c0-2,1.5-3.6,3.5-3.6c0,0,0.1,0,0.1,0h1.4c0.1,0.1,0.2,0.3,0.4,0.3l7.2,1.2
			c1.5,0.4,3.1,0.5,4.6,0.4l3.2-0.4l0,0c0.1,0,0.1-0.1,0.2-0.1c0.1,0.2,0.2,0.4,0.3,0.6l0.9,3.4c0.3,1.2-0.4,2.5-1.7,2.9
			c-0.1,0-0.2,0.1-0.3,0.1l-3.3,0.3c-1.2,0.1-2.4,0.1-3.6-0.1l-9.8-1.6C768.8,312,767.5,310.5,767.5,308.8z"/>
		<path class="st3" d="M787.9,306.7l-3.2,0.4c-1.6,0.1-3.1-0.1-4.6-0.4l-8.3-1.5l6.6,0.1l1.9,0.3c1.4,0.3,2.9,0.5,4.3,0.4l2.6-0.3
			c0.4,0.2,0.8,0.5,1,0.9C788.1,306.7,788,306.7,787.9,306.7L787.9,306.7z"/>
		<path class="st3" d="M780.3,305.7l-1.9-0.3l7.8,0.2c0.3,0,0.7,0.1,1,0.3l-2.6,0.3C783.1,306.2,781.7,306,780.3,305.7z"/>
		<path class="st3" d="M781.9,315.1l-11.7-1.9c0.4-0.5,1.1-0.8,1.7-0.8l10.2,1.6l3.3-0.3c0.4,0.2,0.7,0.6,0.9,1l-4.1,0.4
			L781.9,315.1z"/>
		<path class="st3" d="M769.5,314.6c0-0.5,0.2-1,0.6-1.4l11.7,1.9h0.1l4.1-0.4c0.2,0.4,0.3,0.8,0.2,1.3l-0.3,2.3
			c-0.1,1.3-1.3,2.2-2.6,2.1c-0.1,0-0.3,0-0.4-0.1l-11.9-3.3C770.2,316.7,769.5,315.7,769.5,314.6z"/>
		<path class="st4" d="M787.9,306.7l-3.2,0.4c-1.6,0.1-3.1-0.1-4.6-0.4l-8.3-1.5l6.6,0.1l1.9,0.3c1.4,0.3,2.9,0.5,4.3,0.4l2.6-0.3
			c0.4,0.2,0.8,0.5,1,0.9C788.1,306.7,788,306.7,787.9,306.7L787.9,306.7z"/>
		<path class="st4" d="M781.9,315.1l-11.7-1.9c0.4-0.5,1.1-0.8,1.7-0.8l10.2,1.6l3.3-0.3c0.4,0.2,0.7,0.6,0.9,1l-4.1,0.4
			L781.9,315.1z"/>
		<path class="st3" d="M771.2,297.9c-0.1,0-0.2-0.1-0.3-0.3c0.4-0.3,0.9-0.4,1.4-0.4l2.4,0.4l1.2-0.1h0.3l10.4-0.9
			c0.7,0.1,1.3,0.4,1.7,0.9l-12,1.1C774.6,298.7,772.9,298.4,771.2,297.9z"/>
		<path class="st3" d="M775.9,297.5l5.5-0.5l5-0.5h0.3l-10.4,0.9L775.9,297.5z"/>
		<path class="st3" d="M770.9,297.6c0.1,0.1,0.2,0.2,0.3,0.3c1.6,0.6,3.4,0.8,5.1,0.7l12-1.1c0.2,0.3,0.4,0.6,0.4,0.9l1,4.5
			c0.3,1.3-0.5,2.5-1.8,2.8c-0.1,0-0.1,0-0.2,0L785,306c-1.4,0.2-2.8,0.1-4.1-0.3l-7.6-1.2c-1.7-0.3-3.1-1.5-3.7-3.1
			C769.1,300,769.6,298.4,770.9,297.6z"/>
		<path class="st4" d="M771.2,297.9c-0.1,0-0.2-0.1-0.3-0.3c0.4-0.3,0.9-0.4,1.4-0.4l2.4,0.4l1.2-0.1h0.3l10.4-0.9
			c0.7,0.1,1.3,0.4,1.7,0.9l-12,1.1C774.6,298.7,772.9,298.4,771.2,297.9z"/>
		<path class="st16" d="M1014.9,607.1h-23.4l32.4,216.4h13.1L1014.9,607.1z"/>
		<path class="st17" d="M1037,823.5h-9.4l-21.4-176.3l-8.7,0.1l-0.8-5.2l5.7-24.8c-0.3-2.5-2.3-4.4-4.8-4.6l-5.5-0.5l-0.7-5h23.4
			L1037,823.5z"/>
		<path class="st16" d="M1103.3,607.1h-23.4l30.2,216.4h13.1L1103.3,607.1z"/>
		<path class="st16" d="M883.8,823.5h13.5l30.2-216.4h-23.8L883.8,823.5z"/>
		<path class="st17" d="M1123.1,823.5h-9.5l-16.9-128.7l-5.2-3l-11-79.8l-0.7-5h23.5L1123.1,823.5z"/>
		<path class="st17" d="M888.7,823.5l16.5-127.7l-5.9-4.1l5.4-47.9l-4.3-0.1l0.5-5.1h4.4l3.6-31.7h18.7l-30.2,216.5L888.7,823.5
			L888.7,823.5z"/>
		<path class="st16" d="M1106.3,410H991.2c-8.1,0-14.7,6.6-14.7,14.7v203.7c0,8.1,6.6,14.7,14.7,14.7h115.1V410z"/>
		<path class="st16" d="M1106.1,620.7H896.9c-6.2,0-11.2,5-11.2,11.2c0,6.2,5,11.2,11.2,11.2h209.2V620.7z"/>
		<path class="st17" d="M1121.2,620.7H1011c-6.2,0-11.2,5-11.2,11.2c0,6.2,5,11.2,11.2,11.2h110.2L1121.2,620.7z"/>
		<path class="st17" d="M1109.9,410c-6.2,0-11.2,5-11.2,11.2v215.3c0,3.6,2.9,6.4,6.4,6.4l0,0h9.6c3.6,0,6.4-2.9,6.4-6.4v0V421.2
			C1121.1,415,1116.1,410,1109.9,410z"/>
		<path class="st14" d="M894.6,559.7l17-116.9c1.8-12,10.7-21.8,22.5-24.6l45.4-10.8l45.7,0.4l42.2,10.1c15,3.6,24.8,18.1,22.5,33.3
			l-4.9,32.4l-8.3,18c-0.4,1-0.7,2-0.9,3l-7.7,42.1c-1.4,7.5-7.9,11.6-15.4,11.6L894.6,559.7z"/>
		<path class="st1" d="M1079.5,435.9c-0.2,0-0.4-0.1-0.5-0.2l-4.7-4.4c-0.3-0.3-0.3-0.8,0-1.1c0.3-0.3,0.8-0.3,1.1,0l4.7,4.4
			c0.3,0.3,0.3,0.8,0,1.1C1079.9,435.8,1079.7,435.9,1079.5,435.9L1079.5,435.9z"/>
		<path class="st1" d="M1075,436.1c-0.2,0-0.4-0.1-0.5-0.2c-0.3-0.3-0.3-0.8,0-1.1c0,0,0,0,0,0l4.4-4.6c0.3-0.3,0.8-0.3,1.1,0
			s0.3,0.8,0,1.1l-4.4,4.6C1075.4,436,1075.2,436.1,1075,436.1z"/>
		<path class="st1" d="M1025,456.1c-0.2,0-0.4-0.1-0.5-0.2l-4.7-4.4c-0.4-0.2-0.5-0.7-0.3-1c0.2-0.4,0.7-0.5,1-0.3
			c0.1,0,0.2,0.1,0.2,0.2l4.7,4.4c0.3,0.3,0.3,0.8,0,1.1C1025.4,456.1,1025.2,456.1,1025,456.1L1025,456.1z"/>
		<path class="st1" d="M1020.5,456.3c-0.2,0-0.4-0.1-0.5-0.2c-0.3-0.3-0.3-0.8,0-1.1c0,0,0,0,0,0l4.4-4.6c0.3-0.3,0.8-0.3,1.1,0
			s0.3,0.8,0,1.1l-4.4,4.6C1021,456.2,1020.8,456.3,1020.5,456.3z"/>
		<path class="st1" d="M978.6,436c-3.1,0-5.6-2.5-5.6-5.6c0-3.1,2.5-5.6,5.6-5.6c3.1,0,5.6,2.5,5.6,5.6v0
			C984.2,433.5,981.7,436,978.6,436z M978.6,426.3c-2.3,0-4.1,1.8-4.1,4.1s1.8,4.1,4.1,4.1c2.3,0,4.1-1.8,4.1-4.1
			C982.7,428.1,980.9,426.3,978.6,426.3C978.6,426.3,978.6,426.3,978.6,426.3L978.6,426.3z"/>
		<path class="st1" d="M993.4,516.8c-0.4,0-0.8-0.3-0.8-0.8l0,0c0-2.3-1.8-4.1-4.1-4.1c-2.3,0-4.1,1.8-4.1,4.1c0,0,0,0,0,0
			c0,0.4-0.3,0.8-0.8,0.8s-0.8-0.3-0.8-0.8c0-3.1,2.5-5.6,5.6-5.6c3.1,0,5.6,2.5,5.6,5.6C994.2,516.5,993.9,516.8,993.4,516.8z"/>
		<path class="st1" d="M924.7,442c-0.4,0-0.8-0.3-0.8-0.8c0,0,0,0,0,0c0-2.2-1.8-4.1-4.1-4.1c-2.2,0-4.1,1.8-4.1,4.1c0,0,0,0,0,0
			c0,0.4-0.3,0.8-0.8,0.8s-0.8-0.3-0.8-0.8l0,0c0-3.1,2.5-5.6,5.6-5.6s5.6,2.5,5.6,5.6c0,0,0,0,0,0C925.5,441.7,925.1,442,924.7,442
			z"/>
		<path class="st1" d="M918.1,516.8c-3.1,0-5.6-2.5-5.6-5.6c0-3.1,2.5-5.6,5.6-5.6c3.1,0,5.6,2.5,5.6,5.6v0
			C923.7,514.3,921.2,516.8,918.1,516.8z M918.1,507.2c-2.3,0-4.1,1.8-4.1,4.1s1.8,4.1,4.1,4.1s4.1-1.8,4.1-4.1
			C922.2,509,920.3,507.2,918.1,507.2L918.1,507.2z"/>
		<path class="st1" d="M964.2,474.5c-0.4,0-0.8-0.3-0.8-0.8c0,0,0,0,0,0c0-1.9,1.4-2.6,2.4-3.2s1.3-0.8,1.3-1.2
			c0-0.4,0.3-0.8,0.8-0.8s0.8,0.3,0.8,0.8c0,1.4-1.2,2.1-2.1,2.6s-1.6,0.9-1.6,1.9C964.9,474.2,964.6,474.5,964.2,474.5L964.2,474.5
			z"/>
		<path class="st1" d="M964.2,465.6c-0.4,0-0.8-0.3-0.8-0.8c0,0,0,0,0,0c0-1.9,1.4-2.6,2.4-3.2s1.3-0.8,1.3-1.2
			c0-0.4,0.3-0.8,0.8-0.8s0.8,0.3,0.8,0.8l0,0c0,1.4-1.2,2.1-2.1,2.6s-1.6,0.9-1.6,1.9C964.9,465.3,964.6,465.6,964.2,465.6
			L964.2,465.6z"/>
		<path class="st1" d="M967.9,470.1c-0.4,0-0.8-0.3-0.8-0.8c0,0,0,0,0,0c0-0.5-0.4-0.7-1.3-1.2s-2.4-1.3-2.4-3.2
			c0-0.4,0.3-0.8,0.8-0.8s0.8,0.3,0.8,0.8c0,0.9,0.6,1.3,1.6,1.9s2.1,1.1,2.1,2.6C968.7,469.7,968.3,470.1,967.9,470.1L967.9,470.1z
			"/>
		<path class="st1" d="M967.9,461.2c-0.4,0-0.8-0.3-0.8-0.8c0,0,0,0,0,0c0-0.5-0.4-0.7-1.3-1.2s-2.4-1.3-2.4-3.2
			c0-0.4,0.3-0.8,0.8-0.8s0.8,0.3,0.8,0.8c0,0.9,0.6,1.3,1.6,1.9s2.1,1.1,2.1,2.6C968.7,460.9,968.3,461.2,967.9,461.2L967.9,461.2z
			"/>
		<path class="st1" d="M929.5,475.4h-10.9c-0.4,0-0.8-0.3-0.8-0.8c0-0.4,0.3-0.8,0.8-0.8h10.9c0.4,0,0.8,0.3,0.8,0.8
			C930.3,475.1,929.9,475.4,929.5,475.4z"/>
		<path class="st1" d="M1027.5,424.8h-10.9c-0.4,0-0.8-0.3-0.8-0.8c0-0.4,0.3-0.8,0.8-0.8h10.9c0.4,0,0.8,0.3,0.8,0.8
			C1028.3,424.4,1027.9,424.8,1027.5,424.8C1027.5,424.8,1027.5,424.8,1027.5,424.8z"/>
		<path class="st1" d="M1067.5,464.1c-0.4,0-0.8-0.3-0.8-0.8c0-0.2,0.1-0.4,0.2-0.5l7.7-7.7c0.3-0.3,0.8-0.3,1.1,0
			c0.3,0.3,0.3,0.8,0,1.1l0,0l-7.7,7.7C1067.9,464.1,1067.7,464.1,1067.5,464.1z"/>
		<path class="st1" d="M985.6,439.4c-2.8,0-5-2.2-5-5s2.2-5,5-5s5,2.2,5,5S988.3,439.4,985.6,439.4z M985.6,429.7
			c-2.6,0-4.7,2.1-4.7,4.7c0,2.6,2.1,4.7,4.7,4.7c2.6,0,4.7-2.1,4.7-4.7C990.3,431.8,988.2,429.7,985.6,429.7z"/>
		<path class="st1" d="M1000.5,520.2h-0.3c0-2.6-2.1-4.7-4.7-4.7s-4.7,2.1-4.7,4.7l0,0h-0.3c0-2.8,2.2-5,5-5
			S1000.5,517.4,1000.5,520.2z"/>
		<path class="st1" d="M931.8,445.3h-0.3c0-2.6-2.1-4.7-4.7-4.7c-2.6,0-4.7,2.1-4.7,4.7h-0.3c-0.3-2.7,1.7-5.2,4.4-5.5
			c2.7-0.3,5.2,1.7,5.5,4.4C931.8,444.5,931.8,444.9,931.8,445.3z"/>
		<path class="st1" d="M925,520.3c-2.8,0-5-2.2-5-5s2.2-5,5-5s5,2.2,5,5S927.8,520.3,925,520.3z M925,510.6c-2.6,0-4.7,2.1-4.7,4.7
			c0,2.6,2.1,4.7,4.7,4.7c2.6,0,4.7-2.1,4.7-4.7C929.7,512.7,927.6,510.6,925,510.6z"/>
		<path class="st1" d="M971.3,477.8H971c0-1.5,1.1-2.1,2.1-2.7s1.6-0.9,1.6-1.8h0.3c0,1.1-0.9,1.6-1.8,2S971.3,476.5,971.3,477.8z"
			/>
		<path class="st1" d="M971.3,469H971c0-1.5,1.1-2.1,2.1-2.7s1.6-0.9,1.6-1.8h0.3c0,1.1-0.9,1.6-1.8,2S971.3,467.6,971.3,469z"/>
		<path class="st1" d="M975,473.4h-0.3c0-0.9-0.8-1.3-1.6-1.8s-2.1-1.1-2.1-2.6h0.3c0,1.3,1,1.9,2,2.4S975,472.3,975,473.4z"/>
		<path class="st1" d="M975,464.5h-0.3c0-0.9-0.8-1.3-1.6-1.8s-2.1-1.1-2.1-2.7h0.3c0,1.3,1,1.9,2,2.4S975,463.5,975,464.5z"/>
		<path class="st1" d="M936.5,478.6h-10.9v0.3h10.9V478.6z"/>
		<path class="st1" d="M1034.5,427.9h-10.9v0.3h10.9V427.9z"/>
		<path class="st1" d="M1082.1,459.6l-7.7,7.7l0.2,0.2l7.7-7.7L1082.1,459.6z"/>
		<path class="st1" d="M1006.5,486c-0.2,0-0.4,0-0.6-0.1c-0.7-0.2-1.3-0.6-1.7-1.2c-0.4-0.6-0.5-1.3-0.3-2c0.2-0.7,0.6-1.3,1.2-1.7
			c0.6-0.4,1.3-0.5,2-0.3c0.7,0.2,1.3,0.6,1.7,1.2c0.4,0.6,0.5,1.3,0.3,2c-0.2,0.7-0.6,1.3-1.2,1.7
			C1007.5,485.9,1007,486,1006.5,486z M1006.5,482.2c-0.5,0-1,0.4-1.1,0.9c-0.1,0.3,0,0.6,0.2,0.9c0.2,0.3,0.4,0.4,0.7,0.5
			c0.3,0.1,0.6,0,0.9-0.1c0.3-0.2,0.4-0.4,0.5-0.7c0.1-0.3,0-0.6-0.2-0.9c-0.2-0.3-0.4-0.4-0.7-0.5
			C1006.7,482.2,1006.6,482.2,1006.5,482.2L1006.5,482.2z"/>
		<path class="st1" d="M963.4,496.9c-0.2,0-0.4,0-0.6-0.1c-1.4-0.4-2.3-1.8-2-3.2c0.2-0.7,0.6-1.2,1.2-1.6c0.6-0.4,1.3-0.5,2-0.3
			c0.7,0.2,1.3,0.6,1.7,1.2c0.4,0.6,0.5,1.3,0.3,2c-0.2,0.7-0.6,1.3-1.2,1.7C964.4,496.8,963.9,496.9,963.4,496.9z M963.4,493.1
			c-0.6,0-1.1,0.5-1.1,1.2c0,0.5,0.4,1,0.9,1.1c0.3,0.1,0.6,0,0.9-0.1c0.3-0.2,0.4-0.4,0.5-0.7c0.1-0.3,0-0.6-0.2-0.9
			c-0.2-0.3-0.4-0.4-0.7-0.5L963.4,493.1z"/>
		<path class="st1" d="M952.9,435.9c-0.2,0-0.4,0-0.6-0.1c-0.7-0.2-1.3-0.6-1.7-1.2c-0.4-0.6-0.5-1.3-0.3-2c0.2-0.7,0.6-1.3,1.2-1.6
			c0.6-0.4,1.3-0.5,2-0.3c0.7,0.2,1.3,0.6,1.7,1.2c0.4,0.6,0.5,1.3,0.3,2C955.2,435.1,954.2,435.9,952.9,435.9L952.9,435.9z
			 M952.9,432.1c-0.5,0-1,0.4-1.1,0.9c-0.1,0.3,0,0.6,0.2,0.9c0.2,0.3,0.4,0.4,0.7,0.5c0.3,0.1,0.6,0,0.9-0.1
			c0.3-0.2,0.4-0.4,0.5-0.7c0.1-0.3,0-0.6-0.2-0.9c-0.2-0.3-0.4-0.4-0.7-0.5L952.9,432.1z"/>
		<path class="st1" d="M1047.6,435.9c-1.5,0-2.7-1.2-2.7-2.7c0-1.5,1.2-2.7,2.7-2.7c1.5,0,2.7,1.2,2.7,2.7c0,0.9-0.5,1.8-1.2,2.3
			C1048.5,435.8,1048.1,435.9,1047.6,435.9z M1047.6,432.1c-0.5,0-1,0.4-1.1,0.9c-0.1,0.3,0,0.6,0.2,0.9c0.3,0.5,1.1,0.7,1.6,0.4
			c0.3-0.2,0.4-0.4,0.5-0.7c0.1-0.3,0-0.6-0.2-0.9c-0.2-0.3-0.4-0.4-0.7-0.5C1047.7,432.1,1047.6,432.1,1047.6,432.1L1047.6,432.1z"
			/>
		<path class="st4" d="M1035.8,521.5l6.8-67.3c0.1-0.4-0.2-0.7-0.6-0.8c-0.4-0.1-0.7,0.2-0.8,0.6l-21,69.7L1035.8,521.5z"/>
		<path class="st17" d="M911.2,550.6c0.9,1.1,2.4,1.2,3.5,0.4l15-11l-19.1,8.7C910.6,549.4,910.8,550.1,911.2,550.6z"/>
		<path class="st4" d="M937.8,453.9l-8.1,79.5l-7,7l-6.5-4.2l14.1-76.4C931.8,453.4,937.8,452.9,937.8,453.9z"/>
		<path class="st8" d="M1024.1,309.9c12.4,0.3,16.2,14.4,15.8,31.2s-4.4,26.6-16.8,26.2s-22.2-10.4-21.8-27.3
			S1011.7,309.6,1024.1,309.9z"/>
		<path class="st24" d="M981.9,346.2c0,0,41-24.3,41.8,6.7l0,8l1.6,46.7c0,1.2-46.2,2.3-46,0.9l1-8.1l3.2-24
			c-0.5-2.3-0.7-4.7-0.6-7.1C982.7,357.2,981.9,346.2,981.9,346.2z"/>
		<path class="st8" d="M978.7,348c7.5,0,13.6-6.2,13.6-13.7c0-7.5-6.2-13.6-13.7-13.6c-7.5,0-13.6,6.1-13.6,13.7
			C965,341.9,971.1,348,978.7,348C978.7,348,978.7,348,978.7,348z"/>
		<path class="st24" d="M978,324.3c0,0-15.9,59.7,14.8,64.6c26.6,4.3,30.7-37.3,30.7-37.3l-0.6-27L978,324.3z"/>
		<path class="st8" d="M1019,344.4c-0.1,14.5-6,22.6-6,22.6c-32.9-5.3-38.2,0.6-38.2,0.6s1.6,16.5,15.1,20.5s34.3-4,34.7-22.6
			c0.1-4.6-6.8-29.7-6.8-29.7L1019,344.4z"/>
		<path class="st1" d="M993.2,373.5c7.2,1.2,10.7-5.8,10.3-6.1s-14.3,2.6-14.5,3S991.1,373.4,993.2,373.5z"/>
		<path class="st8" d="M1015.5,316.1c0.3-9.6-9.3-17.6-21.4-17.9s-22.1,7.2-22.4,16.8s9.3,17.6,21.4,17.9S1015.3,325.7,1015.5,316.1
			z"/>
		<path class="st8" d="M1022.2,310.1c7.6,0.2,13.5,8.1,13.3,17.7s-6.7,19.2-14.2,19s-13.5-10.2-13.2-19.7S1014.6,310,1022.2,310.1z"
			/>
		<path class="st4" d="M1024.1,363c0,0-2.6,0.1-3.9-1l4.2,6.8L1024.1,363z"/>
		<path class="st24" d="M1020.7,346.7c0,0,4.4-5.4,10.3-2.6c6.7,3.1,4.9,18.3-6.5,18.9c-6,0.3-4.7-3.1-3.6-7.7
			C1021.1,352.4,1021,349.6,1020.7,346.7z"/>
		<path class="st7" d="M1031.2,348c-0.9-0.8-2.1-1.1-3.2-1c-1.1,0.3-2.1,1-2.6,2c-0.8,1.2-1.2,2.7-1.2,4.1l-0.1,1.3
			c0,0.4,0.3,0.7,0.7,0.7c0.4,0,0.7-0.3,0.7-0.7l0.1-1.3c0.1-1.2,0.4-2.4,1-3.4c0.5-1.2,1.9-1.8,3.1-1.3c0.3,0.1,0.6,0.3,0.8,0.5
			c0.3,0.2,0.8,0.1,1-0.2C1031.5,348.7,1031.5,348.3,1031.2,348z"/>
		<path class="st24" d="M977.6,329.1c1.2,0.8,2.4,1.6,3.7,2.2c0.3,0.2,0.7,0,0.9-0.3c0,0,0,0,0,0c0.2-0.4,0.1-0.7-0.3-0.9
			c0,0-3.5-2.2-3.9-2.5c-1-0.8-1.9-1.7-2.7-2.6c-0.2-0.3-0.6-0.4-0.9-0.1c-0.3,0.2-0.4,0.6-0.2,0.9c0,0,0,0,0,0
			C975.3,327,976.4,328.1,977.6,329.1z"/>
		<path class="st4" d="M981.3,393l1.1-9.2c3.2,3.3,8.6,5.9,17.1,5.2c4.2-0.4,8.3-1.5,12-3.4c0.5-0.3,0.7-0.3,1-0.1
			c0.2,0.2,0.1,0.6-0.1,0.8c0,0,0,0,0,0c-1.2,1-5.9,3.2-13.1,4C989.1,396.5,981.3,393,981.3,393z"/>
		<path class="st5" d="M969.3,349.4l-0.1,2.8c-0.1,5.4,4.1,9.8,9.4,9.9s9.8-4.1,9.9-9.4l0,0l0.1-2.8c0-0.8-0.2-1.6-0.6-2.2l3.8,0.1
			c-0.5,0.6-0.8,1.4-0.8,2.1l-0.1,2.8c-0.1,5.4,4.1,9.8,9.4,9.9s9.8-4.1,9.9-9.4l0.1-2.8c0.1-2-1.5-3.6-3.4-3.6c0,0,0,0,0,0
			l-12.2-0.3h-0.1l-9.4-0.3h-1.5l-10.8-0.3C971,345.9,969.4,347.4,969.3,349.4z M994.5,348L994.5,348l12.3,0.3c1.2,0,2.1,1,2.1,2.2
			l-0.1,2.8c-0.1,4.6-3.9,8.2-8.4,8.1s-8.2-3.9-8.1-8.4c0-0.1,0-0.1,0-0.2l0.1-2.8C992.4,348.9,993.3,348,994.5,348z M970.6,349.5
			c0-1.2,1-2.1,2.2-2.1l10.8,0.3h1.5c1.2,0,2.1,1,2.1,2.2l-0.1,2.8c-0.1,4.6-3.9,8.2-8.4,8.1s-8.2-3.9-8.1-8.4c0-0.1,0-0.1,0-0.2
			L970.6,349.5z"/>
		<path class="st24" d="M979.2,407.7c0.2-7.2,10.8-12.7,23.6-12.4s20.1,5.6,22.4,12.4c2.2,6.2-10.3,13.9-23.1,13.6
			S979,414.9,979.2,407.7z"/>
		<path class="st25" d="M961.3,531.4l-12.4,1.3l-25.7-2.3c-2.2,0-4.4,1-5.9,2.5l-15.9,14.2c-1.1,0.9-1.2,2.5-0.3,3.6
			s2.5,1.2,3.6,0.3l15-11l-9.8,11.5c-0.9,1-0.8,2.6,0.3,3.5c0.2,0.2,0.5,0.3,0.7,0.4c0.9,0.3,1.9,0.1,2.5-0.5l13.1-12.8l-9.9,9.8
			c-0.9,0.9-1,2.3-0.1,3.3c0.8,0.9,2.1,1,3.1,0.2l13.9-10.2l-9.4,7c-0.9,0.7-1.1,1.9-0.4,2.8c0.1,0.2,0.3,0.3,0.4,0.4
			c0.6,0.4,1.3,0.5,2,0.3l12.6-5.3c1.2-0.5,2.6-0.5,3.8,0.1l4.8,2.4c3.9,2,8.3,3,12.6,3h7.9C979.1,555.8,961.3,531.4,961.3,531.4z"
			/>
		<path class="st4" d="M1035.8,521.5l4.2-0.3c1-0.1,1.7-0.9,1.6-1.9c0-0.2-0.1-0.4-0.2-0.6l-4.5-9.1L1035.8,521.5z"/>
		<g class="st26">
			<path class="st4" d="M962.9,532.1l72.9-10.7l4.8-46.1l45.5,2.3l-9.3,59c-1.7,11.1-11.3,19.2-22.5,19.3h-82.9L962.9,532.1z"/>
		</g>
		<path class="st14" d="M953,532.1l83.7-7.3l3.9-50.8l45.4,3l-8.3,62c-1.7,11.1-11.3,19.2-22.5,19.3l-94-2.4L953,532.1z"/>
		<path class="st1" d="M1032.1,553.1c-0.2,0-0.4-0.1-0.5-0.2l-4.7-4.4c-0.3-0.3-0.2-0.8,0.1-1.1c0.2-0.2,0.6-0.2,0.9,0l4.7,4.4
			c0.3,0.3,0.3,0.8,0,1.1C1032.5,553,1032.3,553.1,1032.1,553.1L1032.1,553.1z"/>
		<path class="st1" d="M1027.6,553.2c-0.2,0-0.4-0.1-0.5-0.2c-0.3-0.3-0.3-0.8,0-1.1c0,0,0,0,0,0l4.4-4.7c0.3-0.3,0.8-0.3,1.1,0
			c0.3,0.3,0.3,0.8,0,1.1l0,0l-4.4,4.7C1028,553.2,1027.8,553.2,1027.6,553.2z"/>
		<path class="st1" d="M1053.6,485c-0.2,0-0.4-0.1-0.5-0.2l-9-9c-0.3-0.3-0.3-0.8,0-1.1c0.1-0.1,0.2-0.2,0.4-0.2l12.3-3.3
			c0.3-0.1,0.5,0,0.7,0.2c0.2,0.2,0.3,0.5,0.2,0.7l-3.3,12.4c-0.1,0.3-0.3,0.5-0.5,0.5C1053.8,485,1053.7,485,1053.6,485z
			 M1046,475.6l7.2,7.2l1.3-4.9l1.3-4.9L1046,475.6z"/>
		<path class="st1" d="M1053,530.5c-0.4,0-0.8-0.3-0.8-0.8l0,0c0-1.9,1.4-2.6,2.4-3.2s1.3-0.8,1.3-1.2c0-0.4,0.3-0.8,0.8-0.8
			s0.8,0.3,0.8,0.8c0,1.4-1.2,2.1-2.1,2.6s-1.6,0.9-1.6,1.8C1053.8,530.1,1053.4,530.5,1053,530.5L1053,530.5z"/>
		<path class="st1" d="M1053,521.6c-0.4,0-0.8-0.3-0.8-0.8l0,0c0-1.9,1.4-2.6,2.4-3.2s1.3-0.8,1.3-1.2c0-0.4,0.3-0.8,0.8-0.8
			s0.8,0.3,0.8,0.8c0,1.4-1.2,2.1-2.1,2.6s-1.6,0.9-1.6,1.8C1053.8,521.3,1053.4,521.6,1053,521.6L1053,521.6z"/>
		<path class="st1" d="M1056.8,526c-0.4,0-0.8-0.3-0.8-0.8l0,0c0-0.5-0.4-0.7-1.3-1.2s-2.4-1.3-2.4-3.2c0-0.4,0.3-0.8,0.8-0.8
			s0.8,0.3,0.8,0.8c0,0.9,0.6,1.3,1.6,1.8s2.1,1.1,2.1,2.6C1057.5,525.7,1057.2,526,1056.8,526L1056.8,526z"/>
		<path class="st1" d="M1056.8,517.2c-0.4,0-0.8-0.3-0.8-0.8l0,0c0-0.5-0.4-0.7-1.3-1.2s-2.4-1.3-2.4-3.2c0-0.4,0.3-0.8,0.8-0.8
			s0.8,0.3,0.8,0.8l0,0c0,0.9,0.6,1.3,1.6,1.8s2.1,1.1,2.1,2.6C1057.5,516.9,1057.2,517.2,1056.8,517.2z"/>
		<path class="st1" d="M980,541.9c-0.4,0-0.8-0.3-0.8-0.8c0-0.2,0.1-0.4,0.2-0.5l7.7-7.7c0.3-0.3,0.8-0.3,1.1,0s0.3,0.8,0,1.1
			l-7.7,7.7C980.4,541.8,980.2,541.9,980,541.9z"/>
		<path class="st1" d="M1060.7,488.6l-9.4-9.4l12.8-3.5L1060.7,488.6z M1051.8,479.4l8.7,8.7l3.2-11.8L1051.8,479.4z"/>
		<path class="st1" d="M1060.1,533.8h-0.3c0-1.5,1.1-2.1,2.1-2.7s1.6-0.9,1.6-1.8h0.3c0,1.1-0.9,1.6-1.8,2
			S1060.1,532.5,1060.1,533.8z"/>
		<path class="st1" d="M1060.1,524.9h-0.3c0-1.5,1.1-2.1,2.1-2.7s1.6-0.9,1.6-1.8h0.3c0,1.1-0.9,1.6-1.8,2
			S1060.1,523.6,1060.1,524.9z"/>
		<path class="st1" d="M1063.9,529.4h-0.3c0-0.9-0.8-1.3-1.6-1.8s-2.1-1.1-2.1-2.7h0.3c0,1.3,1,1.9,2,2.4S1063.9,528.3,1063.9,529.4
			z"/>
		<path class="st1" d="M1063.9,520.5h-0.3c0-0.9-0.8-1.3-1.6-1.8s-2.1-1.1-2.1-2.7h0.3c0,1.3,1,1.9,2,2.4S1063.9,519.4,1063.9,520.5
			z"/>
		<path class="st1" d="M994.5,537.4l-7.7,7.7l0.2,0.2l7.7-7.7L994.5,537.4z"/>
		<path class="st1" d="M1076,499.6c-1.5,0-2.7-1.2-2.7-2.7c0-1.5,1.2-2.7,2.7-2.7c1.5,0,2.7,1.2,2.7,2.7c0,0.9-0.5,1.8-1.2,2.3
			C1077,499.4,1076.5,499.6,1076,499.6z M1076,495.8c-0.6,0-1.2,0.5-1.2,1.1c0,0.6,0.5,1.2,1.1,1.2c0.5,0,1-0.4,1.1-0.9
			c0.1-0.3,0-0.6-0.2-0.9C1076.8,496,1076.4,495.8,1076,495.8L1076,495.8z"/>
		<path class="st27" d="M961.2,531.1l-8.2,1l8.1,23.7h10.2L961.2,531.1z"/>
		<path class="st4" d="M960.3,554.8l1.4,4.2l93.1-0.6c11.2,0,20.8-8.2,22.5-19.3l12.7-87.7c2.3-15.3-7.5-29.8-22.5-33.3l-7.9-1.9
			c12.2,5.4,19.3,18.3,17.3,31.6l-11.6,81.6c-1.7,11.1-11.3,19.2-22.5,19.3L960.3,554.8z"/>
		<path class="st4" d="M951.5,551.6c1.9-0.1,3.4-1.6,3.3-3.5c0-0.1,0-0.1,0-0.2l-1.8-15.8l8.2,23.7H960c-4.4,0-8.7-1-12.6-3
			l-5.8-2.7C943,550.2,946.5,551.6,951.5,551.6z"/>
		<path class="st5" d="M972.5,555.1h-83.6c-0.7,0-1.3,0.6-1.3,1.3v2.1c0,0.7,0.6,1.3,1.3,1.3h83.6c0.7,0,1.3-0.6,1.3-1.3v-2.1
			C973.8,555.6,973.2,555.1,972.5,555.1C972.5,555.1,972.5,555.1,972.5,555.1z"/>
		<path class="st27" d="M972.5,555.1h-83.6c-0.7,0-1.3,0.6-1.3,1.3v2.1c0,0.7,0.6,1.3,1.3,1.3h83.6c0.7,0,1.3-0.6,1.3-1.3v-2.1
			C973.8,555.6,973.2,555.1,972.5,555.1C972.5,555.1,972.5,555.1,972.5,555.1z"/>
		<path class="st5" d="M916.1,555.1H770.3c-0.7,0-1.3,0.6-1.3,1.3v2.1c0,0.7,0.6,1.3,1.3,1.3h145.8c0.7,0,1.3-0.6,1.3-1.3v-2.1
			C917.3,555.7,916.8,555.1,916.1,555.1z"/>
		<g class="st28">
			<path class="st27" d="M772.1,555.9h148.5c0.2,0,0.4-0.2,0.4-0.4c0-0.2-0.2-0.4-0.4-0.4H772.1c-0.2,0-0.4,0.2-0.4,0.4c0,0,0,0,0,0
				C771.7,555.7,771.9,555.9,772.1,555.9z"/>
		</g>
		<path class="st5" d="M916.4,555.1h-22c-1.7,0-3.2-1.2-3.5-2.9l-18.4-96.8c-0.4-1.9,0.9-3.7,2.8-4.1c0.2,0,0.5-0.1,0.7-0.1h22
			c1.7,0,3.2,1.2,3.5,2.9l18.4,96.8c0.3,1.9-0.9,3.8-2.9,4.1C916.8,555.1,916.6,555.1,916.4,555.1z"/>
		<path class="st27" d="M916.4,555.1h-22c-1.7,0-3.2-1.2-3.5-2.9l-18.4-96.8c-0.4-1.9,0.9-3.7,2.8-4.1c0.2,0,0.5-0.1,0.7-0.1h22
			c1.7,0,3.2,1.2,3.5,2.9l18.4,96.8c0.3,1.9-0.9,3.8-2.9,4.1C916.8,555.1,916.6,555.1,916.4,555.1z"/>
		<path class="st5" d="M913.3,555.1H772.2c-1.7,0-3.2-1.2-3.5-2.9l-18.4-96.8c-0.4-1.9,0.9-3.7,2.8-4.1c0.2,0,0.5-0.1,0.7-0.1h141
			c1.7,0,3.2,1.2,3.5,2.9l18.4,96.8c0.4,1.9-0.8,3.7-2.7,4.1C913.8,555,913.5,555.1,913.3,555.1z"/>
		<path class="st27" d="M832.7,500.4c0.8,2-0.1,3.6-2,3.6h-0.3c2.3,2.5,5.8,4.3,8.8,4.2c4.2-0.1,6.1-3.5,4.2-7.6s-6.7-7.4-10.9-7.3
			c-2.6,0.1-4.4,1.4-4.8,3.6C829.9,497.2,831.8,498.5,832.7,500.4z"/>
		<path class="st29" d="M712.2,762.7l-9.6,27.2l15.9,14.5l19.7-8.9l10.1-18.9l-20.9-23.8L712.2,762.7z"/>
		<path class="st11" d="M711.3,765.2l36,14.1l85-158.9h150.9v-60.8H809.8c-10.7,0-20.4,6.5-24.5,16.4L711.3,765.2z"/>
		<path class="st30" d="M711.3,765.2l36,14.1l85-158.9h150.9v-60.8H809.8c-10.7,0-20.4,6.5-24.5,16.4L711.3,765.2z"/>
		<path class="st12" d="M716.9,797.3h20.3l95.2-176.9h150.9v-60.8H839.7c-10.7,0-20.4,6.5-24.5,16.4L716.9,797.3z"/>
		<path class="st29" d="M803.2,762.7l-9.7,27.7l16,14l18.9-7.6l10.9-20.2l-20.9-23.8L803.2,762.7z"/>
		<path class="st11" d="M803.2,762.7l36.1,13.9l83.9-156.1H1030c12,0,21.8-9.7,21.8-21.8l0,0v-40.3l-151.1,1.3
			c-10.7,0-20.4,6.5-24.5,16.4L803.2,762.7z"/>
		<path class="st30" d="M803.2,762.7l36.1,13.9l83.9-156.1H1030c12,0,21.8-9.7,21.8-21.8l0,0v-40.3l-151.1,1.3
			c-10.7,0-20.4,6.5-24.5,16.4L803.2,762.7z"/>
		<path class="st12" d="M899.9,607.5c6.1-11.9,12.8-15.4,26.1-15.4h103.9l-3.5-33.7h25.3v39.8c0,12.2-9.9,22.1-22.1,22.1l0,0H923.3
			l-98.9,184l-15.8-5.1L899.9,607.5z"/>
		<path d="M734.5,791.6c-5.5,2.5-12,3.6-19.6-0.2c0,0-3-9.3-11.5-3.9c0,0-9.7,10.9-24.2,13.8c-20,4.1-21,13.4-21,13.4h82.3
			c0,0-0.3-12.7-1.6-20.7c-0.3-1.8-1.9-3-3.7-2.7C734.9,791.5,734.7,791.5,734.5,791.6z"/>
		<path class="st8" d="M679.1,798.7c0,0,9.1,4.2,13.3,20.8l-34.2-1.4C658.3,818.1,657.3,802.9,679.1,798.7z"/>
		<path class="st8" d="M658.3,824.1h82.3v-9.3h-82.3V824.1z"/>
		<path class="st1" d="M694,802.5c0.1,0.2,0.3,0.3,0.6,0.3c0.1,0,0.2,0,0.3-0.1c0.3-0.2,0.4-0.6,0.2-0.9c0,0,0,0,0,0
			c-1-2-2.7-3.6-4.8-4.4c-0.6,0.3-1.2,0.6-1.8,0.9c0.1,0.1,0.2,0.1,0.3,0.1C688.9,798.4,691.7,798.5,694,802.5z"/>
		<path class="st1" d="M698.1,800.3c0.1,0.2,0.3,0.3,0.6,0.3c0.1,0,0.2,0,0.3-0.1c0.3-0.2,0.4-0.6,0.2-0.9c0,0,0,0,0,0
			c-1-2.1-2.8-3.7-5-4.5c-0.5,0.3-1,0.7-1.6,1c0.1,0.1,0.2,0.1,0.3,0.1C693,796.2,695.8,796.3,698.1,800.3z"/>
		<path class="st1" d="M702.3,797.7c0.1,0.2,0.3,0.3,0.6,0.3c0.1,0,0.2,0,0.3-0.1c0.3-0.2,0.4-0.6,0.2-0.9c0,0,0,0,0,0
			c-1.9-3.3-4.2-4.3-5.4-4.6c-0.4,0.3-0.9,0.7-1.3,1c0.1,0.1,0.3,0.2,0.4,0.2C697.2,793.6,700,793.7,702.3,797.7z"/>
		<path d="M689.9,814.8h-31.6c0,0,0-0.2,0.1-0.4c0-0.1,0.1-0.3,0.1-0.4h31.4c0.2,0,0.4,0.2,0.4,0.4S690.1,814.8,689.9,814.8z"/>
		<path d="M824.5,791.6c-5.5,2.5-12,3.6-19.6-0.2c0,0-3-9.3-11.5-3.9c0,0-9.7,10.9-24.2,13.8c-20,4.1-21,13.4-21,13.4h82.3
			c0,0-0.3-12.7-1.6-20.7c-0.3-1.8-1.9-3-3.7-2.7C825,791.5,824.7,791.5,824.5,791.6z"/>
		<path class="st8" d="M769.1,798.7c0,0,9.1,4.2,13.3,20.8l-34.2-1.4C748.3,818.1,747.4,802.9,769.1,798.7z"/>
		<path class="st8" d="M748.3,824.1h82.3v-9.3h-82.3V824.1z"/>
		<path class="st1" d="M784,802.5c0.1,0.2,0.3,0.3,0.6,0.3c0.1,0,0.2,0,0.3-0.1c0.3-0.2,0.4-0.6,0.2-0.9c0,0,0,0,0,0
			c-1-2-2.7-3.6-4.8-4.4c-0.6,0.3-1.2,0.6-1.8,0.9c0.1,0.1,0.2,0.1,0.3,0.1C779,798.4,781.8,798.5,784,802.5z"/>
		<path class="st1" d="M788.1,800.3c0.1,0.2,0.3,0.3,0.6,0.3c0.1,0,0.2,0,0.3-0.1c0.3-0.2,0.4-0.6,0.2-0.9c0,0,0,0,0,0
			c-1-2.1-2.8-3.7-5-4.5c-0.5,0.3-1,0.7-1.6,1c0.1,0.1,0.2,0.1,0.3,0.1C783.1,796.2,785.8,796.3,788.1,800.3z"/>
		<path class="st1" d="M792.3,797.7c0.1,0.2,0.3,0.3,0.6,0.3c0.1,0,0.2,0,0.3-0.1c0.3-0.2,0.4-0.6,0.2-0.9c0,0,0,0,0,0
			c-1.9-3.3-4.2-4.3-5.4-4.6c-0.4,0.3-0.9,0.7-1.3,1c0.1,0.1,0.3,0.2,0.4,0.2C787.2,793.6,790,793.7,792.3,797.7z"/>
		<path d="M779.9,814.8h-31.6c0,0,0-0.2,0.1-0.4c0-0.1,0.1-0.3,0.1-0.4h31.4c0.2,0,0.4,0.2,0.4,0.4S780.2,814.8,779.9,814.8z"/>
		<path class="st1" d="M1025.2,407.7c0,0,0.8,3.5-1.9,5.2c-3,1.8-14.8,9.7-31.5,4.7c-3.7-1.1-7.1-2.8-10.3-5.1
			c-1.1-0.8-1.9-2.1-2.1-3.5v-1.6l-4.7,1.1c0,2.5,1,4.8,2.8,6.5c1.4,1.4,21.5,16.9,47.1,2.5c3.4-1.5,5.4-5,5-8.7L1025.2,407.7z"/>
		<path class="st5" d="M978,358.6c1.5,0,2.6-1.2,2.6-2.7s-1.2-2.6-2.7-2.6c-1.5,0-2.6,1.2-2.6,2.7
			C975.3,357.5,976.5,358.6,978,358.6C978,358.6,978,358.6,978,358.6z"/>
		<path class="st1" d="M976.7,356.9c0.3,0,0.6-0.3,0.6-0.6c0,0,0,0,0,0c0-0.3-0.3-0.6-0.6-0.6c0,0,0,0,0,0c-0.3,0-0.6,0.3-0.6,0.6
			C976.1,356.6,976.4,356.9,976.7,356.9L976.7,356.9z"/>
		<path class="st5" d="M998.4,360c1.5,0,2.6-1.2,2.6-2.7s-1.2-2.6-2.7-2.6c-1.5,0-2.6,1.2-2.6,2.7C995.7,358.8,996.9,360,998.4,360
			C998.4,360,998.4,360,998.4,360z"/>
		<path class="st1" d="M997.1,358.1c0.3,0,0.6-0.3,0.6-0.6c0,0,0,0,0,0c0-0.3-0.3-0.6-0.6-0.6c0,0,0,0,0,0c-0.3,0-0.6,0.3-0.6,0.6
			C996.5,357.9,996.8,358.1,997.1,358.1L997.1,358.1L997.1,358.1z"/>
		<g class="st31">
			<path class="st7" d="M990.1,363.8l2.1-0.3c0.4,0,0.7-0.4,0.7-0.8s-0.4-0.7-0.8-0.7c0,0,0,0,0,0l-2.1,0.3
				c-0.9,0.1-1.7-0.6-1.7-1.5c-0.1-0.9,0.6-1.6,1.4-1.7c0.4,0,0.7-0.4,0.7-0.8s-0.4-0.7-0.8-0.7c0,0,0,0,0,0
				c-1.7,0.1-2.9,1.6-2.7,3.2c0,0.1,0,0.2,0,0.2c0.1,1.7,1.5,2.9,3.1,2.9C989.9,363.9,990,363.9,990.1,363.8z"/>
		</g>
		<path class="st4" d="M510.4,285l-24.6,74.5l0.5,26.9l24.1-89.3L510.4,285z"/>
		<path class="st27" d="M462.7,297.3l40.4,11l2.3-6.7l-40.9-11.5L462.7,297.3z"/>
		<path class="st4" d="M625.8,425.8c0,0-32.6-28-42.5-73.1c-7-32-7.6-45.2-8-74.2c0,0,19.1,0,21.7-19.3c0.6-3.6,0.1-7.3-1.4-10.7
			c0,0,0.6,16.8-12.8,21.7c-5,1.9-20.9,2.5-20.9,2.5S545.6,369.8,625.8,425.8z"/>
		<path class="st27" d="M590.2,216.8c0,0-6.3,15.4-22.6,14.7c-21.5-0.9-21.9-15.6-21.9-15.6l-5.7,1c0,0,2.6,19,27.5,19.6
			c22.9,0.6,28.2-18.2,28.2-18.2L590.2,216.8z"/>
		<path class="st11" d="M1004.1,470.3l-3.9,17.6l5-3.6l3.7,5.4l1.8-15.3L1004.1,470.3z"/>
		<path class="st11" d="M1026,470.3l3.9,17.6l-5-3.6l-3.7,5.4l-1.8-15.3L1026,470.3z"/>
		<path class="st11" d="M1014.7,477.9c9.2,0,16.7-7.4,16.7-16.7s-7.4-16.7-16.7-16.7c-9.2,0-16.7,7.4-16.7,16.7c0,0,0,0,0,0
			C998,470.4,1005.5,477.8,1014.7,477.9z"/>
		<path class="st21" d="M1014.7,477.9c9.2,0,16.7-7.4,16.7-16.7s-7.4-16.7-16.7-16.7c-9.2,0-16.7,7.4-16.7,16.7c0,0,0,0,0,0
			C998,470.4,1005.5,477.8,1014.7,477.9z"/>
		<path class="st11" d="M1014.7,473.2c6.6,0,12-5.4,12-12s-5.4-12-12-12s-12,5.4-12,12l0,0C1002.7,467.8,1008,473.2,1014.7,473.2z"
			/>
		<path class="st22" d="M1014.7,473.2c6.6,0,12-5.4,12-12s-5.4-12-12-12s-12,5.4-12,12l0,0C1002.7,467.8,1008,473.2,1014.7,473.2z"
			/>
		<path class="st11" d="M1016.9,458.8l5,0.7l-3.6,3.5l0.9,5l-4.5-2.4l-4.5,2.4l0.8-5l-3.6-3.5l5-0.7l2.2-4.5L1016.9,458.8z"/>
		<path class="st32" d="M653.6,298.8h53.1c2.5,0,4.6,2,4.6,4.6v53.1c0,2.5-2,4.6-4.6,4.6h-53.1c-2.5,0-4.6-2-4.6-4.6v-53.1
			C649,300.8,651,298.8,653.6,298.8z"/>
		<path class="st33" d="M653.4,299h53.1c2.5,0,4.6,2,4.6,4.6v53.1c0,2.5-2,4.6-4.6,4.6h-53.1c-2.5,0-4.6-2-4.6-4.6v-53.1
			C648.8,301.1,650.9,299,653.4,299z"/>
		<path class="st34" d="M653.2,299.3h53.1c2.5,0,4.6,2,4.6,4.6v53.1c0,2.5-2,4.6-4.6,4.6h-53.1c-2.5,0-4.6-2-4.6-4.6v-53.1
			C648.6,301.3,650.7,299.3,653.2,299.3z"/>
		<path class="st35" d="M653,299.5h53.1c2.5,0,4.6,2,4.6,4.6v53.1c0,2.5-2,4.6-4.6,4.6H653c-2.5,0-4.6-2-4.6-4.6v-53.1
			C648.4,301.6,650.5,299.5,653,299.5z"/>
		<path class="st36" d="M652.8,299.8h53.1c2.5,0,4.6,2,4.6,4.6v53.1c0,2.5-2,4.6-4.6,4.6h-53.1c-2.5,0-4.6-2-4.6-4.6v-53.1
			C648.3,301.8,650.3,299.8,652.8,299.8z"/>
		<path class="st37" d="M652.6,300h53.1c2.5,0,4.6,2,4.6,4.6v53.1c0,2.5-2,4.6-4.6,4.6h-53.1c-2.5,0-4.6-2-4.6-4.6v-53.1
			C648.1,302.1,650.1,300,652.6,300z"/>
		<path class="st38" d="M652.4,300.3h53.1c2.5,0,4.6,2,4.6,4.6v53.1c0,2.5-2,4.6-4.6,4.6h-53.1c-2.5,0-4.6-2-4.6-4.6v-53.1
			C647.9,302.3,649.9,300.3,652.4,300.3z"/>
		<path class="st39" d="M652.3,300.5h53.1c2.5,0,4.6,2,4.6,4.6v53.1c0,2.5-2,4.6-4.6,4.6h-53.1c-2.5,0-4.6-2-4.6-4.6v-53.1
			C647.7,302.6,649.7,300.5,652.3,300.5z"/>
		<path class="st40" d="M652.1,300.8h53.1c2.5,0,4.6,2,4.6,4.6v53.1c0,2.5-2,4.6-4.6,4.6h-53.1c-2.5,0-4.6-2-4.6-4.6v-53.1
			C647.5,302.8,649.5,300.8,652.1,300.8z"/>
		<path class="st41" d="M651.9,301H705c2.5,0,4.6,2,4.6,4.6v53.1c0,2.5-2,4.6-4.6,4.6h-53.1c-2.5,0-4.6-2-4.6-4.6v-53.1
			C647.3,303.1,649.4,301,651.9,301z"/>
		<path class="st42" d="M651.7,301.3h53.1c2.5,0,4.6,2,4.6,4.6v53.1c0,2.5-2,4.6-4.6,4.6h-53.1c-2.5,0-4.6-2-4.6-4.6v-53.1
			C647.1,303.3,649.2,301.3,651.7,301.3z"/>
		<path class="st43" d="M651.5,301.5h53.1c2.5,0,4.6,2,4.6,4.6v53.1c0,2.5-2,4.6-4.6,4.6h-53.1c-2.5,0-4.6-2-4.6-4.6v-53.1
			C646.9,303.6,649,301.5,651.5,301.5z"/>
		<path class="st44" d="M651.3,301.8h53.1c2.5,0,4.6,2,4.6,4.6v53.1c0,2.5-2,4.6-4.6,4.6h-53.1c-2.5,0-4.6-2-4.6-4.6v-53.1
			C646.8,303.8,648.8,301.8,651.3,301.8z"/>
		<path class="st45" d="M651.1,302h53.1c2.5,0,4.6,2,4.6,4.6v53.1c0,2.5-2,4.6-4.6,4.6h-53.1c-2.5,0-4.6-2-4.6-4.6v-53.1
			C646.6,304.1,648.6,302,651.1,302z"/>
		<path class="st46" d="M650.9,302.3H704c2.5,0,4.6,2,4.6,4.6v53.1c0,2.5-2,4.6-4.6,4.6h-53.1c-2.5,0-4.6-2-4.6-4.6v-53.1
			C646.4,304.3,648.4,302.3,650.9,302.3z"/>
		<path class="st47" d="M650.8,302.5h53.1c2.5,0,4.6,2,4.6,4.6v53.1c0,2.5-2,4.6-4.6,4.6h-53.1c-2.5,0-4.6-2-4.6-4.6v-53.1
			C646.2,304.6,648.2,302.5,650.8,302.5z"/>
		<path class="st48" d="M650.6,302.8h53.1c2.5,0,4.6,2,4.6,4.6v53.1c0,2.5-2,4.6-4.6,4.6h-53.1c-2.5,0-4.6-2-4.6-4.6v-53.1
			C646,304.8,648,302.8,650.6,302.8z"/>
		<path class="st49" d="M682.1,351.1v6.8c1.2,0.6,2.5,1,3.9,1.3c1.6,0.3,3.2,0.4,4.8,0.4c1.6,0,3.1-0.2,4.6-0.5
			c1.4-0.3,2.7-0.8,3.8-1.5c1.1-0.7,2-1.7,2.6-2.8c1.1-2.4,1.3-5.1,0.4-7.5c-0.4-0.9-0.9-1.8-1.6-2.5c-0.7-0.8-1.6-1.4-2.5-2
			c-1-0.6-2.1-1.2-3.2-1.6c-0.9-0.4-1.7-0.7-2.4-1.1c-0.6-0.3-1.2-0.7-1.8-1.1c-0.4-0.3-0.8-0.7-1.1-1.1c-0.3-0.4-0.4-0.9-0.4-1.4
			c0-0.4,0.1-0.9,0.4-1.3c0.3-0.4,0.6-0.7,1-1c0.5-0.3,1-0.5,1.6-0.6c0.7-0.2,1.4-0.2,2.1-0.2c0.6,0,1.2,0,1.8,0.1
			c0.6,0.1,1.3,0.2,1.9,0.4c0.6,0.2,1.3,0.4,1.9,0.7c0.6,0.3,1.1,0.6,1.7,0.9v-6.4c-1.1-0.4-2.2-0.7-3.4-0.9
			c-1.4-0.2-2.8-0.3-4.2-0.3c-1.5,0-3.1,0.2-4.6,0.5c-1.4,0.3-2.6,0.9-3.8,1.6c-1.1,0.7-2,1.7-2.6,2.8c-0.7,1.3-1,2.7-1,4.1
			c0,1.9,0.6,3.7,1.8,5.2c1.5,1.6,3.3,2.9,5.3,3.6c0.9,0.4,1.8,0.8,2.6,1.1c0.7,0.3,1.4,0.7,2.1,1.1c0.5,0.3,1,0.8,1.4,1.3
			c0.3,0.5,0.5,1,0.5,1.6c0,0.4-0.1,0.8-0.3,1.2c-0.2,0.4-0.6,0.8-1,1c-0.5,0.3-1,0.5-1.6,0.6c-0.7,0.2-1.5,0.3-2.3,0.2
			c-1.5,0-3-0.3-4.4-0.8C684.6,352.9,683.3,352.1,682.1,351.1z M670.6,334.1h8.9v-5.6h-24.8v5.6h8.8v25h7L670.6,334.1z"/>
	</g>
</g>
</svg>
