<svg xmlns="http://www.w3.org/2000/svg" viewBox="0 0 38.43 43.9"><defs><style>.cls-1{fill:#ea636d;}.cls-2{fill:#e53c49;}.cls-3{fill:#ee828a;}.cls-4{fill:#565656;}.cls-5{fill:#414141;}.cls-6{fill:#2b2b2b;}.cls-7{fill:#787878;}</style></defs><title>logo_standalone_1</title><g id="Layer_2" data-name="Layer 2"><g id="core"><polygon class="cls-1" points="19.37 0 1.03 10.51 9.2 15.23 19.37 9.91 29.2 15.23 37.5 10.47 19.37 0"/><polygon class="cls-2" points="0.04 33.3 18.33 43.9 18.32 34.46 8.62 28.33 8.55 17.2 0 12.37 0.04 33.3"/><polygon class="cls-3" points="38.39 33.3 20.1 43.9 20.11 34.46 29.82 28.33 29.82 17.16 38.43 12.37 38.39 33.3"/><polygon class="cls-4" points="27.6 18.33 26.87 16.86 19.34 12.78 11.54 16.86 10.84 18.33 11.09 26.9 18.53 31.6 19.91 31.6 27.34 26.9 27.6 18.33"/><path class="cls-5" d="M11.54,16.86,19,20.51a.72.72,0,0,0,.64,0l7.28-3.65-7.53-4.08Z"/><path class="cls-6" d="M18.53,31.6V22.43a.24.24,0,0,0-.14-.22l-7.55-3.88.25,8.57Z"/><path class="cls-7" d="M19.9,31.6V22.36a.29.29,0,0,1,.16-.25l7.54-3.78-.26,8.57Z"/></g></g></svg>