<svg xmlns="http://www.w3.org/2000/svg" viewBox="0 0 119.06 119.3"><defs><style>.cls-1{fill:#cdcdcd;}.cls-2{fill:#c8c8c8;}.cls-3{fill:#ac2d37;}.cls-4{fill:#812229;}.cls-5{fill:#585858;}.cls-6{fill:#3b3b3b;}.cls-7{fill:#ea636d;}.cls-8{fill:#e53c49;}.cls-9{fill:#565656;}.cls-10{fill:#d9d9d9;}.cls-11{fill:#bfbfbf;}.cls-12{fill:#e5e5e5;}.cls-13{fill:#fff;}.cls-14{fill:#919191;}.cls-15{fill:#ee828a;}.cls-16{fill:#414141;}.cls-17{fill:#2b2b2b;}.cls-18{fill:#787878;}</style></defs><title>core-logo</title><g id="Layer_2" data-name="Layer 2"><g id="core"><g id="BG"><rect class="cls-1" x="30.6" y="21.5" width="69.4" height="78.5"/><polygon class="cls-2" points="98.7 18.8 29.2 18.8 1.5 0 70.9 0 98.7 18.8"/></g><ellipse class="cls-3" cx="80.4" cy="39" rx="3.5" ry="3.3"/><ellipse class="cls-4" cx="80.4" cy="39" rx="2.7" ry="2.6"/><ellipse cx="80.4" cy="39" rx="2" ry="1.9"/><polygon class="cls-5" points="84.1 49.4 76.7 49.5 80.4 43.3 84.1 49.4"/><polygon class="cls-6" points="78.8 57.9 82 62.2 82 49.4 80.4 46.8 78.8 49.4 78.8 57.9"/><polygon class="cls-5" points="48.4 48.9 51.6 53.9 51.6 70 48.5 70 48.4 48.9"/><polygon class="cls-7" points="48.5 70 46.3 72 46.3 77.8 50 75.2 50 70 48.5 70"/><polygon class="cls-8" points="51.6 70 53.9 72 53.9 77.8 50.1 75.2 50.1 70 51.6 70"/><polygon class="cls-9" points="71.9 77.8 81.9 77.8 81.9 65 63.3 39.1 48.3 39.1 48.3 44.4 71.9 77.8"/><ellipse class="cls-3" cx="56.2" cy="64.4" rx="2.5" ry="2.3"/><polygon class="cls-10" points="98.7 18.8 100 21.5 30.6 21.5 29.2 18.8 98.7 18.8"/><polygon class="cls-11" points="1.5 0 0 2.9 27.8 21.4 29.2 18.8 1.5 0"/><polyline class="cls-12" points="27.8 99.3 30.6 100 30.6 21.5 29.2 18.8 27.8 21.4"/><polygon class="cls-13" points="27.8 21.4 30.6 21.5 29.2 18.8 27.8 21.4"/><polygon class="cls-6" points="48.3 39.1 75.6 77.8 71.9 77.8 48.3 44.4 48.3 39.1"/><polygon class="cls-14" points="0 2.9 27.8 21.4 27.8 99.3 0 80.5 0 2.9"/><polygon class="cls-7" points="100 75.4 81.65 85.91 89.82 90.64 100 85.31 109.82 90.64 118.12 85.87 100 75.4"/><polygon class="cls-8" points="80.66 108.7 98.95 119.3 98.94 109.86 89.24 103.73 89.17 92.6 80.62 87.77 80.66 108.7"/><polygon class="cls-15" points="119.02 108.7 100.72 119.3 100.73 109.86 110.44 103.73 110.44 92.56 119.06 87.77 119.02 108.7"/><polygon class="cls-9" points="108.22 93.73 107.5 92.26 99.96 88.18 92.16 92.26 91.46 93.73 91.71 102.3 99.15 107 100.53 107 107.97 102.3 108.22 93.73"/><path class="cls-16" d="M92.16,92.26l7.41,3.65a.72.72,0,0,0,.64,0l7.28-3.65L100,88.18Z"/><path class="cls-17" d="M99.15,107V97.83a.24.24,0,0,0-.14-.22l-7.55-3.88.25,8.57Z"/><path class="cls-18" d="M100.53,107V97.76a.28.28,0,0,1,.15-.25l7.54-3.78L108,102.3Z"/></g></g></svg>