<svg xmlns="http://www.w3.org/2000/svg" viewBox="0 0 112.81 112.79"><defs><style>.cls-1{fill:#cdcdcd;}.cls-2{fill:#c8c8c8;}.cls-3{fill:#ac2d37;}.cls-4{fill:#812229;}.cls-5{fill:#585858;}.cls-6{fill:#3b3b3b;}.cls-7{fill:#ea636d;}.cls-8{fill:#e53c49;}.cls-9{fill:#565656;}.cls-10{fill:#d9d9d9;}.cls-11{fill:#bfbfbf;}.cls-12{fill:#e5e5e5;}.cls-13{fill:#fff;}.cls-14{fill:#919191;}.cls-15{fill:#171717;}.cls-16{fill:#181818;}.cls-17{fill:#1a1a1a;}.cls-18{fill:#1b1b1b;}.cls-19{fill:#1d1d1d;}.cls-20{fill:#1e1e1e;}.cls-21{fill:#202020;}.cls-22{fill:#212121;}.cls-23{fill:#232323;}.cls-24{fill:#242424;}.cls-25{fill:#252525;}.cls-26{fill:#272727;}.cls-27{fill:#282828;}.cls-28{fill:#2a2a2a;}.cls-29{fill:#2b2b2b;}.cls-30{fill:#2d2d2d;}.cls-31{fill:#2e2e2e;}.cls-32{fill:#2e73ab;}.cls-33{fill:#2f76b0;}.cls-34{fill:#3179b4;}.cls-35{fill:#327cb9;}.cls-36{fill:#3380be;}.cls-37{fill:#3483c2;}.cls-38{fill:#3686c7;}.cls-39{fill:#3789cb;}.cls-40{fill:#388cd0;}.cls-41{fill:#398fd5;}.cls-42{fill:#3b92d9;}.cls-43{fill:#3c95de;}.cls-44{fill:#3d99e3;}.cls-45{fill:#3e9ce7;}.cls-46{fill:#409fec;}.cls-47{fill:#41a2f0;}.cls-48{fill:#42a5f5;}</style></defs><title>logo_4</title><g id="Layer_2" data-name="Layer 2"><g id="markdown"><g id="BG"><rect class="cls-1" x="30.6" y="21.5" width="69.4" height="78.5"/><polygon class="cls-2" points="98.7 18.8 29.2 18.8 1.5 0 70.9 0 98.7 18.8"/></g><ellipse class="cls-3" cx="80.4" cy="39" rx="3.5" ry="3.3"/><ellipse class="cls-4" cx="80.4" cy="39" rx="2.7" ry="2.6"/><ellipse cx="80.4" cy="39" rx="2" ry="1.9"/><polygon class="cls-5" points="84.1 49.4 76.7 49.5 80.4 43.3 84.1 49.4"/><polygon class="cls-6" points="78.8 57.9 82 62.2 82 49.4 80.4 46.8 78.8 49.4 78.8 57.9"/><polygon class="cls-5" points="48.4 48.9 51.6 53.9 51.6 70 48.5 70 48.4 48.9"/><polygon class="cls-7" points="48.5 70 46.3 72 46.3 77.8 50 75.2 50 70 48.5 70"/><polygon class="cls-8" points="51.6 70 53.9 72 53.9 77.8 50.1 75.2 50.1 70 51.6 70"/><polygon class="cls-9" points="71.9 77.8 81.9 77.8 81.9 65 63.3 39.1 48.3 39.1 48.3 44.4 71.9 77.8"/><ellipse class="cls-3" cx="56.2" cy="64.4" rx="2.5" ry="2.3"/><polygon class="cls-10" points="98.7 18.8 100 21.5 30.6 21.5 29.2 18.8 98.7 18.8"/><polygon class="cls-11" points="1.5 0 0 2.9 27.8 21.4 29.2 18.8 1.5 0"/><polyline class="cls-12" points="27.8 99.3 30.6 100 30.6 21.5 29.2 18.8 27.8 21.4"/><polygon class="cls-13" points="27.8 21.4 30.6 21.5 29.2 18.8 27.8 21.4"/><polygon class="cls-6" points="48.3 39.1 75.6 77.8 71.9 77.8 48.3 44.4 48.3 39.1"/><polygon class="cls-14" points="0 2.9 27.8 21.4 27.8 99.3 0 80.5 0 2.9"/><rect class="cls-15" x="80.45" y="85.81" width="31.37" height="24.97" rx="1.83"/><rect class="cls-16" x="80.52" y="85.93" width="31.37" height="24.97" rx="1.83"/><rect class="cls-17" x="80.58" y="86.06" width="31.37" height="24.97" rx="1.83"/><rect class="cls-18" x="80.64" y="86.19" width="31.37" height="24.97" rx="1.83"/><rect class="cls-19" x="80.7" y="86.31" width="31.37" height="24.97" rx="1.83"/><rect class="cls-20" x="80.76" y="86.44" width="31.37" height="24.97" rx="1.83"/><rect class="cls-21" x="80.82" y="86.56" width="31.37" height="24.97" rx="1.83"/><rect class="cls-22" x="80.88" y="86.69" width="31.37" height="24.97" rx="1.83"/><rect class="cls-23" x="80.94" y="86.82" width="31.37" height="24.97" rx="1.83"/><rect class="cls-24" x="81" y="86.94" width="31.37" height="24.97" rx="1.83"/><rect class="cls-25" x="81.07" y="87.07" width="31.37" height="24.97" rx="1.83"/><rect class="cls-26" x="81.13" y="87.19" width="31.37" height="24.97" rx="1.83"/><rect class="cls-27" x="81.19" y="87.32" width="31.37" height="24.97" rx="1.83"/><rect class="cls-28" x="81.25" y="87.45" width="31.37" height="24.97" rx="1.83"/><rect class="cls-29" x="81.31" y="87.57" width="31.37" height="24.97" rx="1.83"/><rect class="cls-30" x="81.37" y="87.7" width="31.37" height="24.97" rx="1.83"/><rect class="cls-31" x="81.43" y="87.82" width="31.37" height="24.97" rx="1.83"/><path class="cls-32" d="M101.43,95.48h3v4.06H107L103,104.1l-4-4.56h2.53Zm-14.2,8.11V95.48h2l3,3,3-3h2v8.11h-2V98.35l-3,3-3-3v5.24h-2"/><path class="cls-33" d="M101.46,95.51h3.05v4.06H107L103,104.13l-4-4.56h2.53Zm-14.2,8.11V95.51h2l3,3,3-3h2v8.11h-2V98.38l-3,3-3-3v5.24h-2"/><path class="cls-34" d="M101.49,95.54h3.05V99.6h2.53L103,104.16,99,99.6h2.53Zm-14.2,8.12V95.54h2l3,3,3-3h2v8.12h-2V98.41l-3,3-3-3v5.25h-2"/><path class="cls-35" d="M101.52,95.57h3v4.06h2.53l-4,4.56L99,99.63h2.53Zm-14.2,8.12V95.57h2l3,3,3-3h2v8.12h-2V98.44l-3,3-3-3v5.25h-2"/><path class="cls-36" d="M101.55,95.6h3v4.06h2.53l-4,4.56L99,99.66h2.53Zm-14.2,8.12V95.6h2l3,3,3-3h2v8.12h-2V98.47l-3,3-3-3v5.25h-2"/><path class="cls-37" d="M101.58,95.63h3v4.06h2.54l-4.06,4.56-4.06-4.56h2.53Zm-14.2,8.12V95.63h2l3,3,3-3h2v8.12h-2V98.5l-3,3-3-3v5.25h-2"/><path class="cls-38" d="M101.62,95.66h3v4.06h2.54l-4.06,4.57-4.06-4.57h2.54Zm-14.21,8.12V95.66h2l3,3,3-3h2v8.12h-2V98.53l-3,3-3-3v5.25h-2"/><path class="cls-39" d="M101.65,95.69h3v4.06h2.54l-4.06,4.57-4.06-4.57h2.54Zm-14.21,8.12V95.69h2l3,3,3-3h2v8.12h-2V98.56l-3,3-3-3v5.25h-2"/><path class="cls-40" d="M101.68,95.72h3v4.06h2.54l-4.06,4.57-4.06-4.57h2.54Zm-14.21,8.12V95.72h2l3,3,3-3h2v8.12h-2V98.59l-3,3-3-3v5.25h-2"/><path class="cls-41" d="M101.71,95.75h3v4.06h2.54l-4.06,4.57-4.06-4.57h2.54ZM87.5,103.87V95.75h2l3,3,3-3h2v8.12h-2V98.62l-3,3-3-3v5.25h-2"/><path class="cls-42" d="M101.74,95.78h3v4.06h2.54l-4.06,4.57L99.2,99.84h2.54ZM87.53,103.9V95.78h2l3,3,3-3h2v8.12h-2V98.65l-3,3-3-3v5.25h-2"/><path class="cls-43" d="M101.77,95.81h3v4.06h2.54l-4.06,4.57-4.06-4.57h2.54Zm-14.21,8.12V95.81h2l3,3,3-3h2v8.12h-2V98.69l-3,3-3-3v5.24h-2"/><path class="cls-44" d="M101.8,95.84h3V99.9h2.54l-4.06,4.57L99.26,99.9h2.54ZM87.59,104V95.84h2l3,3,3-3h2V104h-2V98.72l-3,3-3-3V104h-2"/><path class="cls-45" d="M101.83,95.88h3v4.05h2.54l-4.06,4.57-4.06-4.57h2.54ZM87.62,104V95.88h2l3,3,3-3h2V104h-2V98.75l-3,3-3-3V104h-2"/><path class="cls-46" d="M101.86,95.91h3v4h2.54l-4.06,4.57L99.32,100h2.54ZM87.66,104V95.91h2l3,3,3-3h2V104h-2V98.78l-3,3-3-3V104h-2"/><path class="cls-47" d="M101.89,95.94h3v4h2.54l-4.06,4.57L99.35,100h2.54Zm-14.2,8.11V95.94h2l3.05,3,3-3h2v8.11h-2V98.81l-3,3-3.05-3v5.24h-2"/><path class="cls-48" d="M101.92,96h3V100h2.53l-4.06,4.56L99.38,100h2.54Zm-14.2,8.11V96h2l3,3,3-3h2v8.11h-2V98.84l-3,3-3-3v5.24h-2"/></g></g></svg>