<svg xmlns="http://www.w3.org/2000/svg" viewBox="0 0 32.35 26.98"><defs><style>.cls-1{fill:#171717;}.cls-2{fill:#181818;}.cls-3{fill:#1a1a1a;}.cls-4{fill:#1b1b1b;}.cls-5{fill:#1d1d1d;}.cls-6{fill:#1e1e1e;}.cls-7{fill:#202020;}.cls-8{fill:#212121;}.cls-9{fill:#232323;}.cls-10{fill:#242424;}.cls-11{fill:#252525;}.cls-12{fill:#272727;}.cls-13{fill:#282828;}.cls-14{fill:#2a2a2a;}.cls-15{fill:#2b2b2b;}.cls-16{fill:#2d2d2d;}.cls-17{fill:#2e2e2e;}.cls-18{fill:#2e73ab;}.cls-19{fill:#2f76b0;}.cls-20{fill:#3179b4;}.cls-21{fill:#327cb9;}.cls-22{fill:#3380be;}.cls-23{fill:#3483c2;}.cls-24{fill:#3686c7;}.cls-25{fill:#3789cb;}.cls-26{fill:#388cd0;}.cls-27{fill:#398fd5;}.cls-28{fill:#3b92d9;}.cls-29{fill:#3c95de;}.cls-30{fill:#3d99e3;}.cls-31{fill:#3e9ce7;}.cls-32{fill:#409fec;}.cls-33{fill:#41a2f0;}.cls-34{fill:#42a5f5;}</style></defs><title>logo_standalone_5</title><g id="Layer_2" data-name="Layer 2"><g id="markdown"><rect class="cls-1" width="31.37" height="24.97" rx="1.83"/><rect class="cls-2" x="0.06" y="0.13" width="31.37" height="24.97" rx="1.83"/><rect class="cls-3" x="0.12" y="0.25" width="31.37" height="24.97" rx="1.83"/><rect class="cls-4" x="0.18" y="0.38" width="31.37" height="24.97" rx="1.83"/><rect class="cls-5" x="0.24" y="0.5" width="31.37" height="24.97" rx="1.83"/><rect class="cls-6" x="0.31" y="0.63" width="31.37" height="24.97" rx="1.83"/><rect class="cls-7" x="0.37" y="0.76" width="31.37" height="24.97" rx="1.83"/><rect class="cls-8" x="0.43" y="0.88" width="31.37" height="24.97" rx="1.83"/><rect class="cls-9" x="0.49" y="1.01" width="31.37" height="24.97" rx="1.83"/><rect class="cls-10" x="0.55" y="1.13" width="31.37" height="24.97" rx="1.83"/><rect class="cls-11" x="0.61" y="1.26" width="31.37" height="24.97" rx="1.83"/><rect class="cls-12" x="0.67" y="1.39" width="31.37" height="24.97" rx="1.83"/><rect class="cls-13" x="0.73" y="1.51" width="31.37" height="24.97" rx="1.83"/><rect class="cls-14" x="0.8" y="1.64" width="31.37" height="24.97" rx="1.83"/><rect class="cls-15" x="0.86" y="1.76" width="31.37" height="24.97" rx="1.83"/><rect class="cls-16" x="0.92" y="1.89" width="31.37" height="24.97" rx="1.83"/><rect class="cls-17" x="0.98" y="2.02" width="31.37" height="24.97" rx="1.83"/><path class="cls-18" d="M21,9.67h3v4.06h2.54L22.5,18.29l-4.06-4.56H21ZM6.77,17.79V9.67h2l3,3,3-3h2v8.12h-2V12.54l-3,3-3-3v5.25h-2"/><path class="cls-19" d="M21,9.7h3v4.06h2.54l-4.06,4.56-4.06-4.56H21ZM6.8,17.82V9.7h2l3.05,3,3-3h2v8.12h-2V12.57l-3,3-3.05-3v5.25h-2"/><path class="cls-20" d="M21,9.73h3v4.06h2.54l-4.06,4.56L18.5,13.79H21ZM6.83,17.85V9.73h2l3.05,3,3-3h2v8.12H15V12.6l-3,3.05L8.86,12.6v5.25h-2"/><path class="cls-21" d="M21.07,9.76h3v4.06h2.54l-4.06,4.57-4.06-4.57h2.54ZM6.86,17.88V9.76h2l3,3,3-3h2v8.12H15V12.63l-3,3-3-3v5.25h-2"/><path class="cls-22" d="M21.1,9.79h3v4.06h2.54l-4.06,4.57-4.06-4.57H21.1ZM6.9,17.91V9.79h2L12,12.84l3-3.05h2v8.12H15V12.66l-3,3.05L8.92,12.66v5.25h-2"/><path class="cls-23" d="M21.13,9.82h3v4.06h2.54l-4.06,4.57-4.06-4.57h2.54ZM6.93,17.94V9.82H9l3,3,3-3h2v8.12H15V12.69l-3,3.05L9,12.69v5.25h-2"/><path class="cls-24" d="M21.16,9.85h3.05v4.06h2.53l-4.06,4.57-4.06-4.57h2.54ZM7,18V9.85H9l3,3.05,3-3.05h2V18h-2V12.72l-3,3-3-3V18H7"/><path class="cls-25" d="M21.19,9.88h3v4.06h2.53l-4.06,4.57-4.05-4.57h2.53ZM7,18V9.88H9l3,3,3-3h2V18h-2V12.75l-3,3.05L9,12.75V18H7"/><path class="cls-26" d="M21.22,9.91h3.05V14H26.8l-4.06,4.57-4-4.57h2.53ZM7,18V9.91h2l3,3.05,3-3.05h2V18h-2V12.79l-3,3-3-3V18H7"/><path class="cls-27" d="M21.25,9.94H24.3V14h2.53l-4.06,4.57L18.72,14h2.53ZM7.05,18.06V9.94h2l3,3.05,3.05-3.05h2v8.12h-2V12.82l-3.05,3-3-3v5.24h-2"/><path class="cls-28" d="M21.28,10h3v4h2.53L22.81,18.6,18.75,14h2.53ZM7.08,18.09V10h2l3,3,3-3h2v8.11h-2V12.85l-3,3-3-3v5.24h-2"/><path class="cls-29" d="M21.31,10h3.05v4.05h2.53l-4.05,4.57-4.06-4.57h2.53ZM7.11,18.12V10h2l3,3,3.05-3h2v8.11h-2V12.88l-3.05,3-3-3v5.24h-2"/><path class="cls-30" d="M21.34,10h3.05v4.05h2.54l-4.06,4.57-4.06-4.57h2.53ZM7.14,18.15V10h2l3,3,3-3h2v8.11h-2V12.91l-3,3-3-3v5.24h-2"/><path class="cls-31" d="M21.38,10.07h3v4.06H27L22.9,18.69l-4.06-4.56h2.54ZM7.17,18.18V10.07h2l3,3,3-3h2v8.11h-2V12.94l-3,3-3-3v5.24h-2"/><path class="cls-32" d="M21.41,10.1h3v4.06H27l-4.06,4.56-4.06-4.56h2.54ZM7.2,18.21V10.1h2l3,3,3.05-3h2v8.11h-2V13l-3.05,3-3-3v5.24h-2"/><path class="cls-33" d="M21.44,10.13h3v4.06H27L23,18.75,18.9,14.19h2.54ZM7.23,18.25V10.13h2l3,3,3-3h2v8.12h-2V13l-3,3-3-3v5.25h-2"/><path class="cls-34" d="M21.47,10.16h3v4.06h2.54L23,18.78l-4.06-4.56h2.54ZM7.26,18.28V10.16h2l3.05,3,3-3h2v8.12h-2V13l-3,3L9.29,13v5.25h-2"/></g></g></svg>