<svg xmlns="http://www.w3.org/2000/svg" viewBox="0 0 42.81 43.39"><defs><style>.cls-1{fill:#d1399e;}.cls-2{fill:#c52e92;}.cls-3,.cls-5{fill:#e535ab;}.cls-3{stroke:#e535ab;stroke-width:2.1px;}.cls-3,.cls-4{stroke-miterlimit:10;}.cls-4{fill:#a6277c;stroke:#b82b89;}</style></defs><title>logo_standalone_4</title><g id="Layer_2" data-name="Layer 2"><g id="graphql"><polygon class="cls-1" points="21.41 21.99 38.46 12.85 38.8 30.29 21.41 39.72 21.41 21.99"/><polygon class="cls-2" points="4.55 12.85 21.74 3.74 38.46 12.85 21.41 21.99 4.55 12.85"/><line class="cls-3" x1="21.4" y1="21.99" x2="38.8" y2="30.29"/><polygon class="cls-4" points="21.41 39.72 4.22 30.77 4.24 13.13 21.41 21.99 21.41 39.72"/><path class="cls-5" d="M40.65,27.26a4.26,4.26,0,0,0-1.13-.41V16.54a4.52,4.52,0,0,0,1.15-.41,3.67,3.67,0,0,0,1.57-5.28,4.57,4.57,0,0,0-5.86-1.42,4.13,4.13,0,0,0-1,.69L25.51,5a3.38,3.38,0,0,0,.18-1.1A4.09,4.09,0,0,0,21.4,0a4.08,4.08,0,0,0-4.28,3.87A3.67,3.67,0,0,0,17.29,5L7.4,10.12a4,4,0,0,0-1-.69A4.56,4.56,0,0,0,.57,10.85a3.67,3.67,0,0,0,1.57,5.28,4.52,4.52,0,0,0,1.15.41V26.85a4.26,4.26,0,0,0-1.13.41A3.68,3.68,0,0,0,.58,32.54,4.56,4.56,0,0,0,6.44,34a4,4,0,0,0,1-.68l9.89,5.15a3.55,3.55,0,0,0-.17,1.09,4.08,4.08,0,0,0,4.28,3.87,4.09,4.09,0,0,0,4.29-3.87,3.56,3.56,0,0,0-.22-1.22l9.84-5.12a4,4,0,0,0,1.06.78,4.56,4.56,0,0,0,5.86-1.42A3.65,3.65,0,0,0,40.65,27.26ZM18.32,6.55A4.49,4.49,0,0,0,21.4,7.73a4.53,4.53,0,0,0,3.08-1.17l9.92,5.16A3.46,3.46,0,0,0,34.46,14l-9.84,5.13a4.34,4.34,0,0,0-1.07-.8,4.65,4.65,0,0,0-5.33.76L8.37,14a3.47,3.47,0,0,0,0-2.25ZM8.42,31.68a3.56,3.56,0,0,0-.4-3,4.33,4.33,0,0,0-2.69-1.82V16.53a4.38,4.38,0,0,0,2-1l10,5.18a3.72,3.72,0,0,0,2,4.33,4.61,4.61,0,0,0,1.13.4V35.76a4.39,4.39,0,0,0-2.07,1.08Zm16.16,5.24a4.45,4.45,0,0,0-2.16-1.16V25.45a4.26,4.26,0,0,0,2.7-1.82,3.54,3.54,0,0,0,.45-2.86l10-5.2a4.45,4.45,0,0,0,1.93,1V26.85a4.3,4.3,0,0,0-2.69,1.82,3.55,3.55,0,0,0-.36,3.12Z"/></g></g></svg>