<svg xmlns="http://www.w3.org/2000/svg" viewBox="0 0 121.4 120.99"><defs><style>.cls-1{fill:#cdcdcd;}.cls-2{fill:#c8c8c8;}.cls-3{fill:#ac2d37;}.cls-4{fill:#812229;}.cls-5{fill:#585858;}.cls-6{fill:#3b3b3b;}.cls-7{fill:#ea636d;}.cls-8{fill:#e53c49;}.cls-9{fill:#565656;}.cls-10{fill:#d9d9d9;}.cls-11{fill:#bfbfbf;}.cls-12{fill:#e5e5e5;}.cls-13{fill:#fff;}.cls-14{fill:#919191;}.cls-15{fill:#d1399e;}.cls-16{fill:#c52e92;}.cls-17,.cls-19{fill:#e535ab;}.cls-17{stroke:#e535ab;stroke-width:2.1px;}.cls-17,.cls-18{stroke-miterlimit:10;}.cls-18{fill:#a6277c;stroke:#b82b89;}</style></defs><title>logo_4</title><g id="Layer_2" data-name="Layer 2"><g id="graphql"><g id="BG"><rect class="cls-1" x="30.6" y="21.5" width="69.4" height="78.5"/><polygon class="cls-2" points="98.7 18.8 29.2 18.8 1.5 0 70.9 0 98.7 18.8"/></g><ellipse class="cls-3" cx="80.4" cy="39" rx="3.5" ry="3.3"/><ellipse class="cls-4" cx="80.4" cy="39" rx="2.7" ry="2.6"/><ellipse cx="80.4" cy="39" rx="2" ry="1.9"/><polygon class="cls-5" points="84.1 49.4 76.7 49.5 80.4 43.3 84.1 49.4"/><polygon class="cls-6" points="78.8 57.9 82 62.2 82 49.4 80.4 46.8 78.8 49.4 78.8 57.9"/><polygon class="cls-5" points="48.4 48.9 51.6 53.9 51.6 70 48.5 70 48.4 48.9"/><polygon class="cls-7" points="48.5 70 46.3 72 46.3 77.8 50 75.2 50 70 48.5 70"/><polygon class="cls-8" points="51.6 70 53.9 72 53.9 77.8 50.1 75.2 50.1 70 51.6 70"/><polygon class="cls-9" points="71.9 77.8 81.9 77.8 81.9 65 63.3 39.1 48.3 39.1 48.3 44.4 71.9 77.8"/><ellipse class="cls-3" cx="56.2" cy="64.4" rx="2.5" ry="2.3"/><polygon class="cls-10" points="98.7 18.8 100 21.5 30.6 21.5 29.2 18.8 98.7 18.8"/><polygon class="cls-11" points="1.5 0 0 2.9 27.8 21.4 29.2 18.8 1.5 0"/><polyline class="cls-12" points="27.8 99.3 30.6 100 30.6 21.5 29.2 18.8 27.8 21.4"/><polygon class="cls-13" points="27.8 21.4 30.6 21.5 29.2 18.8 27.8 21.4"/><polygon class="cls-6" points="48.3 39.1 75.6 77.8 71.9 77.8 48.3 44.4 48.3 39.1"/><polygon class="cls-14" points="0 2.9 27.8 21.4 27.8 99.3 0 80.5 0 2.9"/><polygon class="cls-15" points="100 99.6 117.06 90.45 117.39 107.9 100.01 117.33 100 99.6"/><polygon class="cls-16" points="83.15 90.45 100.33 81.34 117.06 90.45 100 99.6 83.15 90.45"/><line class="cls-17" x1="100" y1="99.6" x2="117.39" y2="107.9"/><polygon class="cls-18" points="100.01 117.33 82.82 108.38 82.83 90.74 100 99.6 100.01 117.33"/><path class="cls-19" d="M119.25,104.86a4.23,4.23,0,0,0-1.13-.4V94.15a4.87,4.87,0,0,0,1.14-.41,3.68,3.68,0,0,0,1.57-5.29A4.55,4.55,0,0,0,115,87a4,4,0,0,0-1,.69l-9.89-5.15a3.69,3.69,0,0,0,.18-1.11,4.31,4.31,0,0,0-8.58,0,3.62,3.62,0,0,0,.18,1.1L86,87.73A4,4,0,0,0,85,87a4.55,4.55,0,0,0-5.86,1.41,3.68,3.68,0,0,0,1.57,5.29,4.87,4.87,0,0,0,1.14.41v10.31a4.36,4.36,0,0,0-1.13.4,3.68,3.68,0,0,0-1.57,5.29A4.55,4.55,0,0,0,85,111.56a4.48,4.48,0,0,0,1-.68L95.89,116a3.38,3.38,0,0,0-.18,1.1,4.31,4.31,0,0,0,8.58,0,3.52,3.52,0,0,0-.22-1.22l9.83-5.12a4.19,4.19,0,0,0,1.06.77,4.55,4.55,0,0,0,5.86-1.41A3.67,3.67,0,0,0,119.25,104.86ZM96.92,84.16a4.61,4.61,0,0,0,6.16,0L113,89.33a3.53,3.53,0,0,0,.06,2.29l-9.84,5.12a4.19,4.19,0,0,0-1.07-.79,4.61,4.61,0,0,0-5.32.76L87,91.57a3.47,3.47,0,0,0,0-2.25ZM87,109.29a3.49,3.49,0,0,0-.4-3,4.26,4.26,0,0,0-2.69-1.82V94.14a4.54,4.54,0,0,0,2-1l9.95,5.19a3.73,3.73,0,0,0,2,4.32,4.72,4.72,0,0,0,1.12.41v10.31a4.56,4.56,0,0,0-2.07,1.07Zm16.16,5.23a4.41,4.41,0,0,0-2.15-1.15V103.06a4.27,4.27,0,0,0,2.7-1.83,3.53,3.53,0,0,0,.44-2.86l10-5.2a4.4,4.4,0,0,0,1.94,1v10.32a4.21,4.21,0,0,0-2.69,1.82,3.53,3.53,0,0,0-.37,3.11Z"/></g></g></svg>