<svg xmlns="http://www.w3.org/2000/svg" viewBox="0 0 350 350"><defs><style>.cls-1{fill:#cdcdcd;}.cls-2{fill:#c8c8c8;}.cls-3{fill:#ac2d37;}.cls-4{fill:#812229;}.cls-5{fill:#585858;}.cls-6{fill:#3b3b3b;}.cls-7{fill:#ea636d;}.cls-8{fill:#e53c49;}.cls-9{fill:#565656;}.cls-10{fill:#d9d9d9;}.cls-11{fill:#bfbfbf;}.cls-12{fill:#e5e5e5;}.cls-13{fill:#919191;}</style></defs><title>Asset 3@350px</title><g id="Layer_2" data-name="Layer 2"><g id="Logo_1" data-name="Logo 1"><g id="BG"><rect class="cls-1" x="106.94" y="75.13" width="243.06" height="274.87"/><polygon class="cls-2" points="345.4 65.84 102.35 65.84 5.25 0.08 247.96 0 345.4 65.84"/></g><ellipse class="cls-3" cx="281.37" cy="136.46" rx="12.16" ry="11.62"/><ellipse class="cls-4" cx="281.37" cy="136.46" rx="9.37" ry="8.95"/><ellipse cx="281.37" cy="136.46" rx="6.87" ry="6.56"/><polygon class="cls-5" points="294.47 172.99 268.56 173.18 281.35 151.64 294.47 172.99"/><polygon class="cls-6" points="275.74 202.49 286.83 217.72 287 173.01 281.29 163.74 275.79 173.05 275.74 202.49"/><polygon class="cls-5" points="169.49 171.14 180.59 188.59 180.59 245.16 169.89 245.16 169.49 171.14"/><polygon class="cls-7" points="169.89 245.16 161.97 252.04 161.97 272.2 175.04 263.07 175.04 245.16 169.89 245.16"/><polygon class="cls-8" points="180.54 245.16 188.46 252.04 188.46 272.2 175.39 263.07 175.39 245.16 180.54 245.16"/><polygon class="cls-9" points="251.55 272.2 286.76 272.2 286.76 227.37 221.53 136.76 168.94 136.76 168.94 155.26 251.55 272.2"/><ellipse class="cls-3" cx="196.58" cy="225.55" rx="8.6" ry="8.22"/><polygon class="cls-10" points="345.4 65.84 350 75.13 106.94 75.13 102.35 65.84 345.4 65.84"/><polygon class="cls-11" points="5.25 0.08 0 10.05 97.22 74.72 102.35 65.84 5.25 0.08"/><polyline class="cls-12" points="97.22 347.51 106.94 350 106.94 75.13 102.35 65.84 97.22 74.72"/><polygon class="cls-1" points="97.22 74.72 106.94 75.13 102.35 65.84 97.22 74.72"/><polygon class="cls-6" points="168.94 136.76 264.55 272.2 251.55 272.2 168.94 155.26 168.94 136.76"/><polygon class="cls-13" points="0 10.11 97.22 74.73 97.22 347.51 0 281.66 0 10.11"/></g></g></svg>