<svg xmlns="http://www.w3.org/2000/svg" viewBox="0 0 200 200"><defs><style>.cls-1{fill:#cdcdcd;}.cls-2{fill:#c8c8c8;}.cls-3{fill:#ac2d37;}.cls-4{fill:#812229;}.cls-5{fill:#585858;}.cls-6{fill:#3b3b3b;}.cls-7{fill:#ea636d;}.cls-8{fill:#e53c49;}.cls-9{fill:#565656;}.cls-10{fill:#d9d9d9;}.cls-11{fill:#bfbfbf;}.cls-12{fill:#e5e5e5;}.cls-13{fill:#919191;}</style></defs><title>Asset 3@200px</title><g id="Layer_2" data-name="Layer 2"><g id="Logo_1" data-name="Logo 1"><g id="BG"><rect class="cls-1" x="61.11" y="42.93" width="138.89" height="157.07"/><polygon class="cls-2" points="197.37 37.62 58.48 37.62 3 0.04 141.69 0 197.37 37.62"/></g><ellipse class="cls-3" cx="160.78" cy="77.98" rx="6.95" ry="6.64"/><ellipse class="cls-4" cx="160.78" cy="77.98" rx="5.35" ry="5.12"/><ellipse cx="160.78" cy="77.98" rx="3.92" ry="3.75"/><polygon class="cls-5" points="168.27 98.85 153.46 98.96 160.77 86.65 168.27 98.85"/><polygon class="cls-6" points="157.56 115.71 163.9 124.42 164 98.86 160.74 93.57 157.59 98.89 157.56 115.71"/><polygon class="cls-5" points="96.85 97.8 103.19 107.77 103.19 140.09 97.08 140.09 96.85 97.8"/><polygon class="cls-7" points="97.08 140.09 92.55 144.02 92.55 155.54 100.02 150.32 100.02 140.09 97.08 140.09"/><polygon class="cls-8" points="103.17 140.09 107.69 144.02 107.69 155.54 100.22 150.32 100.22 140.09 103.17 140.09"/><polygon class="cls-9" points="143.74 155.54 163.87 155.54 163.87 129.93 126.59 78.15 96.54 78.15 96.54 88.72 143.74 155.54"/><ellipse class="cls-3" cx="112.33" cy="128.89" rx="4.91" ry="4.7"/><polygon class="cls-10" points="197.37 37.62 200 42.93 61.11 42.93 58.48 37.62 197.37 37.62"/><polygon class="cls-11" points="3 0.04 0 5.75 55.56 42.7 58.48 37.62 3 0.04"/><polyline class="cls-12" points="55.55 198.58 61.11 200 61.11 42.93 58.48 37.62 55.56 42.7"/><polygon class="cls-1" points="55.56 42.7 61.11 42.93 58.48 37.62 55.56 42.7"/><polygon class="cls-6" points="96.54 78.15 151.17 155.54 143.74 155.54 96.54 88.72 96.54 78.15"/><polygon class="cls-13" points="0 5.78 55.56 42.7 55.55 198.58 0 160.95 0 5.78"/></g></g></svg>