<svg xmlns="http://www.w3.org/2000/svg" viewBox="0 0 100 100"><defs><style>.cls-14{fill:#fff;}.cls-1{fill:#cdcdcd;}.cls-2{fill:#c8c8c8;}.cls-3{fill:#ac2d37;}.cls-4{fill:#812229;}.cls-5{fill:#585858;}.cls-6{fill:#3b3b3b;}.cls-7{fill:#ea636d;}.cls-8{fill:#e53c49;}.cls-9{fill:#565656;}.cls-10{fill:#d9d9d9;}.cls-11{fill:#bfbfbf;}.cls-12{fill:#e5e5e5;}.cls-13{fill:#919191;}</style></defs><title>Asset 3@100px</title><g id="Layer_2" data-name="Layer 2"><g id="Logo_1" data-name="Logo 1"><g id="BG"><rect class="cls-1" x="30.56" y="21.46" width="69.44" height="78.54"/><polygon class="cls-2" points="98.69 18.81 29.24 18.81 1.5 0.02 70.85 0 98.69 18.81"/></g><ellipse class="cls-3" cx="80.39" cy="38.99" rx="3.48" ry="3.32"/><ellipse class="cls-4" cx="80.39" cy="38.99" rx="2.68" ry="2.56"/><ellipse cx="80.39" cy="38.99" rx="1.96" ry="1.87"/><polygon class="cls-5" points="84.14 49.43 76.73 49.48 80.39 43.33 84.14 49.43"/><polygon class="cls-6" points="78.78 57.85 81.95 62.21 82 49.43 80.37 46.78 78.8 49.44 78.78 57.85"/><polygon class="cls-5" points="48.43 48.9 51.6 53.88 51.6 70.05 48.54 70.05 48.43 48.9"/><polygon class="cls-7" points="48.54 70.05 46.28 72.01 46.28 77.77 50.01 75.16 50.01 70.05 48.54 70.05"/><polygon class="cls-8" points="51.58 70.05 53.85 72.01 53.85 77.77 50.11 75.16 50.11 70.05 51.58 70.05"/><polygon class="cls-9" points="71.87 77.77 81.93 77.77 81.93 64.96 63.29 39.08 48.27 39.08 48.27 44.36 71.87 77.77"/><ellipse class="cls-3" cx="56.16" cy="64.44" rx="2.46" ry="2.35"/><polygon class="cls-10" points="98.69 18.81 100 21.46 30.56 21.46 29.24 18.81 98.69 18.81"/><polygon class="cls-11" points="1.5 0.02 0 2.87 27.78 21.35 29.24 18.81 1.5 0.02"/><polyline class="cls-12" points="27.78 99.29 30.56 100 30.56 21.46 29.24 18.81 27.78 21.35"/><polygon class="cls-14" points="27.78 21.35 30.56 21.46 29.24 18.81 27.78 21.35"/><polygon class="cls-6" points="48.27 39.08 75.59 77.77 71.87 77.77 48.27 44.36 48.27 39.08"/><polygon class="cls-13" points="0 2.89 27.78 21.35 27.78 99.29 0 80.47 0 2.89"/></g></g></svg>