<svg id="Layer_1" data-name="Layer 1" xmlns="http://www.w3.org/2000/svg" viewBox="0 0 415.53 169.38"><defs><style>.cls-1{fill-rule:evenodd;}.cls-2{fill:#f94b4b;}.cls-3{fill:#fff;}.cls-4{fill:#717171;}.cls-5{fill:#7f7777;}.cls-6{fill:#f71e1e;}.cls-7{fill:#b91616;}.cls-8{fill:#7c0f0f;}.cls-9{fill:#6b6b6b;}.cls-10{fill:#8e8e8e;}.cls-11{fill:#ebf0f3;}.cls-12{fill:#e1e6e9;}.cls-13{fill:#242424;}.cls-14,.cls-15{fill:#121212;}.cls-15{stroke:#4d4545;stroke-miterlimit:10;stroke-width:2px;}.cls-16{fill:#505050;}.cls-17{fill:#050505;}.cls-18{fill:#414141;}.cls-19{fill:#dcfee4;}.cls-20{fill:#50f87a;}.cls-21{fill:#bba936;}</style></defs><title>Nishan BG</title><path class="cls-1" d="M422.5,326.3l-16.65,1.22a1.83,1.83,0,0,0-1.81,2v18.2a3.9,3.9,0,0,0,1,2.45l3.91,5.07a2.43,2.43,0,0,0,2.46.94l19.33-1.17c1.64-.12,2.11-.87,2.11-2.16V332.42c0-.66-.27-.86-1-1.42l-.13-.1-5.32-3.73C425.07,326.24,424.54,326.12,422.5,326.3Zm-10.66,5.78c-1.58.11-1.94.13-2.84-.59l-2.28-1.81c-.23-.23-.11-.53.47-.58l16-1.17a3.29,3.29,0,0,1,2.57.76l2.74,2c.12.06.41.41.06.41l-16.53,1ZM410,352.72V335.34c0-.76.24-1.11.94-1.17l19-1.11c.65-.06.94.35.94,1.11v17.26c0,.76-.12,1.4-1.17,1.46l-18.17,1.05C410.46,354,410,353.65,410,352.72Z" transform="translate(-48.21 -193.26)"/><polygon class="cls-1" points="379.55 156.88 365.25 157.86 365.25 143.91 379.55 142.88 379.55 156.88"/><path class="cls-1" d="M453.39,324.79,436.74,326a1.83,1.83,0,0,0-1.81,2v18.2a3.92,3.92,0,0,0,1,2.45l3.91,5.07a2.42,2.42,0,0,0,2.46.94l19.33-1.17c1.64-.12,2.1-.87,2.1-2.16V330.91c0-.66-.26-.85-1-1.42l-.13-.1-5.32-3.73C456,324.73,455.44,324.61,453.39,324.79Zm-10.66,5.78c-1.57.11-1.93.14-2.83-.59l-2.28-1.81c-.23-.23-.11-.53.47-.58l16-1.17a3.29,3.29,0,0,1,2.57.76l2.74,2c.12.06.41.41.06.41l-16.53,1Zm-1.84,20.64V333.83c0-.76.24-1.11.94-1.17l19-1.11c.65-.06.94.35.94,1.11v17.26c0,.76-.12,1.41-1.17,1.46l-18.17,1.05C441.36,352.49,440.89,352.14,440.89,351.21Z" transform="translate(-48.21 -193.26)"/><polygon class="cls-1" points="410.45 155.38 396.15 156.35 396.15 142.4 410.45 141.38 410.45 155.38"/><path class="cls-2" d="M384.77,245.56l-6.47-11.22,4.59-2.1,4.77,8.68,27.55-.73,3.13,2.26-2.68,2.7Z" transform="translate(-48.21 -193.26)"/><polygon class="cls-3" points="380.54 48.17 360.79 48.36 360.37 30.85 380.03 29.86 380.54 48.17"/><path class="cls-1" d="M420.53,218.17l-14.12,1a1.54,1.54,0,0,0-1.53,1.73v15.43a3.3,3.3,0,0,0,.84,2.08l3.32,4.3a2.05,2.05,0,0,0,2.08.79l16.4-1c1.39-.1,1.78-.74,1.78-1.83V223.36c0-.56-.22-.72-.88-1.2l-.11-.09-4.51-3.16C422.71,218.12,422.27,218,420.53,218.17Zm-9,4.91c-1.34.09-1.64.11-2.4-.51L407.16,221c-.2-.2-.1-.45.39-.5l13.58-1a2.83,2.83,0,0,1,2.18.64l2.33,1.69c.09.05.34.34,0,.34l-14,.84Zm-1.56,17.49V225.83c0-.64.2-.94.79-1l16.1-.94c.55-.05.8.3.8.94v14.65c0,.64-.1,1.18-1,1.23l-15.41.89C410.33,241.66,409.93,241.37,409.93,240.57Z" transform="translate(-48.21 -193.26)"/><polygon class="cls-1" points="376.79 45.13 364.66 45.96 364.66 34.13 376.79 33.26 376.79 45.13"/><path class="cls-4" d="M383.73,340.94c5.92,0,10.72,4.5,10.72,10.07v7.55H292.67V351c0-5.57,4.8-10.07,10.72-10.07Z" transform="translate(-48.21 -193.26)"/><path class="cls-5" d="M368.18,293.12l15,47.82H307.77l20.14-47.82a20.14,20.14,0,0,0,40.27,0Z" transform="translate(-48.21 -193.26)"/><polyline class="cls-5" points="228 71.56 276.25 99.72 311.45 79.39 247.56 60.23"/><polygon class="cls-6" points="312.04 78.37 287.39 78.37 275.07 99.72 287.39 121.06 312.04 121.06 324.37 99.72 312.04 78.37"/><circle class="cls-7" cx="299.72" cy="99.72" r="10.07"/><polygon class="cls-5" points="247.56 60.23 321.23 37.98 318.4 27.66 227.63 48.76 247.56 60.23"/><path class="cls-8" d="M292.67,353.52H394.45v5H292.67Z" transform="translate(-48.21 -193.26)"/><path class="cls-7" d="M415.33,220.05l-26.5-7.23-9.08,6.81-3-4,11.06-8.28,28.87,7.87,2.43,3.51Z" transform="translate(-48.21 -193.26)"/><path class="cls-6" d="M375.73,215.1a10.08,10.08,0,1,1-8.76,5.11h0A10,10,0,0,1,375.73,215.1Z" transform="translate(-48.21 -193.26)"/><path class="cls-7" d="M307.09,340.94h76.12l-1.62-5h-72Z" transform="translate(-48.21 -193.26)"/><path class="cls-9" d="M72.87,309.4V199.2a5.94,5.94,0,0,1,5.94-5.94H240.49a5.94,5.94,0,0,1,5.95,5.94V309.4Z" transform="translate(-48.21 -193.26)"/><polygon class="cls-10" points="0 161.78 24.66 116.15 198.23 116.15 222.89 161.78 0 161.78"/><rect class="cls-11" x="31.72" y="7.05" width="159.46" height="102.06"/><path class="cls-9" d="M48.21,355H271.1v4.63c0,1.64-2.66,3-5.94,3h-211c-3.28,0-5.94-1.33-5.94-3Z" transform="translate(-48.21 -193.26)"/><polygon class="cls-12" points="131.64 157.17 71.25 157.17 81.33 144.96 121.56 144.96 131.64 157.17"/><rect class="cls-13" x="31.72" y="7.05" width="122.27" height="10.52"/><rect class="cls-14" x="153.98" y="7.05" width="37.19" height="102.06"/><rect class="cls-13" x="31.72" y="103.7" width="159.46" height="5.41"/><rect class="cls-11" x="31.8" y="17.57" width="61.05" height="86.13"/><path class="cls-15" d="M141.06,297" transform="translate(-48.21 -193.26)"/><path class="cls-15" d="M141.06,200.31" transform="translate(-48.21 -193.26)"/><rect class="cls-16" x="31.72" y="17.57" width="122.27" height="86.13"/><rect class="cls-14" x="43.18" y="24.72" width="32.07" height="5.79" rx="2.89"/><rect class="cls-14" x="43.18" y="35.93" width="39.17" height="6.36" rx="2.89"/><rect class="cls-17" x="43.18" y="48.29" width="17.28" height="5.79" rx="2.89"/><rect class="cls-18" x="31.72" y="17.57" width="7.46" height="86.13"/><polygon class="cls-18" points="204.27 138.96 18.81 138.96 28.62 120.04 194.08 120.04 204.27 138.96"/><polygon class="cls-6" points="250.56 60.23 227.66 72.75 227.63 46.76 250.56 60.23"/><circle class="cls-7" cx="327.52" cy="31.91" r="5.19"/><rect class="cls-19" x="156.56" y="57.91" width="29.87" height="3.57"/><rect class="cls-20" x="156.56" y="57.91" width="23.72" height="3.57"/><rect class="cls-19" x="156.56" y="46.91" width="29.87" height="3.57"/><rect class="cls-21" x="156.56" y="46.91" width="14.53" height="3.57"/></svg>