<svg xmlns="http://www.w3.org/2000/svg" viewBox="0 0 100 100"><defs><style>.cls-1{fill:#e53c49;}.cls-2{fill:#ea636d;}.cls-3{fill:#f2a1a7;}.cls-4{fill:#ac2d37;}.cls-5{fill:#ebebeb;}.cls-6{fill:#f7c1c5;}.cls-7{fill:#812229;}.cls-8{fill:#ffe75a;}.cls-9{fill:#eed5d7;}.cls-10{fill:#2b0b0e;}</style></defs><title>Easy</title><g id="Layer_2" data-name="Layer 2"><g id="Layer_1-2" data-name="Layer 1"><path class="cls-1" d="M96,90V16l-3,.24a125.37,125.37,0,0,0-35.58,8L52,26.32V100l3.91-1.5a130,130,0,0,1,36.8-8.28Z"/><path class="cls-2" d="M7.05,16.24,4,16V90l3.55.28a129.37,129.37,0,0,1,36.76,8.32L48,100V26.32l-5.37-2.06A125.37,125.37,0,0,0,7.05,16.24Z"/><polygon class="cls-3" points="4 16 0 27.45 0 91.68 4 89.98 4 16"/><polygon class="cls-4" points="96 16 100 26.94 100 91.68 96 89.97 96 16"/><rect class="cls-5" x="48" y="26.32" width="4" height="73.68"/><path class="cls-6" d="M0,91.68S31.81,93.13,48,100h0S25,89.58,4,90Z"/><path class="cls-7" d="M100,91.68S68.19,93.13,52,100h0S75,89.58,96,90Z"/><path class="cls-8" d="M49.94,13c-6.53,0-11.82,4.9-11.82,10.94a10.59,10.59,0,0,0,1.57,5.46c2.91,4.84,3.68,7.56,4.15,10.19.4,2.21.95,2.72,2.75,2.72H53.3c1.8,0,2.35-.51,2.75-2.72.47-2.63,1.24-5.35,4.15-10.19a10.59,10.59,0,0,0,1.57-5.46C61.78,17.88,56.48,13,49.94,13Z"/><path class="cls-8" d="M54.18,43.08H45.72a.61.61,0,0,0-.63.59v.39a.61.61,0,0,0,.63.58h8.46a.61.61,0,0,0,.63-.58v-.39A.61.61,0,0,0,54.18,43.08Z"/><path class="cls-8" d="M54.18,45.43H45.72a.61.61,0,0,0-.63.58v.39a.61.61,0,0,0,.63.59h8.46a.61.61,0,0,0,.63-.59V46A.61.61,0,0,0,54.18,45.43Z"/><path class="cls-8" d="M54.18,47.77H45.72a.61.61,0,0,0-.63.59v.39a.61.61,0,0,0,.63.58h8.46a.61.61,0,0,0,.63-.58v-.39A.61.61,0,0,0,54.18,47.77Z"/><path class="cls-8" d="M46.78,50.12h6.34c0,1.17-1.69,2-3.18,2S46.78,51.29,46.78,50.12Z"/><path class="cls-8" d="M63.53,5.28C64.61,3.53,61.7,2,60.61,3.71l-4.69,7.51,2.93,1.56,4.68-7.5Z"/><path class="cls-8" d="M70.13,11.39h0l-7.86,4.2L64,18.3l7.87-4.21C73.71,13.09,72,10.39,70.13,11.39Z"/><path class="cls-8" d="M51.7,1.51V9.85H48.32V1.51C48.32-.5,51.7-.5,51.7,1.51Z"/><path class="cls-8" d="M36.42,5.28C35.34,3.53,38.25,2,39.34,3.71L44,11.22,41.1,12.78s-3.67-5.87-4.68-7.5Z"/><path class="cls-8" d="M29.82,11.39h0l7.86,4.2L36,18.3l-7.88-4.21C26.24,13.09,27.93,10.39,29.82,11.39Z"/><path class="cls-9" d="M36,66.1,34.7,62.61,23.63,59.87l-1.3,2.91A8.36,8.36,0,0,1,21,65a1.81,1.81,0,0,1-1.77.22,3.59,3.59,0,0,1-1.84-1.16,2.53,2.53,0,0,1-.61-2.81,12.73,12.73,0,0,1,.61-1.38l7-14.64c.2-.42.44-.92.71-1.51a5.8,5.8,0,0,1,.9-1.42,2.45,2.45,0,0,1,1.24-.75,3.82,3.82,0,0,1,1.91.07,5,5,0,0,1,1.92.88,5.27,5.27,0,0,1,1.25,1.34,11,11,0,0,1,.8,1.57c.21.54.49,1.26.82,2.16l7.12,18a9.3,9.3,0,0,1,.84,2.91,1.66,1.66,0,0,1-.79,1.41,2.33,2.33,0,0,1-1.91.26,3.27,3.27,0,0,1-1.89-1.27,7.32,7.32,0,0,1-.68-1.31C36.39,67,36.18,66.53,36,66.1ZM25.08,56.4l8.14,2L29.11,47Z"/><path class="cls-10" d="M74.22,67.91l-7.69,1.91a3,3,0,0,1-2.38-.1,2.36,2.36,0,0,1-.72-2V50.18a3.61,3.61,0,0,1,.73-2.39,4.39,4.39,0,0,1,2.37-1.27l8.16-2a20.86,20.86,0,0,1,3.13-.57,6,6,0,0,1,2.37.21,4.42,4.42,0,0,1,1.58.86,4,4,0,0,1,1,1.41,4.51,4.51,0,0,1,.36,1.84q0,3.49-3.78,6,5,.23,5,4.46a7.4,7.4,0,0,1-1.08,3.79,9.18,9.18,0,0,1-2.92,3,13.9,13.9,0,0,1-2.65,1.29A35,35,0,0,1,74.22,67.91ZM68.54,49.57v6l4.67-1.16a12.09,12.09,0,0,0,3-1.06,4,4,0,0,0,1.59-1.66,3.34,3.34,0,0,0,.43-1.6c0-1.18-.46-1.85-1.36-2a10.91,10.91,0,0,0-4.14.44Zm5.31,8.09L68.54,59v6.8L74,64.42q5.17-1.28,5.17-4.73a2.08,2.08,0,0,0-1.34-2.23A7.6,7.6,0,0,0,73.85,57.66Z"/></g></g></svg>