<?xml version="1.0" encoding="UTF-8" standalone="no"?>
<!-- Created with Inkscape (http://www.inkscape.org/) -->

<svg
   xmlns:dc="http://purl.org/dc/elements/1.1/"
   xmlns:cc="http://creativecommons.org/ns#"
   xmlns:rdf="http://www.w3.org/1999/02/22-rdf-syntax-ns#"
   xmlns:svg="http://www.w3.org/2000/svg"
   xmlns="http://www.w3.org/2000/svg"
   xmlns:sodipodi="http://sodipodi.sourceforge.net/DTD/sodipodi-0.dtd"
   xmlns:inkscape="http://www.inkscape.org/namespaces/inkscape"
   width="135.00328mm"
   height="210.49414mm"
   viewBox="0 0 478.35808 745.84538"
   id="svg2"
   version="1.1"
   inkscape:version="0.91 r13725"
   sodipodi:docname="cyberscooty-feathers.svg">
  <defs
     id="defs4" />
  <sodipodi:namedview
     id="base"
     pagecolor="#ffffff"
     bordercolor="#666666"
     borderopacity="1.0"
     inkscape:pageopacity="0.0"
     inkscape:pageshadow="2"
     inkscape:zoom="0.7"
     inkscape:cx="226.26903"
     inkscape:cy="218.92181"
     inkscape:document-units="px"
     inkscape:current-layer="layer1"
     showgrid="false"
     inkscape:window-width="1920"
     inkscape:window-height="1017"
     inkscape:window-x="-8"
     inkscape:window-y="-8"
     inkscape:window-maximized="1"
     fit-margin-top="0"
     fit-margin-left="0"
     fit-margin-right="0"
     fit-margin-bottom="0" />
  <metadata
     id="metadata7">
    <rdf:RDF>
      <cc:Work
         rdf:about="">
        <dc:format>image/svg+xml</dc:format>
        <dc:type
           rdf:resource="http://purl.org/dc/dcmitype/StillImage" />
        <dc:title></dc:title>
      </cc:Work>
    </rdf:RDF>
  </metadata>
  <g
     inkscape:label="Calque 1"
     inkscape:groupmode="layer"
     id="layer1"
     transform="translate(-7.3522548,-3.8028069)">
    <path
       style="fill:#e54851;fill-opacity:1;fill-rule:evenodd;stroke:none;stroke-width:0.2;stroke-linecap:butt;stroke-linejoin:miter;stroke-miterlimit:4;stroke-dasharray:none;stroke-opacity:1"
       d="m 435.2905,71.742577 c -10.43071,0.209863 -22.47837,9.271031 -37.26826,33.311173 2.51847,8.29325 6.25936,17.61894 5.24013,22.91874 -4.28918,-1.81108 -6.92585,-6.59968 -9.82522,-10.91239 l -16.80752,24.44483 c 3.7206,9.66531 9.43138,20.21146 8.29908,27.71992 l -9.82521,-10.04131 c -3.76693,15.86428 -8.58571,30.4198 -18.11753,39.07797 8.57049,20.00983 15.15776,39.22926 11.35131,54.34588 -6.08736,-16.90091 -12.78758,-32.1331 -22.04762,-40.38123 -5.19276,18.6583 -17.83319,33.68748 -20.51474,46.71531 -2.65065,12.87757 -0.31774,24.82062 -0.223,37.10618 -10.74703,9.31314 -24.74082,18.05996 -25.09984,23.79657 6.16909,23.18976 19.22874,47.998 29.90105,72.24732 -12.3858,-12.7165 -22.2581,-27.93918 -32.08218,-43.2174 -0.25723,14.54463 -1.39388,28.72508 -6.55013,41.25236 -2.44991,-11.61207 -6.77964,-16.00849 -10.91239,-21.16975 -2.45095,10.75895 -4.56999,21.48171 -9.82522,32.52109 -8.29466,3.92905 -13.09387,8.72822 -14.40353,14.40353 -4.82645,23.50155 3.15038,47.00359 14.18744,70.50514 -13.32109,-9.96656 -21.24204,-24.61642 -28.38166,-39.94232 -2.58859,18.03604 0.38671,38.7433 5.024,60.24775 -6.09846,-12.61979 -10.77358,-26.46076 -14.84248,-40.82018 -2.20692,18.54009 -9.67596,35.56146 -18.55644,52.17149 -3.91194,9.65698 -7.93828,20.29023 -8.62325,32.41305 -2.04747,36.23485 -1.52796,72.98855 -1.49235,110.39345 0.003,2.70202 0.14728,4.55736 -1.12092,6.21926 l -45.51335,59.64675 3.70725,21.6087 73.12519,-107.39523 c 5.84451,-8.58356 16.71051,-28.29135 29.90779,-31.42714 24.84033,-5.90229 50.23421,-19.20993 83.59867,-74.65131 -12.14634,3.39726 -25.45854,10.30123 -38.85514,17.46252 13.46329,-21.08998 30.78908,-26.73909 48.2414,-31.87283 l 4.369,-11.5674 c -24.47086,5.47032 -43.82213,22.26336 -62.86779,39.72623 15.43341,-23.91623 34.70118,-45.66139 72.03123,-57.18875 10.10025,-14.72828 19.52593,-30.21609 26.19379,-45.83748 -19.39642,8.55151 -39.17671,18.44612 -59.1538,29.02996 18.58552,-18.22329 36.65313,-36.58305 74.21914,-49.9904 12.39562,-11.34094 16.36429,-27.13562 18.98862,-43.64957 -13.32752,3.38001 -29.30959,13.83828 -45.18241,24.00592 6.11869,-15.73421 25.4054,-27.87294 47.36354,-39.28732 1.48225,-3.78352 -0.24928,-7.28213 4.69317,-11.35131 9.78207,-8.05351 17.8622,-15.07875 12.44523,-32.305 -3.18551,-10.13016 4.42107,-16.1753 8.1843,-23.14157 3.31467,-6.13593 3.30551,-13.67526 2.18113,-20.51474 -20.07455,10.64728 -37.95466,26.16084 -55.4398,42.56236 8.57679,-20.15459 26.14954,-40.30925 63.73215,-60.46384 l 0.43891,-14.62639 c -10.15266,2.41291 -19.22023,6.97722 -28.59774,10.91917 10.58774,-10.04072 24.0287,-19.56898 37.76796,-29.0367 4.53495,-19.12404 5.11507,-40.22202 6.9823,-60.67992 -12.70114,8.18679 -25.44554,16.29586 -39.28731,22.48653 8.76425,-13.91853 21.71906,-25.5949 38.63228,-35.14788 0.39735,-23.03699 -4.33367,-39.23507 -12.66132,-50.63866 -15.35746,9.18574 -24.37959,21.98929 -31.65,35.79618 0.0602,-16.93652 6.1535,-33.11615 22.48653,-48.018577 -8.31669,-11.346711 -17.13387,-19.988704 -27.56458,-19.778736 z m -13.82956,85.563703 c 1.84728,0.29146 3.41123,3.21541 2.97117,5.59126 -24.7451,133.6032 -71.68535,273.77084 -167.19729,428.26416 l -13.10027,2.18787 c 85.31734,-136.89626 140.77968,-280.91564 173.31526,-430.45203 0.96855,-4.45153 2.57434,-5.81792 4.01113,-5.59126 z"
       id="path4147"
       inkscape:connector-curvature="0"
       sodipodi:nodetypes="scccccccccscccccccccccccsscccssccccccccccccsssccccccccccccscsccsc" />
    <path
       style="fill:#e54851;fill-opacity:1;fill-rule:evenodd;stroke:none;stroke-width:0.2;stroke-linecap:butt;stroke-linejoin:miter;stroke-miterlimit:4;stroke-dasharray:none;stroke-opacity:1"
       d="M 59.173526,3.8034786 C 52.563096,3.7689047 46.160871,5.0712697 39.881003,7.1866057 l 8.643479,17.2869593 c -3.1232,1.501199 -8.610358,0.243055 -16.672477,-4.01787 C 3.8440193,44.090149 7.8359239,72.296174 19.818691,101.64362 c 16.798015,5.44325 32.369831,10.3978 45.067622,14.20096 -8.238239,1.23267 -18.925037,1.64949 -32.102402,1.23578 7.344191,15.12989 17.689745,30.08024 11.729443,45.99275 32.500072,21.6681 62.630276,44.51966 67.601486,79.95219 -17.155441,-17.25457 -32.394311,-34.84688 -56.182619,-50.93575 21.161658,59.79766 18.775332,120.69457 4.632352,182.13433 15.383458,13.57451 27.318927,26.96834 34.884565,40.1314 C 76.56846,400.29548 58.394817,390.05299 43.58826,397.99345 65.538169,419.21799 82.842589,443.38464 80.323049,480.1065 71.890712,463.01464 63.23648,446.3646 54.39261,430.09585 c -2.475147,9.77812 -2.188979,24.88731 -8.798821,28.24661 -34.82489,17.69884 -42.104187,36.97107 -36.5794476,59.42393 7.9467806,-37.62269 54.4939236,-29.59635 46.9178796,19.44782 -2.890483,-5.84658 -6.29235,-10.66557 -9.568609,-15.74057 4.250172,12.78786 11.528189,26.65397 4.32174,37.34927 l -38.895658,57.72901 2.471482,15.74057 39.510175,-61.42945 c 2.54592,-3.95813 5.394499,-5.52346 8.028963,-5.24687 64.931786,6.81417 91.358366,-17.57157 107.118406,-52.78601 -16.02038,5.76987 -32.18538,11.9705 -46.61405,12.96522 71.41858,-44.60741 100.22585,-100.43146 109.27927,-161.45076 -13.1913,12.57536 -26.84754,23.30752 -41.67778,29.32709 62.94624,-73.62858 54.01237,-115.83082 37.35604,-154.65754 -5.70822,14.85268 -5.24462,21.99008 -19.75847,47.84978 -0.64958,-35.86954 3.02795,-68.59524 20.37296,-91.37779 -24.83206,14.52308 -25.92263,50.2097 -37.34928,65.44735 9.46458,-51.39582 14.44959,-100.12098 5.86136,-134.28458 -3.77406,17.75962 -6.5325,36.12729 -14.20096,51.55027 -1.1714,-57.14073 -23.29308,-94.165353 -44.45318,-132.116936 4.24658,19.397697 9.55098,39.491643 1.857,50.929007 -5.32545,-36.934868 -22.47509,-64.505044 -47.539137,-85.813538 1.557831,10.297047 4.40852,21.243356 -0.310474,28.401921 L 79.701928,8.4156048 C 72.601794,5.199124 65.784094,3.8369116 59.173664,3.8034786 Z M 103.51862,97.220616 c 0.90003,-0.265873 2.40299,0.789668 3.65996,2.572784 89.43678,126.87294 95.63468,270.10231 -29.63766,437.1102 l 1.850223,-17.59083 c 74.537497,-111.1556 88.594427,-173.09422 17.597606,-249.43191 -3.399273,-3.65498 -3.24407,-5.00429 0.310474,-3.08599 29.126587,15.71834 49.350877,44.43457 57.107747,91.37779 16.6377,-85.20002 3.18433,-170.40388 -50.93575,-255.60391 -1.15269,-3.497461 -0.85276,-5.082157 0.0474,-5.348134 z"
       id="path4152"
       inkscape:connector-curvature="0" />
    <path
       style="fill:#e54851;fill-opacity:1;fill-rule:evenodd;stroke:none;stroke-width:0.2;stroke-linecap:butt;stroke-linejoin:miter;stroke-miterlimit:4;stroke-dasharray:none;stroke-opacity:1"
       d="m 434.70572,440.28571 c 5.85966,24.07825 11.66915,48.12434 9.33223,72.67276 -1.70996,17.96208 -17.98359,13.65141 -29.71197,16.84804 -8.69606,16.84189 -24.70386,29.02806 -39.51014,41.98162 20.37559,3.05015 38.70589,0.77961 56.18262,-3.70722 -16.6779,15.06856 -36.65395,20.80022 -59.88987,17.28696 -6.56704,14.87909 -21.33619,23.44855 -35.1884,32.72366 15.29083,6.61351 41.88256,7.64381 68.53335,8.64348 -3.26876,2.13456 -5.7224,4.85518 -12.35074,5.55748 -19.54602,2.07094 -40.42081,-1.58469 -61.11884,-4.32174 18.47952,6.54595 37.92711,11.63402 59.8831,12.96522 -1.4948,2.62115 -3.0285,5.15508 -6.79325,5.55752 -31.74384,3.39346 -58.57541,-2.75973 -80.87729,-17.90822 -29.02715,13.02178 -41.12481,29.91207 -50.00388,47.53914 17.29699,4.28298 31.10948,9.57573 45.06763,14.82222 -13.78334,-0.73923 -27.90292,-4.06075 -45.06763,-6.17874 0.59011,10.70145 2.23697,21.40772 8.02223,32.10917 12.07231,-3.61141 22.34446,-4.82482 32.72366,-6.17873 l -22.22996,16.05796 c 8.67467,7.95642 19.55757,14.62124 35.19518,18.51595 18.70196,-9.81688 33.03659,-22.10379 48.15365,-33.95266 -5.57466,13.29209 -19.19336,25.51051 -33.33818,37.65989 12.9498,0.73065 25.89974,1.44401 38.28115,-1.23574 7.86663,-9.50437 14.86706,-19.58364 20.98747,-30.25218 -0.32361,9.37841 -2.96661,17.01686 -5.55751,24.69469 13.6178,-5.07942 23.02201,-24.71502 30.25217,-51.86087 6.10078,10.47669 2.17961,22.38858 0.62126,33.95943 30.55225,-21.46895 39.81764,-49.9348 28.40196,-85.19905 12.85676,13.3948 13.07969,38.92968 13.5797,64.20484 11.89523,-43.64612 27.63936,-36.23686 14.20096,-96.31402 6.68528,6.64476 12.36485,15.79945 17.90148,25.31592 2.97097,-32.40835 6.49609,-68.36494 4.94296,-71.61932 -10.92546,-20.06055 -21.3868,-44.63652 -33.9594,-48.77488 -1.79511,-25.4287 -5.28563,-48.94896 -11.72948,-69.14784 l -4.93622,-2.46474 z m 14.19418,97.54302 4.943,4.943 c -0.6086,102.68468 -90.31036,139.55659 -130.88793,151.87538 -7.21935,2.19167 -6.8956,-1.84404 -1.23575,-3.70048 71.74424,-23.53215 122.51314,-71.89889 127.18068,-153.1179 z"
       id="path4158"
       inkscape:connector-curvature="0" />
  </g>
</svg>
