<svg id="Logo_1" data-name="Logo 1" xmlns="http://www.w3.org/2000/svg" viewBox="0 0 360 376.74"><defs><style>.cls-1{fill:#cdcdcd;}.cls-2{fill:#919191;}.cls-3{fill:#c8c8c8;}.cls-4{fill:#ac2d37;}.cls-5{fill:#812229;}.cls-6{fill:#585858;}.cls-7{fill:#3b3b3b;}.cls-8{fill:#ea636d;}.cls-9{fill:#e53c49;}.cls-10{fill:#565656;}.cls-11{fill:#d9d9d9;}.cls-12{fill:#bfbfbf;}.cls-13{fill:#e5e5e5;}</style></defs><title>Nishan</title><g id="BG"><rect class="cls-1" x="110" y="80.86" width="250" height="295.88"/><path class="cls-2" d="M149.4,428.57,65.5,367.22a35.92,35.92,0,0,1-16.1-29.71V65.33l100,67.6Z" transform="translate(-49.4 -54.51)"/><path class="cls-3" d="M404.68,125.38h-250L54.81,54.59l240.91-.08a27.47,27.47,0,0,1,15.86,5Z" transform="translate(-49.4 -54.51)"/></g><circle class="cls-4" cx="289.41" cy="146.89" r="12.51"/><circle class="cls-5" cx="289.41" cy="146.89" r="9.64"/><circle cx="289.41" cy="146.89" r="7.06"/><polygon class="cls-6" points="302.89 186.21 276.23 186.41 289.39 163.23 302.89 186.21"/><polygon class="cls-7" points="283.62 217.96 295.03 234.36 295.2 186.23 289.32 176.25 283.67 186.27 283.62 217.96"/><polygon class="cls-6" points="174.34 184.22 185.75 203 185.75 263.89 174.75 263.89 174.34 184.22"/><polygon class="cls-8" points="174.75 263.89 166.6 271.3 166.6 293 180.04 283.17 180.04 263.89 174.75 263.89"/><polygon class="cls-9" points="185.7 263.89 193.85 271.3 193.85 293 180.41 283.17 180.41 263.89 185.7 263.89"/><polygon class="cls-10" points="258.73 293 294.96 293 294.96 244.74 227.86 147.21 173.77 147.21 173.77 167.13 258.73 293"/><circle class="cls-4" cx="202.19" cy="242.79" r="8.85"/><polygon class="cls-11" points="355.27 70.86 360 80.86 110 80.86 105.27 70.86 355.27 70.86"/><polygon class="cls-12" points="5.41 0.08 0 10.82 100 80.43 105.27 70.86 5.41 0.08"/><polyline class="cls-13" points="100 374.06 110 376.74 110 80.47 105.27 70.86 100 80.06"/></svg>
