<svg xmlns="http://www.w3.org/2000/svg" viewBox="0 0 97.49 102.02"><defs><style>.cls-1{fill:#cdcdcd;}.cls-2{fill:#919191;}.cls-3{fill:#c8c8c8;}.cls-4{fill:#ac2d37;}.cls-5{fill:#812229;}.cls-6{fill:#585858;}.cls-7{fill:#3b3b3b;}.cls-8{fill:#ea636d;}.cls-9{fill:#e53c49;}.cls-10{fill:#565656;}.cls-11{fill:#d9d9d9;}.cls-12{fill:#bfbfbf;}.cls-13{fill:#e5e5e5;}</style></defs><title>Asset 1@100px</title><g id="Layer_2" data-name="Layer 2"><g id="Logo_1" data-name="Logo 1"><g id="BG"><rect class="cls-1" x="29.79" y="21.9" width="67.7" height="80.12"/><path class="cls-2" d="M27.08,101.29,4.36,84.68A9.75,9.75,0,0,1,0,76.63V2.93l27.08,18.3Z"/><path class="cls-3" d="M96.21,19.19H28.51L1.46,0,66.7,0A7.51,7.51,0,0,1,71,1.36Z"/></g><circle class="cls-4" cx="78.37" cy="39.78" r="3.39"/><circle class="cls-5" cx="78.37" cy="39.78" r="2.61"/><circle cx="78.37" cy="39.78" r="1.91"/><polygon class="cls-6" points="82.02 50.42 74.8 50.48 78.36 44.2 82.02 50.42"/><polygon class="cls-7" points="76.8 59.02 79.89 63.46 79.94 50.43 78.35 47.73 76.82 50.44 76.8 59.02"/><polygon class="cls-6" points="47.21 49.88 50.3 54.97 50.3 71.46 47.32 71.46 47.21 49.88"/><polygon class="cls-8" points="47.32 71.46 45.11 73.47 45.11 79.34 48.75 76.68 48.75 71.46 47.32 71.46"/><polygon class="cls-9" points="50.29 71.46 52.49 73.47 52.49 79.34 48.85 76.68 48.85 71.46 50.29 71.46"/><polygon class="cls-10" points="70.06 79.34 79.87 79.34 79.87 66.28 61.7 39.86 47.05 39.86 47.05 45.26 70.06 79.34"/><circle class="cls-4" cx="54.75" cy="65.75" r="2.4"/><polygon class="cls-11" points="96.21 19.19 97.49 21.9 29.79 21.9 28.51 19.19 96.21 19.19"/><polygon class="cls-12" points="1.46 0.02 0 2.93 27.08 21.78 28.51 19.19 1.46 0.02"/><polyline class="cls-13" points="27.08 101.3 29.79 102.02 29.79 21.79 28.51 19.19 27.08 21.68"/></g></g></svg>