<svg xmlns="http://www.w3.org/2000/svg" viewBox="0 0 111.85 119.3"><defs><style>.cls-1{fill:#cdcdcd;}.cls-2{fill:#c8c8c8;}.cls-3{fill:#ac2d37;}.cls-4{fill:#812229;}.cls-5{fill:#585858;}.cls-31,.cls-6{fill:#3b3b3b;}.cls-7{fill:#ea636d;}.cls-8{fill:#e53c49;}.cls-9{fill:#565656;}.cls-10{fill:#d9d9d9;}.cls-11{fill:#bfbfbf;}.cls-12{fill:#e5e5e5;}.cls-13{fill:#fff;}.cls-14{fill:#919191;}.cls-15,.cls-16,.cls-31{isolation:isolate;}.cls-15,.cls-31{font-size:48.76px;font-family:BerlinSansFB-Reg, Berlin Sans FB;}.cls-15{fill:#2c2c2c;}.cls-17{fill:#2d2d2d;}.cls-18{fill:#2e2e2e;}.cls-19{fill:#2f2f2f;}.cls-20{fill:#303030;}.cls-21{fill:#313131;}.cls-22{fill:#323232;}.cls-23{fill:#333;}.cls-24{fill:#343434;}.cls-25{fill:#353535;}.cls-26{fill:#363636;}.cls-27{fill:#373737;}.cls-28{fill:#383838;}.cls-29{fill:#393939;}.cls-30{fill:#3a3a3a;}</style></defs><title>Asset 21</title><g id="Layer_2" data-name="Layer 2"><g id="Layer_2-2" data-name="Layer 2"><g id="BG"><rect class="cls-1" x="30.6" y="21.5" width="69.4" height="78.5"/><polygon class="cls-2" points="98.7 18.8 29.2 18.8 1.5 0 70.9 0 98.7 18.8"/></g><ellipse class="cls-3" cx="80.4" cy="39" rx="3.5" ry="3.3"/><ellipse class="cls-4" cx="80.4" cy="39" rx="2.7" ry="2.6"/><ellipse cx="80.4" cy="39" rx="2" ry="1.9"/><polygon class="cls-5" points="84.1 49.4 76.7 49.5 80.4 43.3 84.1 49.4"/><polygon class="cls-6" points="78.8 57.9 82 62.2 82 49.4 80.4 46.8 78.8 49.4 78.8 57.9"/><polygon class="cls-5" points="48.4 48.9 51.6 53.9 51.6 70 48.5 70 48.4 48.9"/><polygon class="cls-7" points="48.5 70 46.3 72 46.3 77.8 50 75.2 50 70 48.5 70"/><polygon class="cls-8" points="51.6 70 53.9 72 53.9 77.8 50.1 75.2 50.1 70 51.6 70"/><polygon class="cls-9" points="71.9 77.8 81.9 77.8 81.9 65 63.3 39.1 48.3 39.1 48.3 44.4 71.9 77.8"/><ellipse class="cls-3" cx="56.2" cy="64.4" rx="2.5" ry="2.3"/><polygon class="cls-10" points="98.7 18.8 100 21.5 30.6 21.5 29.2 18.8 98.7 18.8"/><polygon class="cls-11" points="1.5 0 0 2.9 27.8 21.4 29.2 18.8 1.5 0"/><polyline class="cls-12" points="27.8 99.3 30.6 100 30.6 21.5 29.2 18.8 27.8 21.4"/><polygon class="cls-13" points="27.8 21.4 30.6 21.5 29.2 18.8 27.8 21.4"/><polygon class="cls-6" points="48.3 39.1 75.6 77.8 71.9 77.8 48.3 44.4 48.3 39.1"/><polygon class="cls-14" points="0 2.9 27.8 21.4 27.8 99.3 0 80.5 0 2.9"/><text class="cls-15" transform="translate(74.19 108.57)">fx</text><g class="cls-16"><path class="cls-17" d="M89,78.09c0,.19-.15.3-.43.33-.78.09-1.55.13-2.31.22a3.2,3.2,0,0,0-2.07,1Q83,80.85,83,86c.52,0,1.35,0,2.48,0s2,0,2.54,0c.38,0,.58.14.58.43,0,.44,0,1.11,0,2s0,1.53,0,2-.16.45-.48.45c-.55,0-1.39,0-2.52-.08s-2-.08-2.5-.08v7.12q0,1.66.12,5c.08,2.26.12,3.94.12,5,0,.43-.16.64-.48.64H78.63c-.42,0-.62-.24-.62-.73V91.5c0-.43-.49-.64-1.46-.62a4.43,4.43,0,0,1-1.66-.12,2.46,2.46,0,0,1-.07-.88c0-.35,0-.87,0-1.56s0-1.21,0-1.56,1-.56,3-.67c0-1-.07-1.84-.07-2.48,0-2.81.51-4.86,1.5-6.16a8.72,8.72,0,0,1,3.91-2.76,12.85,12.85,0,0,1,4.78-.91.36.36,0,0,1,.34.26s.15.71.41,2S89,78,89,78.09Z"/><path class="cls-17" d="M108.91,108.18c0,.23-.16.38-.5.46a4.06,4.06,0,0,1-1,0l-.86,0c-1.25,0-2-.14-2.26-.43q-1.45-2.16-4.43-6.35a3.81,3.81,0,0,0-.64-.76,21.75,21.75,0,0,0-2.67,3.64c-1.67,2.47-2.67,3.74-3,3.81a33.23,33.23,0,0,1-3.38.09c-.39,0-.58-.14-.58-.43v-2.59a34.08,34.08,0,0,1,3.17-4.1c2.11-2.55,3.17-4,3.17-4.21s-1.06-1.63-3.17-4.17-3.17-3.93-3.17-4.19V86.38c0-.32.19-.48.58-.48s1,0,1.78.1,1.39.09,1.79.09a.74.74,0,0,1,.59.33q1.41,2.17,4.29,6.38a4.41,4.41,0,0,0,.62.79,2.74,2.74,0,0,0,.52-.62c.92-1.25,2.44-3.47,4.55-6.64a.68.68,0,0,1,.55-.33c.39,0,1,0,1.76,0s1.35,0,1.74,0,.59.16.59.48v2.5q0,.42-3.18,4.23t-3.18,4.19a35.66,35.66,0,0,0,3.18,4.08q3.18,3.83,3.18,4.26Z"/></g><g class="cls-16"><path class="cls-17" d="M89.11,78.13c0,.19-.14.3-.43.33-.78.09-1.55.13-2.31.22a3.22,3.22,0,0,0-2.07.95c-.78.84-1.17,3-1.17,6.4.53,0,1.35,0,2.48,0s2,0,2.55,0c.38,0,.57.14.57.43s0,1.11,0,2,0,1.53,0,2-.16.45-.47.45c-.56,0-1.4,0-2.53-.08s-2-.08-2.5-.08v7.11c0,1.12,0,2.8.12,5s.12,3.94.12,5.05c0,.43-.16.64-.47.64H78.73c-.41,0-.62-.24-.62-.74V91.53c0-.42-.48-.63-1.45-.61A4.47,4.47,0,0,1,75,90.8a2.5,2.5,0,0,1-.07-.88c0-.35,0-.87,0-1.56s-.05-1.21-.05-1.56,1-.56,3-.67c0-1-.07-1.84-.07-2.48q0-4.22,1.5-6.16a8.78,8.78,0,0,1,3.9-2.77,13.09,13.09,0,0,1,4.79-.9.35.35,0,0,1,.33.26s.15.7.42,2S89.11,78.08,89.11,78.13Z"/><path class="cls-17" d="M109,108.22c0,.23-.16.38-.5.46a4,4,0,0,1-1,0l-.86,0c-1.25,0-2-.14-2.26-.43-1-1.44-2.44-3.56-4.43-6.35a3.7,3.7,0,0,0-.64-.77,23.71,23.71,0,0,0-2.67,3.65q-2.49,3.7-3,3.81a33.23,33.23,0,0,1-3.38.09c-.38,0-.57-.14-.57-.43v-2.59a32.33,32.33,0,0,1,3.16-4.1C94.93,99,96,97.57,96,97.32s-1.06-1.63-3.17-4.17S89.66,89.22,89.66,89V86.42q0-.48.57-.48c.39,0,1,0,1.78.09s1.39.1,1.79.1a.77.77,0,0,1,.6.33c.93,1.45,2.36,3.57,4.28,6.38a5,5,0,0,0,.62.79s.22-.21.52-.62c.92-1.25,2.44-3.47,4.55-6.64a.69.69,0,0,1,.55-.34c.4,0,1,0,1.76,0s1.36,0,1.74,0,.59.16.59.48v2.5q0,.42-3.18,4.23t-3.17,4.19a35.62,35.62,0,0,0,3.17,4.07q3.18,3.84,3.18,4.27Z"/></g><g class="cls-16"><path class="cls-18" d="M89.21,78.17c0,.19-.14.3-.43.33-.77.09-1.55.13-2.31.22a3.24,3.24,0,0,0-2.07,1q-1.16,1.26-1.16,6.4c.52,0,1.35,0,2.47.05s2,0,2.55,0c.38,0,.57.14.57.43,0,.44,0,1.1,0,2s.05,1.53.05,2-.16.45-.48.45c-.56,0-1.4,0-2.52-.08s-2-.08-2.5-.08V98c0,1.11,0,2.8.12,5s.12,3.94.12,5c0,.43-.16.64-.48.64H78.83c-.41,0-.62-.24-.62-.74V91.57c0-.43-.48-.63-1.45-.62a4.39,4.39,0,0,1-1.67-.11A2.85,2.85,0,0,1,75,90c0-.35,0-.86,0-1.56s0-1.21,0-1.55,1-.56,3-.67c0-1-.07-1.84-.07-2.48q0-4.22,1.5-6.16a8.78,8.78,0,0,1,3.9-2.77,13.09,13.09,0,0,1,4.79-.9.34.34,0,0,1,.33.26s.16.7.42,2S89.21,78.12,89.21,78.17Z"/><path class="cls-18" d="M109.12,108.26c0,.23-.17.38-.5.46a4.13,4.13,0,0,1-1,0l-.85,0c-1.26,0-2-.14-2.27-.43-1-1.44-2.44-3.56-4.42-6.35a3.91,3.91,0,0,0-.65-.77,23.35,23.35,0,0,0-2.66,3.65q-2.51,3.7-3,3.81a33.09,33.09,0,0,1-3.38.09c-.38,0-.57-.14-.57-.43v-2.59a33.15,33.15,0,0,1,3.17-4.1c2.11-2.55,3.16-4,3.16-4.21s-1-1.63-3.16-4.17S89.76,89.26,89.76,89V86.45c0-.31.19-.47.57-.47s1,0,1.79.09,1.39.1,1.78.1a.76.76,0,0,1,.6.33c.93,1.45,2.36,3.57,4.28,6.38a5,5,0,0,0,.62.79s.23-.21.53-.62c.92-1.25,2.43-3.47,4.54-6.64a.67.67,0,0,1,.55-.34c.4,0,1,0,1.76,0s1.36,0,1.74,0,.6.16.6.47V89q0,.43-3.18,4.24t-3.18,4.19a35.15,35.15,0,0,0,3.18,4.07q3.18,3.84,3.18,4.27Z"/></g><g class="cls-16"><path class="cls-19" d="M89.32,78.21c0,.19-.15.3-.43.33-.78.08-1.55.13-2.31.22a3.2,3.2,0,0,0-2.07.95q-1.17,1.26-1.17,6.4c.52,0,1.35,0,2.48,0s2,0,2.54,0c.38,0,.57.14.57.43s0,1.1,0,2,0,1.54,0,2-.16.45-.48.45C88,91,87.16,91,86,91s-2-.09-2.5-.09V98c0,1.11,0,2.8.12,5.05s.12,3.94.12,5c0,.43-.16.64-.48.64H78.93c-.41,0-.61-.25-.61-.74V91.61c0-.43-.49-.63-1.46-.62s-1.6,0-1.66-.12a2.41,2.41,0,0,1-.07-.88c0-.35,0-.87,0-1.56s0-1.21,0-1.56,1-.55,3-.66c0-1-.07-1.84-.07-2.48,0-2.81.51-4.86,1.5-6.16a8.68,8.68,0,0,1,3.91-2.77,13,13,0,0,1,4.78-.9.36.36,0,0,1,.34.26s.15.7.41,2S89.32,78.16,89.32,78.21Z"/><path class="cls-19" d="M109.22,108.3c0,.22-.17.38-.5.45a3.56,3.56,0,0,1-1,0l-.86,0c-1.26,0-2-.14-2.26-.43q-1.45-2.16-4.43-6.35a4.12,4.12,0,0,0-.64-.77,22.18,22.18,0,0,0-2.67,3.65q-2.5,3.7-3,3.81a33.35,33.35,0,0,1-3.39.09c-.38,0-.57-.14-.57-.43v-2.59a33.15,33.15,0,0,1,3.17-4.1c2.11-2.55,3.17-4,3.17-4.21S95.14,95.77,93,93.23,89.86,89.3,89.86,89V86.49c0-.31.19-.47.57-.47s1,0,1.79.09,1.39.1,1.79.1a.74.74,0,0,1,.59.33c.94,1.45,2.37,3.57,4.29,6.38a4.41,4.41,0,0,0,.62.79,2.74,2.74,0,0,0,.52-.62q1.38-1.89,4.55-6.64a.66.66,0,0,1,.54-.34c.4,0,1,0,1.77,0s1.35,0,1.73,0,.6.16.6.47V89q0,.44-3.18,4.24t-3.18,4.19a35.15,35.15,0,0,0,3.18,4.07q3.18,3.84,3.18,4.26Z"/></g><g class="cls-16"><path class="cls-20" d="M89.42,78.25c0,.19-.14.3-.43.33-.78.08-1.55.13-2.31.21a3.28,3.28,0,0,0-2.07,1q-1.17,1.26-1.17,6.4c.53,0,1.35,0,2.48,0s2,0,2.55,0c.38,0,.57.14.57.43s0,1.1,0,2,0,1.54,0,2-.16.45-.47.45c-.56,0-1.4,0-2.53-.08s-2-.09-2.5-.09V98c0,1.11,0,2.8.12,5s.12,3.94.12,5c0,.43-.16.64-.48.64H79c-.41,0-.62-.25-.62-.74V91.65c0-.43-.49-.63-1.45-.62s-1.61,0-1.67-.12a2.41,2.41,0,0,1-.07-.88c0-.35,0-.87,0-1.56s-.05-1.21-.05-1.56,1-.55,3-.66c0-1-.07-1.84-.07-2.48,0-2.81.5-4.86,1.5-6.17a8.76,8.76,0,0,1,3.9-2.76,13.06,13.06,0,0,1,4.79-.9.35.35,0,0,1,.33.26s.15.7.42,2S89.42,78.2,89.42,78.25Z"/><path class="cls-20" d="M109.32,108.34c0,.22-.16.38-.5.45a4,4,0,0,1-1,0l-.86,0c-1.25,0-2-.14-2.26-.43-1-1.44-2.44-3.56-4.43-6.35a3.7,3.7,0,0,0-.64-.77,23.71,23.71,0,0,0-2.67,3.65q-2.49,3.7-3,3.8a29.06,29.06,0,0,1-3.38.1c-.38,0-.57-.14-.57-.43v-2.59a32.33,32.33,0,0,1,3.16-4.1c2.11-2.55,3.17-4,3.17-4.21s-1.06-1.63-3.17-4.17S90,89.33,90,89.08V86.53c0-.31.19-.47.57-.47s1,0,1.78.09,1.39.1,1.79.1a.74.74,0,0,1,.59.33C95.64,88,97.07,90.15,99,93a5,5,0,0,0,.62.79s.22-.21.52-.62q1.38-1.89,4.55-6.64a.67.67,0,0,1,.55-.34c.39,0,1,0,1.76-.05s1.36,0,1.74,0,.59.16.59.47V89q0,.43-3.18,4.24T103,97.46a35.62,35.62,0,0,0,3.17,4.07q3.18,3.84,3.18,4.26Z"/></g><g class="cls-16"><path class="cls-20" d="M89.52,78.29c0,.19-.14.3-.43.33-.77.08-1.55.13-2.31.21a3.3,3.3,0,0,0-2.07,1c-.78.84-1.16,3-1.16,6.4.52,0,1.34,0,2.47,0s2,.05,2.55.05q.57,0,.57.42c0,.45,0,1.11,0,2s0,1.54,0,2-.16.45-.48.45c-.56,0-1.4,0-2.52-.08s-2-.09-2.5-.09v7.12c0,1.11,0,2.8.12,5.05s.11,3.94.11,5c0,.43-.15.64-.47.64H79.14c-.41,0-.62-.25-.62-.74V91.69c0-.43-.48-.63-1.45-.62A4,4,0,0,1,75.4,91a2.71,2.71,0,0,1-.07-.88c0-.35,0-.87,0-1.56s0-1.21,0-1.56,1-.55,3-.66c-.05-1-.07-1.84-.07-2.48,0-2.81.5-4.86,1.5-6.17a8.76,8.76,0,0,1,3.9-2.76,13.09,13.09,0,0,1,4.79-.9.33.33,0,0,1,.33.26s.16.7.42,2S89.52,78.24,89.52,78.29Z"/><path class="cls-20" d="M109.43,108.38c0,.22-.17.38-.5.45a4.56,4.56,0,0,1-1,0l-.86,0c-1.25,0-2-.14-2.26-.43q-1.44-2.16-4.43-6.36a3.79,3.79,0,0,0-.64-.76,23.35,23.35,0,0,0-2.66,3.65q-2.51,3.7-3,3.8a28.94,28.94,0,0,1-3.38.1c-.38,0-.57-.14-.57-.43v-2.59a31.94,31.94,0,0,1,3.17-4.1c2.11-2.55,3.16-4,3.16-4.21s-1.05-1.63-3.16-4.17-3.17-3.94-3.17-4.19V86.57c0-.32.19-.47.57-.47s1,0,1.79.09,1.39.1,1.78.1a.77.77,0,0,1,.6.33Q96.2,88.78,99.09,93a5.77,5.77,0,0,0,.62.79c.05,0,.22-.21.52-.62.93-1.26,2.44-3.47,4.55-6.65a.68.68,0,0,1,.55-.33c.4,0,1,0,1.76,0s1.36,0,1.74,0,.6.15.6.47v2.5q0,.44-3.18,4.24t-3.18,4.19a35.15,35.15,0,0,0,3.18,4.07q3.18,3.84,3.18,4.26Z"/></g><g class="cls-16"><path class="cls-21" d="M89.62,78.33q0,.28-.42.33c-.78.08-1.55.13-2.31.21a3.25,3.25,0,0,0-2.08,1q-1.16,1.26-1.16,6.4c.52,0,1.35,0,2.47,0s2,0,2.55,0q.57,0,.57.42c0,.45,0,1.11.05,2s0,1.54,0,2-.16.45-.48.45c-.55,0-1.39,0-2.52-.08s-2-.09-2.5-.09v7.12c0,1.11,0,2.79.12,5s.12,3.93.12,5c0,.42-.16.64-.48.64H79.24c-.41,0-.61-.25-.61-.74V91.73c0-.43-.49-.63-1.46-.62s-1.6,0-1.66-.12a2.32,2.32,0,0,1-.08-.88c0-.35,0-.87,0-1.56s0-1.21,0-1.56,1-.55,3-.66c0-1-.07-1.85-.07-2.48,0-2.81.51-4.86,1.5-6.17a8.74,8.74,0,0,1,3.91-2.76,13,13,0,0,1,4.78-.9.33.33,0,0,1,.33.26s.16.7.42,2S89.62,78.28,89.62,78.33Z"/><path class="cls-21" d="M109.53,108.42c0,.22-.17.38-.5.45a4.56,4.56,0,0,1-1,0l-.85-.05c-1.26,0-2-.14-2.26-.43q-1.45-2.16-4.43-6.36a3.62,3.62,0,0,0-.65-.76,23.51,23.51,0,0,0-2.66,3.64q-2.5,3.72-3,3.81a28.82,28.82,0,0,1-3.38.1c-.38,0-.57-.14-.57-.43v-2.59a33.15,33.15,0,0,1,3.17-4.1q3.16-3.84,3.16-4.21t-3.16-4.17q-3.16-3.81-3.17-4.19V86.61q0-.48.57-.48c.4,0,1,0,1.79.1s1.39.1,1.78.1a.74.74,0,0,1,.6.33c.94,1.44,2.36,3.57,4.29,6.38a6.36,6.36,0,0,0,.61.79s.23-.21.53-.62c.92-1.26,2.43-3.47,4.55-6.65a.66.66,0,0,1,.54-.33c.4,0,1,0,1.77,0s1.35-.05,1.73-.05.6.16.6.48v2.5q0,.44-3.18,4.24t-3.18,4.19a35.15,35.15,0,0,0,3.18,4.07q3.18,3.84,3.18,4.26Z"/></g><g class="cls-16"><path class="cls-22" d="M89.73,78.36c0,.19-.15.31-.43.34-.78.08-1.55.13-2.31.21a3.25,3.25,0,0,0-2.07,1c-.78.85-1.17,3-1.17,6.41.52,0,1.35,0,2.48,0s2,0,2.54,0c.39,0,.58.15.58.43,0,.45,0,1.11,0,2s0,1.54,0,2-.16.45-.47.45c-.56,0-1.4,0-2.53-.09s-2-.08-2.5-.08v7.12c0,1.11,0,2.79.12,5s.12,3.93.12,5c0,.42-.16.64-.48.64H79.35c-.42,0-.62-.25-.62-.74V91.77c0-.43-.49-.64-1.46-.62s-1.6,0-1.66-.12a2.46,2.46,0,0,1-.07-.88c0-.35,0-.87-.05-1.56s0-1.21,0-1.56,1-.55,3-.67c0-1-.08-1.84-.08-2.47,0-2.81.51-4.86,1.5-6.17A8.8,8.8,0,0,1,83.8,75a13,13,0,0,1,4.78-.9.34.34,0,0,1,.34.26s.15.7.41,2S89.73,78.32,89.73,78.36Z"/><path class="cls-22" d="M109.63,108.46c0,.22-.16.38-.5.45a4.49,4.49,0,0,1-1,0l-.86,0c-1.25,0-2-.14-2.26-.43-1-1.45-2.45-3.56-4.43-6.36a3.45,3.45,0,0,0-.64-.76A22.46,22.46,0,0,0,97.25,105c-1.67,2.48-2.67,3.75-3,3.81a29.06,29.06,0,0,1-3.38.1c-.38,0-.58-.14-.58-.43v-2.6a33.61,33.61,0,0,1,3.17-4.09c2.11-2.56,3.17-4,3.17-4.22s-1.06-1.62-3.17-4.16-3.17-3.94-3.17-4.19V86.65c0-.32.2-.48.58-.48s1,0,1.78.1,1.39.09,1.79.09a.75.75,0,0,1,.59.34q1.41,2.16,4.29,6.38a5.21,5.21,0,0,0,.62.78s.22-.2.52-.61c.92-1.26,2.44-3.47,4.55-6.65a.68.68,0,0,1,.55-.33c.39,0,1,0,1.76,0s1.36,0,1.74,0,.59.16.59.48v2.5q0,.43-3.18,4.24t-3.18,4.19a36.22,36.22,0,0,0,3.18,4.07q3.18,3.84,3.18,4.26Z"/></g><g class="cls-16"><path class="cls-22" d="M89.83,78.4c0,.19-.14.31-.43.34-.78.08-1.55.13-2.31.21a3.27,3.27,0,0,0-2.07,1c-.78.85-1.17,3-1.17,6.41.53,0,1.35,0,2.48,0s2,0,2.55,0c.38,0,.57.15.57.43,0,.45,0,1.11,0,2s0,1.54,0,2-.15.46-.47.46c-.56,0-1.4,0-2.53-.09s-2-.08-2.5-.08v7.12c0,1.11,0,2.79.12,5s.12,3.93.12,5c0,.43-.16.65-.47.65H79.45c-.41,0-.62-.25-.62-.74V91.81c0-.43-.48-.64-1.45-.62a4,4,0,0,1-1.67-.12,2.46,2.46,0,0,1-.07-.88c0-.35,0-.87,0-1.56s0-1.21,0-1.56,1-.56,3-.67c0-1-.07-1.84-.07-2.47,0-2.81.5-4.86,1.5-6.17A8.76,8.76,0,0,1,83.9,75a13.09,13.09,0,0,1,4.79-.9.33.33,0,0,1,.33.26s.16.7.42,2S89.83,78.36,89.83,78.4Z"/><path class="cls-22" d="M109.73,108.5c0,.22-.16.38-.5.45a4,4,0,0,1-1,0l-.86,0c-1.25,0-2-.15-2.26-.43-1-1.45-2.44-3.57-4.43-6.36a3.45,3.45,0,0,0-.64-.76A23.22,23.22,0,0,0,97.35,105q-2.49,3.72-3,3.81a31.8,31.8,0,0,1-3.38.1c-.38,0-.57-.15-.57-.43v-2.6a32.76,32.76,0,0,1,3.16-4.09c2.12-2.56,3.17-4,3.17-4.22s-1-1.62-3.17-4.16-3.16-3.94-3.16-4.19V86.69q0-.48.57-.48c.4,0,1,0,1.79.1s1.38.09,1.78.09a.76.76,0,0,1,.6.34q1.39,2.16,4.28,6.38a5.21,5.21,0,0,0,.62.78s.22-.2.52-.62q1.38-1.87,4.55-6.64a.68.68,0,0,1,.55-.33c.4,0,1,0,1.76,0s1.36-.05,1.74-.05.59.16.59.48v2.5c0,.28-1.06,1.7-3.17,4.24s-3.18,3.93-3.18,4.19a36.22,36.22,0,0,0,3.18,4.07c2.11,2.55,3.17,4,3.17,4.26Z"/></g><g class="cls-16"><path class="cls-23" d="M89.93,78.44c0,.19-.14.31-.43.34-.77.08-1.54.13-2.3.21a3.25,3.25,0,0,0-2.08,1Q84,81.2,84,86.35c.52,0,1.35,0,2.47,0s2,0,2.55,0c.38,0,.57.15.57.43,0,.45,0,1.11,0,2s.05,1.53.05,2-.16.46-.48.46c-.55,0-1.4,0-2.52-.09s-2-.08-2.5-.08v7.12c0,1.11,0,2.79.12,5s.12,3.93.12,5c0,.43-.16.65-.48.65H79.55c-.41,0-.62-.25-.62-.74V91.85c0-.43-.48-.64-1.45-.62a4.51,4.51,0,0,1-1.67-.12,2.76,2.76,0,0,1-.07-.88c0-.35,0-.87,0-1.56s0-1.21,0-1.56,1-.56,3-.67c0-1-.07-1.84-.07-2.47,0-2.81.5-4.86,1.5-6.17A8.74,8.74,0,0,1,84,75a13,13,0,0,1,4.78-.91.34.34,0,0,1,.33.27s.16.7.42,2S89.93,78.4,89.93,78.44Z"/><path class="cls-23" d="M109.84,108.54c0,.22-.17.38-.5.45a4.13,4.13,0,0,1-1,0l-.85,0c-1.26,0-2-.15-2.27-.43-1-1.45-2.44-3.57-4.42-6.36a3.31,3.31,0,0,0-.65-.76,22.87,22.87,0,0,0-2.66,3.64q-2.5,3.72-3,3.81a31.66,31.66,0,0,1-3.38.1c-.38,0-.57-.15-.57-.43v-2.6a33.61,33.61,0,0,1,3.17-4.09c2.11-2.56,3.16-4,3.16-4.22s-1-1.62-3.16-4.16-3.17-3.94-3.17-4.19V86.73q0-.48.57-.48c.4,0,1,0,1.79.1s1.39.09,1.78.09a.74.74,0,0,1,.6.34c.94,1.44,2.36,3.57,4.28,6.38a6.15,6.15,0,0,0,.62.78s.23-.2.53-.62q1.38-1.87,4.54-6.64a.69.69,0,0,1,.55-.33c.4,0,1,0,1.76,0s1.36,0,1.74,0,.6.16.6.48v2.5c0,.28-1.06,1.7-3.18,4.24s-3.18,3.93-3.18,4.19a36.22,36.22,0,0,0,3.18,4.07q3.18,3.83,3.18,4.26Z"/></g><g class="cls-16"><path class="cls-24" d="M90,78.48c0,.19-.15.31-.43.34-.78.08-1.55.13-2.31.21a3.2,3.2,0,0,0-2.07,1q-1.17,1.26-1.17,6.41c.52,0,1.35,0,2.48,0s2,0,2.54,0c.38,0,.57.15.57.43,0,.45,0,1.11,0,2s0,1.53,0,2a.42.42,0,0,1-.48.46q-.83,0-2.52-.09c-1.13,0-2-.08-2.5-.08v7.12c0,1.11,0,2.79.12,5s.12,3.93.12,5c0,.43-.16.65-.48.65H79.65c-.41,0-.61-.25-.61-.74V91.89c0-.43-.49-.64-1.46-.62a4.43,4.43,0,0,1-1.66-.12,2.46,2.46,0,0,1-.07-.88c0-.35,0-.87,0-1.56s0-1.21,0-1.56,1-.56,3-.67c0-1-.07-1.84-.07-2.47,0-2.81.51-4.87,1.5-6.17a8.72,8.72,0,0,1,3.91-2.76,13.05,13.05,0,0,1,4.78-.91.35.35,0,0,1,.34.27s.15.7.41,2S90,78.44,90,78.48Z"/><path class="cls-24" d="M109.94,108.58c0,.22-.16.38-.5.45a4.06,4.06,0,0,1-1,0l-.86,0c-1.25,0-2-.15-2.26-.43q-1.45-2.17-4.43-6.36a3.81,3.81,0,0,0-.64-.76,21.75,21.75,0,0,0-2.67,3.64c-1.67,2.48-2.67,3.75-3,3.81a31.91,31.91,0,0,1-3.39.1c-.38,0-.57-.15-.57-.43V106a33.61,33.61,0,0,1,3.17-4.09c2.11-2.56,3.17-4,3.17-4.22s-1.06-1.62-3.17-4.16-3.17-3.94-3.17-4.19V86.77q0-.48.57-.48c.4,0,1,0,1.79.1s1.39.09,1.79.09a.73.73,0,0,1,.59.34Q96.73,89,99.61,93.2a4.53,4.53,0,0,0,.62.78,2.47,2.47,0,0,0,.52-.62q1.38-1.87,4.55-6.64a.68.68,0,0,1,.55-.33c.39,0,1,0,1.76,0s1.35,0,1.74,0,.59.16.59.48v2.5c0,.28-1.06,1.7-3.18,4.24s-3.18,3.93-3.18,4.19a36.22,36.22,0,0,0,3.18,4.07q3.18,3.83,3.18,4.26Z"/></g><g class="cls-16"><path class="cls-25" d="M90.14,78.52c0,.19-.14.3-.43.34-.78.08-1.55.12-2.31.21a3.22,3.22,0,0,0-2.07,1q-1.17,1.26-1.17,6.41c.53,0,1.35,0,2.48,0s2,0,2.55,0c.38,0,.57.14.57.43s0,1.11,0,2,0,1.53,0,2-.16.45-.47.45c-.56,0-1.4,0-2.53-.08s-2-.08-2.5-.08v7.12q0,1.66.12,5c.08,2.26.12,3.94.12,5.05,0,.43-.16.64-.47.64H79.76c-.41,0-.62-.24-.62-.73V91.93c0-.43-.48-.64-1.45-.62A4.47,4.47,0,0,1,76,91.19a2.46,2.46,0,0,1-.07-.88c0-.35,0-.87,0-1.56s-.05-1.21-.05-1.56,1-.56,3-.67c0-1-.07-1.84-.07-2.47q0-4.22,1.5-6.17a8.69,8.69,0,0,1,3.9-2.76A12.86,12.86,0,0,1,89,74.21a.35.35,0,0,1,.33.26s.15.71.42,2S90.14,78.47,90.14,78.52Z"/><path class="cls-25" d="M110,108.62c0,.22-.16.37-.5.45a4,4,0,0,1-1,0l-.86,0c-1.25,0-2-.14-2.26-.42-1-1.45-2.44-3.57-4.43-6.36a3.45,3.45,0,0,0-.64-.76,23.22,23.22,0,0,0-2.67,3.64q-2.49,3.72-3,3.81a33.23,33.23,0,0,1-3.38.09q-.57,0-.57-.42V106a32.76,32.76,0,0,1,3.16-4.09C96,99.37,97,98,97,97.71S96,96.08,93.85,93.54s-3.16-3.93-3.16-4.19V86.81q0-.48.57-.48c.39,0,1,0,1.78.1s1.39.09,1.79.09a.73.73,0,0,1,.59.34q1.41,2.16,4.29,6.38a5.21,5.21,0,0,0,.62.78s.22-.2.52-.62c.92-1.25,2.44-3.47,4.55-6.64a.68.68,0,0,1,.55-.33c.39,0,1,0,1.76-.05s1.36,0,1.74,0,.59.16.59.48v2.5c0,.28-1.06,1.7-3.18,4.23s-3.17,3.94-3.17,4.2a37.89,37.89,0,0,0,3.17,4.07q3.18,3.82,3.18,4.26Z"/></g><g class="cls-16"><path class="cls-25" d="M90.24,78.56c0,.19-.14.3-.43.33-.77.09-1.55.13-2.31.22a3.24,3.24,0,0,0-2.07,1c-.78.84-1.16,3-1.16,6.41.52,0,1.34,0,2.47,0s2,0,2.55,0c.38,0,.57.14.57.43,0,.44,0,1.11,0,2s0,1.53,0,2-.16.45-.48.45c-.56,0-1.4,0-2.52-.08s-2-.08-2.5-.08v7.12q0,1.66.12,5c.07,2.26.11,3.94.11,5,0,.43-.15.64-.47.64H79.86c-.41,0-.62-.24-.62-.73V92c0-.43-.48-.64-1.45-.62a4.51,4.51,0,0,1-1.67-.12,2.76,2.76,0,0,1-.07-.88c0-.35,0-.87,0-1.56s0-1.21,0-1.56,1-.56,3-.67c0-1-.07-1.84-.07-2.48,0-2.8.5-4.86,1.5-6.16a8.69,8.69,0,0,1,3.9-2.76,12.9,12.9,0,0,1,4.79-.91.34.34,0,0,1,.33.26s.16.71.42,2S90.24,78.51,90.24,78.56Z"/><path class="cls-25" d="M110.15,108.66c0,.22-.17.37-.5.45a4.13,4.13,0,0,1-1,0l-.85,0c-1.26,0-2-.14-2.27-.42q-1.44-2.18-4.43-6.36a3.45,3.45,0,0,0-.64-.76,22.87,22.87,0,0,0-2.66,3.64c-1.67,2.48-2.68,3.74-3,3.81a33.09,33.09,0,0,1-3.38.09q-.57,0-.57-.42v-2.6A34.08,34.08,0,0,1,94,102c2.11-2.55,3.16-4,3.16-4.21S96.07,96.12,94,93.58s-3.17-3.93-3.17-4.19V86.85q0-.48.57-.48c.4,0,1,0,1.79.1s1.39.09,1.78.09a.77.77,0,0,1,.6.33q1.39,2.17,4.28,6.38a5,5,0,0,0,.62.79s.22-.21.53-.62c.92-1.25,2.43-3.47,4.54-6.64a.68.68,0,0,1,.55-.33c.4,0,1,0,1.76,0s1.36,0,1.74,0,.6.16.6.48v2.5q0,.42-3.18,4.23t-3.18,4.19a35.66,35.66,0,0,0,3.18,4.08q3.18,3.83,3.18,4.26Z"/></g><g class="cls-16"><path class="cls-26" d="M90.34,78.6q0,.29-.42.33c-.78.09-1.55.13-2.31.22a3.2,3.2,0,0,0-2.07.95c-.78.84-1.17,3-1.17,6.4.52,0,1.35,0,2.47,0s2,0,2.55,0c.38,0,.57.14.57.43s0,1.11.05,2,0,1.53,0,2-.16.45-.48.45c-.55,0-1.39,0-2.52-.08s-2-.08-2.5-.08v7.11c0,1.12,0,2.8.12,5.05s.12,3.94.12,5c0,.43-.16.64-.48.64H80c-.41,0-.61-.24-.61-.74V92c0-.42-.49-.63-1.46-.61a4.43,4.43,0,0,1-1.66-.12,2.5,2.5,0,0,1-.07-.88c0-.35,0-.87,0-1.56s0-1.21,0-1.56,1-.56,3-.67c0-1-.07-1.84-.07-2.48,0-2.81.51-4.86,1.5-6.16a8.67,8.67,0,0,1,3.91-2.76,12.85,12.85,0,0,1,4.78-.91.36.36,0,0,1,.34.26s.15.7.41,2S90.34,78.55,90.34,78.6Z"/><path class="cls-26" d="M110.25,108.69c0,.23-.17.38-.5.46a4.06,4.06,0,0,1-1,0l-.86,0c-1.26,0-2-.14-2.26-.43q-1.45-2.16-4.43-6.35a3.81,3.81,0,0,0-.64-.76,21.75,21.75,0,0,0-2.67,3.64q-2.5,3.7-3,3.81a32.94,32.94,0,0,1-3.38.09c-.38,0-.57-.14-.57-.43V106.1a33.15,33.15,0,0,1,3.17-4.1c2.11-2.55,3.17-4,3.17-4.21s-1.06-1.63-3.17-4.17-3.17-3.93-3.17-4.19V86.89q0-.48.57-.48c.4,0,1,0,1.79.09s1.39.1,1.79.1a.74.74,0,0,1,.59.33c.94,1.45,2.37,3.57,4.29,6.38a4.41,4.41,0,0,0,.62.79,2.74,2.74,0,0,0,.52-.62c.92-1.25,2.44-3.47,4.55-6.64a.67.67,0,0,1,.54-.34c.4,0,1,0,1.77,0s1.35,0,1.73,0,.6.16.6.48v2.5q0,.42-3.18,4.23t-3.18,4.19a35.15,35.15,0,0,0,3.18,4.07q3.18,3.84,3.18,4.27Z"/></g><g class="cls-16"><path class="cls-27" d="M90.45,78.64c0,.19-.14.3-.43.33-.78.09-1.55.13-2.31.22a3.2,3.2,0,0,0-2.07,1c-.78.84-1.17,3-1.17,6.4.53,0,1.35,0,2.48,0s2,0,2.55,0c.38,0,.57.14.57.43,0,.44,0,1.1,0,2s0,1.53,0,2-.16.45-.47.45c-.56,0-1.4,0-2.53-.08s-2-.08-2.5-.08v7.11c0,1.12,0,2.8.12,5s.12,3.94.12,5c0,.43-.16.64-.48.64H80.07c-.42,0-.62-.24-.62-.74V92c0-.42-.49-.63-1.45-.62a4.36,4.36,0,0,1-1.67-.11,2.53,2.53,0,0,1-.07-.89c0-.34,0-.86-.05-1.55s0-1.21,0-1.56,1-.56,3-.67c0-1-.08-1.84-.08-2.48,0-2.81.51-4.86,1.5-6.16a8.87,8.87,0,0,1,3.91-2.77,13.06,13.06,0,0,1,4.79-.9.35.35,0,0,1,.33.26s.15.7.42,2S90.45,78.59,90.45,78.64Z"/><path class="cls-27" d="M110.35,108.73c0,.23-.16.38-.5.46a4.06,4.06,0,0,1-1,0l-.86,0c-1.25,0-2-.14-2.26-.43-1-1.44-2.44-3.56-4.43-6.35a3.7,3.7,0,0,0-.64-.77A23.71,23.71,0,0,0,98,105.26q-2.49,3.7-3,3.81a33.23,33.23,0,0,1-3.38.09c-.38,0-.57-.14-.57-.43v-2.59a32.33,32.33,0,0,1,3.16-4.1c2.11-2.55,3.17-4,3.17-4.21s-1.06-1.63-3.17-4.17S91,89.73,91,89.47V86.92c0-.31.19-.47.57-.47s1,0,1.78.09,1.39.1,1.79.1a.74.74,0,0,1,.59.33c.94,1.45,2.37,3.57,4.29,6.38a5,5,0,0,0,.62.79s.22-.21.52-.62c.92-1.25,2.44-3.47,4.55-6.64a.69.69,0,0,1,.55-.34c.39,0,1,0,1.76,0s1.36,0,1.74,0,.59.16.59.47v2.5q0,.43-3.18,4.24T104,97.85a35.62,35.62,0,0,0,3.17,4.07q3.18,3.84,3.18,4.27Z"/></g><g class="cls-16"><path class="cls-27" d="M90.55,78.68c0,.19-.14.3-.43.33-.77.09-1.55.13-2.31.22a3.22,3.22,0,0,0-2.07,1c-.78.84-1.16,3-1.16,6.4.52,0,1.34,0,2.47,0s2,.05,2.55.05c.38,0,.57.14.57.43s0,1.1,0,2,0,1.53,0,2-.16.45-.48.45c-.56,0-1.4,0-2.52-.08s-2-.08-2.5-.08v7.11c0,1.11,0,2.8.11,5.05s.12,3.94.12,5c0,.43-.16.64-.47.64H80.17c-.41,0-.62-.24-.62-.74V92.08c0-.43-.48-.63-1.45-.62a4.39,4.39,0,0,1-1.67-.11,2.53,2.53,0,0,1-.07-.89c0-.35,0-.86,0-1.56s0-1.21,0-1.55,1-.56,3-.67c-.05-1-.07-1.84-.07-2.48q0-4.22,1.5-6.16a8.7,8.7,0,0,1,3.9-2.77,13.09,13.09,0,0,1,4.79-.9.34.34,0,0,1,.33.26s.16.7.42,2S90.55,78.63,90.55,78.68Z"/><path class="cls-27" d="M110.45,108.77c0,.23-.16.38-.5.45a3.53,3.53,0,0,1-1,0l-.86,0c-1.25,0-2-.14-2.26-.43-1-1.44-2.44-3.56-4.43-6.35a3.7,3.7,0,0,0-.64-.77,23.35,23.35,0,0,0-2.66,3.65q-2.51,3.7-3,3.81a33.09,33.09,0,0,1-3.38.09c-.38,0-.57-.14-.57-.43v-2.59a31.94,31.94,0,0,1,3.17-4.1c2.11-2.55,3.16-4,3.16-4.21s-1.05-1.63-3.16-4.17-3.17-3.93-3.17-4.19V87c0-.31.19-.47.57-.47s1,0,1.79.09,1.38.1,1.78.1a.77.77,0,0,1,.6.33c.93,1.45,2.36,3.57,4.28,6.38a5,5,0,0,0,.62.79c.05,0,.22-.21.52-.62.93-1.26,2.44-3.47,4.55-6.64a.67.67,0,0,1,.55-.34c.4,0,1,0,1.76,0s1.36-.05,1.74-.05.59.16.59.47v2.5c0,.29-1,1.7-3.17,4.24s-3.18,3.94-3.18,4.19a35.15,35.15,0,0,0,3.18,4.07c2.12,2.56,3.17,4,3.17,4.26Z"/></g><g class="cls-16"><path class="cls-28" d="M90.65,78.72c0,.19-.14.3-.43.33-.77.08-1.54.13-2.3.22a3.25,3.25,0,0,0-2.08,1q-1.16,1.26-1.16,6.4c.52,0,1.35,0,2.47,0s2,0,2.55,0c.38,0,.57.14.57.43s0,1.1,0,2,.05,1.54.05,2-.16.45-.48.45c-.55,0-1.39,0-2.52-.08s-2-.09-2.5-.09V98.5c0,1.11,0,2.8.12,5s.12,3.94.12,5c0,.43-.16.64-.48.64H80.27c-.41,0-.62-.25-.62-.74V92.12c0-.43-.48-.63-1.45-.62s-1.6,0-1.66-.12a2.28,2.28,0,0,1-.08-.88c0-.35,0-.87,0-1.56s0-1.21,0-1.56,1-.55,3-.66c0-1-.07-1.84-.07-2.48,0-2.81.51-4.86,1.5-6.17a8.74,8.74,0,0,1,3.91-2.76,13,13,0,0,1,4.78-.9.34.34,0,0,1,.33.26s.16.7.42,2S90.65,78.67,90.65,78.72Z"/><path class="cls-28" d="M110.56,108.81c0,.22-.17.38-.5.45a3.62,3.62,0,0,1-1,0l-.85-.05c-1.26,0-2-.14-2.26-.43q-1.45-2.16-4.43-6.35a3.54,3.54,0,0,0-.65-.77,23.35,23.35,0,0,0-2.66,3.65q-2.5,3.7-3,3.8a28.94,28.94,0,0,1-3.38.1c-.38,0-.57-.14-.57-.43v-2.59a33.15,33.15,0,0,1,3.17-4.1c2.11-2.55,3.16-4,3.16-4.21s-1-1.63-3.16-4.17-3.17-3.93-3.17-4.19V87c0-.31.19-.47.57-.47s1,0,1.79.09,1.39.1,1.78.1a.76.76,0,0,1,.6.33c.94,1.45,2.36,3.57,4.28,6.38a5.91,5.91,0,0,0,.62.79s.23-.21.53-.62c.92-1.26,2.43-3.47,4.55-6.64a.65.65,0,0,1,.54-.34c.4,0,1,0,1.76-.05s1.36,0,1.74,0,.6.16.6.47v2.5q0,.44-3.18,4.24t-3.18,4.19a35.15,35.15,0,0,0,3.18,4.07q3.18,3.84,3.18,4.26Z"/></g><g class="cls-16"><path class="cls-29" d="M90.76,78.76c0,.19-.15.3-.43.33-.78.08-1.55.13-2.31.21a3.25,3.25,0,0,0-2.07,1q-1.17,1.26-1.17,6.4c.52,0,1.35,0,2.48,0s2,.05,2.54.05c.39,0,.58.14.58.43,0,.44,0,1.1,0,2s0,1.54,0,2-.16.45-.48.45c-.55,0-1.39,0-2.52-.08s-2-.09-2.5-.09v7.12c0,1.11,0,2.8.12,5s.12,3.94.12,5c0,.43-.16.64-.48.64H80.38c-.42,0-.62-.25-.62-.74V92.16c0-.43-.49-.63-1.46-.62s-1.6,0-1.66-.12a2.41,2.41,0,0,1-.07-.88c0-.35,0-.87,0-1.56s0-1.21,0-1.56,1-.55,3-.66c0-1-.07-1.84-.07-2.48,0-2.81.51-4.86,1.5-6.17a8.8,8.8,0,0,1,3.91-2.76,13,13,0,0,1,4.78-.9.34.34,0,0,1,.34.26s.15.7.41,2S90.76,78.71,90.76,78.76Z"/><path class="cls-29" d="M110.66,108.85c0,.22-.16.38-.5.45a4,4,0,0,1-1,0l-.86,0c-1.25,0-2-.14-2.26-.43q-1.45-2.16-4.43-6.36a4.23,4.23,0,0,0-.64-.76,22.18,22.18,0,0,0-2.67,3.65c-1.67,2.47-2.67,3.74-3,3.8a29.06,29.06,0,0,1-3.38.1c-.39,0-.58-.14-.58-.43v-2.59a33.15,33.15,0,0,1,3.17-4.1c2.11-2.55,3.17-4,3.17-4.21s-1.06-1.63-3.17-4.17-3.17-3.94-3.17-4.19V87c0-.31.19-.47.58-.47s1,0,1.78.09,1.39.1,1.79.1a.74.74,0,0,1,.59.33q1.41,2.16,4.29,6.38a5,5,0,0,0,.62.79,2.74,2.74,0,0,0,.52-.62c.92-1.26,2.44-3.47,4.55-6.65a.68.68,0,0,1,.55-.33c.39,0,1,0,1.76,0s1.36,0,1.74,0,.59.16.59.47v2.5q0,.43-3.18,4.24T104.3,98a35.15,35.15,0,0,0,3.18,4.07q3.18,3.84,3.18,4.26Z"/></g><g class="cls-16"><path class="cls-30" d="M90.86,78.8c0,.19-.14.3-.43.33-.78.08-1.55.13-2.31.21a3.23,3.23,0,0,0-2.07,1q-1.17,1.26-1.17,6.4c.53,0,1.35,0,2.48,0s2,0,2.55,0q.57,0,.57.42c0,.45,0,1.11,0,2s0,1.54,0,2-.15.45-.47.45c-.56,0-1.4,0-2.53-.08s-2-.09-2.5-.09v7.12c0,1.11,0,2.79.12,5s.12,3.94.12,5.05c0,.43-.16.64-.47.64H80.48c-.41,0-.62-.25-.62-.74V92.2c0-.43-.48-.63-1.45-.62s-1.61,0-1.67-.12a2.46,2.46,0,0,1-.07-.88c0-.35,0-.87,0-1.56s-.05-1.21-.05-1.56,1-.55,3-.66c0-1-.07-1.85-.07-2.48,0-2.81.5-4.86,1.5-6.17a8.76,8.76,0,0,1,3.9-2.76,13.09,13.09,0,0,1,4.79-.9.33.33,0,0,1,.33.26s.16.7.42,2S90.86,78.75,90.86,78.8Z"/><path class="cls-30" d="M110.76,108.89c0,.22-.16.38-.5.45a4.44,4.44,0,0,1-1,0l-.86-.05c-1.25,0-2-.14-2.26-.43-1-1.44-2.44-3.56-4.43-6.36a3.79,3.79,0,0,0-.64-.76,23.88,23.88,0,0,0-2.67,3.64q-2.49,3.72-3,3.81a29.06,29.06,0,0,1-3.38.1c-.38,0-.57-.14-.57-.43V106.3a32.33,32.33,0,0,1,3.16-4.1c2.11-2.55,3.17-4,3.17-4.21s-1.06-1.63-3.17-4.17-3.16-3.94-3.16-4.19V87.08c0-.32.19-.47.57-.47s1,0,1.78.09,1.39.1,1.79.1a.77.77,0,0,1,.6.33q1.39,2.16,4.28,6.38a5.77,5.77,0,0,0,.62.79s.22-.21.52-.62c.92-1.26,2.44-3.47,4.55-6.65a.68.68,0,0,1,.55-.33c.4,0,1,0,1.76,0s1.36,0,1.74,0,.59.15.59.47v2.5q0,.44-3.17,4.24T104.41,98a35.15,35.15,0,0,0,3.18,4.07q3.16,3.84,3.17,4.26Z"/></g><g class="cls-16"><path class="cls-30" d="M91,78.83c0,.2-.14.31-.43.34-.77.08-1.55.13-2.3.21a3.3,3.3,0,0,0-2.08,1c-.77.85-1.16,3-1.16,6.41.52,0,1.35,0,2.47.05s2,0,2.55,0c.38,0,.57.15.57.43,0,.45,0,1.11,0,2s.05,1.54.05,2-.16.45-.48.45c-.55,0-1.4,0-2.52-.09s-2-.08-2.5-.08v7.12c0,1.11,0,2.79.12,5s.12,3.93.12,5c0,.42-.16.64-.48.64H80.58c-.41,0-.62-.25-.62-.74V92.24c0-.43-.48-.63-1.45-.62a4,4,0,0,1-1.67-.12,2.76,2.76,0,0,1-.07-.88c0-.35,0-.87,0-1.56s0-1.21,0-1.56,1-.55,3-.67c0-1-.07-1.84-.07-2.47,0-2.81.5-4.86,1.5-6.17A8.76,8.76,0,0,1,85,75.43a13.09,13.09,0,0,1,4.79-.9.33.33,0,0,1,.33.26s.16.7.42,2S91,78.79,91,78.83Z"/><path class="cls-30" d="M110.87,108.93c0,.22-.17.38-.5.45a4.56,4.56,0,0,1-1,0l-.85,0c-1.26,0-2-.14-2.27-.43-1-1.44-2.44-3.56-4.42-6.36a4,4,0,0,0-.65-.76,23.51,23.51,0,0,0-2.66,3.64q-2.51,3.72-3,3.81a28.94,28.94,0,0,1-3.38.1c-.38,0-.57-.14-.57-.43v-2.6a33.61,33.61,0,0,1,3.17-4.09Q97.85,98.4,97.84,98t-3.16-4.17Q91.51,90,91.51,89.67V87.12q0-.48.57-.48c.4,0,1,0,1.79.1s1.39.09,1.78.09a.77.77,0,0,1,.6.34c.94,1.44,2.36,3.57,4.28,6.38a5.21,5.21,0,0,0,.62.78s.23-.2.53-.61c.92-1.26,2.43-3.47,4.54-6.65a.69.69,0,0,1,.55-.33c.4,0,1,0,1.76,0s1.36,0,1.74,0,.6.16.6.48v2.5q0,.43-3.18,4.24t-3.18,4.19a35.15,35.15,0,0,0,3.18,4.07q3.18,3.84,3.18,4.26Z"/></g><text class="cls-31" transform="translate(76.35 109.4)">fx</text></g></g></svg>