<svg xmlns="http://www.w3.org/2000/svg" viewBox="0 0 37.66 51.81"><defs><style>.cls-1,.cls-17,.cls-2{isolation:isolate;}.cls-1,.cls-17{font-size:48.76px;font-family:BerlinSansFB-Reg, Berlin Sans FB;}.cls-1{fill:#2c2c2c;}.cls-3{fill:#2d2d2d;}.cls-4{fill:#2e2e2e;}.cls-5{fill:#2f2f2f;}.cls-6{fill:#303030;}.cls-7{fill:#313131;}.cls-8{fill:#323232;}.cls-9{fill:#333;}.cls-10{fill:#343434;}.cls-11{fill:#353535;}.cls-12{fill:#363636;}.cls-13{fill:#373737;}.cls-14{fill:#383838;}.cls-15{fill:#393939;}.cls-16{fill:#3a3a3a;}.cls-17{fill:#3b3b3b;}</style></defs><title>logo_standalone</title><g id="Layer_2" data-name="Layer 2"><g id="notion-formula"><text class="cls-1" transform="translate(0 41.08)">fx</text><g class="cls-2"><path class="cls-3" d="M14.82,10.6c0,.19-.15.3-.43.33-.78.08-1.55.13-2.31.21a3.25,3.25,0,0,0-2.07,1q-1.17,1.26-1.17,6.4c.52,0,1.35,0,2.48.05s2,.05,2.54.05c.39,0,.58.14.58.43s0,1.1,0,2,0,1.54,0,2-.16.45-.47.45c-.56,0-1.4,0-2.53-.08s-2-.09-2.5-.09v7.12c0,1.11,0,2.8.12,5.05s.12,3.94.12,5c0,.43-.16.64-.48.64H4.44c-.42,0-.62-.25-.62-.74V24c0-.43-.49-.63-1.46-.62s-1.6,0-1.66-.12a2.41,2.41,0,0,1-.07-.88c0-.35,0-.87-.05-1.56s0-1.21,0-1.56,1-.55,3-.66c-.05-1-.08-1.84-.08-2.48C3.48,13.31,4,11.26,5,10A8.8,8.8,0,0,1,8.89,7.19a13,13,0,0,1,4.78-.9.36.36,0,0,1,.34.26s.15.7.41,2S14.82,10.55,14.82,10.6Z"/><path class="cls-3" d="M34.72,40.69c0,.22-.16.38-.5.45a4,4,0,0,1-1,0l-.86-.05c-1.25,0-2-.14-2.26-.43q-1.45-2.16-4.43-6.35a4.12,4.12,0,0,0-.64-.77,22.92,22.92,0,0,0-2.67,3.65c-1.67,2.47-2.67,3.74-3,3.8a29.06,29.06,0,0,1-3.38.1c-.38,0-.58-.14-.58-.43V38.1A33.15,33.15,0,0,1,18.53,34c2.11-2.55,3.17-4,3.17-4.21s-1.06-1.63-3.17-4.17-3.17-3.94-3.17-4.19V18.88c0-.31.2-.47.58-.47s1,0,1.78.09,1.39.1,1.79.1a.74.74,0,0,1,.59.33c.94,1.45,2.37,3.57,4.29,6.38a5,5,0,0,0,.62.79,2.74,2.74,0,0,0,.52-.62q1.38-1.89,4.55-6.64a.67.67,0,0,1,.55-.34c.39,0,1,0,1.76-.05s1.36,0,1.74,0,.59.16.59.47v2.5q0,.44-3.18,4.24t-3.18,4.19a35.15,35.15,0,0,0,3.18,4.07q3.18,3.84,3.18,4.26Z"/></g><g class="cls-2"><path class="cls-3" d="M14.92,10.64c0,.19-.14.3-.43.33-.78.08-1.55.13-2.31.21a3.28,3.28,0,0,0-2.07,1q-1.17,1.26-1.17,6.4c.53,0,1.35,0,2.48.05s2,.05,2.55.05q.57,0,.57.42c0,.45,0,1.11.05,2s0,1.54,0,2-.15.45-.47.45c-.56,0-1.4,0-2.53-.08s-2-.09-2.5-.09v7.12c0,1.11,0,2.8.12,5s.12,3.94.12,5.05c0,.43-.16.64-.47.64H4.54c-.41,0-.62-.25-.62-.74V24c0-.43-.48-.63-1.45-.62S.86,23.4.8,23.3a2.41,2.41,0,0,1-.07-.88c0-.35,0-.87,0-1.56S.63,19.65.63,19.3s1-.55,3-.66c-.05-1-.07-1.84-.07-2.48,0-2.81.5-4.86,1.5-6.17A8.76,8.76,0,0,1,9,7.23a13.09,13.09,0,0,1,4.79-.9.33.33,0,0,1,.33.26s.16.7.42,2S14.92,10.59,14.92,10.64Z"/><path class="cls-3" d="M34.82,40.73c0,.22-.16.38-.5.45a4.47,4.47,0,0,1-1,0l-.86-.05c-1.25,0-2-.14-2.26-.43-1-1.44-2.44-3.56-4.43-6.36a3.79,3.79,0,0,0-.64-.76,23.71,23.71,0,0,0-2.67,3.65q-2.49,3.7-3,3.8a29.06,29.06,0,0,1-3.38.1c-.38,0-.57-.14-.57-.43V38.14A32.33,32.33,0,0,1,18.63,34c2.12-2.55,3.17-4,3.17-4.21s-1.05-1.63-3.17-4.17-3.16-3.94-3.16-4.19V18.92c0-.32.19-.47.57-.47s1,0,1.78.09,1.39.1,1.79.1a.77.77,0,0,1,.6.33q1.39,2.16,4.28,6.38a5.77,5.77,0,0,0,.62.79c.05,0,.22-.21.52-.62.92-1.26,2.44-3.47,4.55-6.65a.68.68,0,0,1,.55-.33c.4,0,1,0,1.76-.05s1.36,0,1.74,0,.59.15.59.47v2.5q0,.43-3.17,4.24t-3.18,4.19a35.15,35.15,0,0,0,3.18,4.07q3.16,3.84,3.17,4.26Z"/></g><g class="cls-2"><path class="cls-4" d="M15,10.68c0,.19-.14.3-.43.33-.77.08-1.55.13-2.3.21a3.25,3.25,0,0,0-2.08,1q-1.16,1.26-1.16,6.4c.52,0,1.35,0,2.47.05s2,.05,2.55.05q.57,0,.57.42c0,.45,0,1.11,0,2s.05,1.54.05,2-.16.45-.48.45c-.56,0-1.4,0-2.52-.08s-2-.09-2.5-.09v7.12c0,1.11,0,2.79.12,5s.12,3.93.12,5.05c0,.42-.16.64-.48.64H4.64C4.23,41.2,4,41,4,40.46V24.08c0-.43-.48-.63-1.45-.62A4,4,0,0,1,.9,23.34a2.76,2.76,0,0,1-.07-.88c0-.35,0-.87,0-1.56S.74,19.69.74,19.34s1-.55,3-.66c0-1-.07-1.85-.07-2.48,0-2.81.5-4.86,1.5-6.17a8.76,8.76,0,0,1,3.9-2.76,13.09,13.09,0,0,1,4.79-.9.33.33,0,0,1,.33.26s.16.7.42,2S15,10.63,15,10.68Z"/><path class="cls-4" d="M34.93,40.77c0,.22-.17.38-.5.45a4.56,4.56,0,0,1-1,0l-.85,0c-1.26,0-2-.14-2.27-.43-1-1.44-2.44-3.56-4.42-6.36a4,4,0,0,0-.65-.76,23.51,23.51,0,0,0-2.66,3.64Q20,41,19.52,41.1a28.94,28.94,0,0,1-3.38.1c-.38,0-.57-.14-.57-.43V38.18a33.15,33.15,0,0,1,3.17-4.1q3.17-3.84,3.16-4.21T18.74,25.7q-3.16-3.81-3.17-4.19V19q0-.48.57-.48c.4,0,1,0,1.79.1s1.39.1,1.78.1a.76.76,0,0,1,.6.33q1.39,2.16,4.28,6.38a5.77,5.77,0,0,0,.62.79c.05,0,.23-.21.53-.62.92-1.26,2.43-3.47,4.54-6.65a.69.69,0,0,1,.55-.33c.4,0,1,0,1.76,0s1.36-.05,1.74-.05.6.16.6.48v2.5q0,.43-3.18,4.24t-3.18,4.19A35.15,35.15,0,0,0,31.75,34q3.18,3.84,3.18,4.26Z"/></g><g class="cls-2"><path class="cls-5" d="M15.13,10.71c0,.19-.15.31-.43.34-.78.08-1.55.13-2.31.21a3.25,3.25,0,0,0-2.07,1c-.78.85-1.17,3-1.17,6.41.52,0,1.35,0,2.48.05s2,0,2.54,0c.38,0,.57.15.57.43,0,.45,0,1.11,0,2s.05,1.54.05,2-.16.45-.48.45q-.82,0-2.52-.09c-1.13-.05-2-.08-2.5-.08V30.5c0,1.11,0,2.79.12,5s.12,3.93.12,5.05c0,.42-.16.64-.48.64H4.74c-.41,0-.61-.25-.61-.74V24.12c0-.43-.49-.64-1.46-.62s-1.6,0-1.66-.12a2.46,2.46,0,0,1-.07-.88c0-.35,0-.87,0-1.56S.84,19.73.84,19.38s1-.55,3-.67c0-1-.07-1.84-.07-2.47,0-2.81.51-4.86,1.5-6.17A8.8,8.8,0,0,1,9.2,7.31,13,13,0,0,1,14,6.41a.34.34,0,0,1,.34.26s.15.7.41,2S15.13,10.67,15.13,10.71Z"/><path class="cls-5" d="M35,40.81c0,.22-.17.38-.5.45a4.49,4.49,0,0,1-1,0l-.86,0c-1.25,0-2-.14-2.26-.43-1-1.45-2.45-3.56-4.43-6.36a3.81,3.81,0,0,0-.64-.76,21.75,21.75,0,0,0-2.67,3.64q-2.5,3.72-3,3.81a29.17,29.17,0,0,1-3.39.1c-.38,0-.57-.14-.57-.43v-2.6a33.61,33.61,0,0,1,3.17-4.09C21,31.56,22,30.16,22,29.9S21,28.28,18.84,25.74s-3.17-3.94-3.17-4.19V19q0-.48.57-.48c.4,0,1,0,1.79.1s1.39.09,1.79.09a.75.75,0,0,1,.59.34q1.41,2.16,4.29,6.38a4.53,4.53,0,0,0,.62.78,2.53,2.53,0,0,0,.52-.61c.92-1.26,2.44-3.47,4.55-6.65a.67.67,0,0,1,.54-.33c.4,0,1,0,1.77-.05s1.35-.05,1.73-.05.6.16.6.48v2.5q0,.43-3.18,4.24t-3.18,4.19A36.22,36.22,0,0,0,31.85,34Q35,37.84,35,38.26Z"/></g><g class="cls-2"><path class="cls-6" d="M15.23,10.75c0,.19-.14.31-.43.34-.78.08-1.55.13-2.31.21a3.27,3.27,0,0,0-2.07.95c-.78.85-1.17,3-1.17,6.41.53,0,1.35,0,2.48.05s2,0,2.55,0c.38,0,.57.15.57.43,0,.45,0,1.11.05,2s0,1.54,0,2a.41.41,0,0,1-.47.46c-.56,0-1.4,0-2.53-.09s-2-.08-2.5-.08v7.12c0,1.11,0,2.79.12,5.05s.12,3.93.12,5c0,.43-.16.65-.47.65H4.85c-.41,0-.62-.25-.62-.74V24.16c0-.43-.49-.64-1.45-.62s-1.61,0-1.67-.12A2.46,2.46,0,0,1,1,22.54C1,22.19,1,21.67,1,21S.94,19.77.94,19.42s1-.56,3-.67c-.05-1-.07-1.84-.07-2.47,0-2.81.5-4.86,1.5-6.17A8.76,8.76,0,0,1,9.3,7.35a13.07,13.07,0,0,1,4.79-.91.34.34,0,0,1,.33.27s.15.7.42,2S15.23,10.71,15.23,10.75Z"/><path class="cls-6" d="M35.13,40.85c0,.22-.16.38-.5.45a4,4,0,0,1-1,0l-.86,0c-1.25,0-2-.15-2.26-.43-1-1.45-2.44-3.57-4.43-6.36a3.45,3.45,0,0,0-.64-.76,23.22,23.22,0,0,0-2.67,3.64q-2.49,3.72-3,3.81a31.8,31.8,0,0,1-3.38.1c-.38,0-.57-.15-.57-.43v-2.6a32.76,32.76,0,0,1,3.16-4.09c2.11-2.56,3.17-4,3.17-4.22s-1.06-1.62-3.17-4.16-3.16-3.94-3.16-4.19V19q0-.48.57-.48c.39,0,1,0,1.78.1s1.39.09,1.79.09a.73.73,0,0,1,.59.34q1.41,2.16,4.29,6.38a5.21,5.21,0,0,0,.62.78s.22-.2.52-.62q1.38-1.87,4.55-6.64a.68.68,0,0,1,.55-.33c.39,0,1,0,1.76-.05s1.36-.05,1.74-.05.59.16.59.48v2.5c0,.28-1.06,1.7-3.18,4.24S28.78,29.71,28.78,30A36.72,36.72,0,0,0,32,34c2.12,2.55,3.18,4,3.18,4.26Z"/></g><g class="cls-2"><path class="cls-6" d="M15.33,10.79c0,.19-.14.31-.43.34-.77.08-1.55.13-2.31.21a3.24,3.24,0,0,0-2.07.95c-.78.84-1.16,3-1.16,6.41.52,0,1.34,0,2.47,0s2,.05,2.55.05c.38,0,.57.15.57.43,0,.45,0,1.11.05,2s.05,1.53.05,2-.16.46-.48.46q-.84,0-2.52-.09c-1.13-.05-2-.08-2.5-.08v7.12c0,1.11,0,2.79.12,5.05s.11,3.93.11,5c0,.43-.15.65-.47.65H5c-.41,0-.62-.25-.62-.74V24.2c0-.43-.48-.64-1.45-.62a4.51,4.51,0,0,1-1.67-.12,2.76,2.76,0,0,1-.07-.88c0-.35,0-.87,0-1.56s0-1.21,0-1.56,1-.56,3-.67C4,17.78,4,17,4,16.32c0-2.81.5-4.86,1.5-6.17A8.76,8.76,0,0,1,9.4,7.39a13.1,13.1,0,0,1,4.79-.91.34.34,0,0,1,.33.27s.16.7.42,2S15.33,10.75,15.33,10.79Z"/><path class="cls-6" d="M35.24,40.89c0,.22-.17.38-.5.45a4.13,4.13,0,0,1-1,0l-.85,0c-1.26,0-2-.15-2.27-.43q-1.44-2.18-4.43-6.36a3.45,3.45,0,0,0-.64-.76,22.87,22.87,0,0,0-2.66,3.64q-2.5,3.72-3,3.81a31.66,31.66,0,0,1-3.38.1c-.38,0-.57-.15-.57-.43v-2.6a32.36,32.36,0,0,1,3.17-4.09c2.11-2.56,3.16-4,3.16-4.22s-1.05-1.62-3.16-4.16-3.17-3.94-3.17-4.19V19.08q0-.48.57-.48c.4,0,1,0,1.79.1s1.39.09,1.78.09a.76.76,0,0,1,.6.34Q22,21.29,24.9,25.51a5.21,5.21,0,0,0,.62.78c.05,0,.22-.2.53-.62Q27.43,23.8,30.59,19a.68.68,0,0,1,.55-.33c.4,0,1,0,1.76-.05s1.36,0,1.74,0,.6.16.6.48v2.5c0,.28-1.06,1.7-3.18,4.24S28.88,29.75,28.88,30a36.22,36.22,0,0,0,3.18,4.07q3.18,3.83,3.18,4.26Z"/></g><g class="cls-2"><path class="cls-7" d="M15.43,10.83c0,.19-.14.31-.42.34-.78.08-1.55.12-2.31.21a3.2,3.2,0,0,0-2.07.95q-1.17,1.26-1.17,6.41c.52,0,1.35,0,2.47,0s2,0,2.55,0c.38,0,.57.15.57.43,0,.44,0,1.11,0,2s.05,1.53.05,2-.16.45-.48.45c-.55,0-1.39,0-2.52-.08s-2-.08-2.5-.08v7.12q0,1.66.12,5c.08,2.26.12,3.94.12,5.05,0,.43-.16.65-.48.65H5.05c-.41,0-.61-.25-.61-.74V24.24c0-.43-.49-.64-1.46-.62a4.43,4.43,0,0,1-1.66-.12,2.32,2.32,0,0,1-.08-.88c0-.35,0-.87,0-1.56s-.05-1.21-.05-1.56,1-.56,3-.67c0-1-.07-1.84-.07-2.47,0-2.81.51-4.87,1.5-6.17A8.67,8.67,0,0,1,9.51,7.43a13.05,13.05,0,0,1,4.78-.91.36.36,0,0,1,.34.26s.15.71.41,2S15.43,10.78,15.43,10.83Z"/><path class="cls-7" d="M35.34,40.93c0,.22-.17.38-.5.45a4.06,4.06,0,0,1-1,0l-.86,0c-1.26,0-2-.15-2.26-.43q-1.45-2.18-4.43-6.36a3.81,3.81,0,0,0-.64-.76A21.75,21.75,0,0,0,23,37.45q-2.51,3.72-3,3.81a31.52,31.52,0,0,1-3.38.1c-.38,0-.57-.15-.57-.43v-2.6a33.61,33.61,0,0,1,3.17-4.09c2.11-2.56,3.17-4,3.17-4.22s-1.06-1.62-3.17-4.16S16,21.92,16,21.66V19.12q0-.48.57-.48c.4,0,1,0,1.79.1s1.39.09,1.79.09a.73.73,0,0,1,.59.34q1.41,2.16,4.29,6.38a4.53,4.53,0,0,0,.62.78,2.47,2.47,0,0,0,.52-.62c.92-1.25,2.44-3.47,4.55-6.64a.66.66,0,0,1,.54-.33c.4,0,1,0,1.77,0s1.35-.05,1.73-.05.6.16.6.48v2.5c0,.28-1.06,1.7-3.18,4.24S29,29.79,29,30.05a37.36,37.36,0,0,0,3.18,4.07q3.18,3.83,3.18,4.26Z"/></g><g class="cls-2"><path class="cls-8" d="M15.54,10.87c0,.19-.15.3-.43.34-.78.08-1.55.12-2.31.21a3.2,3.2,0,0,0-2.07.95q-1.17,1.26-1.17,6.41c.53,0,1.35,0,2.48,0s2,.05,2.55.05c.38,0,.57.14.57.43s0,1.11,0,2,.05,1.53.05,2-.16.45-.47.45c-.56,0-1.4,0-2.53-.08s-2-.08-2.5-.08v7.12q0,1.67.12,5c.08,2.26.12,3.94.12,5,0,.43-.16.64-.48.64H5.16c-.42,0-.62-.24-.62-.73V24.28c0-.43-.49-.64-1.45-.62a4.47,4.47,0,0,1-1.67-.12,2.46,2.46,0,0,1-.07-.88c0-.35,0-.87-.05-1.56s-.05-1.21-.05-1.56,1-.56,3-.67c0-1-.08-1.84-.08-2.47,0-2.81.51-4.87,1.5-6.17A8.78,8.78,0,0,1,9.61,7.47a12.86,12.86,0,0,1,4.79-.91.35.35,0,0,1,.33.26s.15.71.42,2S15.54,10.82,15.54,10.87Z"/><path class="cls-8" d="M35.44,41c0,.22-.16.37-.5.45a4.06,4.06,0,0,1-1,0l-.86,0c-1.25,0-2-.14-2.26-.42q-1.46-2.17-4.43-6.36a3.45,3.45,0,0,0-.64-.76,23.22,23.22,0,0,0-2.67,3.64c-1.67,2.48-2.67,3.75-3,3.81a33.23,33.23,0,0,1-3.38.09q-.57,0-.57-.42v-2.6a32.76,32.76,0,0,1,3.16-4.09c2.11-2.56,3.17-4,3.17-4.22s-1.06-1.63-3.17-4.17S16.09,22,16.09,21.7V19.16q0-.48.57-.48c.39,0,1,0,1.78.1s1.39.09,1.79.09a.73.73,0,0,1,.59.34c.94,1.44,2.37,3.57,4.29,6.37a5,5,0,0,0,.62.79c.05,0,.22-.21.52-.62.92-1.25,2.44-3.47,4.55-6.64a.68.68,0,0,1,.55-.33c.39,0,1,0,1.76-.05s1.36-.05,1.74-.05.59.16.59.48v2.5c0,.28-1.06,1.7-3.18,4.23s-3.17,3.94-3.17,4.19a34.7,34.7,0,0,0,3.17,4.08q3.18,3.83,3.18,4.26Z"/></g><g class="cls-2"><path class="cls-8" d="M15.64,10.91c0,.19-.14.3-.43.33-.78.09-1.55.13-2.31.22a3.22,3.22,0,0,0-2.07.95q-1.17,1.26-1.17,6.41c.53,0,1.35,0,2.48,0s2,.05,2.55.05c.38,0,.57.14.57.43,0,.44,0,1.11.05,2s0,1.53,0,2-.16.45-.48.45c-.56,0-1.4,0-2.52-.08s-2-.08-2.5-.08V30.7c0,1.11,0,2.79.11,5s.12,3.94.12,5c0,.43-.16.64-.47.64H5.26c-.41,0-.62-.24-.62-.73V24.32c0-.43-.48-.64-1.45-.62a4.51,4.51,0,0,1-1.67-.12,2.46,2.46,0,0,1-.07-.88c0-.35,0-.87-.05-1.56s0-1.21,0-1.56,1-.56,3-.67c0-1-.07-1.84-.07-2.48,0-2.8.5-4.86,1.5-6.16a8.69,8.69,0,0,1,3.9-2.76A12.9,12.9,0,0,1,14.5,6.6a.34.34,0,0,1,.33.26s.16.71.42,2S15.64,10.86,15.64,10.91Z"/><path class="cls-8" d="M35.54,41c0,.23-.16.38-.5.46a4,4,0,0,1-1,0l-.86,0c-1.25,0-2-.14-2.26-.43-1-1.44-2.44-3.56-4.43-6.35a3.45,3.45,0,0,0-.64-.76,23.22,23.22,0,0,0-2.67,3.64q-2.49,3.7-3,3.81a33.23,33.23,0,0,1-3.38.09c-.38,0-.57-.14-.57-.43V38.41a32.8,32.8,0,0,1,3.17-4.1c2.11-2.55,3.16-4,3.16-4.21s-1.05-1.63-3.16-4.17S16.19,22,16.19,21.74V19.2q0-.48.57-.48c.4,0,1,0,1.79.1s1.38.09,1.78.09a.77.77,0,0,1,.6.33q1.39,2.18,4.28,6.38a5,5,0,0,0,.62.79c.05,0,.22-.21.52-.62.92-1.25,2.44-3.47,4.55-6.64a.68.68,0,0,1,.55-.33c.4,0,1,0,1.76-.05s1.36-.05,1.74-.05.59.16.59.48v2.5c0,.28-1,1.69-3.17,4.23s-3.18,3.94-3.18,4.19a35.66,35.66,0,0,0,3.18,4.08c2.12,2.55,3.17,4,3.17,4.26Z"/></g><g class="cls-2"><path class="cls-9" d="M15.74,11c0,.19-.14.3-.43.33-.77.09-1.54.13-2.3.22a3.25,3.25,0,0,0-2.08.95c-.77.84-1.16,3-1.16,6.4.52,0,1.35,0,2.47,0s2,.05,2.55.05c.38,0,.57.14.57.43,0,.44,0,1.11.05,2s.05,1.53.05,2-.16.45-.48.45c-.55,0-1.4,0-2.52-.08s-2-.08-2.5-.08v7.11c0,1.12,0,2.8.12,5.05s.12,3.94.12,5c0,.43-.16.64-.48.64H5.36c-.41,0-.62-.24-.62-.74V24.35c0-.42-.48-.63-1.45-.61a4.39,4.39,0,0,1-1.66-.12,2.36,2.36,0,0,1-.08-.88c0-.35,0-.87,0-1.56S1.46,20,1.46,19.62s1-.56,3-.67c-.05-1-.07-1.84-.07-2.48,0-2.81.51-4.86,1.5-6.16A8.67,8.67,0,0,1,9.82,7.55a12.81,12.81,0,0,1,4.78-.91.34.34,0,0,1,.33.26s.16.7.42,2S15.74,10.9,15.74,11Z"/><path class="cls-9" d="M35.65,41c0,.23-.17.38-.5.46a4.13,4.13,0,0,1-1,0l-.85-.05c-1.26,0-2-.14-2.26-.43q-1.46-2.16-4.43-6.35a3.54,3.54,0,0,0-.65-.77,23.35,23.35,0,0,0-2.66,3.65q-2.5,3.7-3,3.81a33.09,33.09,0,0,1-3.38.09c-.38,0-.57-.14-.57-.43V38.45a33.15,33.15,0,0,1,3.17-4.1c2.11-2.55,3.16-4,3.16-4.21S21.57,28.51,19.46,26,16.29,22,16.29,21.78V19.24q0-.48.57-.48c.4,0,1,0,1.79.09s1.39.1,1.78.1a.76.76,0,0,1,.6.33c.94,1.45,2.36,3.57,4.28,6.38a5.91,5.91,0,0,0,.62.79c.05,0,.23-.21.53-.62.92-1.25,2.43-3.47,4.55-6.64a.67.67,0,0,1,.54-.34c.4,0,1,0,1.76,0s1.36,0,1.74,0,.6.16.6.48v2.5q0,.42-3.18,4.23t-3.18,4.19a35.15,35.15,0,0,0,3.18,4.07q3.18,3.84,3.18,4.27Z"/></g><g class="cls-2"><path class="cls-10" d="M15.85,11c0,.19-.15.3-.43.33-.78.09-1.55.13-2.31.22a3.2,3.2,0,0,0-2.07,1c-.78.84-1.17,3-1.17,6.4.52,0,1.35,0,2.48.05s2,0,2.54,0c.39,0,.58.14.58.43s0,1.1,0,2,.05,1.53.05,2-.16.45-.48.45c-.55,0-1.39,0-2.52-.08s-2-.08-2.5-.08v7.11c0,1.12,0,2.8.12,5.05s.12,3.94.12,5c0,.43-.16.64-.48.64H5.47c-.42,0-.62-.24-.62-.74V24.39c0-.42-.49-.63-1.46-.62a4.32,4.32,0,0,1-1.66-.11,2.53,2.53,0,0,1-.07-.89c0-.34,0-.86,0-1.55S1.56,20,1.56,19.66s1-.56,3-.67c0-1-.07-1.84-.07-2.48,0-2.81.51-4.86,1.5-6.16A8.81,8.81,0,0,1,9.92,7.58a13,13,0,0,1,4.78-.9.36.36,0,0,1,.34.26s.15.7.41,2S15.85,10.94,15.85,11Z"/><path class="cls-10" d="M35.75,41.08c0,.23-.16.38-.5.46a4.06,4.06,0,0,1-1,0l-.86-.05c-1.25,0-2-.14-2.26-.43q-1.45-2.16-4.43-6.35A4.12,4.12,0,0,0,26,34a22.18,22.18,0,0,0-2.67,3.65c-1.67,2.47-2.67,3.74-3,3.81a33.23,33.23,0,0,1-3.38.09c-.39,0-.58-.14-.58-.43V38.49a33.15,33.15,0,0,1,3.17-4.1c2.11-2.55,3.17-4,3.17-4.21S21.67,28.55,19.56,26s-3.17-3.93-3.17-4.19V19.27c0-.31.19-.47.58-.47s1,0,1.78.09,1.39.1,1.79.1a.74.74,0,0,1,.59.33c.94,1.45,2.37,3.57,4.29,6.38a4.41,4.41,0,0,0,.62.79,2.74,2.74,0,0,0,.52-.62c.92-1.25,2.44-3.47,4.55-6.64a.69.69,0,0,1,.55-.34c.39,0,1,0,1.76,0s1.35-.05,1.74-.05.59.16.59.47v2.5q0,.43-3.18,4.24T29.39,30.2a35.15,35.15,0,0,0,3.18,4.07q3.18,3.84,3.18,4.27Z"/></g><g class="cls-2"><path class="cls-11" d="M16,11c0,.19-.14.3-.43.33-.78.09-1.55.13-2.31.22a3.22,3.22,0,0,0-2.07.95Q10,13.79,10,18.93c.53,0,1.35,0,2.48.05s2,.05,2.55.05c.38,0,.57.14.57.43s0,1.1,0,2,0,1.54,0,2-.15.45-.47.45c-.56,0-1.4,0-2.53-.08s-2-.09-2.5-.09v7.12c0,1.11,0,2.8.12,5.05s.12,3.94.12,5c0,.43-.16.64-.47.64H5.57c-.41,0-.62-.24-.62-.74V24.43c0-.43-.48-.63-1.45-.62s-1.61,0-1.67-.12a2.41,2.41,0,0,1-.07-.88c0-.35,0-.87-.05-1.56S1.66,20,1.66,19.69s1-.55,3-.66c-.05-1-.07-1.84-.07-2.48q0-4.21,1.5-6.16A8.7,8.7,0,0,1,10,7.62a13.09,13.09,0,0,1,4.79-.9.34.34,0,0,1,.33.26s.15.7.42,2S16,11,16,11Z"/><path class="cls-11" d="M35.85,41.12c0,.23-.16.38-.5.45a3.55,3.55,0,0,1-1,0l-.86-.05c-1.25,0-2-.14-2.26-.43-1-1.44-2.44-3.56-4.43-6.35a3.7,3.7,0,0,0-.64-.77,23.71,23.71,0,0,0-2.67,3.65q-2.49,3.7-3,3.81a33.23,33.23,0,0,1-3.38.09c-.38,0-.57-.14-.57-.43V38.53a32.33,32.33,0,0,1,3.16-4.1c2.11-2.55,3.17-4,3.17-4.21s-1.06-1.63-3.17-4.17-3.16-3.93-3.16-4.19V19.31c0-.31.19-.47.57-.47s1,0,1.78.09,1.39.1,1.79.1a.77.77,0,0,1,.6.33c.93,1.45,2.36,3.57,4.28,6.38a5,5,0,0,0,.62.79c.05,0,.22-.21.52-.62Q28,24,31.21,19.27a.67.67,0,0,1,.55-.34c.4,0,1,0,1.76,0s1.36-.05,1.74-.05.59.16.59.47v2.5q0,.44-3.17,4.24T29.5,30.24a35.15,35.15,0,0,0,3.18,4.07q3.16,3.84,3.17,4.26Z"/></g><g class="cls-2"><path class="cls-11" d="M16.05,11.07c0,.19-.14.3-.43.33-.77.08-1.55.13-2.31.21a3.3,3.3,0,0,0-2.07,1q-1.15,1.26-1.16,6.4c.52,0,1.35,0,2.47.05s2,.05,2.55.05c.38,0,.57.14.57.43,0,.44,0,1.1.05,2s0,1.54,0,2-.16.45-.48.45c-.56,0-1.4,0-2.52-.08s-2-.09-2.5-.09v7.12c0,1.11,0,2.8.12,5s.12,3.94.12,5.05c0,.43-.16.64-.48.64H5.67c-.41,0-.62-.25-.62-.74V24.47c0-.43-.48-.63-1.45-.62a4,4,0,0,1-1.67-.12,2.71,2.71,0,0,1-.07-.88c0-.35,0-.87-.05-1.56s0-1.21,0-1.56,1-.55,3-.66c0-1-.07-1.84-.07-2.48,0-2.81.5-4.86,1.5-6.17a8.76,8.76,0,0,1,3.9-2.76,13.09,13.09,0,0,1,4.79-.9.34.34,0,0,1,.33.26s.16.7.42,2S16.05,11,16.05,11.07Z"/><path class="cls-11" d="M36,41.16c0,.22-.17.38-.5.45a4,4,0,0,1-1,0l-.85,0c-1.26,0-2-.14-2.27-.43-1-1.44-2.44-3.56-4.42-6.35a3.91,3.91,0,0,0-.65-.77,23.35,23.35,0,0,0-2.66,3.65q-2.5,3.7-3,3.8a28.94,28.94,0,0,1-3.38.1c-.38,0-.57-.14-.57-.43V38.57a33.15,33.15,0,0,1,3.17-4.1c2.11-2.55,3.16-4,3.16-4.21s-1.05-1.63-3.16-4.17S16.6,22.15,16.6,21.9V19.35c0-.31.19-.47.57-.47s1,0,1.79.09,1.39.1,1.78.1a.76.76,0,0,1,.6.33c.93,1.45,2.36,3.57,4.28,6.38a5,5,0,0,0,.62.79c.05,0,.23-.21.53-.62q1.38-1.89,4.54-6.64a.68.68,0,0,1,.55-.34c.4,0,1,0,1.76,0s1.36,0,1.74,0,.6.16.6.47v2.5q0,.43-3.18,4.24T29.6,30.28a35.15,35.15,0,0,0,3.18,4.07Q36,38.19,36,38.61Z"/></g><g class="cls-2"><path class="cls-12" d="M16.16,11.11c0,.19-.15.3-.43.33-.78.08-1.55.13-2.31.21a3.25,3.25,0,0,0-2.07,1q-1.17,1.26-1.17,6.4c.52,0,1.35,0,2.48,0s2,.05,2.54.05q.57,0,.57.42c0,.45,0,1.11.05,2s0,1.54,0,2-.16.45-.48.45c-.55,0-1.39,0-2.52-.08s-2-.09-2.5-.09v7.12c0,1.11,0,2.8.12,5s.12,3.94.12,5.05c0,.43-.16.64-.48.64H5.77c-.41,0-.61-.25-.61-.74V24.51c0-.43-.49-.63-1.46-.62s-1.6,0-1.66-.12A2.41,2.41,0,0,1,2,22.89c0-.35,0-.87-.05-1.56s0-1.21,0-1.56,1-.55,3-.66c0-1-.07-1.84-.07-2.48,0-2.81.51-4.86,1.5-6.17A8.8,8.8,0,0,1,10.23,7.7,13,13,0,0,1,15,6.8a.34.34,0,0,1,.34.26s.15.7.41,2S16.16,11.06,16.16,11.11Z"/><path class="cls-12" d="M36.06,41.2c0,.22-.17.38-.5.45a4.49,4.49,0,0,1-1,0l-.86,0c-1.25,0-2-.14-2.26-.43Q30,39,27,34.84a4.23,4.23,0,0,0-.64-.76,22.18,22.18,0,0,0-2.67,3.65q-2.5,3.71-3,3.8a29.17,29.17,0,0,1-3.39.1c-.38,0-.57-.14-.57-.43V38.61a33.15,33.15,0,0,1,3.17-4.1C22,32,23,30.55,23,30.3S22,28.67,19.87,26.13s-3.17-3.94-3.17-4.19V19.39c0-.32.19-.47.57-.47s1,0,1.79.09,1.39.1,1.79.1a.74.74,0,0,1,.59.33q1.41,2.16,4.29,6.38a5,5,0,0,0,.62.79,2.74,2.74,0,0,0,.52-.62c.92-1.26,2.44-3.47,4.55-6.65A.67.67,0,0,1,32,19c.4,0,1,0,1.77-.05s1.35,0,1.73,0,.6.15.6.47v2.5q0,.43-3.18,4.24T29.7,30.32a35.15,35.15,0,0,0,3.18,4.07q3.18,3.84,3.18,4.26Z"/></g><g class="cls-2"><path class="cls-13" d="M16.26,11.15c0,.19-.14.3-.43.33-.78.08-1.55.13-2.31.21a3.23,3.23,0,0,0-2.07,1q-1.17,1.26-1.17,6.4c.53,0,1.35,0,2.48.05s2,0,2.55,0q.57,0,.57.42c0,.45,0,1.11,0,2s0,1.54,0,2-.16.45-.47.45c-.56,0-1.4,0-2.53-.08s-2-.09-2.5-.09v7.12c0,1.11,0,2.79.12,5s.12,3.93.12,5.05c0,.42-.16.64-.47.64H5.88c-.41,0-.62-.25-.62-.74V24.55c0-.43-.49-.63-1.45-.62s-1.61,0-1.67-.12a2.46,2.46,0,0,1-.07-.88c0-.35,0-.87,0-1.56S2,20.16,2,19.81s1-.55,3-.66c0-1-.07-1.85-.07-2.48,0-2.81.5-4.86,1.5-6.17a8.76,8.76,0,0,1,3.9-2.76,13.06,13.06,0,0,1,4.79-.9.33.33,0,0,1,.33.26s.15.7.42,2S16.26,11.1,16.26,11.15Z"/><path class="cls-13" d="M36.16,41.24c0,.22-.16.38-.5.45a4.47,4.47,0,0,1-1,0l-.86,0c-1.25,0-2-.14-2.26-.43-1-1.44-2.44-3.56-4.43-6.36a3.79,3.79,0,0,0-.64-.76,23.88,23.88,0,0,0-2.67,3.64q-2.49,3.72-3,3.81a29.06,29.06,0,0,1-3.38.1c-.38,0-.57-.14-.57-.43V38.65A32.33,32.33,0,0,1,20,34.55q3.16-3.84,3.17-4.21T20,26.17Q16.81,22.36,16.81,22V19.43q0-.48.57-.48c.39,0,1,0,1.78.1s1.39.1,1.79.1a.74.74,0,0,1,.59.33q1.41,2.16,4.29,6.38a5.77,5.77,0,0,0,.62.79c.05,0,.22-.21.52-.62.92-1.26,2.44-3.47,4.55-6.65a.68.68,0,0,1,.55-.33c.39,0,1,0,1.76-.05S35.19,19,35.57,19s.59.16.59.48v2.5q0,.43-3.18,4.24t-3.17,4.19A35.62,35.62,0,0,0,33,34.43q3.18,3.84,3.18,4.26Z"/></g><g class="cls-2"><path class="cls-13" d="M16.36,11.18c0,.19-.14.31-.43.34-.77.08-1.55.13-2.31.21a3.3,3.3,0,0,0-2.07.95c-.78.85-1.16,3-1.16,6.41.52,0,1.34,0,2.47.05s2,0,2.55,0c.38,0,.57.15.57.43,0,.45,0,1.11.05,2s0,1.54,0,2-.16.45-.48.45q-.84,0-2.52-.09c-1.13-.05-2-.08-2.5-.08V31c0,1.11,0,2.79.12,5.05s.11,3.93.11,5c0,.42-.15.64-.47.64H6c-.41,0-.62-.25-.62-.74V24.59c0-.43-.48-.64-1.45-.62a4,4,0,0,1-1.67-.12A2.76,2.76,0,0,1,2.17,23c0-.35,0-.87,0-1.56s0-1.21,0-1.56,1-.55,3-.67c0-1-.07-1.84-.07-2.47,0-2.81.5-4.86,1.5-6.17a8.76,8.76,0,0,1,3.9-2.76,13.09,13.09,0,0,1,4.79-.9.33.33,0,0,1,.33.26s.16.7.42,2S16.36,11.14,16.36,11.18Z"/><path class="cls-13" d="M36.27,41.28c0,.22-.17.38-.5.45a4.56,4.56,0,0,1-1,0l-.86,0c-1.25,0-2-.14-2.26-.43-1-1.45-2.44-3.56-4.43-6.36a3.45,3.45,0,0,0-.64-.76,22.87,22.87,0,0,0-2.66,3.64q-2.51,3.72-3,3.81a28.94,28.94,0,0,1-3.38.1c-.38,0-.57-.14-.57-.43v-2.6a32.36,32.36,0,0,1,3.17-4.09c2.11-2.56,3.16-4,3.16-4.22s-1-1.62-3.16-4.16S16.91,22.27,16.91,22V19.47q0-.48.57-.48c.4,0,1,0,1.79.1s1.39.09,1.78.09a.79.79,0,0,1,.6.34Q23,21.68,25.93,25.9a5.21,5.21,0,0,0,.62.78c.05,0,.22-.2.53-.61.92-1.26,2.43-3.47,4.54-6.65a.68.68,0,0,1,.55-.33c.4,0,1,0,1.76-.05S35.29,19,35.67,19s.6.16.6.48V22q0,.44-3.18,4.24T29.91,30.4a36.22,36.22,0,0,0,3.18,4.07q3.18,3.84,3.18,4.26Z"/></g><g class="cls-2"><path class="cls-14" d="M16.46,11.22c0,.19-.14.31-.42.34-.78.08-1.55.13-2.31.21a3.3,3.3,0,0,0-2.08,1c-.77.85-1.16,3-1.16,6.41.52,0,1.35,0,2.47.05s2,0,2.55,0c.38,0,.57.15.57.43,0,.45,0,1.11.05,2s.05,1.54.05,2-.16.46-.48.46q-.82,0-2.52-.09c-1.13,0-2-.08-2.5-.08V31c0,1.11,0,2.79.12,5.05s.12,3.93.12,5c0,.43-.16.65-.48.65H6.08c-.41,0-.61-.25-.61-.74V24.63C5.47,24.2,5,24,4,24s-1.6,0-1.66-.12A2.32,2.32,0,0,1,2.27,23c0-.35,0-.87,0-1.56s0-1.21,0-1.56,1-.56,3-.67c0-1-.07-1.84-.07-2.47,0-2.81.51-4.86,1.5-6.17a8.74,8.74,0,0,1,3.91-2.76,13,13,0,0,1,4.78-.9.33.33,0,0,1,.33.26s.16.7.42,2S16.46,11.18,16.46,11.22Z"/><path class="cls-14" d="M36.37,41.32c0,.22-.17.38-.5.45a4.13,4.13,0,0,1-1,0l-.85,0c-1.26,0-2-.15-2.26-.43Q30.28,39.14,27.3,35a3.31,3.31,0,0,0-.65-.76A22.87,22.87,0,0,0,24,37.84q-2.5,3.72-3,3.81a31.52,31.52,0,0,1-3.38.1c-.38,0-.57-.15-.57-.43v-2.6a33.61,33.61,0,0,1,3.17-4.09c2.11-2.56,3.17-4,3.17-4.22s-1.06-1.62-3.17-4.16S17,22.31,17,22.06V19.51q0-.48.57-.48c.4,0,1,0,1.79.1s1.39.09,1.78.09a.73.73,0,0,1,.6.34c.94,1.44,2.36,3.57,4.29,6.38a5.69,5.69,0,0,0,.61.78c.05,0,.23-.2.53-.62.92-1.25,2.43-3.46,4.55-6.64a.66.66,0,0,1,.54-.33c.4,0,1,0,1.77-.05s1.35,0,1.73,0,.6.16.6.48V22c0,.28-1.06,1.7-3.18,4.24S30,30.18,30,30.44a36.22,36.22,0,0,0,3.18,4.07c2.12,2.55,3.18,4,3.18,4.26Z"/></g><g class="cls-2"><path class="cls-15" d="M16.57,11.26c0,.19-.15.31-.43.34-.78.08-1.55.13-2.31.21a3.25,3.25,0,0,0-2.07.95Q10.59,14,10.59,19.17c.53,0,1.35,0,2.48,0s2,.05,2.55.05c.38,0,.57.15.57.43,0,.45,0,1.11,0,2s.05,1.53.05,2a.41.41,0,0,1-.47.46c-.56,0-1.4,0-2.53-.09s-2-.08-2.5-.08v7.12c0,1.11,0,2.79.12,5.05s.12,3.93.12,5c0,.43-.16.65-.48.65H6.19c-.42,0-.62-.25-.62-.74V24.67c0-.43-.49-.64-1.45-.62a4.47,4.47,0,0,1-1.67-.12,2.46,2.46,0,0,1-.07-.88c0-.35,0-.87,0-1.56s-.05-1.21-.05-1.56,1-.56,3-.67c0-1-.08-1.84-.08-2.47,0-2.81.51-4.86,1.5-6.17a8.8,8.8,0,0,1,3.91-2.76A13.05,13.05,0,0,1,15.42,7a.35.35,0,0,1,.34.27s.15.7.41,2S16.57,11.22,16.57,11.26Z"/><path class="cls-15" d="M36.47,41.36c0,.22-.16.38-.5.45a4.06,4.06,0,0,1-1,0l-.86,0c-1.25,0-2-.15-2.26-.43Q30.38,39.18,27.4,35a3.45,3.45,0,0,0-.64-.76,22.46,22.46,0,0,0-2.67,3.64c-1.67,2.48-2.67,3.75-3,3.81a31.8,31.8,0,0,1-3.38.1c-.38,0-.57-.15-.57-.43v-2.6a32.76,32.76,0,0,1,3.16-4.09c2.11-2.56,3.17-4,3.17-4.22s-1.06-1.62-3.17-4.16-3.16-3.94-3.16-4.19V19.55q0-.48.57-.48c.39,0,1,0,1.78.1s1.39.09,1.79.09a.73.73,0,0,1,.59.34q1.41,2.16,4.29,6.38a5.21,5.21,0,0,0,.62.78s.22-.2.52-.62q1.38-1.87,4.55-6.64a.68.68,0,0,1,.55-.33c.39,0,1,0,1.76-.05s1.36-.05,1.74-.05.59.16.59.48v2.5c0,.28-1.06,1.7-3.18,4.24s-3.18,3.93-3.18,4.19a36.22,36.22,0,0,0,3.18,4.07q3.18,3.83,3.18,4.26Z"/></g><g class="cls-2"><path class="cls-16" d="M16.67,11.3c0,.19-.14.31-.43.34-.78.08-1.55.12-2.31.21a3.22,3.22,0,0,0-2.07,1q-1.17,1.26-1.17,6.41c.53,0,1.35,0,2.48,0s2,.05,2.55.05c.38,0,.57.15.57.43,0,.45,0,1.11.05,2s0,1.53,0,2a.41.41,0,0,1-.47.46c-.56,0-1.4,0-2.53-.09s-2-.08-2.5-.08v7.12c0,1.11,0,2.79.12,5.05s.12,3.93.12,5c0,.43-.16.65-.47.65H6.29c-.41,0-.62-.25-.62-.74V24.71c0-.43-.48-.64-1.45-.62A4.51,4.51,0,0,1,2.55,24a2.46,2.46,0,0,1-.07-.88c0-.35,0-.87,0-1.56s0-1.21,0-1.56,1-.56,3-.67c0-1-.07-1.84-.07-2.47q0-4.21,1.5-6.17a8.69,8.69,0,0,1,3.9-2.76A13.1,13.1,0,0,1,15.53,7a.34.34,0,0,1,.33.27s.16.7.42,2S16.67,11.26,16.67,11.3Z"/><path class="cls-16" d="M36.57,41.4c0,.22-.16.38-.5.45a4,4,0,0,1-1,0l-.86,0c-1.25,0-2-.15-2.26-.43C31,40,29.49,37.83,27.5,35a3.45,3.45,0,0,0-.64-.76,23.22,23.22,0,0,0-2.67,3.64q-2.49,3.72-3,3.81a31.8,31.8,0,0,1-3.38.1c-.38,0-.57-.15-.57-.43V38.8a32.76,32.76,0,0,1,3.16-4.09c2.12-2.56,3.17-4,3.17-4.22s-1.05-1.62-3.17-4.16-3.16-3.94-3.16-4.19V19.59q0-.48.57-.48c.4,0,1,0,1.79.1s1.38.09,1.78.09a.76.76,0,0,1,.6.34Q23.36,21.8,26.24,26a5.21,5.21,0,0,0,.62.78c.05,0,.22-.2.52-.62q1.38-1.87,4.55-6.64a.68.68,0,0,1,.55-.33c.4,0,1,0,1.76-.05s1.36-.05,1.74-.05.59.16.59.48v2.5c0,.28-1,1.7-3.17,4.24s-3.18,3.93-3.18,4.19a36.22,36.22,0,0,0,3.18,4.07c2.12,2.55,3.17,4,3.17,4.26Z"/></g><g class="cls-2"><path class="cls-16" d="M16.77,11.34c0,.19-.14.3-.43.34-.77.08-1.54.12-2.3.21a3.25,3.25,0,0,0-2.08.95q-1.16,1.26-1.16,6.41c.52,0,1.35,0,2.47,0s2,.05,2.55.05c.38,0,.57.14.57.43,0,.44,0,1.11.05,2s0,1.53,0,2-.16.45-.48.45c-.55,0-1.4,0-2.52-.08S11.53,24,11,24v7.12q0,1.67.12,5c.08,2.26.12,3.94.12,5,0,.43-.16.64-.48.64H6.39c-.41,0-.62-.24-.62-.73V24.75c0-.43-.48-.64-1.45-.62A4.51,4.51,0,0,1,2.65,24a2.76,2.76,0,0,1-.07-.88c0-.35,0-.87,0-1.56s0-1.21,0-1.56,1-.56,3-.67c0-1-.07-1.84-.07-2.47,0-2.81.51-4.87,1.5-6.17a8.67,8.67,0,0,1,3.91-2.76A12.81,12.81,0,0,1,15.63,7a.34.34,0,0,1,.33.26s.16.71.42,2S16.77,11.29,16.77,11.34Z"/><path class="cls-16" d="M36.68,41.44c0,.22-.17.37-.5.45a4.13,4.13,0,0,1-1,0l-.85,0c-1.26,0-2-.14-2.26-.42q-1.45-2.17-4.43-6.36a3.31,3.31,0,0,0-.65-.76A22.87,22.87,0,0,0,24.3,38q-2.51,3.72-3,3.81a33.09,33.09,0,0,1-3.38.09q-.57,0-.57-.42v-2.6a33.61,33.61,0,0,1,3.17-4.09c2.11-2.56,3.16-4,3.16-4.22s-1-1.63-3.16-4.17-3.17-3.93-3.17-4.19V19.63q0-.48.57-.48c.4,0,1,0,1.79.1s1.39.09,1.78.09a.74.74,0,0,1,.6.34c.94,1.44,2.36,3.57,4.28,6.38a6.15,6.15,0,0,0,.62.78c.05,0,.23-.2.53-.62.92-1.25,2.43-3.47,4.55-6.64a.66.66,0,0,1,.54-.33c.4,0,1,0,1.76-.05s1.36-.05,1.74-.05.6.16.6.48v2.5c0,.28-1.06,1.7-3.18,4.23s-3.18,3.94-3.18,4.2a37.36,37.36,0,0,0,3.18,4.07q3.18,3.82,3.18,4.26Z"/></g><text class="cls-17" transform="translate(2.16 41.9)">fx</text></g></g></svg>