<?xml version="1.0" encoding="utf-8"?>
<!-- Generator: Adobe Illustrator 24.0.1, SVG Export Plug-In . SVG Version: 6.00 Build 0)  -->
<svg version="1.1" id="Layer_1" xmlns="http://www.w3.org/2000/svg" xmlns:xlink="http://www.w3.org/1999/xlink" x="0px" y="0px"
	 viewBox="0 0 1600 1200" style="enable-background:new 0 0 1600 1200;" xml:space="preserve">
<style type="text/css">
	.st0{fill:#F3F3F3;}
	.st1{fill:#B1B5BA;}
	.st2{fill:#FFFFFF;}
	.st3{fill:#DCDCDC;}
	.st4{fill:#E9E9E9;}
	.st5{fill:#D9DCDE;}
	.st6{opacity:0.2;enable-background:new    ;}
	.st7{fill:#BBBDBF;}
	.st8{fill:#ABBDD5;}
	.st9{fill:#858990;}
	.st10{fill:#F39494;}
	.st11{fill:#21252B;}
	.st12{fill:#FB9C9C;}
	.st13{opacity:0.4;enable-background:new    ;}
	.st14{opacity:0.15;enable-background:new    ;}
	.st15{fill:#3F4249;}
	.st16{fill:#F69797;}
	.st17{fill:#61656D;}
	.st18{opacity:0.6;enable-background:new    ;}
	.st19{opacity:0.6;}
	.st20{fill:#F59696;}
	.st21{opacity:0.15;}
	.st22{opacity:0.3;fill:#FFFFFF;enable-background:new    ;}
	.st23{opacity:0.6;fill:#FFFFFF;enable-background:new    ;}
	.st24{opacity:0.2;fill:#FFFFFF;enable-background:new    ;}
</style>
<path class="st0" d="M249.8,563.7c-0.3-12.5,3.7-24.7,11.4-34.6l216.1-280.5c11.7-13.8,29.4-20.9,47.4-19l619.6,64.7
	c19.2,2,35.9,14,44,31.6l169.2,368.3c3,6.6,4.7,13.7,4.9,20.9l11.7,324.9H260.7L249.8,563.7z"/>
<path class="st0" d="M1362.4,715c-0.3-7.2-1.9-14.3-4.9-20.9l-169.2-368.3c-8.1-17.6-24.8-29.5-44-31.6l-619.6-64.7
	c-18-1.8-35.7,5.2-47.4,19L261.1,529.1c-7.7,9.9-11.7,22-11.4,34.6l7.7,337.4h1111.6L1362.4,715z"/>
<path class="st1" d="M1335.4,979.8l-58.7-46.4h83.6l10.2,6.9l0-0.4l-9.7-6.5h9.4l0-0.7h-10.4l-46.1-30.9h55.4l0-0.7H257.5l0,0.7
	h57.8l-46.4,30.9h-10.7l0,0.7h9.7l-9.6,6.4v0.2l9.8-6.6H352L293,979.8h-33.7l0,0.6h33l-32.4,25.5l0,0.5l33-26h94.2l-61.8,59.5h0.7
	l61.8-59.5h94.2l-48.1,59.5h0.7l48-59.5h94.2l-34.4,59.5h0.7l34.3-59.5h94.2l-20.6,59.5h0.7l20.6-59.5h94.2l-6.9,59.5h0.7l6.8-59.5
	h94.2l6.8,59.5h0.7l-6.9-59.5h94.2l20.6,59.5h0.7l-20.6-59.5h94.2l34.3,59.5h0.7l-34.4-59.5h94.2l48,59.5h0.7l-48.1-59.5h94.2
	l61.8,59.5h0.7l-61.8-59.5h94.2l37.5,29.5l0-0.5l-36.9-29h35.8l0-0.6L1335.4,979.8L1335.4,979.8z M1313.2,901.8l46.1,30.9h-83.5
	l-39.1-30.9H1313.2z M1236.2,901.8l39.1,30.9h-83.4l-32-30.9H1236.2z M1159.4,901.8l32,30.9h-83.4l-25-30.9H1159.4z M1082.4,901.8
	l25,30.9h-83.1l-17.8-30.9H1082.4z M1005.9,901.8l17.7,30.9h-83.4l-10.7-30.9H1005.9z M929,901.8l10.7,30.9h-83.4l-3.6-30.9H929z
	 M852.2,901.8l3.6,30.9h-83.3l3.5-30.9H852.2z M775.6,901.8l-3.6,30.9h-83.5l10.5-30.9H775.6z M698.5,901.8l-10.6,30.9h-83
	l17.8-30.9H698.5z M622.2,901.8l-17.9,30.9h-83.4l24.5-30.5h-0.5l-24.6,30.5h-83.1l31.8-30.6h-0.5l-31.8,30.6h-83.2l39.3-30.9H622.2
	L622.2,901.8z M269.2,932.7l46.1-30.9h76.9l-39.3,30.9H269.2z M387.7,979.8h-94.1l59-46.4H436L387.7,979.8z M482.4,979.8h-94.1
	l48.3-46.4h83.3L482.4,979.8z M577.1,979.8H483l37.4-46.4h83.6L577.1,979.8z M671.8,979.8h-94.1l26.8-46.4h83.2L671.8,979.8z
	 M766.5,979.8h-94.1l15.8-46.4h83.6L766.5,979.8z M767.2,979.8l5.3-46.4h83.4l5.4,46.4H767.2z M861.9,979.8l-5.4-46.4h83.5l16,46.4
	H861.9z M956.6,979.8l-16.1-46.4h83.6l26.6,46.4H956.6z M1051.3,979.8l-26.7-46.4h83.3l37.5,46.4H1051.3z M1146,979.8l-37.6-46.4
	h83.6l48,46.4H1146z M1240.7,979.8l-48.1-46.4h83.5l58.7,46.4H1240.7z"/>
<path class="st1" d="M1410.9,1041.1H222.8c-0.4,0-0.6-0.3-0.6-0.6s0.3-0.6,0.6-0.6h1188.3c0.4,0,0.6,0.3,0.6,0.6
	S1411.3,1041.1,1410.9,1041.1z"/>
<path class="st2" d="M407.1,706.9H252.6l4.8,194.3h149.6V706.9z"/>
<path class="st3" d="M407.1,713.3H252.6l1.1,38.3h153.3V713.3z"/>
<path class="st3" d="M407.1,706.9H252.6l1,41.6h153.4V706.9z"/>
<path class="st3" d="M289.9,706.9h-2.1v194.3h2.1V706.9z"/>
<path class="st2" d="M647.5,706.9H410.9v194.3h236.6V706.9z"/>
<path class="st3" d="M647.5,713.3H410.9v38.3h236.6V713.3z"/>
<path class="st3" d="M647.5,706.9H410.9v41.6h236.6V706.9z"/>
<path class="st3" d="M530.3,706.9h-2.1v194.3h2.1V706.9z"/>
<path class="st3" d="M305.7,772.3H299v38.3h6.7V772.3z"/>
<path class="st3" d="M280.7,772.3H274v38.3h6.7V772.3z"/>
<path class="st3" d="M546.1,772.3h-6.7v38.3h6.7V772.3z"/>
<path class="st3" d="M521.1,772.3h-6.7v38.3h6.7V772.3z"/>
<path class="st4" d="M650.8,689.7H252.6v17.1h398.1V689.7z"/>
<path class="st2" d="M363.5,721h-27.7v4.8h27.7V721z"/>
<path class="st2" d="M483.3,721h-27.7v4.8h27.7V721z"/>
<path class="st2" d="M603.1,721h-27.7v4.8h27.7V721z"/>
<path class="st3" d="M433.7,377.8h-42.3v140.7h42.3V377.8z"/>
<path class="st4" d="M410.6,377.8h-32.9L269.3,518.6h141.4V377.8z"/>
<path class="st2" d="M307.5,377.8h-1.9v140.7h1.9V377.8z"/>
<path class="st2" d="M320.5,472.9h-5.9v33.7h5.9V472.9z"/>
<path class="st2" d="M298.6,472.9h-5.9v33.7h5.9V472.9z"/>
<path class="st4" d="M621.9,377.8h-208v140.7h208V377.8z"/>
<path class="st2" d="M518.9,377.8H517v140.7h1.9V377.8z"/>
<path class="st2" d="M531.9,472.9H526v33.7h5.9V472.9z"/>
<path class="st2" d="M509.9,472.9H504v33.7h5.9V472.9z"/>
<path class="st2" d="M621.9,518.7H269.2l-5.8,7.6h358.6V518.7z"/>
<path class="st4" d="M621.9,523H265.8l-2.5,3.2h358.6V523z"/>
<path class="st5" d="M1247.6,462h-198.9v439.1h198.9V462z"/>
<path class="st3" d="M1232.6,901.1H1036c-0.6,0-1.2-0.5-1.2-1.1v-26.6c0-0.6,0.5-1.1,1.2-1.1h196.6c0.6,0,1.2,0.5,1.2,1.1V900
	C1233.8,900.6,1233.3,901.1,1232.6,901.1z"/>
<path class="st4" d="M1233.8,462h-199v428.9h199V462z"/>
<path class="st2" d="M1233.8,732.8h-199v4.1h199V732.8z"/>
<path class="st2" d="M1057.3,619.1h-10.6v101.1h10.6V619.1z"/>
<path class="st2" d="M1057.3,745.7h-10.6v101.1h10.6V745.7z"/>
<path class="st6" d="M391.2,573.6h-110c-1.6,0-2.9-1.3-2.9-2.9v-8.4c0-1.6,1.3-2.9,2.9-2.9h110c1.6,0,2.9,1.3,2.9,2.9v8.4
	C394.1,572.3,392.8,573.6,391.2,573.6z"/>
<path class="st7" d="M299.2,597.4H293v7.1h6.2V597.4z"/>
<path class="st7" d="M296.1,597.4H293v7.1h3.1V597.4z"/>
<path class="st2" d="M321.7,629c0,14.1-11.5,25.6-25.6,25.6s-25.6-11.5-25.6-25.6s11.5-25.6,25.6-25.6S321.7,614.9,321.7,629z"/>
<path class="st4" d="M316.7,629c0,11.4-9.2,20.6-20.6,20.6c-11.4,0-20.6-9.2-20.6-20.6c0-11.4,9.2-20.6,20.6-20.6
	C307.5,608.4,316.7,617.6,316.7,629z"/>
<path class="st8" d="M300.3,568.9c-0.3-2-2.1-3.5-4.2-3.5c-2.2,0-4,1.5-4.2,3.5h0v28.5h8.5L300.3,568.9L300.3,568.9z M296.1,570.8
	c-0.8,0-1.5-0.7-1.5-1.5s0.7-1.5,1.5-1.5s1.5,0.7,1.5,1.5C297.6,570.2,296.9,570.8,296.1,570.8z"/>
<path class="st7" d="M345.1,591.3h-4.8v5.5h4.8V591.3z"/>
<path class="st7" d="M342.7,591.3h-2.4v5.5h2.4V591.3z"/>
<path class="st2" d="M362.7,615.5c0,10.9-8.9,19.8-19.8,19.8c-10.9,0-19.8-8.9-19.8-19.8s8.9-19.8,19.8-19.8
	C353.8,595.7,362.7,604.6,362.7,615.5z"/>
<path class="st4" d="M342.9,631.5c8.8,0,16-7.2,16-16c0-8.8-7.2-16-16-16c-8.8,0-16,7.2-16,16C326.9,624.4,334.1,631.5,342.9,631.5z
	"/>
<path class="st8" d="M345.9,569.2c-0.2-1.5-1.6-2.7-3.3-2.7s-3.1,1.2-3.3,2.7h0v22.1h6.6L345.9,569.2L345.9,569.2z M342.7,570.7
	c-0.6,0-1.1-0.5-1.1-1.1s0.5-1.1,1.1-1.1s1.1,0.5,1.1,1.1C343.8,570.2,343.3,570.7,342.7,570.7z"/>
<path class="st2" d="M296.5,569.5c0,0.2-0.2,0.4-0.4,0.4s-0.4-0.2-0.4-0.4v-5.8c0-0.2,0.2-0.4,0.4-0.4s0.4,0.2,0.4,0.4V569.5z"/>
<path class="st2" d="M343.1,569.5c0,0.2-0.2,0.4-0.4,0.4c-0.2,0-0.4-0.2-0.4-0.4v-5.8c0-0.2,0.2-0.4,0.4-0.4c0.2,0,0.4,0.2,0.4,0.4
	V569.5z"/>
<path class="st2" d="M380.2,569.5c0,0.2-0.2,0.4-0.4,0.4c-0.2,0-0.4-0.2-0.4-0.4v-5.8c0-0.2,0.2-0.4,0.4-0.4c0.2,0,0.4,0.2,0.4,0.4
	V569.5z"/>
<path class="st1" d="M1410.9,1041.1H222.8c-0.4,0-0.6-0.3-0.6-0.6s0.3-0.6,0.6-0.6h1188.3c0.4,0,0.6,0.3,0.6,0.6
	S1411.3,1041.1,1410.9,1041.1z"/>
<path class="st1" d="M915.9,642.4h18.4l-55.6,397.3h-7.2L915.9,642.4z"/>
<path class="st1" d="M1193.1,1039.9h-7.2l-55.6-397.5h18.4L1193.1,1039.9z"/>
<path class="st9" d="M871.5,1039.7h3.1l47.8-386.2c0.4-2.7,2.5-4.9,5.2-5l6-0.6l0.8-5.4h-18.4L871.5,1039.7z"/>
<path class="st9" d="M1188.6,1039.9l-49.5-386c-0.4-2.8,1.5-5.5,4.3-6.1l5.9-1.2l-0.5-4.3h-18.4l55.6,397.5L1188.6,1039.9
	L1188.6,1039.9L1188.6,1039.9z"/>
<path class="st1" d="M859.4,642.4h18.4l-55.5,397.4h-7.2L859.4,642.4z"/>
<path class="st1" d="M1136.5,1039.9h-7.2l-55.5-397.5h18.4L1136.5,1039.9z"/>
<path class="st9" d="M815.1,1039.8h3.1l18.7-142.2c0,0,0,0,5.7-3.3L877,647.8l0.8-5.4h-18.4L815.1,1039.8z"/>
<path class="st9" d="M1131.9,1039.9l-18.2-141.1c6.5-4.5,6.5-4.5,6.5-4.5l-28.1-252h-18.4l55.5,397.5L1131.9,1039.9L1131.9,1039.9
	L1131.9,1039.9L1131.9,1039.9z"/>
<path class="st9" d="M1181.2,635.4c0,3.8-2.5,7-5.7,7h-172c-3.1,0-5.7-3.1-5.7-7c0-3.8,2.5-7,5.7-7h172
	C1178.6,628.4,1181.2,631.5,1181.2,635.4z"/>
<path class="st1" d="M1048.9,635.4c0,3.8-3.1,7-7,7H829.1c-3.8,0-7-3.1-7-7c0-3.8,3.1-7,7-7H1042
	C1045.8,628.4,1048.9,631.5,1048.9,635.4z"/>
<path class="st1" d="M640.7,838.5H656l-30.9,201.3h-6L640.7,838.5z"/>
<path class="st9" d="M619.2,1039.8h2.6l24.4-192c0.3-2.3,2.1-4,4.4-4.2l5-0.5l0.6-4.5h-15.3L619.2,1039.8z"/>
<path class="st1" d="M593.6,838.5H609l-30.9,201.3h-6L593.6,838.5z"/>
<path class="st1" d="M769.9,1039.9h-6l-43.5-197.6h15.3L769.9,1039.9z"/>
<path class="st9" d="M572.1,1039.8h2.6l15.7-119.2c0,0,0,0,4.8-2.7l13.2-74.9l0.6-4.5h-15.3L572.1,1039.8z"/>
<path class="st9" d="M766.1,1039.9l-24.9-119.1l6.2-1.4l-17.1-77.2h-9.9l43.5,197.6L766.1,1039.9L766.1,1039.9z"/>
<path class="st9" d="M589.5,658.1h133.9c3.4,0,6.1,2.7,6.1,6.1v183.6c0,3.4-2.7,6.1-6.1,6.1H589.5c-3.4,0-6.1-2.7-6.1-6.1V664.2
	C583.4,660.8,586.1,658.1,589.5,658.1z"/>
<path class="st1" d="M589.2,658.9c3.2,0,5.8,2.6,5.8,5.8V853c0,0-2.6,0-5.8,0c-3.2,0-5.8-2.6-5.8-5.8V664.7
	C583.4,661.5,586,658.9,589.2,658.9z"/>
<path class="st9" d="M774.9,848.1c0,3.2-2.6,5.8-5.8,5.8h-94c-3.2,0-5.8-2.6-5.8-5.8c0-3.2,2.6-5.8,5.8-5.8h94
	C772.3,842.3,774.9,844.9,774.9,848.1z"/>
<path class="st1" d="M704,847.3c0.5,3.6-2.2,6.7-5.8,6.7h-109c-3.2,0-5.8-2.6-5.8-5.8c0-3.2,2.6-5.8,5.8-5.8H698
	C700.9,842.3,703.6,844.3,704,847.3z"/>
<path class="st10" d="M746.1,685.6l10.8,51.8l-4.5,38.4l-12.3,0.5L715,692L746.1,685.6z"/>
<path class="st11" d="M683.4,667.2c-0.8-0.2-1.5-0.5-2.3-0.8c-0.8-0.3-1.6-0.6-2.3-0.9c-0.5-0.2-1.1-0.4-1.6-0.6
	c-0.5-0.2-1.1-0.3-1.6-0.5c-1-0.2-2.1-0.4-3.2-0.5c-0.6,0-1.1-0.1-1.7-0.1c-0.6,0-1.2,0-1.8,0c-0.8,0-1.6,0.1-2.5,0.2
	c-0.9,0.1-1.8,0.2-2.6,0.4c-1.1,0.2-2.2,0.4-3.3,0.6c-0.6,0.1-1.1,0.2-1.7,0.3c-9,1.4-14.2-4.8-13.3-3.9l-0.1-0.1c0,0-0.1-0.1-0.1,0
	c0,0-0.1-0.1-0.1-0.1c-2.1-2-3-3.5-6.9-6.6c-2.4-1.9-4-2.8-5.2-4c-1.9-1.8-3.9-6.3-3.5-12.2c0.1-0.8,0.2-2.2,0.5-3.3
	c0.6-2.8,1.5-4.9,2-7.2c0.7-3.1,0.6-4.4,0.6-5.4c-0.2-2.4-0.7-4-0.7-3.9c-0.9-2.7-5.3-12.1-2.1-18.6c2.5-5,11.4-9.8,11.4-9.8
	c13.8-8.9,10.8-15.3,18.9-23.2c6.2-6,19.6-8.7,26-6.2c0.6,0.2,2.4-0.5,3.9-1c3.1-1,5.5-1.6,11,1c1.9,0.9,3.8,2.3,5.4,3.6
	c8.6,7.1,8,13.8,9.8,19.6c0,0,0,0,0-0.1c0.3,1,0.7,1.9,1.1,2.9c0.5,1.1,1.1,2.1,1.7,3.1c2.9,4.6,10.1,11.2,6.8,25.1
	c-1.5,6.3-4.5,8.4-3.2,16.6c0.4,2.2,1.2,4.7,1.1,4.4c0.7,2,1.3,4,1.8,6.1c0.1,0.5,0.2,1.1,0.3,1.6c0.1,0.6,0.2,1.1,0.2,1.7
	c0.4,4.8-1.1,7.8-5.4,11.2c-0.5,0.4-0.9,0.7-1.4,1c-0.5,0.3-1,0.6-1.5,0.8c-1.8,0.9-3.9,1.4-5.9,1.8c-1,0.2-2,0.4-3,0.7
	C697.1,664.1,693.7,670.4,683.4,667.2z"/>
<path class="st12" d="M922.8,968.3c0,0,9.2,27.3,12.6,36.1c2.7,6.9,12.3,11.2,15.1,12.1c0.1,0,0.1,0,0.2,0.1l33,12.6
	c3.2,1.1-0.6,7.2-0.6,7.2c-0.7,0.9-1.7,1.4-3,1.2c-0.9-0.1-1.6-0.7-2.3-1.2c-0.1-0.1-0.2-0.1-0.2-0.1h-0.6c-0.1,0-0.2,0.1-0.3,0.2
	c-0.6,0.7-1.5,1.1-2.3,1.1s-2-0.4-2.6-1.1c-0.3-0.3-0.8-0.2-1.1,0.1c-0.5,0.6-1.2,0.9-2,0.9c-0.7,0-1.6-0.3-2.2-0.8
	c-0.3-0.2-0.8-0.2-1.1,0.1c-0.4,0.4-1.1,0.7-1.7,0.7c-1,0-1.8-0.5-2.2-1.3h-0.3l-46.9-0.7h2.5c-5.1-0.1-11.7-4.2-11.9-9.3l-0.2-3.4
	c-0.2-4.2-17.4-54.1-17.4-54.1L922.8,968.3z"/>
<path class="st11" d="M990.6,1035.5c-0.2-4.6-3.1-8.7-7.5-10.2l-30.8-9.4c-1.2-0.4-2.3,0.2-2.7,1.4c-1.2,3.9-4.1,12.3-9.8,18.2
	l-33.1-0.1c-1.2,0-2.2,1-2.2,2.1c0,1.2,1,2.2,2.2,2.2l81.9,0.1c1.2,0,2.1-1,2.1-2.1L990.6,1035.5L990.6,1035.5z"/>
<path class="st13" d="M990.6,1035.5c-0.1-3.7-2-6.9-5-9c3.8,2.7,3.1,5.5-2.3,5.3c-28.4-1.4-36-1.4-39.3-1.7c0.1-0.1,0.1-0.2,0.1-0.3
	c-1.3,1.9-2.6,3.9-4.3,5.6h-33.2c-1.2,0-2.2,1-2.2,2.1c0,1.2,1,2.2,2.2,2.2h82c1.2,0,2.2-1,2.2-2.2v-2L990.6,1035.5L990.6,1035.5
	L990.6,1035.5z"/>
<path class="st13" d="M990.6,1033.9l-50.2,1l-0.7,0.7l50.9-1V1033.9z"/>
<path class="st14" d="M984.7,1032.9c-0.5,0.6-1.2,0.9-2,0.9c-0.7,0-1.6-0.3-2.2-0.8c-0.3-0.2-0.8-0.2-1.1,0.1
	c-0.4,0.4-1.1,0.7-1.7,0.7c-1,0-1.8-0.5-2.2-1.3h-0.3l-46.9-0.7h2.5c-5.1-0.1-11.7-4.2-11.8-9.3l-0.2-3.4
	c-0.2-3.5-12.2-38.9-16.1-50.5l-15.2,0.3c0,0,17.2,49.9,17.4,54.1l0.2,3.4c0.2,5.1,6.8,9.2,11.8,9.3h-2.5l46.9,0.7h0.3
	c0.4,0.8,1.2,1.3,2.1,1.3c0.6,0,1.3-0.3,1.7-0.7c0.3-0.3,0.8-0.3,1.1-0.1c0.7,0.5,1.6,0.8,2.2,0.8c0.8,0,1.5-0.3,2-0.9
	c0.3-0.3,0.8-0.4,1.1-0.1c0.7,0.7,1.8,1.1,2.6,1.1c0.9,0,1.8-0.4,2.3-1.1c0.1-0.1,0.2-0.2,0.3-0.2h0.6c0,0,0.1,0,0.1,0.1
	c0.7,0.5,1.4,1.1,2.3,1.2c1.3,0.2,2.3-0.3,3-1.2C983.1,1036.5,984.2,1034.7,984.7,1032.9C984.8,1032.8,984.7,1032.9,984.7,1032.9z"
	/>
<path class="st12" d="M817.2,969.3l-2,34.7c-0.6,8.6,6.5,12,14.7,14.8c0.1,0,0.1,0,0.2,0.1l32.5,10.8c3.1,1.1-0.6,7-0.6,7
	c-0.7,0.9-1.7,1.4-3,1.2c-0.8-0.1-1.5-0.6-2.2-1.1c-0.1-0.1-0.1-0.1-0.1-0.1h-0.6c-0.1,0-0.2,0.1-0.3,0.2c-0.6,0.7-1.4,1.1-2.3,1.1
	c-0.8,0-1.9-0.4-2.6-1.1c-0.3-0.3-0.8-0.2-1,0.1c-0.5,0.6-1.1,0.9-1.9,0.9c-0.7,0-1.5-0.3-2.2-0.8c-0.3-0.2-0.8-0.2-1,0.1
	c-0.4,0.4-1.1,0.7-1.6,0.7c-0.9,0-1.7-0.5-2.1-1.2h-0.3l-46-0.7h-0.7c-5-0.1-10.6-4.1-10.8-9l-0.2-3.3c-0.2-4.1-0.7-51.8-0.7-51.8
	L817.2,969.3z"/>
<path class="st11" d="M869.3,1035.8c-0.2-4.5-3-8.5-7.3-10l-30.1-9.1c-1.1-0.4-2.3,0.2-2.7,1.3c-1.1,3.8-4,12-9.6,17.8l-32.3-0.1
	c-1.1,0-2.1,0.9-2.1,2.1s0.9,2.1,2.1,2.1l79.9,0.1c1.1,0,2.1-0.9,2.1-2.1L869.3,1035.8L869.3,1035.8z"/>
<path class="st13" d="M869.3,1035.8c-0.1-3.6-2-6.8-4.9-8.8c3.7,2.7,3.1,5.3-2.3,5.1c-27.7-1.3-35.1-1.3-38.4-1.6
	c0.1-0.1,0.1-0.2,0.1-0.3c-1.2,1.9-2.6,3.8-4.2,5.4h-32.4c-1.1,0-2.1,0.9-2.1,2.1s0.9,2.1,2.1,2.1h80c1.1,0,2.1-0.9,2.1-2.1
	L869.3,1035.8L869.3,1035.8L869.3,1035.8z"/>
<path class="st13" d="M869.3,1034.2l-49,0.9l-0.7,0.7l49.7-1V1034.2z"/>
<path class="st14" d="M862.8,1034.2c-0.4,0.4-1,0.7-1.6,0.7c-0.9,0-1.7-0.5-2.1-1.2h-0.3l-46-0.7H812c-5-0.1-10.6-4.1-10.8-9
	l-0.2-3.3c-0.2-3.6-0.6-41.5-0.7-50.1l-18,1.3c0,0,0.5,47.8,0.7,51.8l0.2,3.3c0.2,4.9,5.9,8.9,10.8,9h0.7l46,0.7h0.3
	c0.4,0.8,1.1,1.2,2.1,1.2c0.6,0,1.2-0.3,1.6-0.7c0.3-0.3,0.8-0.3,1-0.1c0.7,0.5,1.5,0.8,2.2,0.8c0.8,0,1.4-0.3,1.9-0.9
	c0.3-0.3,0.8-0.4,1-0.1c0.7,0.7,1.7,1,2.6,1c0.9,0,1.7-0.4,2.3-1c0.1-0.1,0.2-0.2,0.3-0.2h0.6c0,0,0.1,0,0.1,0.1
	c0.7,0.5,1.4,1,2.2,1.2c1.3,0.2,2.3-0.3,3-1.2c0,0,0.8-1.3,1.3-2.7C863.2,1034,863,1034.1,862.8,1034.2z"/>
<path class="st8" d="M692.3,637.8l8.7,0l15.4,2.7c0.6,0.8,7.1-0.1,8.2,8.9c0.1,1.4,0.3,2.8,0.5,4.2c2.1,20.6,11.2,26.3,12.7,39.3
	c2.1,18.6-15.5,22.1-17.4,42.3c-3.2,34.4,1.4,53.2,1.4,53.2H612.8c0,0-0.3-0.7,0.2-3.9c0.4-2.7,1.3-7.1,3.2-14.2
	c4.6-17-0.8-64.2-0.8-64.2l-5.5-30.2c-3.4-18.9,10.4-36.6,29.6-37.8L692.3,637.8z"/>
<path class="st8" d="M701,637.8l14-0.2c12.2-0.7,23.1,7.6,25.7,19.6l9.8,49.7l-19.7,2.5L701,637.8z"/>
<path class="st15" d="M743.8,788.3H844c10,0,18.8,6.4,21.8,15.9l65.6,189.3h-35.8c0,0-15.8-36.9-35.5-65
	C839.2,898.7,823,845,823,845H663.4c-14.5,0-26.3-11.8-26.3-26.3v-30.4H743.8z"/>
<path class="st14" d="M860.2,928.5c18.9,28.6,35.5,65,35.5,65h15.7l-67.9-189.3c-3.1-9.5-11.9-15.9-21.8-15.9h-77.9h-22.3h-84.4
	v30.4c0,14.5,11.8,26.3,26.3,26.3h137.3H823C823,845,837.9,894.8,860.2,928.5z"/>
<path class="st16" d="M715,765.3l9.1,1.2l19.5-1.7c2.1,0.2,3,0.6,4.5,1.9l12,10.7c0.8,0.7,0.8,1.9,0.2,2.6c-0.6,0.8-1.8,1-2.6,0.3
	l-11.4-8.3l7.4,8.7c0.8,1,0.4,2.5-0.8,3c-0.7,0.3-1.4,0.1-1.9-0.4l-9.9-9.7l7.5,7.4c0.9,0.9,0.6,2.4-0.6,2.8
	c-0.6,0.3-1.2,0.1-1.7-0.2l-10.5-7.7l7.1,5.3c0.8,0.6,0.8,1.9,0,2.4c-0.4,0.3-1,0.4-1.5,0.2l-9.6-4c-0.9-0.4-2-0.4-2.9,0.1l-3.7,1.8
	c-3,1.5-6.3,2.3-9.6,2.3h-6C701.3,784,715,765.3,715,765.3z"/>
<path class="st17" d="M743,781.6c-0.1,0-0.1,0-0.2-0.1l-6.5-4.8c-0.1-0.1-0.2-0.3-0.1-0.5s0.3-0.2,0.5-0.1l6.5,4.8
	c0.1,0.1,0.2,0.3,0.1,0.5C743.2,781.5,743,781.6,743,781.6z"/>
<path class="st17" d="M748.6,781.4c-0.1,0-0.2,0-0.2-0.1l-7.1-6.9c-0.1-0.1-0.1-0.3,0-0.4c0.1-0.1,0.3-0.1,0.5,0l7.1,6.9
	c0.1,0.1,0.1,0.3,0,0.4C748.8,781.4,748.6,781.4,748.6,781.4z"/>
<path class="st17" d="M734.1,778.8c2.2,1.1,5.8,3,7.1,3.7c1.8,1,2.3-0.3,2.3-0.3c0.1,0.6-0.1,1.2-0.6,1.6c-0.5,0.3-1,0.4-1.5,0.2
	l-9.6-4c-0.9-0.4-2-0.4-2.9,0.1l1.9-1.1C731.9,778.3,733,778.3,734.1,778.8z"/>
<path class="st16" d="M715,765.3l-64.6-14.8l-5.1-40.9l-29.4,0l7.2,41.8c2,13,5,23.8,18.1,25.2l68.6,7.4L715,765.3z"/>
<path class="st11" d="M699.2,784h77c0.6,0,1.2,0.5,1.2,1.2v2c0,0.6-0.5,1.2-1.2,1.2h-77c-0.6,0-1.2-0.5-1.2-1.2v-2
	C698,784.6,698.5,784,699.2,784z"/>
<path class="st18" d="M699.2,784h77c0.6,0,1.2,0.5,1.2,1.2v2c0,0.6-0.5,1.2-1.2,1.2h-77c-0.6,0-1.2-0.5-1.2-1.2v-2
	C698,784.6,698.5,784,699.2,784z"/>
<path class="st11" d="M751.1,784h134.3c0.6,0,1.2,0.5,1.2,1.2v2c0,0.6-0.5,1.2-1.2,1.2H751.1c-0.6,0-1.2-0.5-1.2-1.2v-2
	C750,784.6,750.5,784,751.1,784z"/>
<g class="st19">
	<path class="st18" d="M883.7,784.8H747c-0.2,0-0.4-0.2-0.4-0.4s0.2-0.4,0.4-0.4h136.7c0.2,0,0.4,0.2,0.4,0.4
		C884.1,784.7,883.9,784.8,883.7,784.8z"/>
</g>
<path class="st11" d="M750.8,784h20.2c1.6,0,2.9-1.1,3.2-2.7l17-89.1c0.4-2-1.2-3.8-3.2-3.8h-20.2c-1.6,0-2.9,1.1-3.2,2.7
	l-16.9,89.1C747.3,782.2,748.8,784,750.8,784z"/>
<path class="st18" d="M750.8,784h20.2c1.6,0,2.9-1.1,3.2-2.7l17-89.1c0.4-2-1.2-3.8-3.2-3.8h-20.2c-1.6,0-2.9,1.1-3.2,2.7
	l-16.9,89.1C747.3,782.2,748.8,784,750.8,784z"/>
<path class="st11" d="M753.7,784h129.9c1.6,0,2.9-1.1,3.2-2.7l17-89.1c0.4-2-1.2-3.8-3.2-3.8H770.8c-1.6,0-2.9,1.1-3.2,2.7l-17,89.1
	C750.2,782.2,751.7,784,753.7,784z"/>
<path class="st18" d="M827.9,733.7c-0.8,1.8,0.1,3.4,1.9,3.4c0.1,0,0.2,0,0.3,0c-2.1,2.3-5.3,4-8.1,3.9c-3.8-0.1-5.6-3.2-3.9-7
	c1.6-3.8,6.2-6.8,10-6.7c2.4,0.1,4.1,1.3,4.4,3.3C830.7,730.6,828.7,731.9,827.9,733.7z"/>
<path class="st14" d="M640.8,674l8.8,34.3c2.2,8.5,10.9,13.6,19.4,11.3l-2.9,2.8c-6.5,6.4-9.6,15.4-8.5,24.4l0.7,5.4l56.8,13
	l-64.6-14.8L640.8,674z"/>
<path class="st15" d="M813.3,792.2c-3.7-2.5-8.1-3.9-12.7-3.9H612.8v28.2c0,15.7,12.8,28.5,28.5,28.5h131.6c-0.6,9-2,38.8,4.5,79.9
	c4.8,30.9,5.2,68.4,5.2,68.4l33.2,0.4l10.9-175.4C827.2,810.4,824.6,798.5,813.3,792.2z"/>
<path class="st11" d="M680.7,636.8c5.7,0,10.3-4.6,10.3-10.3c0-5.7-4.6-10.3-10.3-10.3c-5.7,0-10.3,4.6-10.3,10.3
	C670.3,632.1,675,636.8,680.7,636.8z"/>
<path class="st20" d="M661.6,596.6l-5.1,35.3c-0.4,2.8-2.7,5.1-5.5,5.5l-4.2,0.7l8.6,6.7c8.6,6.8,19.8,9.1,30.2,6.4
	c1.9-0.5,3.8-1.1,5.6-2l5-2c0,0-0.5-4.8-1.8-9.3c-0.5-1.8-0.7-3.1-0.7-5.2c0-9.8,0.1-38.8,0.1-38.8L661.6,596.6z"/>
<path class="st20" d="M683.3,628.3l-1.7-0.1c-12.2-0.9-21.2-11.4-20.3-23.5l2.3-30.8c0.3-4.1,3.8-7,7.9-6.8l28.8,2
	c5.2,0.4,9.2,5,8.8,10.2l-2.1,28.6C705.9,620.1,695.4,629.2,683.3,628.3z"/>
<path class="st11" d="M686.6,601.7c1.3,0,2.4-1.1,2.4-2.4c0-1.3-1.1-2.4-2.4-2.4s-2.4,1.1-2.4,2.4S685.3,601.7,686.6,601.7z"/>
<path class="st2" d="M687.7,599.5c0.3,0,0.5-0.2,0.5-0.5s-0.2-0.5-0.5-0.5c-0.3,0-0.5,0.2-0.5,0.5S687.4,599.5,687.7,599.5z"/>
<path class="st11" d="M705,603.8c1.3,0,2.4-1.1,2.4-2.4c0-1.3-1.1-2.4-2.4-2.4c-1.3,0-2.4,1.1-2.4,2.4
	C702.6,602.8,703.7,603.8,705,603.8z"/>
<path class="st2" d="M706.1,601.5c0.3,0,0.5-0.2,0.5-0.5s-0.2-0.5-0.5-0.5s-0.5,0.2-0.5,0.5S705.8,601.5,706.1,601.5z"/>
<g class="st21">
	<path class="st14" d="M693.1,609.5l-3.2-0.1c-0.4,0-0.7-0.4-0.7-0.7c0-0.4,0.4-0.7,0.7-0.7l3.2,0.1c0.8,0,1.5-0.6,1.5-1.4
		s-0.6-1.5-1.4-1.6c-0.4,0-0.7-0.4-0.7-0.7c0-0.4,0.4-0.7,0.7-0.7c1.6,0.1,2.8,1.4,2.8,2.9C696,608.3,694.7,609.6,693.1,609.5z"/>
</g>
<path class="st14" d="M693.5,626.6c-3.6,1.6-7.5,2-11.6,1.8c-0.9-0.1-1.8-0.2-2.7-0.3c-0.3,0-0.7-0.1-1-0.2c-0.1,0-0.1,0-0.2,0
	c-0.5-0.2-1-0.2-1.5-0.4c-0.2,0-0.4-0.2-0.6-0.2c-3.4-1-5.8-2.5-7.4-3.6c-0.3-0.2-0.7-0.2-0.9,0.1c-0.2,0.3-0.2,0.7,0.1,0.9
	c2,1.5,5.2,3.4,9.6,4.4c2.2,2,5.9,4.7,11.1,5.3c1.7,0.2,3.4,0.2,5,0V626.6L693.5,626.6z"/>
<path class="st2" d="M704.6,589.8c-3-0.1-5.7,1.2-7.6,3.3c-2.5-1.2-4.9-0.9-5.9-0.6c-1.4-3.2-4.6-5.4-8.3-5.6c-5.3-0.2-9.7,4-10,9.2
	c-0.2,5.3,4,9.7,9.2,9.9c5.3,0.2,9.7-3.9,10-9.2c0-1.1-0.2-2.1-0.4-3.1c0.9-0.2,2.8-0.4,4.7,0.5c-1,1.4-1.5,3.1-1.6,4.9
	c-0.2,5.3,4,9.7,9.2,10c5.3,0.2,9.7-4,9.9-9.2C714.2,594.6,710,590.1,704.6,589.8z M682.3,604.9c-4.6-0.1-8.1-4-8-8.6
	c0.1-4.6,4-8.1,8.6-8s8.1,4,8,8.6C690.7,601.4,686.8,605.1,682.3,604.9z M704,607.8c-4.6-0.1-8.1-4-8-8.6s4-8.1,8.6-8
	c4.6,0.1,8.1,4,8,8.6C712.5,604.4,708.6,607.9,704,607.8z"/>
<path class="st20" d="M686.9,680.7c0,0,0.1-0.1,0.2-0.3c-0.1,0.1-0.2,0.1-0.3,0.2C686.8,680.5,686.9,680.6,686.9,680.7z"/>
<path class="st20" d="M698.5,662.7c4-5.9-1-16.6-4.3-24.9l-47.5,0.3c2.2,5.4,5.8,12.1,10,17.2c4.1,5,9.9,8.7,15.4,12.1l23.3-0.1
	C696.5,665.7,697.6,664.2,698.5,662.7z"/>
<path class="st11" d="M672.1,667.4c6.9,4.3,16,7.8,17.4,12.9c0.1-0.1,0,0,0.1-0.1c0.9-1.5,2.1-7.4,5.8-12.9L672.1,667.4z"/>
<path class="st11" d="M662.3,573.2c-0.2-6.6,2.1-2.1,5.4-6c3.2-3.9,20.9-3.4,20.9-3.4c3.3,1.5,4.9,4.8,3.1,10.6
	c-6.8,23.4-29.4,17.2-29.4,17.2L662.3,573.2z"/>
<path class="st20" d="M663,606.1c0,0-10.5,0.5-12.4-9.9c-1.9-10.5,11.1-12,12.5-1.4l1,11.5L663,606.1z"/>
<path class="st14" d="M654.1,590.8c1.2-0.8,2.2-0.9,3.2-0.7c1,0.2,1.8,0.9,2.5,2.1c0.7,1.2,1.1,2.6,1,4.1l0,1.1c0,0.8-1.4,1-1.4,0
	c-0.1-1.2-0.1-1.2-0.1-1.2c0-0.4-0.1-2.3-0.8-3.4c-0.5-0.8-1-1.3-1.6-1.5c-0.6-0.2-1.3,0-2.2,0.5c-0.3,0.2-0.7,0.1-1-0.2
	C653.6,591.4,653.7,591,654.1,590.8z"/>
<path class="st8" d="M660.3,604.3c1.1,0,2.1-0.9,2.1-2.1c0-1.2-0.9-2.1-2.1-2.1c-1.2,0-2.1,0.9-2.1,2.1
	C658.2,603.4,659.2,604.3,660.3,604.3z"/>
<path class="st14" d="M661,604.2c-1.3,0-2.3-1.1-2.2-2.3c0-0.4,0.2-0.9,0.4-1.2c-0.5,0.3-0.9,1-1,1.7c0,1.2,0.8,2.1,2,2.1
	c0.4,0,0.9-0.1,1.2-0.4C661.3,604.1,661.1,604.1,661,604.2z"/>
<path class="st11" d="M712.4,585.3c3.5-22.7-16.9-19.7-16.9-19.7c-2.1,0.3-3.3,1.8-3.6,5.4c-0.9,10.4,8.4,14.6,13.4,14.6
	C707.1,585.6,712.4,585.3,712.4,585.3z"/>
<path class="st10" d="M733.1,764.8l12-4.8c1.4-0.6,5.1-0.6,6.3,0.3l-0.3,2.3l-4.6,4.4L733.1,764.8z"/>
<path class="st10" d="M661.7,753.2l62.8,13c0.3,0,0.8,0,1.1-0.1l19.3-3.5c2.1-0.3,4.1-0.3,6.1,0l14.7,8.9c1.7,0.9,1.5,2.4,1.5,2.4
	c-0.1,1.1-1,1.8-2,1.6l-13.2-6.5l13.4,6.7c1.1,0.4,1.7,1.5,1.3,2.7c-0.4,1.1-1.4,1.7-2.5,1.4l-13.3-3.7l12.5,3.5
	c1,0.3,1.8,1.3,1.6,2.4c-0.1,1.1-1.1,2-2.3,1.8l-12.5-1.3l9.8,1.1c0.9,0.1,1.6,1,1.5,1.9c-0.1,0.9-0.8,1.7-1.9,1.6l-37.9-1.3
	l-60.9-7.1L661.7,753.2z"/>
<path class="st14" d="M761.6,785.5c-0.1,0.9-0.8,1.7-1.8,1.6l-37.9-1.3l-61.1-6.9l-17.2-2c0,0-1.5-0.1-2-0.2
	c-5.8-1-12.7-2.3-16.4-15.4l-9.2-51.6l9.8,0l6,38.8c1.9,12.4,5.2,22,17.5,23.7l75,10.4L761.6,785.5z"/>
<path class="st14" d="M736.3,763.5l9.1-3.6c1.9-0.8,6,0.4,6,0.4l0.7-3.4l-5.4-0.3c-1-0.1-2,0.3-2.8,0.9L736.3,763.5z"/>
<path class="st2" d="M692.5,612.6c0.1-1-3.9-2-5.7-2.1s-4.4-2.1-4.5-1.1c-0.1,1,0.6,3.4,4.2,4.7
	C688.2,614.8,692.4,613.6,692.5,612.6z"/>
<path class="st9" d="M1054.6,628.4h-11.9c-0.9,0-1.7-0.5-2.2-1.2c-3.7-5.9-6.9-21.5-7.1-37.1c0-1,0.8-1.9,1.9-1.9h27
	c1,0,1.9,0.8,1.9,1.9c-0.3,14.7-3.6,30.5-7.2,36.9C1056.4,627.9,1055.5,628.4,1054.6,628.4z"/>
<g class="st21">
	<path class="st14" d="M1045,627.1c-1.7-5.9-3.1-21.5-3.2-37.1c0-1,0.4-1.9,0.8-1.9h-4.5c-0.8,0-1.5,0.8-1.5,1.9
		c0.2,15.6,2.7,31.2,5.6,37.1c0.4,0.8,1,1.2,1.7,1.2h2C1045.6,628.4,1045.2,627.9,1045,627.1z"/>
</g>
<path class="st9" d="M1059.3,618.6c-0.1,0-0.2,0-0.2,0c-0.8-0.1-1.3-0.9-1.2-1.6c0.3-2.3,2.9-5.4,7-10.4c1.9-2.3,3.8-4.6,5.4-6.8
	c1.6-2.3,1.3-4.7,0.6-6.1c-0.5-1-1.3-1.6-2.1-1.6c-4,0-5.1,3-5.7,6.2c-0.2,0.8-0.9,1.3-1.7,1.2c-0.8-0.2-1.3-0.9-1.2-1.7
	c0.4-2.1,1.6-8.5,8.5-8.5c1.9,0,3.6,1.2,4.7,3.2c1.1,2.2,1.5,5.8-0.9,9.1c-1.6,2.2-3.6,4.6-5.5,6.9c-2.9,3.4-6.2,7.3-6.4,9
	C1060.6,618.1,1060,618.6,1059.3,618.6z"/>
<path class="st9" d="M1023.5,549.3c-9.2,0.3-18.1,2.7-25.4,3.7c-2.9,0.4-4.7,3.4-3.6,6.2l1.3,3.3c1.8,4.7,2.1,9.9,0.8,14.8
	l-11.3,41.9c-1.3,4.6,2.2,9.1,7,9.1h31.2c4.8,0,8.2-4.5,7-9.1l-11.3-41.7c-1.4-5.1-1-10.4,0.9-15.3l4.6-11.2
	C1025,550.2,1024.4,549.2,1023.5,549.3z"/>
<path class="st14" d="M1030.4,619.2l-11.3-41.7c-1.4-5.1-1-10.4,1-15.3l4.6-11.2c0.3-0.8-0.3-1.8-1.2-1.8c-1.3,0-2.6,0.1-3.9,0.3
	c0.4,0.3,0.7,0.9,0.4,1.5l-4.4,11.2c-1.9,4.8-2.2,10.2-0.9,15.3l10.8,41.7c1.2,4.6-2.1,9.1-6.7,9.1h4.6
	C1028.2,628.4,1031.7,623.8,1030.4,619.2z"/>
<path class="st9" d="M990.4,602.3c-0.3,0-0.6-0.1-0.9-0.2c-1.1-0.5-1.5-1.7-1.1-2.8c1.2-2.6-1.9-8.1-4.9-13.3
	c-5.2-9.1-11.7-20.4-2.5-28.3c6.3-5.4,14.1-0.4,17.7,3.4c0.8,0.8,0.8,2.2-0.1,3c-0.8,0.8-2.2,0.8-3-0.1c-0.3-0.3-7-7.3-11.9-3.1
	c-6.1,5.2-2.4,12.9,3.4,23.1c3.8,6.7,7.2,12.5,5.1,17.1C992,601.8,991.2,602.3,990.4,602.3z"/>
<path class="st8" d="M616,709.7c0,0,7.9,32.8,1.7,57.3c-6.2,24.5-11,28.5-5.9,32.5s26.1-12.6,47.7-11.1l-3.5-5.4l-29.4-9.6
	L616,709.7z"/>
<path class="st14" d="M640.5,776.5l21.8,2.4l1.4,9.4c0,0-10.8-0.3-18.8,1.3c-10.3,2.1-29.6,12.1-32,10.2c-2.4-1.9-3.8-2-2.6-8.2
	c1.2-6.2,9.5-24,7.7-51.5c-1.8-27.5-2-30.5-2-30.5l9.6,52.9C626.9,770,633,775.6,640.5,776.5z"/>
<path class="st8" d="M714,478h95.9c6.5,0,11.7,5.2,11.7,11.7v28.1c0,6.5-5.2,11.7-11.7,11.7h-82.7c-0.4,0-0.8,0-1.3,0
	c-6.8,0.4-13,3.9-17.3,9.2l-3.6,4.5h-8l5.2-25.4v-28.1C702.3,483.2,707.6,478,714,478z"/>
<path class="st22" d="M714,478h95.9c6.5,0,11.7,5.2,11.7,11.7v28.1c0,6.5-5.2,11.7-11.7,11.7h-82.7c-0.4,0-0.8,0-1.3,0
	c-6.8,0.4-13,3.9-17.3,9.2l-3.6,4.5h-8l5.2-25.4v-28.1C702.3,483.2,707.6,478,714,478z"/>
<path class="st8" d="M709.4,478h95.9c6.5,0,11.7,5.2,11.7,11.7v28.1c0,6.5-5.2,11.7-11.7,11.7h-82.7c-5.8,0-11.5,2.1-15.9,5.9
	l-9,7.8v-25.4v-28.1C697.7,483.2,702.9,478,709.4,478z"/>
<path class="st23" d="M709.4,478h95.9c6.5,0,11.7,5.2,11.7,11.7v28.1c0,6.5-5.2,11.7-11.7,11.7h-82.7c-5.8,0-11.5,2.1-15.9,5.9
	l-9,7.8v-25.4v-28.1C697.7,483.2,702.9,478,709.4,478z"/>
<path class="st2" d="M730.4,509.9c3.6,0,6.5-2.9,6.5-6.5c0-3.6-2.9-6.5-6.5-6.5c-3.6,0-6.5,2.9-6.5,6.5
	C723.9,507,726.8,509.9,730.4,509.9z"/>
<path class="st2" d="M757.3,509.9c3.6,0,6.5-2.9,6.5-6.5c0-3.6-2.9-6.5-6.5-6.5c-3.6,0-6.5,2.9-6.5,6.5
	C750.8,507,753.8,509.9,757.3,509.9z"/>
<path class="st2" d="M784.2,509.9c3.6,0,6.5-2.9,6.5-6.5c0-3.6-2.9-6.5-6.5-6.5c-3.6,0-6.5,2.9-6.5,6.5
	C777.7,507,780.7,509.9,784.2,509.9z"/>
<path class="st8" d="M822.8,567.5h105.8c5.3,0,9.6,4.3,9.6,9.6v67.4c0,5.3-4.3,9.6-9.6,9.6h-95c-0.3,0-0.7,0-1,0
	c-5.5,0.3-10.7,3.2-14.1,7.5l-2.9,3.7H809l4.2-20.8V577C813.3,571.8,817.6,567.5,822.8,567.5z"/>
<path class="st22" d="M822.8,567.5h105.8c5.3,0,9.6,4.3,9.6,9.6v67.4c0,5.3-4.3,9.6-9.6,9.6h-95c-0.3,0-0.7,0-1,0
	c-5.5,0.3-10.7,3.2-14.1,7.5l-2.9,3.7H809l4.2-20.8V577C813.3,571.8,817.6,567.5,822.8,567.5z"/>
<path class="st8" d="M817.8,567.5h105.8c5.3,0,9.6,4.3,9.6,9.6v67.4c0,5.3-4.3,9.6-9.6,9.6h-95c-4.8,0-9.4,1.7-13,4.8l-7.3,6.4
	v-20.8V577C808.2,571.8,812.5,567.5,817.8,567.5z"/>
<path class="st23" d="M817.8,567.5h105.8c5.3,0,9.6,4.3,9.6,9.6v67.4c0,5.3-4.3,9.6-9.6,9.6h-95c-4.8,0-9.4,1.7-13,4.8l-7.3,6.4
	v-20.8V577C808.2,571.8,812.5,567.5,817.8,567.5z"/>
<path class="st8" d="M903.8,617.5h-75.6c-2.4,0-4.3-1.9-4.3-4.3v-3.4c0-2.4,1.9-4.3,4.3-4.3h75.6c2.4,0,4.3,1.9,4.3,4.3v3.4
	C908.1,615.6,906.2,617.5,903.8,617.5z"/>
<path class="st8" d="M916.3,637.5h-75.6c-2.4,0-4.3-1.9-4.3-4.3v-3.4c0-2.4,1.9-4.3,4.3-4.3h75.6c2.4,0,4.3,1.9,4.3,4.3v3.4
	C920.6,635.6,918.6,637.5,916.3,637.5z"/>
<path class="st8" d="M866.5,628.6h-23.5v1.7h23.5V628.6z"/>
<path class="st8" d="M856,632.8h-13.1v1.7H856V632.8z"/>
<path class="st8" d="M916.3,597.3h-75.6c-2.4,0-4.3-1.9-4.3-4.3v-3.4c0-2.4,1.9-4.3,4.3-4.3h75.6c2.4,0,4.3,1.9,4.3,4.3v3.4
	C920.6,595.4,918.6,597.3,916.3,597.3z"/>
<path class="st8" d="M903.8,617.5h-75.6c-2.4,0-4.3-1.9-4.3-4.3v-3.4c0-2.4,1.9-4.3,4.3-4.3h75.6c2.4,0,4.3,1.9,4.3,4.3v3.4
	C908.1,615.6,906.2,617.5,903.8,617.5z"/>
<path class="st2" d="M916.3,637.5h-75.6c-2.4,0-4.3-1.9-4.3-4.3v-3.4c0-2.4,1.9-4.3,4.3-4.3h75.6c2.4,0,4.3,1.9,4.3,4.3v3.4
	C920.6,635.6,918.6,637.5,916.3,637.5z"/>
<path class="st2" d="M916.3,597.3h-75.6c-2.4,0-4.3-1.9-4.3-4.3v-3.4c0-2.4,1.9-4.3,4.3-4.3h75.6c2.4,0,4.3,1.9,4.3,4.3v3.4
	C920.6,595.4,918.6,597.3,916.3,597.3z"/>
<path class="st8" d="M843.8,588.4h21.8c0.5,0,0.9,0.4,0.9,0.9c0,0.5-0.4,0.9-0.9,0.9h-21.8c-0.5,0-0.9-0.4-0.9-0.9
	C842.9,588.7,843.3,588.4,843.8,588.4z"/>
<path class="st8" d="M843.8,592.5h11.4c0.5,0,0.9,0.4,0.9,0.9c0,0.5-0.4,0.9-0.9,0.9h-11.4c-0.5,0-0.9-0.4-0.9-0.9
	C842.9,592.9,843.3,592.5,843.8,592.5z"/>
<path class="st2" d="M831.1,608.6H853c0.5,0,0.9,0.4,0.9,0.9c0,0.5-0.4,0.9-0.9,0.9h-21.8c-0.5,0-0.9-0.4-0.9-0.9
	C830.3,609,830.7,608.6,831.1,608.6z"/>
<path class="st2" d="M831.1,612.7h11.4c0.5,0,0.9,0.4,0.9,0.9c0,0.5-0.4,0.9-0.9,0.9h-11.4c-0.5,0-0.9-0.4-0.9-0.9
	C830.3,613.1,830.7,612.7,831.1,612.7z"/>
<path class="st8" d="M844,628.6h62.2c0.5,0,0.9,0.4,0.9,0.9c0,0.5-0.4,0.9-0.9,0.9H844c-0.5,0-0.9-0.4-0.9-0.9
	C843.2,628.9,843.5,628.6,844,628.6z"/>
<path class="st8" d="M844,632.7h33.8c0.5,0,0.9,0.4,0.9,0.9c0,0.5-0.4,0.9-0.9,0.9H844c-0.5,0-0.9-0.4-0.9-0.9
	C843.2,633.1,843.5,632.7,844,632.7z"/>
<path class="st8" d="M889,361.9h94.3c3.8,0,6.8,3,6.8,6.8v128.5c0,3.8-3,6.8-6.8,6.8H889c-3.8,0-6.8-3-6.8-6.8V368.7
	C882.2,364.9,885.2,361.9,889,361.9z"/>
<path class="st22" d="M889,361.9h94.3c3.8,0,6.8,3,6.8,6.8v128.5c0,3.8-3,6.8-6.8,6.8H889c-3.8,0-6.8-3-6.8-6.8V368.7
	C882.2,364.9,885.2,361.9,889,361.9z"/>
<path class="st8" d="M883.1,361.9h94.3c3.8,0,6.8,3,6.8,6.8v128.5c0,3.8-3,6.8-6.8,6.8h-94.3c-3.8,0-6.8-3-6.8-6.8V368.7
	C876.4,364.9,879.4,361.9,883.1,361.9z"/>
<path class="st23" d="M883.1,361.9h94.3c3.8,0,6.8,3,6.8,6.8v128.5c0,3.8-3,6.8-6.8,6.8h-94.3c-3.8,0-6.8-3-6.8-6.8V368.7
	C876.4,364.9,879.4,361.9,883.1,361.9z"/>
<path class="st8" d="M930.3,486.4c-8.8,0-15.9-7.1-15.9-15.9c0-8.8,7.1-15.9,15.9-15.9c8.8,0,15.9,7.1,15.9,15.9
	C946.2,479.3,939.1,486.4,930.3,486.4z"/>
<path class="st2" d="M927,477.9l-6.1-6.1c-0.3-0.3-0.3-0.8,0-1.2l1.6-1.6c0.3-0.3,0.8-0.3,1.2,0l3.9,3.9l9.4-9.4
	c0.3-0.3,0.8-0.3,1.2,0l1.6,1.6c0.3,0.3,0.3,0.8,0,1.2l-11.6,11.6C927.8,478.2,927.3,478.2,927,477.9z"/>
<path class="st2" d="M964.3,388.5h-68c-2,0-3.6-1.6-3.6-3.7c0-2,1.6-3.6,3.6-3.6h68c2,0,3.6,1.6,3.6,3.6
	C968,386.8,966.3,388.5,964.3,388.5z"/>
<path class="st8" d="M965.8,402.5h-70.9c-1.2,0-2.2-1-2.2-2.2s1-2.2,2.2-2.2h70.9c1.2,0,2.2,1,2.2,2.2S967,402.5,965.8,402.5z"/>
<path class="st8" d="M965.8,412.9h-70.9c-1.2,0-2.2-1-2.2-2.2c0-1.2,1-2.2,2.2-2.2h70.9c1.2,0,2.2,1,2.2,2.2S967,412.9,965.8,412.9z
	"/>
<path class="st8" d="M965.8,423.3h-70.9c-1.2,0-2.2-1-2.2-2.2c0-1.2,1-2.2,2.2-2.2h70.9c1.2,0,2.2,1,2.2,2.2
	C968,422.3,967,423.3,965.8,423.3z"/>
<path class="st8" d="M965.8,433.7h-70.9c-1.2,0-2.2-1-2.2-2.2c0-1.2,1-2.2,2.2-2.2h70.9c1.2,0,2.2,1,2.2,2.2
	C968,432.7,967,433.7,965.8,433.7z"/>
<path class="st24" d="M965.8,402.5h-70.9c-1.2,0-2.2-1-2.2-2.2s1-2.2,2.2-2.2h70.9c1.2,0,2.2,1,2.2,2.2S967,402.5,965.8,402.5z"/>
<path class="st24" d="M965.8,412.9h-70.9c-1.2,0-2.2-1-2.2-2.2c0-1.2,1-2.2,2.2-2.2h70.9c1.2,0,2.2,1,2.2,2.2S967,412.9,965.8,412.9
	z"/>
<path class="st24" d="M965.8,423.3h-70.9c-1.2,0-2.2-1-2.2-2.2c0-1.2,1-2.2,2.2-2.2h70.9c1.2,0,2.2,1,2.2,2.2
	C968,422.3,967,423.3,965.8,423.3z"/>
<path class="st24" d="M965.8,433.7h-70.9c-1.2,0-2.2-1-2.2-2.2c0-1.2,1-2.2,2.2-2.2h70.9c1.2,0,2.2,1,2.2,2.2
	C968,432.7,967,433.7,965.8,433.7z"/>
<path class="st2" d="M1056.5,584c0.3,0,0.5-0.2,0.5-0.5c0-4.2,3.4-7.7,7.7-7.7h3.8c3.3,0,6-2.6,6-6s-2.7-6-6-6h-21.2
	c-2.7,0-4.8-2.2-4.8-4.8c0-2.7,2.2-4.9,4.8-4.9h5.1c3.4,0,6.1-2.8,6.1-6.1c0-0.3-0.2-0.5-0.6-0.5c-0.3,0-0.5,0.2-0.5,0.5
	c0,2.8-2.2,5-5,5h-5.1c-3.3,0-6,2.7-6,6s2.6,6,6,6h21.2c2.7,0,4.9,2.2,4.9,4.9c0,2.6-2.2,4.8-4.9,4.8h-3.8c-4.8,0-8.8,4-8.8,8.8
	C1056,583.8,1056.2,584,1056.5,584z"/>
<path class="st2" d="M1044.3,587.5c0.3,0,0.5-0.2,0.5-0.5v-1.3c0-1,0.8-1.8,1.8-1.8c1.7,0,2.9-1.3,2.9-2.9v-2.3
	c0-1.7-1.3-2.9-2.9-2.9h-3.5c-4.7,0-8.7-3.9-8.7-8.7v-4.3c0-0.3-0.2-0.5-0.6-0.5c-0.3,0-0.5,0.2-0.5,0.5v4.2c0,5.4,4.4,9.8,9.8,9.8
	h3.5c1,0,1.8,0.8,1.8,1.8v2.3c0,1-0.8,1.8-1.8,1.8c-1.7,0-2.9,1.3-2.9,2.9v1.3C1043.7,587.1,1044,587.5,1044.3,587.5z"/>
<path class="st2" d="M711.6,708.6l-2.2,2.9l2-0.2l-2.7,3.3l5.8-0.9l-2.1-2.3l1.7-0.1L711.6,708.6z"/>
<path class="st11" d="M711.2,714.1l0.1,2l0.9-0.2l0.1-2L711.2,714.1z"/>
<path class="st2" d="M619.2,784.6l-2.2,2.9l2-0.2l-2.7,3.3l5.8-0.9l-2.1-2.3l1.7-0.1L619.2,784.6z"/>
<path class="st11" d="M618.8,790.1l0.1,2l0.9-0.2l0.1-2L618.8,790.1z"/>
<path class="st2" d="M717,730.4l-2.2,2.9l2-0.2l-2.7,3.3l5.8-0.9l-2.1-2.3l1.7-0.1L717,730.4z"/>
<path class="st11" d="M716.6,735.9l0.1,2l0.9-0.2l0.1-2L716.6,735.9z"/>
<path class="st2" d="M719.9,657.3l-2.2,2.9l2-0.2l-2.7,3.3l5.8-0.9l-2.1-2.3l1.7-0.1L719.9,657.3z"/>
<path class="st11" d="M719.5,662.8l0.1,2l0.9-0.2l0.1-2L719.5,662.8z"/>
<path class="st2" d="M737.6,649.4l-1.8,2.4l2-0.2l-2.7,3.3l4.8-0.8c0,0-0.6-1.5-1-2.4C738.3,650.7,738.4,650.7,737.6,649.4z"/>
<path class="st11" d="M737.6,654.4l0.1,2l0.9-0.2l0.1-2L737.6,654.4z"/>
<path class="st2" d="M627.4,645.1l-2.2,2.9l2-0.2l-2.7,3.3l5.8-0.9l-2.1-2.3l1.7-0.1L627.4,645.1z"/>
<path class="st11" d="M627,650.6l0.1,2l0.9-0.2l0.1-2L627,650.6z"/>
<path class="st2" d="M657.9,685l-2.2,2.9l2-0.2l-2.7,3.3l5.8-0.9l-2.1-2.3l1.7-0.1L657.9,685z"/>
<path class="st11" d="M657.5,690.5l0.1,2l0.9-0.2l0.1-2L657.5,690.5z"/>
<path class="st2" d="M696.5,739.3l-2.2,2.9l2-0.2l-2.7,3.3l5.8-0.9l-2.1-2.3l1.7-0.1L696.5,739.3z"/>
<path class="st11" d="M696.1,744.8l0.1,2l0.9-0.2l0.1-2L696.1,744.8z"/>
<path class="st2" d="M673.7,719.7l-2.2,2.9l2-0.2l-2.7,3.3l5.8-0.9l-2.1-2.3l1.7-0.1L673.7,719.7z"/>
<path class="st11" d="M673.3,725.2l0.1,2l0.9-0.2l0.1-2L673.3,725.2z"/>
<path class="st2" d="M635.1,775.1l-2,2.4l5.8-0.9l-0.3-0.3C637,775.8,635.1,775.1,635.1,775.1z"/>
<path class="st11" d="M635.7,777l0.1,2l0.9-0.2l0.1-2L635.7,777z"/>
<path class="st2" d="M721,683.4l-2.2,2.9l2-0.2l-2.7,3.3l5.8-0.9l-2.1-2.3l1.7-0.1L721,683.4z"/>
<path class="st11" d="M720.6,688.9l0.1,2l0.9-0.2l0.1-2L720.6,688.9z"/>
<path class="st2" d="M621.6,694.1l-2.2,2.9l2-0.2l-2.7,3.3l5.8-0.9l-2.1-2.3l1.7-0.1L621.6,694.1z"/>
<path class="st11" d="M621.2,699.6l0.1,2l0.9-0.2l0.1-2L621.2,699.6z"/>
<path class="st2" d="M688.8,695.8l-2.2,2.9l2-0.2l-2.7,3.3l5.8-0.9l-2.1-2.3l1.7-0.1L688.8,695.8z"/>
<path class="st11" d="M688.4,701.3l0.1,2l0.9-0.2l0.1-2L688.4,701.3z"/>
<path class="st2" d="M633.2,670.3l-2.2,2.9l2-0.2l-2.7,3.3l5.8-0.9l-2.1-2.3l1.7-0.1L633.2,670.3z"/>
<path class="st11" d="M632.8,675.8l0.1,2l0.9-0.2l0.1-2L632.8,675.8z"/>
<path class="st14" d="M763.5,779.6c0.3-0.1,0.5-0.3,0.6-0.5c0-0.3-0.1-0.8-0.6-0.8l-11.1-3.3c-0.3,0-0.8,0.1-0.8,0.6
	c-0.1,0.3,0.1,0.8,0.6,0.8l11.1,3.3C763.4,779.7,763.4,779.7,763.5,779.6z"/>
<path class="st14" d="M764.8,775.3c0.3,0,0.5-0.2,0.7-0.4c0.1-0.3,0-0.8-0.4-0.9l-10.4-5.1c-0.3-0.1-0.8,0-0.9,0.4
	c-0.1,0.3,0,0.8,0.4,0.9l10.4,5.1C764.7,775.3,764.7,775.3,764.8,775.3z"/>
<path class="st14" d="M760.1,783.5c0.3-0.1,0.5-0.3,0.5-0.7c0-0.3-0.2-0.7-0.6-0.8l-9.8-1.1c-0.3,0-0.7,0.2-0.8,0.6
	c0,0.3,0.2,0.7,0.6,0.8l9.8,1.1C760,783.6,760,783.6,760.1,783.5z"/>
<path class="st14" d="M645.5,637.9l-4.6,0.1c-19.7,0.3-34.4,18.1-31,37.5l6.1,34.2l9.8,0l-7.3-40.5c-2.5-14.1,6.8-27.6,20.9-30.2
	L645.5,637.9z"/>
<path class="st14" d="M724.1,722.6c6.4-11.9,14.9-15.5,13.6-29.8c-1.4-13-10.6-18.7-12.7-39.3c0.9,9.3,5.4,16.2,9.9,23.5
	c7.6,12.5,6.5,26,0,39.1c-1.8,3.7-6.2,16.3-6.5,20.7L724.1,722.6z"/>
<path class="st14" d="M793.5,908.6c-6.4-41.1-5.1-70.9-4.5-79.9H657.5c-0.2,0-0.3,0-0.5,0c-20.8-0.3-25.3-29.4-5.6-36.2l12.3-4.2
	c0,0-9.7-0.3-13.5,0.3c-5.4,0.9-20.4,5.3-29.2,9.5c-5.9,2.8-8.1,1.7-8.1,1.7l0,16.6c0,15.7,12.8,28.5,28.5,28.5h131.6
	c-0.6,9-2,38.8,4.5,79.9c4.8,30.9,5.2,68.4,5.2,68.4l17.4,0.2C800,993.5,798.3,939.5,793.5,908.6z"/>
</svg>
