<?xml version="1.0" encoding="utf-8"?>
<!-- Generator: Adobe Illustrator 24.0.1, SVG Export Plug-In . SVG Version: 6.00 Build 0)  -->
<svg version="1.1" id="Layer_1" xmlns="http://www.w3.org/2000/svg" xmlns:xlink="http://www.w3.org/1999/xlink" x="0px" y="0px"
	 viewBox="0 0 1600 1200" style="enable-background:new 0 0 1600 1200;" xml:space="preserve">
<style type="text/css">
	.st0{fill:#F2F2F2;}
	.st1{fill:#FFFFFF;}
	.st2{fill:#E8E8E8;}
	.st3{fill:#F99A9A;}
	.st4{opacity:0.15;enable-background:new    ;}
	.st5{fill:#21252B;}
	.st6{opacity:0.45;}
	.st7{opacity:0.3;enable-background:new    ;}
	.st8{fill:#3F4249;}
	.st9{fill:#242830;}
	.st10{opacity:0.5;enable-background:new    ;}
	.st11{fill:#ABBDD5;}
	.st12{opacity:0.2;enable-background:new    ;}
	.st13{opacity:0.8;enable-background:new    ;}
	.st14{fill:none;stroke:#FFFFFF;stroke-width:23;stroke-linecap:round;stroke-linejoin:round;stroke-miterlimit:10;}
	.st15{fill:#B0B4B9;}
	.st16{fill:#84888F;}
	.st17{opacity:0.9;fill:#FFFFFF;enable-background:new    ;}
	.st18{opacity:0.7;fill-rule:evenodd;clip-rule:evenodd;fill:#FFFFFF;enable-background:new    ;}
	.st19{fill:#D8DBDD;}
	.st20{opacity:0.5;fill:#FFFFFF;enable-background:new    ;}
	.st21{opacity:0.7;fill:#FFFFFF;enable-background:new    ;}
	.st22{fill:#FFD16E;}
	.st23{fill:#F69797;}
	.st24{fill:#FA9B9B;}
	.st25{opacity:0.15;}
	.st26{opacity:0.6;enable-background:new    ;}
	.st27{opacity:0.6;}
	.st28{fill:#FB9C9C;}
	.st29{opacity:0.2;fill:#FFFFFF;enable-background:new    ;}
	.st30{opacity:0.3;}
	.st31{fill:#ABAFB4;}
	.st32{fill:#3178C6;}
	.st33{opacity:0.8;fill:#2F72BC;}
	.st34{fill-rule:evenodd;clip-rule:evenodd;fill:#FFFFFF;}
</style>
<path class="st0" d="M1396.4,1011.7H210.1l-74-456.8c-2.7-16.5,1.6-33.4,11.9-46.7l211.5-273.9c11.1-14.3,28-23,46.1-23.5
	l781.2-23.2c24.4-0.7,46.9,13.3,57,35.6l215.6,476c5.6,12.3,6.9,26.2,3.7,39.3L1396.4,1011.7z"/>
<path class="st1" d="M1352,692.4H854.7v263.7H1352V692.4z"/>
<path class="st0" d="M1339.9,944V704.5H866.7V944H1339.9z"/>
<path class="st0" d="M1339.3,944V704.5H866.7V944H1339.3z"/>
<path class="st2" d="M1382,956.1V692.4h-30v263.7H1382L1382,956.1z"/>
<path class="st1" d="M1339.9,830.7v-12.9H866.7v12.9H1339.9z"/>
<path class="st2" d="M974.9,713.3h-25.2v104.6h25.2V713.3z"/>
<path class="st1" d="M974.9,817.8h67.3V713.3h-67.3V817.8z"/>
<path class="st2" d="M997.3,725.2h-14.2v92.6h14.2V725.2L997.3,725.2z"/>
<path class="st1" d="M997.3,817.8h37.9v-92.6h-37.9V817.8L997.3,817.8z"/>
<path class="st2" d="M1040.5,817.8h-21l-12.1-87.3h21L1040.5,817.8z"/>
<path class="st1" d="M1040.5,817.8h56.2l-12.1-87.3h-56.2L1040.5,817.8z"/>
<path class="st2" d="M956,944h-21l-12.1-87.3h21L956,944z"/>
<path class="st1" d="M956,944h56.2l-12.1-87.3h-56.2L956,944z"/>
<path class="st1" d="M1257.8,944.1v-27.1h-129.1v27.1H1257.8z"/>
<path class="st1" d="M1219.8,895.8v-21.9h-91.1v21.9H1219.8z"/>
<path class="st1" d="M1241.4,916.9v-21.1h-112.6v21.1H1241.4z"/>
<path class="st2" d="M1235.2,733.1h-20.4v84.7h20.4V733.1z"/>
<path class="st1" d="M1235.2,817.8h54.6v-84.7h-54.6V817.8z"/>
<path class="st2" d="M1280.3,742.8h-19.6v75h19.6V742.8z"/>
<path class="st1" d="M1280.3,817.9h33.5v-75h-33.5V817.9z"/>
<path class="st2" d="M1219.8,892.1h-91.1v3.7h91.1V892.1z"/>
<path class="st2" d="M1241.3,913.3h-112.6v3.7h112.6V913.3z"/>
<path class="st2" d="M1257.8,940.4h-129.1v3.7h129.1V940.4L1257.8,940.4z"/>
<path class="st1" d="M1374.8,956.1l4.6,51.4c0.4,1.9-1.1,3.7-2.9,3.7c-1.3,0-2.4-0.8-2.8-2.1l-13.5-53H1374.8z"/>
<path class="st2" d="M1373.1,986l-5.6-1.3l-7.2-28.5h14.6l4.6,51.4c0.3,1.4-0.5,2.8-1.8,3.4L1373.1,986z"/>
<path class="st1" d="M1322.4,956.1l4.6,51.4c0.4,1.9-1.1,3.7-2.9,3.7c-1.3,0-2.4-0.8-2.9-2.1l-13.4-53H1322.4z"/>
<path class="st2" d="M1317.5,961.8l-8.4-1.6l-1.4-4.1h14.6l4.6,51.4c0.3,1.4-0.5,2.8-1.8,3.4L1317.5,961.8z"/>
<path class="st1" d="M933.3,956.1l-4.6,51.4c-0.4,1.9,1.1,3.7,2.9,3.7c1.3,0,2.4-0.8,2.8-2.1l13.5-53H933.3z"/>
<path class="st2" d="M935.9,983.5l-5-1.3l2.4-26.1h14.6l-13.5,53c-0.4,1.3-1.6,2-2.8,2c-0.1,0-0.1,0-0.2,0L935.9,983.5z"/>
<path class="st1" d="M879.4,956.1l-4.6,51.4c-0.4,1.9,1.1,3.7,2.9,3.7c1.3,0,2.4-0.8,2.8-2.1l13.5-53H879.4z"/>
<path class="st2" d="M885.1,960.6l-6.4-1.2l0.7-3.3H894l-13.5,53c-0.4,1.3-1.6,2-2.8,2c-0.1,0-0.1,0-0.2,0L885.1,960.6z"/>
<path class="st3" d="M619.7,551.3l25-75.9l-42-6.3l-22.3,76.5l2,6.3C588.3,570.4,614.5,570,619.7,551.3z"/>
<path class="st3" d="M561.4,463.7l-29.2-42.2c-0.6-1.2-0.2-2.6,0.8-3.3l0.1-0.1c1.2-0.9,2.7-0.8,3.8,0.7c3,4.1,10.5,13.2,10.5,13.2
	s-9.2-14.3-11.6-19.4c-0.5-1.1-0.2-2.4,0.7-3.2l0,0c1.3-1.1,3.2-0.7,4,0.7c3.3,5.8,11.2,17.3,11.2,17.3
	c-5.4-10.9-9.5-17.1-10.7-20.2c-0.4-1.1,0-2.3,1-3c1.3-0.9,3.1-0.5,3.9,0.9l10.3,18.9l3.6-8.3l15.4,3.4c1.5,0.4,2.3,2,1.8,3.4
	c-0.4,1.1-1.5,1.8-2.7,1.7l-8.8-0.9l-1.2,7.9c-0.1,0.6,0,1.2,0.3,1.7c0,0,4.3,4.7,7,5c1.5,0,2-1.2,2-2.7l0-1.6
	c-0.2-11.9,7.3-9.2,7.3-9.2l0.7,12.8c0,0,4.6,10-0.5,16.7l37,70c5.8,11,1.6,24.6-9.4,30.4c-6.9,3.7-15.1,3.4-21.7-0.4
	c-3.3-1.9-5.7-5.1-6.5-8.8l-14.8-63L561.4,463.7z"/>
<path class="st4" d="M557.5,426.4l-1.4-2.4l3.6-8.2L557.5,426.4z"/>
<path class="st4" d="M553,426.1l-1.3,1.3L541.3,408c-0.4-0.8-0.6-1.9-0.2-2.7l0.2-0.4L553,426.1z"/>
<path class="st4" d="M547.4,432c0,0-9.3-14.6-11.8-19.8c-0.3-0.6,0.1-1.7,0.1-1.7l13.1,20.1L547.4,432z"/>
<path class="st4" d="M576.9,424.7c0,0-1.1,0.4-2.1,2.2c-2,3.6-0.6,9-1.7,10.4c-1.2,1.3-2.9,0.2-3.5-0.1c-1.7-0.9-4-3.2-4-3.2l4,4.3
	c1.5,1.6,4.3,1.3,5.3-0.7c0,0,0,0,0,0c0.6-1.2-0.4-5.1-0.3-6.1C574.8,430.4,574.7,427,576.9,424.7z"/>
<path class="st4" d="M618,527.4l-20.1-41.8l3.4-11.3l18.7,52.4c0.2,0.5,0,1-0.4,1.2C619,528.2,618.3,528,618,527.4z"/>
<path class="st3" d="M894.2,569.5l-92.9-29.4c-3.9-1.3-7.2-4-9.4-7.5l-27.2-44.8l39.9-14.4l21.3,46.7l72.5,34.8"/>
<path class="st4" d="M883.9,571.7l2.4-5.7c-14.8-5.2-60.5-26.4-78-33.3c-4.8-1.9-8.8-5.4-11.3-9.9l-21.9-38.2l-7.5,7.7l22.4,37.9
	c2.7,4.5,7,8,12,9.7L883.9,571.7z"/>
<path class="st3" d="M725.9,364.3l-0.3,39.3c0,0.9-0.3,1.9-0.9,2.7l0.6,1.5c-9.5,14.2-30.1,16.1-43.3,5.3c-1.3-1.1-2-2.9-1.7-4.6
	l7.2-47.3L725.9,364.3z"/>
<path class="st3" d="M683.3,344.9c0,0-7.8,51.7,20.7,53.8c27.8,2.1,28.7-50.2,28.7-50.2l0.8-15l-35.8-6.3l-9.1,4.7L683.3,344.9z"/>
<path class="st4" d="M682.6,394.4l2.1-14.2c2.6,9.1,7.9,16.8,17.3,18.3h-0.1c0.7,0.1,1.3,0.2,2,0.3c7.4,0.6,13.6-2.9,18.3-10.2
	c0.2-0.3,0.6-0.4,0.9-0.2c0.3,0.2,0.4,0.6,0.2,0.9c-5,7.8-11.5,11.4-19.4,10.9c-1.7-0.1-3.3-0.5-4.9-0.9
	C693.9,399.7,688,398.5,682.6,394.4z"/>
<path class="st5" d="M690,333.3c0,0-9.1-6-13.3,4.3c-3.6,8.7,2.5,18.1,2.5,18.1l5.2-0.6c2.2-0.1,3.7-1.1,3.9-3.2L690,333.3z"/>
<path class="st5" d="M683.6,327c-0.8,9.8,7.6,12.4,11.1,12.7l28.1,2.4c2.3,0.2,4,2.2,3.9,4.5l-0.5,9c-0.1,1.2,0.8,2.3,2,2.5l1.7,0.2
	l1.9,2.4c11.1-2.7,15.6-34-4.7-40.3c-2.1-0.7-4.1-2.3-5-4.3c-3-6.1-15.1-7.7-21.2-0.9c-1.3,1.5-2.9,2.1-4.9,2.1
	C688.7,317,683.9,321.6,683.6,327z"/>
<path class="st3" d="M729.8,361.3c0.4-3.6,4.7-5.5,7.5-3.1l0.1,0.1c4.9,4.2,1.7,17.4-9,16.2L729.8,361.3z"/>
<path class="st3" d="M676.7,354.3l0.1-0.1c3.2-1.9,7.1,0.6,7,4.2l-0.6,12.6C672.4,370.6,671.4,357.7,676.7,354.3z"/>
<path class="st5" d="M728.5,362.9c-0.1,0.7,0.5,1.2,1.1,1.3c0.7,0.1,1.3-0.4,1.4-0.9l1.2-8.5l-3.5,0.1L728.5,362.9z"/>
<path class="st5" d="M681.6,359.5c-0.1,0.7,0.5,1.2,1.1,1.3c0.7,0.1,1.3-0.4,1.4-1l1.2-8.5l-3.5,0.1L681.6,359.5z"/>
<path class="st3" d="M694.4,341c0.9,0.1,1.3,0,1.4,0c0.3,0,0.6-0.3,0.6-0.7c0-0.3-0.3-0.6-0.7-0.6c-0.1,0-5.7,0.3-8.1-3.4
	c-0.2-0.3-0.6-0.4-0.9-0.2c-0.3,0.2-0.4,0.6-0.2,0.9C688.7,340.1,692.4,340.9,694.4,341z"/>
<path class="st5" d="M715.6,368.6c1.4,0,2.5-1.1,2.5-2.5s-1.1-2.5-2.5-2.5s-2.5,1.1-2.5,2.5S714.2,368.6,715.6,368.6z"/>
<path class="st1" d="M716.7,366.4c0.3,0,0.6-0.3,0.6-0.6c0-0.3-0.3-0.6-0.6-0.6s-0.6,0.3-0.6,0.6
	C716.2,366.2,716.4,366.4,716.7,366.4z"/>
<path class="st5" d="M696.5,367.2c1.4,0,2.5-1.1,2.5-2.5c0-1.4-1.1-2.5-2.5-2.5c-1.4,0-2.5,1.1-2.5,2.5
	C694,366.1,695.2,367.2,696.5,367.2z"/>
<path class="st1" d="M697.7,365.1c0.3,0,0.6-0.3,0.6-0.6s-0.3-0.6-0.6-0.6s-0.6,0.3-0.6,0.6C697.1,364.8,697.3,365.1,697.7,365.1z"
	/>
<g class="st6">
	<path class="st7" d="M704.8,377.9l-2-0.2c-0.4,0-0.7-0.4-0.7-0.8s0.4-0.7,0.8-0.7l2,0.2c0.9,0.1,1.5-0.6,1.6-1.4
		c0.1-0.9-0.6-1.5-1.4-1.6c-0.4,0-0.7-0.4-0.7-0.8c0-0.4,0.4-0.7,0.8-0.7c1.6,0.1,2.9,1.5,2.7,3.1
		C707.9,376.8,706.5,378,704.8,377.9z"/>
</g>
<path class="st5" d="M685.8,361.6l-0.2,2.8c-0.3,5.3,3.8,9.9,9.2,10.2c5.3,0.3,9.9-3.8,10.2-9.1l0.2-2.8c0.1-0.9-0.2-1.5-0.6-2.2
	l3.7,0.2c-0.5,0.6-0.9,1.3-0.9,2.1l-0.2,2.8c-0.3,5.3,3.8,9.9,9.2,10.2c5.3,0.3,9.9-3.8,10.2-9.2l0.2-2.8c0.1-2-1.3-3.7-3.3-3.8
	l-12.1-0.7h-0.1l-9.4-0.6l-1.4-0.1l-10.8-0.6C687.7,358,686,359.5,685.8,361.6z M711.1,360.8L711.1,360.8l12.2,0.7
	c1.1,0.1,2.1,1.1,2,2.3l-0.2,2.8c-0.2,4.5-4.1,8-8.7,7.7c-4.5-0.2-8-4.1-7.7-8.7l0.2-2.8C708.9,361.6,710,360.7,711.1,360.8z
	 M687.2,361.6c0.1-1.1,1.1-2.1,2.3-2l10.8,0.6l1.4,0.1c1.1,0.1,2.1,1.1,2,2.3l-0.2,2.8c-0.2,4.5-4.1,8-8.7,7.7
	c-4.5-0.2-8-4.1-7.7-8.7L687.2,361.6z"/>
<g class="st6">
	<path class="st7" d="M732.5,368.1c0.4,0,0.7-0.3,0.8-0.7l0.2-1.5c0.2-1.6,0.7-2.8,1.3-3.3c0.6-0.5,1.1-0.4,1.1-0.4
		c0.4,0.1,0.8-0.2,0.9-0.6s-0.2-0.8-0.6-0.9c-0.1,0-1.1-0.2-2.3,0.6c-1,0.8-1.7,2.3-1.9,4.3l-0.2,1.5
		C731.8,367.7,732.1,368,732.5,368.1z"/>
</g>
<g class="st6">
	<path class="st7" d="M680,364.2c-0.4,0-0.7-0.4-0.7-0.8v-1.5c0.1-1.6-0.2-2.8-0.9-3.4c-0.5-0.6-1-0.6-1.1-0.6
		c-0.4,0-0.7-0.3-0.8-0.7c0-0.4,0.3-0.7,0.7-0.8c0.1,0,1.2,0,2.1,0.9c1,1,1.3,2.5,1.2,4.6v1.5C680.8,363.9,680.5,364.2,680,364.2z"
		/>
</g>
<g class="st6">
	<path class="st7" d="M700.2,385.7C700.1,385.8,700.2,385.9,700.2,385.7c2.2,0.9,3.2,1.3,3.2,1.3c0.4,0.1,0.8,0,1-0.4
		c0.1-0.4,0-0.9-0.4-1c0,0-1-0.4-3.1-1.3c-0.4-0.1-0.9,0-1,0.4C699.7,385.2,699.8,385.6,700.2,385.7z"/>
</g>
<g class="st6">
	<path class="st7" d="M700,382.2c5.6,2.8,9.3,0.5,10.7-0.8c0.3-0.3,0.3-0.7,0-1c-0.3-0.3-0.7-0.3-1,0c-1.4,1.3-5.4,3.7-11.7-1
		c-0.3-0.2-0.7-0.1-1,0.1c-0.2,0.3-0.1,0.7,0.1,1C698.2,381.3,699.1,381.9,700,382.2z"/>
</g>
<path class="st8" d="M759.8,616l-10.6,345.9h-31.9l-17.8-295.6c-0.2-3.4-3-6.1-6.5-6.1c-3.4,0-6.3,2.7-6.5,6.2l-16.2,295.5h-31.9
	l-9.8-342.3L759.8,616z"/>
<path class="st3" d="M745.8,981.9l0.9-27.8h-27.1l1.2,28.7L745.8,981.9z"/>
<path class="st4" d="M719.9,961.9l0.9,20.9l6.5-0.2l-0.2-12.3c0-2,1.3-3.7,3.2-4.2l16.2-4.2L719.9,961.9z"/>
<path class="st3" d="M641.9,981.9l-0.8-27.8h27.2l-1.2,28.7L641.9,981.9z"/>
<path class="st9" d="M720.8,1007.1v-24.3c0-7.3,6-13.3,13.3-13.3h0.6c6,0,11.3,4.2,12.4,10.1c0.7,3.5,2.3,6.8,4.6,9.4l3.8,4.5
	c3.2,3.8,5,8.7,5,13.6H720.8L720.8,1007.1z"/>
<path class="st1" d="M743.8,982.4c0.2,0,0.4-0.1,0.5-0.3c0.1-0.3,0.1-0.6-0.2-0.7c-7.8-4.4-14.7,0-14.7,0c-0.2,0.2-0.3,0.5-0.1,0.7
	s0.5,0.3,0.7,0.1c0.1,0,6.4-4.1,13.6,0C743.6,982.4,743.7,982.4,743.8,982.4z"/>
<path class="st1" d="M745.4,985.8c0.2,0,0.4-0.1,0.5-0.3c0.1-0.3,0.1-0.6-0.2-0.7c-7.8-4.4-14.7,0-14.7,0c-0.2,0.2-0.3,0.5-0.1,0.7
	s0.5,0.3,0.7,0.1c0.1,0,6.4-4.1,13.6,0C745.2,985.8,745.3,985.8,745.4,985.8z"/>
<path class="st1" d="M747.1,989.4c0.2,0,0.4-0.1,0.5-0.3c0.1-0.3,0.1-0.6-0.2-0.7c-7.8-4.4-14.7,0-14.7,0c-0.2,0.2-0.3,0.5-0.1,0.7
	s0.5,0.3,0.7,0.1c0.1,0,6.4-4.1,13.6,0C747,989.4,747.1,989.4,747.1,989.4z"/>
<path class="st10" d="M758.9,1012.1h-36.3c-0.9,0-1.7-0.8-1.7-1.7v-3.2h39.8v3.2C760.6,1011.3,759.8,1012.1,758.9,1012.1z"/>
<path class="st11" d="M749.8,961.9l0.3-11.1h-34.3l0.7,11.1H749.8z"/>
<path class="st5" d="M715.8,950.8l0.7,11.1h33.4l0.3-11.1H715.8z"/>
<path class="st4" d="M692.9,660.2c3.4,0,6.3,2.7,6.5,6.1l17.2,284.5h10.2l-4.1-271.7c-0.2-10.5-8.7-18.9-19.2-18.9H692.9z"/>
<path class="st12" d="M716.4,961.9l-0.7-11.1h11l0.2,11.1H716.4z"/>
<path class="st4" d="M641.3,961.9l0.6,20l11.3,0.4l-0.2-13.5c0-1.2,0.8-2.5,2-2.9l12.8-4.1L641.3,961.9L641.3,961.9z"/>
<path class="st4" d="M628.5,622.1l9.7,339.8h3L641,954h11.8l-5-333.1L628.5,622.1z"/>
<path class="st9" d="M667,1007.1v-24.3c0-7.3-6-13.3-13.4-13.3H653c-6,0-11.3,4.2-12.4,10.1c-0.7,3.5-2.3,6.8-4.6,9.4l-3.8,4.5
	c-3.2,3.8-5,8.7-5,13.6H667L667,1007.1z"/>
<path class="st1" d="M643.9,982.4c0.1,0,0.2,0,0.3-0.1c7.3-4.1,13.6-0.1,13.6,0c0.2,0.2,0.6,0.1,0.7-0.1c0.2-0.2,0.1-0.6-0.1-0.7
	c-0.1,0-6.9-4.5-14.7,0c-0.3,0.1-0.3,0.5-0.2,0.7C643.6,982.3,643.8,982.4,643.9,982.4z"/>
<path class="st1" d="M642.4,985.8c0.1,0,0.2,0,0.3-0.1c7.3-4.1,13.6-0.1,13.6,0c0.2,0.2,0.6,0.1,0.7-0.1c0.2-0.2,0.1-0.6-0.1-0.7
	c-0.1,0-6.9-4.5-14.7,0c-0.3,0.1-0.3,0.5-0.2,0.7C642,985.7,642.2,985.8,642.4,985.8z"/>
<path class="st1" d="M640.5,989.4c0.1,0,0.2,0,0.3-0.1c7.3-4.1,13.6-0.1,13.6,0c0.2,0.2,0.6,0.1,0.7-0.1c0.2-0.2,0.1-0.6-0.1-0.7
	c-0.1,0-6.9-4.5-14.7,0c-0.3,0.1-0.3,0.5-0.2,0.7C640.3,989.3,640.4,989.4,640.5,989.4z"/>
<path class="st8" d="M628.9,1012.1h36.3c1,0,1.7-0.8,1.7-1.7v-3.2h-39.8v3.2C627.1,1011.3,628,1012.1,628.9,1012.1z"/>
<path class="st10" d="M758.9,1012.1h-36.3c-0.9,0-1.7-0.8-1.7-1.7v-3.2h39.8v3.2C760.6,1011.3,759.8,1012.1,758.9,1012.1z"/>
<path class="st13" d="M758.9,1012.1h-36.3c-0.9,0-1.7-0.8-1.7-1.7v-3.2h39.8v3.2C760.6,1011.3,759.8,1012.1,758.9,1012.1z"/>
<path class="st13" d="M628.9,1012.1h36.3c1,0,1.7-0.8,1.7-1.7v-3.2h-39.8v3.2C627.1,1011.3,628,1012.1,628.9,1012.1z"/>
<path class="st5" d="M671.6,950.8l-0.7,11.1h-33.4l-0.2-11.1H671.6z"/>
<path class="st12" d="M652.8,950.8v11.1h-15.3l-0.2-11.1H652.8z"/>
<path class="st1" d="M725.5,404.3l28.9,7.7c0.6,0.2,1.3,0.3,1.9,0.5c15.2,4.1,27.6,15.1,34.1,29.5l14.2,31.4l-36.9,18.8l-10.5-14.9"
	/>
<path class="st11" d="M621.1,547l2.2,68c0.1,3.8,3.1,6.8,6.8,7l127.2-2.2c3.9,0.2,7.2-2.7,7.5-6.5l-5-140.4l39.9,6.9l19.9-31.5
	l-31.9-22.3c-8.3-5.8-17.7-10.1-27.5-12.7l-34.6-8.9c0,0-6.3,15.4-22.6,14.7c-21.5-0.9-21.9-15.6-21.9-15.6l-40.1,6.8
	c-15.5,2.6-27.9,14.3-31.5,29.6l-11.4,45l40.4,11l7.2-23.3L621.1,547z"/>
<path class="st12" d="M767.4,492.4l-10.1-15l0.8-19.9l18.5,30.2L767.4,492.4z"/>
<path class="st14" d="M750.1,520.2l22.5,34.1l80.6-64.9"/>
<path class="st15" d="M1111.5,331.2c0-37.7-28.5-68.8-65.2-72.8v-0.5h-8.1c-40.5,0-73.3,32.9-73.3,73.3s32.9,73.3,73.3,73.3l8.1-0.5
	C1083,400,1111.5,368.9,1111.5,331.2z"/>
<path class="st16" d="M1032.3,404.5c40.5,0,73.3-32.8,73.3-73.3s-32.8-73.3-73.3-73.3s-73.3,32.8-73.3,73.3
	S991.8,404.5,1032.3,404.5z"/>
<path class="st1" d="M1032.3,396.4c36,0,65.2-29.2,65.2-65.2s-29.2-65.2-65.2-65.2S967,295.1,967,331.2S996.2,396.4,1032.3,396.4z"
	/>
<path class="st16" d="M1032.3,396.4c36,0,65.2-29.2,65.2-65.2s-29.2-65.2-65.2-65.2S967,295.1,967,331.2S996.2,396.4,1032.3,396.4z"
	/>
<path class="st17" d="M1032.3,396.4c36,0,65.2-29.2,65.2-65.2s-29.2-65.2-65.2-65.2S967,295.1,967,331.2S996.2,396.4,1032.3,396.4z"
	/>
<path class="st15" d="M1032.3,265.9c1.1,0,2.3,0,3.6,0.2c-34.3,1.8-61.7,30.3-61.7,65.1s27.4,63.3,61.7,65.1c-1.1,0-2.3,0.2-3.6,0.2
	c-36.1,0-65.2-29.1-65.2-65.2C967.1,295.1,996.2,265.9,1032.3,265.9z"/>
<path class="st11" d="M1034.1,336.5l-1.8-48.2c-0.1-1.8,1.4-3.5,3.2-3.5c1.8-0.1,3.5,1.4,3.5,3.2l1.5,41.5l27.6-0.8
	c1.8-0.1,3.5,1.4,3.5,3.4c0.1,1.8-1.4,3.5-3.4,3.5L1034.1,336.5z"/>
<path class="st18" d="M995.1,283.3l94.6,78.7c0,0,2.5-5.3,3.3-7c0.6-1.5,2-6,2-6l-57.1-82.8C1038,266.1,1017.1,263.3,995.1,283.3z"
	/>
<path class="st18" d="M981.8,361.9l66.7,32.4c0,0-5.9,2.3-14.9,1.7C1019,395.1,996.8,387.9,981.8,361.9z"/>
<path class="st15" d="M315.3,740.2h-68.2c-1.9,0-3.4-1.5-3.4-3.5c0-1.9,1.5-3.4,3.4-3.4h68.2V740.2z"/>
<path class="st15" d="M324.7,736.8h-68.8v211.8h68.8V736.8z"/>
<path class="st19" d="M533,736.8H322.6v211.8H533V736.8z"/>
<path class="st15" d="M333.3,766.5l189.9-0.2v166.2H333.3V766.5z M521.6,768H334.8v163h186.8V768z"/>
<path class="st19" d="M540.8,740.2H315.2c-1.9,0-3.4-1.5-3.4-3.5c0-1.9,1.5-3.4,3.4-3.4h225.7c1.9,0,3.5,1.5,3.5,3.4
	C544.2,738.7,542.7,740.2,540.8,740.2z"/>
<path class="st15" d="M523.2,848.4H333.3v1.5h189.9V848.4z"/>
<path class="st15" d="M436.4,793c2.9,0,5.3-2.4,5.3-5.3c0-2.9-2.4-5.3-5.3-5.3c-2.9,0-5.3,2.4-5.3,5.3
	C431.1,790.7,433.5,793,436.4,793z"/>
<path class="st4" d="M434.5,787.8c0-2.3,1.5-4.3,3.6-5c-0.5-0.2-1.1-0.3-1.7-0.3c-3,0-5.3,2.3-5.3,5.3s2.3,5.3,5.3,5.3
	c0.6,0,1.1-0.1,1.7-0.3C436,792,434.5,790.1,434.5,787.8z"/>
<path class="st15" d="M436.4,874.8c2.9,0,5.3-2.4,5.3-5.3c0-2.9-2.4-5.3-5.3-5.3c-2.9,0-5.3,2.4-5.3,5.3
	C431.1,872.5,433.5,874.8,436.4,874.8z"/>
<path class="st4" d="M434.5,869.5c0-2.3,1.5-4.3,3.6-5c-0.5-0.2-1.1-0.3-1.7-0.3c-3,0-5.3,2.3-5.3,5.3c0,2.9,2.3,5.3,5.3,5.3
	c0.6,0,1.1-0.1,1.7-0.3C436,873.8,434.5,871.9,434.5,869.5z"/>
<path class="st15" d="M311.7,747.3l10.9-7.1H533v3.3L311.7,747.3z"/>
<path class="st19" d="M269.5,948.7l-5.3,58.6c-0.4,2.1,1.2,4.2,3.4,4.2c1.4,0,2.7-0.9,3.3-2.3l15.3-60.5H269.5L269.5,948.7z"/>
<path class="st15" d="M271.4,982.8l6.4-1.5l8.2-32.5h-16.7l-5.3,58.6c-0.3,1.6,0.6,3.3,2,3.9L271.4,982.8z"/>
<path class="st19" d="M329.3,948.7l-5.3,58.6c-0.4,2.1,1.2,4.2,3.4,4.2c1.4,0,2.7-0.9,3.3-2.3l15.3-60.5H329.3L329.3,948.7z"/>
<path class="st15" d="M334.9,955.2l9.5-1.8l1.6-4.7h-16.7l-5.3,58.6c-0.3,1.6,0.6,3.3,2,3.9L334.9,955.2z"/>
<path class="st19" d="M461.2,948.7l5.3,58.6c0.4,2.1-1.2,4.2-3.4,4.2c-1.4,0-2.7-0.9-3.3-2.3l-15.3-60.5H461.2L461.2,948.7z"/>
<path class="st15" d="M458.2,979.9l5.7-1.4l-2.7-29.8h-16.7l15.3,60.5c0.5,1.4,1.8,2.3,3.3,2.3c0.1,0,0.1,0,0.2,0L458.2,979.9z"/>
<path class="st19" d="M522.7,948.7l5.3,58.6c0.4,2.1-1.2,4.2-3.3,4.2c-1.4,0-2.7-0.9-3.3-2.3L506,948.7H522.7L522.7,948.7z"/>
<path class="st15" d="M516.1,953.8l7.3-1.3l-0.8-3.8H506l15.3,60.5c0.5,1.4,1.8,2.3,3.3,2.3c0.1,0,0.1,0,0.2,0L516.1,953.8z"/>
<path class="st19" d="M387.5,709.7h-34.1v23.6h34.1V709.7L387.5,709.7z"/>
<path class="st15" d="M387.5,709.7h-34.1h-56.8v6.3v17.3h56.8V716h34.1V709.7L387.5,709.7z"/>
<path class="st15" d="M430.4,733.3h-21.3c-3.3,0-5.9-2.6-5.9-5.9s2.6-5.9,5.9-5.9h21.3L430.4,733.3L430.4,733.3z"/>
<path class="st19" d="M494.6,733.3h-64.2v-11.8h64.2c3.3,0,5.9,2.6,5.9,5.9C500.5,730.7,497.9,733.3,494.6,733.3z"/>
<path class="st15" d="M452.5,724.4h-28.9v-2.9h28.9c0.8,0,1.4,0.6,1.4,1.4C454,723.8,453.3,724.4,452.5,724.4z"/>
<path class="st15" d="M335.6,278.1H491c1.9,0,3.5,1.6,3.5,3.5v357.6c0,1.9-1.6,3.5-3.5,3.5H335.6c-1.9,0-3.5-1.6-3.5-3.5V281.6
	C332.1,279.6,333.6,278.1,335.6,278.1z"/>
<path class="st19" d="M342.6,278.1h155.5c1.9,0,3.5,1.6,3.5,3.5v357.6c0,1.9-1.6,3.5-3.5,3.5H342.6c-1.9,0-3.5-1.6-3.5-3.5V281.6
	C339.1,279.6,340.7,278.1,342.6,278.1z"/>
<path class="st15" d="M373.4,343.8h-6.6v169.8h6.6V343.8z"/>
<path class="st15" d="M487.5,369v-6.6H350.5v6.6H487.5z"/>
<path class="st15" d="M411.2,380.2h-29.1v29.1h29.1V380.2z"/>
<path class="st15" d="M455,417.4h-29.1v29.1H455V417.4z"/>
<path class="st15" d="M490.4,384h-29.1v29.1h29.1V384z"/>
<path class="st15" d="M480.3,461.4h-29.1v29.1h29.1V461.4z"/>
<path class="st11" d="M890.4,444.1c0-2.8,0.6-5.5,1.5-8c-23.2-14.8-53-20.6-80.5-20.6s-57.3,5.8-80.5,20.6c1,2.5,1.5,5.2,1.5,8
	c0,12.1-9.8,21.9-21.8,21.9c0.5,35.4,4,77.7,21,110c18.4,35,55.1,59.2,79.8,70.4c24.7-11.2,61.4-35.4,79.8-70.4
	c17-32.4,20.5-74.6,21-110C900.2,466,890.4,456.2,890.4,444.1z"/>
<path class="st20" d="M890.4,444.1c0-2.8,0.6-5.5,1.5-8c-23.2-14.8-53-20.6-80.5-20.6s-57.3,5.8-80.5,20.6c1,2.5,1.5,5.2,1.5,8
	c0,12.1-9.8,21.9-21.8,21.9c0.5,35.4,4,77.7,21,110c18.4,35,55.1,59.2,79.8,70.4c24.7-11.2,61.4-35.4,79.8-70.4
	c17-32.4,20.5-74.6,21-110C900.2,466,890.4,456.2,890.4,444.1z"/>
<path class="st11" d="M811.4,628.2c-23.4-12-51.1-32.9-65.2-59.8c-14-26.6-17.7-61.9-18.8-89.8c12.5-6.2,21.2-19,21.5-33.8
	c17.2-8.4,38.9-12.9,62.5-12.9s45.3,4.5,62.5,12.9c0.3,14.8,9,27.6,21.5,33.8c-1.1,28-4.8,63.2-18.8,89.8
	C862.5,595.2,834.9,616.2,811.4,628.2z"/>
<path class="st11" d="M811.4,628.2c-23.4-12-51.1-32.9-65.2-59.8c-14-26.6-17.7-61.9-18.8-89.8c12.5-6.2,21.2-19,21.5-33.8
	c17.2-8.4,38.9-12.9,62.5-12.9s45.3,4.5,62.5,12.9c0.3,14.8,9,27.6,21.5,33.8c-1.1,28-4.8,63.2-18.8,89.8
	C862.5,595.2,834.9,616.2,811.4,628.2z"/>
<path class="st21" d="M811.4,621.9c-21.9-11.2-47.8-30.8-61-55.9c-13.1-24.9-16.6-57.9-17.6-84.1c11.7-5.8,19.9-17.8,20.1-31.6
	c16.1-7.9,36.4-12.1,58.5-12.1s42.4,4.3,58.5,12.1c0.3,13.8,8.4,25.8,20.1,31.6c-1,26.2-4.5,59.2-17.6,84.1
	C859.3,591.1,833.4,610.7,811.4,621.9z"/>
<path class="st22" d="M895.4,478.6C895.4,478.6,895.4,478.6,895.4,478.6c-0.3-0.2-0.6-0.4-1-0.5
	C894.8,478.2,895.1,478.4,895.4,478.6z"/>
<path class="st3" d="M906.5,483.5c-0.9-1.7,0-3.7,1.8-4.2l11.3-3.1c1.1-0.3,2.3,0.3,2.7,1.4l1.2,3.5c0.5,1.4-0.5,2.8-1.9,2.9
	l-12.3,1.1C908.2,485.2,907.1,484.6,906.5,483.5z"/>
<path class="st3" d="M902.8,496.4c0-2,1.6-3.6,3.6-3.6l1.4,0c0.1,0.1,0.2,0.3,0.4,0.3l7.2,1.2c1.4,0.3,3.2,0.6,4.6,0.4l3.2-0.4
	c0,0,0,0,0,0c0.1,0,0.1-0.1,0.2-0.1c0.1,0.2,0.2,0.4,0.3,0.6l0.9,3.4c0.4,1.4-0.6,2.8-2,2.9l-3.3,0.3c-1.2,0.1-2.4,0.1-3.6-0.1
	l-9.8-1.6C904.1,499.5,902.8,498.1,902.8,496.4z"/>
<path class="st3" d="M923.2,494.3l-3.2,0.4c-1.4,0.1-3.2-0.2-4.6-0.4l-8.3-1.5l6.6,0.1l1.9,0.3c1.3,0.3,3.1,0.5,4.3,0.4l2.6-0.3
	c0.4,0.2,0.7,0.5,1,0.9C923.4,494.2,923.3,494.3,923.2,494.3C923.3,494.3,923.2,494.3,923.2,494.3z"/>
<path class="st3" d="M915.6,493.2l-1.9-0.3l7.8,0.2c0.3,0,0.7,0.1,1,0.3l-2.6,0.3C918.7,493.8,917,493.5,915.6,493.2z"/>
<path class="st3" d="M917.2,502.7l-11.7-1.9c0.4-0.5,1-0.8,1.7-0.8l10.1,1.6l3.3-0.3c0.4,0.2,0.7,0.6,0.9,1l-4.1,0.4
	C917.3,502.7,917.3,502.7,917.2,502.7z"/>
<path class="st3" d="M904.9,502.2c0-0.5,0.3-1,0.6-1.4l11.7,1.9c0,0,0.1,0,0.1,0l4.1-0.4c0.2,0.4,0.3,0.8,0.2,1.3l-0.3,2.3
	c-0.1,1.4-1.6,2.4-3,2l-11.9-3.3C905.5,504.3,904.8,503.3,904.9,502.2z"/>
<path class="st4" d="M923.2,494.3l-3.2,0.4c-1.4,0.1-3.2-0.2-4.6-0.4l-8.3-1.5l6.6,0.1l1.9,0.3c1.3,0.3,3.1,0.5,4.3,0.4l2.6-0.3
	c0.4,0.2,0.7,0.5,1,0.9C923.4,494.2,923.3,494.3,923.2,494.3C923.3,494.3,923.2,494.3,923.2,494.3z"/>
<path class="st4" d="M917.2,502.7l-11.7-1.9c0.4-0.5,1-0.8,1.7-0.8l10.1,1.6l3.3-0.3c0.4,0.2,0.7,0.6,0.9,1l-4.1,0.4
	C917.3,502.7,917.3,502.7,917.2,502.7z"/>
<path class="st3" d="M906.6,485.4c-0.1-0.1-0.2-0.1-0.3-0.3c0.4-0.2,0.9-0.4,1.4-0.4l2.4,0.4l1.1-0.1c0.1,0,0.2,0,0.3,0l10.4-0.9
	c0.7,0.1,1.3,0.4,1.7,0.9l-12,1.1C909.9,486.2,908.2,486,906.6,485.4z"/>
<path class="st3" d="M911.2,485l5.5-0.5l5-0.5c0.1,0,0.2,0,0.3,0l-10.4,0.9C911.5,485,911.3,485,911.2,485z"/>
<path class="st3" d="M906.3,485.1c0.1,0.1,0.2,0.2,0.3,0.3c1.6,0.6,3.4,0.8,5.1,0.7l12-1.1c0.2,0.3,0.4,0.6,0.4,0.9l1,4.5
	c0.3,1.3-0.6,2.6-2,2.8l-2.8,0.4c-1.4,0.2-2.8,0.1-4.1-0.3l-7.6-1.2c-1.7-0.3-3.1-1.5-3.7-3.1C904.3,487.5,905,485.9,906.3,485.1z"
	/>
<path class="st4" d="M906.6,485.4c-0.1-0.1-0.2-0.1-0.3-0.3c0.4-0.2,0.9-0.4,1.4-0.4l2.4,0.4l1.1-0.1c0.1,0,0.2,0,0.3,0l10.4-0.9
	c0.7,0.1,1.3,0.4,1.7,0.9l-12,1.1C909.9,486.2,908.2,486,906.6,485.4z"/>
<path class="st15" d="M1150.3,794.7h-23.4l32.4,216.4h13.1L1150.3,794.7z"/>
<path class="st16" d="M1172.4,1011.1h-9.4l-21.4-176.3l-8.7,0.1l-0.8-5.2l5.7-24.8c-0.3-2.5-2.3-4.5-4.8-4.6l-5.5-0.5l-0.7-5h23.4
	L1172.4,1011.1z"/>
<path class="st15" d="M1238.6,794.7h-23.4l30.1,216.4h13.1L1238.6,794.7z"/>
<path class="st15" d="M1019.1,1011.1h13.4l30.2-216.4h-23.8L1019.1,1011.1z"/>
<path class="st16" d="M1258.4,1011.1h-9.5l-16.9-128.7c0,0,0,0-5.2-3l-11-79.8l-0.7-5h23.5L1258.4,1011.1z"/>
<path class="st16" d="M1024.1,1011.1l16.4-127.7c-5.9-4.1-5.9-4.1-5.9-4.1l5.4-47.9l-4.3-0.1l0.5-5.1h4.4l3.5-31.7h18.7l-30.2,216.5
	L1024.1,1011.1L1024.1,1011.1z"/>
<path class="st15" d="M1241.7,597.5h-115.1c-8.1,0-14.7,6.6-14.7,14.7V816c0,8.1,6.6,14.7,14.7,14.7h115.1V597.5z"/>
<path class="st15" d="M1241.4,808.3h-209.2c-6.2,0-11.2,5-11.2,11.2c0,6.2,5,11.2,11.2,11.2h209.2V808.3z"/>
<path class="st16" d="M1256.5,808.3h-110.2c-6.2,0-11.2,5-11.2,11.2c0,6.2,5,11.2,11.2,11.2h110.2V808.3z"/>
<path class="st16" d="M1245.3,597.5c-6.2,0-11.2,5-11.2,11.2v215.3c0,3.5,2.9,6.4,6.4,6.4h9.6c3.5,0,6.4-2.9,6.4-6.4V608.8
	C1256.5,602.6,1251.5,597.5,1245.3,597.5z"/>
<path class="st5" d="M1029.9,747.2l17-116.9c1.8-12,10.7-21.8,22.5-24.6l45.4-10.8l45.7,0.4l42.2,10.1c15,3.6,24.8,18.1,22.5,33.3
	l-4.9,32.4l-8.3,18c-0.4,1-0.7,2-0.9,3l-7.7,42.2c-1.4,7.5-7.9,11.6-15.4,11.6L1029.9,747.2z"/>
<path class="st1" d="M1214.8,623.5c-0.2,0-0.4-0.1-0.5-0.2l-4.6-4.4c-0.3-0.3-0.3-0.8,0-1.1c0.3-0.3,0.8-0.3,1.1,0l4.7,4.4
	c0.3,0.3,0.3,0.8,0,1.1C1215.3,623.4,1215.1,623.5,1214.8,623.5z"/>
<path class="st1" d="M1210.3,623.6c-0.2,0-0.4-0.1-0.5-0.2c-0.3-0.3-0.3-0.8,0-1.1l4.4-4.7c0.3-0.3,0.8-0.3,1.1,0
	c0.3,0.3,0.3,0.8,0,1.1l-4.4,4.7C1210.8,623.5,1210.6,623.6,1210.3,623.6z"/>
<path class="st1" d="M1160.4,643.7c-0.2,0-0.4-0.1-0.5-0.2l-4.7-4.4c-0.3-0.3-0.3-0.8,0-1.1c0.3-0.3,0.8-0.3,1.1,0l4.7,4.4
	c0.3,0.3,0.3,0.8,0,1.1C1160.8,643.6,1160.6,643.7,1160.4,643.7z"/>
<path class="st1" d="M1155.9,643.8c-0.2,0-0.4-0.1-0.5-0.2c-0.3-0.3-0.3-0.8,0-1.1l4.4-4.6c0.3-0.3,0.8-0.3,1.1,0
	c0.3,0.3,0.3,0.8,0,1.1l-4.4,4.6C1156.3,643.8,1156.1,643.8,1155.9,643.8z"/>
<path class="st1" d="M1114,623.5c-3.1,0-5.6-2.5-5.6-5.6c0-3.1,2.5-5.6,5.6-5.6c3.1,0,5.6,2.5,5.6,5.6
	C1119.6,621,1117.1,623.5,1114,623.5z M1114,613.8c-2.3,0-4.1,1.8-4.1,4.1s1.8,4.1,4.1,4.1s4.1-1.8,4.1-4.1S1116.2,613.8,1114,613.8
	z"/>
<path class="st1" d="M1128.8,704.4c-0.4,0-0.8-0.3-0.8-0.8c0-2.3-1.8-4.1-4.1-4.1c-2.3,0-4.1,1.8-4.1,4.1c0,0.4-0.3,0.8-0.8,0.8
	c-0.4,0-0.8-0.3-0.8-0.8c0-3.1,2.5-5.6,5.6-5.6c3.1,0,5.6,2.5,5.6,5.6C1129.5,704.1,1129.2,704.4,1128.8,704.4z"/>
<path class="st1" d="M1060,629.5c-0.4,0-0.8-0.3-0.8-0.8c0-2.3-1.8-4.1-4.1-4.1s-4.1,1.8-4.1,4.1c0,0.4-0.3,0.8-0.8,0.8
	s-0.8-0.3-0.8-0.8c0-3.1,2.5-5.6,5.6-5.6c3.1,0,5.6,2.5,5.6,5.6C1060.8,629.2,1060.4,629.5,1060,629.5z"/>
<path class="st1" d="M1053.4,704.4c-3.1,0-5.6-2.5-5.6-5.6c0-3.1,2.5-5.6,5.6-5.6c3.1,0,5.6,2.5,5.6,5.6
	C1059,701.9,1056.5,704.4,1053.4,704.4z M1053.4,694.7c-2.3,0-4.1,1.8-4.1,4.1c0,2.3,1.8,4.1,4.1,4.1c2.3,0,4.1-1.8,4.1-4.1
	C1057.5,696.5,1055.7,694.7,1053.4,694.7z"/>
<path class="st1" d="M1099.5,662.1c-0.4,0-0.8-0.3-0.8-0.8c0-1.9,1.4-2.6,2.4-3.2c0.9-0.5,1.3-0.8,1.3-1.2c0-0.4,0.3-0.8,0.8-0.8
	s0.8,0.3,0.8,0.8c0,1.4-1.2,2.1-2.1,2.6c-1.1,0.6-1.6,0.9-1.6,1.8C1100.3,661.7,1099.9,662.1,1099.5,662.1z"/>
<path class="st1" d="M1099.5,653.2c-0.4,0-0.8-0.3-0.8-0.8c0-1.9,1.4-2.6,2.4-3.2c0.9-0.5,1.3-0.8,1.3-1.2c0-0.4,0.3-0.8,0.8-0.8
	s0.8,0.3,0.8,0.8c0,1.4-1.2,2.1-2.1,2.6c-1.1,0.6-1.6,0.9-1.6,1.9C1100.3,652.9,1099.9,653.2,1099.5,653.2z"/>
<path class="st1" d="M1103.2,657.6c-0.4,0-0.8-0.3-0.8-0.8c0-0.5-0.4-0.7-1.3-1.2c-1-0.6-2.4-1.3-2.4-3.2c0-0.4,0.3-0.8,0.8-0.8
	s0.8,0.3,0.8,0.8c0,0.9,0.6,1.3,1.6,1.9c0.9,0.5,2.1,1.1,2.1,2.6C1104,657.3,1103.7,657.6,1103.2,657.6z"/>
<path class="st1" d="M1103.2,648.8c-0.4,0-0.8-0.3-0.8-0.8c0-0.5-0.4-0.7-1.3-1.2c-1-0.6-2.4-1.3-2.4-3.2c0-0.4,0.3-0.8,0.8-0.8
	s0.8,0.3,0.8,0.8c0,0.9,0.6,1.3,1.6,1.9c0.9,0.5,2.1,1.1,2.1,2.6C1104,648.4,1103.7,648.8,1103.2,648.8z"/>
<path class="st1" d="M1064.9,663h-10.9c-0.4,0-0.8-0.3-0.8-0.8c0-0.4,0.3-0.8,0.8-0.8h10.9c0.4,0,0.8,0.3,0.8,0.8
	C1065.6,662.6,1065.3,663,1064.9,663z"/>
<path class="st1" d="M1162.8,612.3h-10.9c-0.4,0-0.8-0.3-0.8-0.8c0-0.4,0.3-0.8,0.8-0.8h10.9c0.4,0,0.8,0.3,0.8,0.8
	C1163.6,612,1163.3,612.3,1162.8,612.3z"/>
<path class="st1" d="M1202.8,651.7c-0.2,0-0.4-0.1-0.5-0.2c-0.3-0.3-0.3-0.8,0-1.1l7.7-7.7c0.3-0.3,0.8-0.3,1.1,0s0.3,0.8,0,1.1
	l-7.7,7.7C1203.2,651.6,1203,651.7,1202.8,651.7z"/>
<path class="st1" d="M1120.9,627c-2.8,0-5-2.2-5-5s2.2-5,5-5s5,2.2,5,5S1123.7,627,1120.9,627z M1120.9,617.3
	c-2.6,0-4.7,2.1-4.7,4.7c0,2.6,2.1,4.7,4.7,4.7c2.6,0,4.7-2.1,4.7-4.7C1125.6,619.4,1123.5,617.3,1120.9,617.3z"/>
<path class="st1" d="M1135.9,707.7h-0.3c0-2.6-2.1-4.7-4.7-4.7s-4.7,2.1-4.7,4.7h-0.3c0-2.8,2.2-5,5-5S1135.9,705,1135.9,707.7z"/>
<path class="st1" d="M1067.1,632.8h-0.3c0-2.6-2.1-4.7-4.7-4.7c-2.6,0-4.7,2.1-4.7,4.7h-0.3c0-2.8,2.2-5,5-5
	C1064.9,627.8,1067.1,630.1,1067.1,632.8z"/>
<path class="st1" d="M1060.4,707.9c-2.8,0-5-2.2-5-5s2.2-5,5-5s5,2.2,5,5S1063.1,707.9,1060.4,707.9z M1060.4,698.2
	c-2.6,0-4.7,2.1-4.7,4.7c0,2.6,2.1,4.7,4.7,4.7s4.7-2.1,4.7-4.7C1065.1,700.3,1063,698.2,1060.4,698.2z"/>
<path class="st1" d="M1106.6,665.4h-0.3c0-1.5,1.1-2.1,2.1-2.7c0.9-0.5,1.6-0.9,1.6-1.8h0.3c0,1.1-0.9,1.6-1.8,2
	C1107.6,663.5,1106.6,664,1106.6,665.4z"/>
<path class="st1" d="M1106.6,656.5h-0.3c0-1.5,1.1-2.1,2.1-2.7c0.9-0.5,1.6-0.9,1.6-1.8h0.3c0,1.1-0.9,1.6-1.8,2
	C1107.6,654.7,1106.6,655.2,1106.6,656.5z"/>
<path class="st1" d="M1110.3,661h-0.3c0-0.9-0.8-1.3-1.6-1.8c-1-0.5-2.1-1.1-2.1-2.7h0.3c0,1.3,1,1.9,2,2.4
	C1109.4,659.4,1110.3,659.9,1110.3,661z"/>
<path class="st1" d="M1110.3,652.1h-0.3c0-0.9-0.8-1.3-1.6-1.8c-1-0.5-2.1-1.1-2.1-2.7h0.3c0,1.3,1,1.9,2,2.4
	C1109.4,650.5,1110.3,651,1110.3,652.1z"/>
<path class="st1" d="M1071.8,666.1h-10.9v0.3h10.9V666.1z"/>
<path class="st1" d="M1169.8,615.5h-10.9v0.3h10.9V615.5z"/>
<path class="st1" d="M1217.4,647.2l-7.7,7.7l0.2,0.2l7.7-7.7L1217.4,647.2z"/>
<path class="st1" d="M1141.9,673.6c-0.2,0-0.4,0-0.6-0.1c-0.7-0.2-1.3-0.6-1.7-1.2s-0.5-1.3-0.3-2c0.2-0.7,0.6-1.3,1.2-1.7
	c0.6-0.4,1.3-0.5,2-0.3c0.7,0.2,1.3,0.6,1.7,1.2c0.4,0.6,0.5,1.3,0.3,2c-0.2,0.7-0.6,1.3-1.2,1.7
	C1142.9,673.4,1142.4,673.6,1141.9,673.6z M1141.9,669.7c-0.2,0-0.4,0.1-0.6,0.2c-0.3,0.2-0.4,0.4-0.5,0.7c-0.1,0.3,0,0.6,0.2,0.9
	c0.2,0.3,0.4,0.4,0.7,0.5s0.6,0,0.9-0.2c0.3-0.2,0.4-0.4,0.5-0.7c0.1-0.3,0-0.6-0.2-0.9c-0.2-0.3-0.4-0.4-0.7-0.5
	C1142.1,669.8,1142,669.7,1141.9,669.7z"/>
<path class="st1" d="M1098.7,684.5c-0.2,0-0.4,0-0.6-0.1c-0.7-0.2-1.3-0.6-1.7-1.2c-0.8-1.3-0.4-2.9,0.8-3.7c0.6-0.4,1.3-0.5,2-0.3
	c0.7,0.2,1.3,0.6,1.7,1.2s0.5,1.3,0.3,2c-0.2,0.7-0.6,1.3-1.2,1.7C1099.7,684.3,1099.2,684.5,1098.7,684.5z M1098.7,680.7
	c-0.2,0-0.4,0.1-0.6,0.2c-0.5,0.3-0.7,1-0.4,1.6c0.2,0.3,0.4,0.4,0.7,0.5c0.3,0.1,0.6,0,0.9-0.1c0.3-0.2,0.4-0.4,0.5-0.7
	c0.1-0.3,0-0.6-0.2-0.9c-0.2-0.3-0.4-0.4-0.7-0.5C1098.9,680.7,1098.8,680.7,1098.7,680.7z"/>
<path class="st1" d="M1088.3,623.5c-0.2,0-0.4,0-0.6-0.1c-0.7-0.2-1.3-0.6-1.7-1.2c-0.4-0.6-0.5-1.3-0.3-2c0.2-0.7,0.6-1.3,1.2-1.7
	c0.6-0.4,1.3-0.5,2-0.3c0.7,0.2,1.3,0.6,1.7,1.2s0.5,1.3,0.3,2c-0.2,0.7-0.6,1.3-1.2,1.7C1089.3,623.3,1088.8,623.5,1088.3,623.5z
	 M1088.3,619.6c-0.2,0-0.4,0.1-0.6,0.2c-0.3,0.2-0.4,0.4-0.5,0.7c-0.1,0.3,0,0.6,0.2,0.9c0.2,0.3,0.4,0.4,0.7,0.5s0.6,0,0.9-0.1
	c0.3-0.2,0.4-0.4,0.5-0.7c0.1-0.3,0-0.6-0.2-0.9c-0.2-0.3-0.4-0.4-0.7-0.5C1088.4,619.7,1088.3,619.6,1088.3,619.6z"/>
<path class="st1" d="M1182.9,623.5c-0.9,0-1.8-0.4-2.3-1.3c-0.4-0.6-0.5-1.3-0.3-2c0.2-0.7,0.6-1.3,1.2-1.7c0.6-0.4,1.3-0.5,2-0.3
	c0.7,0.2,1.3,0.6,1.7,1.2s0.5,1.3,0.3,2c-0.2,0.7-0.6,1.3-1.2,1.7C1183.9,623.3,1183.4,623.5,1182.9,623.5z M1182.9,619.6
	c-0.2,0-0.4,0.1-0.6,0.2c-0.3,0.2-0.4,0.4-0.5,0.7c-0.1,0.3,0,0.6,0.2,0.9c0.3,0.5,1,0.7,1.6,0.4c0.3-0.2,0.4-0.4,0.5-0.7
	s0-0.6-0.2-0.9c-0.2-0.3-0.4-0.4-0.7-0.5C1183.1,619.7,1183,619.6,1182.9,619.6z"/>
<path class="st4" d="M1171.1,709l6.8-67.3c0.1-0.9-1.1-1.1-1.4-0.3l-21,69.7L1171.1,709z"/>
<path class="st16" d="M1046.6,738.1c0.9,1,2.4,1.3,3.5,0.4l15-11l-19.1,8.7C1045.9,737,1046.2,737.6,1046.6,738.1z"/>
<path class="st4" d="M1073.1,641.4l-8.1,79.5l-7,7l-6.5-4.2l14.1-76.3C1067.1,641,1073.1,640.5,1073.1,641.4z"/>
<path class="st8" d="M1159.4,497.5c12.4,0.3,16.2,14.4,15.8,31.2c-0.4,16.8-4.4,26.6-16.8,26.2s-22.2-10.4-21.8-27.3
	C1137,510.8,1147,497.1,1159.4,497.5z"/>
<path class="st23" d="M1117.3,533.8c0,0,41-24.3,41.8,6.7l-0.1,8l1.6,46.7c0,1.2-46.2,2.3-46,0.9l1-8.1l3.2-24
	c-0.4-2.1-0.7-4.5-0.6-7.1C1118.1,544.8,1117.3,533.8,1117.3,533.8z"/>
<path class="st8" d="M1114,535.6c7.5,0,13.7-6.1,13.7-13.6c0-7.5-6.1-13.7-13.7-13.7c-7.5,0-13.7,6.1-13.7,13.7
	C1100.4,529.5,1106.5,535.6,1114,535.6z"/>
<path class="st23" d="M1113.3,511.8c0,0-15.9,59.7,14.8,64.6c26.6,4.3,30.7-37.3,30.7-37.3l-0.6-27L1113.3,511.8z"/>
<path class="st8" d="M1154.3,531.9c-0.1,14.5-6,22.6-6,22.6c-32.9-5.3-38.2,0.6-38.2,0.6s1.6,16.5,15.1,20.5
	c13.5,3.9,34.3-4,34.7-22.6c0.1-4.6-6.8-29.7-6.8-29.7L1154.3,531.9z"/>
<path class="st1" d="M1128.5,561.1c7.2,1.2,10.7-5.8,10.3-6.1c-0.4-0.2-14.3,2.6-14.5,3C1124.1,558.4,1126.5,560.9,1128.5,561.1z"/>
<path class="st8" d="M1150.8,503.7c0.3-9.6-9.3-17.6-21.4-17.9c-12.1-0.3-22.1,7.2-22.3,16.8c-0.3,9.6,9.3,17.6,21.4,17.9
	C1140.6,520.8,1150.6,513.3,1150.8,503.7z"/>
<path class="st8" d="M1157.5,497.7c7.6,0.2,13.5,8.1,13.3,17.7c-0.3,9.6-6.7,19.2-14.2,19c-7.6-0.2-13.5-10.2-13.2-19.7
	C1143.6,505.1,1149.9,497.5,1157.5,497.7z"/>
<path class="st4" d="M1159.4,550.5c0,0-2.6,0.1-3.9-1l4.2,6.8L1159.4,550.5z"/>
<path class="st23" d="M1156,534.3c0,0,4.4-5.4,10.3-2.7c6.6,3.1,4.9,18.3-6.5,18.9c-6,0.3-4.7-3.1-3.6-7.7
	C1156.5,537.3,1156,534.3,1156,534.3z"/>
<path class="st7" d="M1166.5,535.6c-1.2-0.8-2.3-1.2-3.2-1c-1,0.2-1.9,0.8-2.6,2c-0.7,1.2-1.2,2.5-1.2,4.1l-0.1,1.3
	c0,0.4,0.3,0.7,0.7,0.7c0.4,0,0.7-0.3,0.7-0.7l0.1-1.3c0-0.4,0.3-2.4,1-3.4c0.5-0.8,1.1-1.3,1.7-1.4c0.6-0.1,1.4,0.1,2.2,0.6
	c0.3,0.2,0.8,0.1,1-0.2C1166.9,536.3,1166.8,535.9,1166.5,535.6z"/>
<path class="st23" d="M1113,516.7c1.2,0.9,3.7,2.2,3.7,2.2c0.3,0.1,0.7,0.1,0.9-0.3c0.2-0.4,0.1-0.7-0.3-0.9c0,0-3.5-2.2-3.9-2.5
	c-0.6-0.6-1.6-1.3-2.7-2.7c-0.2-0.3-0.6-0.3-0.9-0.2c-0.3,0.2-0.4,0.6-0.2,0.9C1110.7,514.8,1112.6,516.4,1113,516.7z"/>
<path class="st4" d="M1116.7,580.5l1.1-9.2c3.2,3.3,8.6,5.9,17.1,5.2c0,0,5.8-0.3,12-3.4c0.4-0.3,0.7-0.3,1-0.1
	c0.2,0.3,0.1,0.6-0.2,0.8c-1.2,1-5.9,3.2-13.1,4C1124.4,584,1116.7,580.5,1116.7,580.5z"/>
<path class="st5" d="M1104.6,536.9l-0.1,2.8c-0.1,5.3,4.1,9.8,9.4,9.9s9.8-4.1,9.9-9.4l0.1-2.8c0-0.8-0.2-1.6-0.6-2.2l3.8,0.1
	c-0.5,0.6-0.8,1.4-0.8,2.1l-0.1,2.8c-0.1,5.3,4.1,9.8,9.4,9.9s9.8-4.1,9.9-9.4l0.1-2.8c0-2-1.5-3.6-3.5-3.6L1130,534h-0.1l-9.4-0.3
	l-1.5,0l-10.8-0.3C1106.3,533.4,1104.7,535,1104.6,536.9z M1129.8,535.5L1129.8,535.5l12.3,0.3c1.2,0,2.1,1,2.1,2.2l-0.1,2.8
	c-0.1,4.5-4,8.1-8.5,8c-4.5-0.1-8.1-4-8-8.5l0.1-2.8C1127.7,536.3,1128.7,535.5,1129.8,535.5z M1105.9,537.1c0-1.2,1-2.2,2.2-2.1
	l10.8,0.3l1.5,0c1.2,0,2.2,1,2.1,2.2l-0.1,2.8c-0.1,4.5-4,8.1-8.5,8c-4.6-0.1-8.1-4-8-8.5L1105.9,537.1z"/>
<path class="st23" d="M1114.5,595.3c0.2-7.2,10.8-12.7,23.6-12.4c12.8,0.3,20.1,5.6,22.4,12.4c2.2,6.2-10.3,13.9-23.1,13.6
	C1124.6,608.5,1114.3,602.5,1114.5,595.3z"/>
<path class="st24" d="M1096.6,718.9l-12.4,1.3l-25.7-2.3c-2.7,0.3-3.9,0.8-5.9,2.5l-15.9,14.2c-1,0.9-1.1,2.5-0.3,3.5
	c0.8,1,2.4,1.3,3.5,0.4l15-11l-9.8,11.5c-1.1,1.3-0.6,3.3,1,3.9c0.9,0.3,1.9,0.1,2.5-0.5l13.1-12.8l-9.9,9.8
	c-1.2,1.2-0.8,3.1,0.8,3.7c0.8,0.3,1.6,0.2,2.2-0.3l13.9-10.2l-9.4,7c-1.1,0.8-1.1,2.5,0,3.2c0.6,0.4,1.4,0.5,2,0.3l12.6-5.3
	c1.2-0.5,2.6-0.5,3.8,0.1l4.8,2.4c3.9,2,8.3,3,12.6,3h7.9C1114.4,743.3,1096.6,718.9,1096.6,718.9z"/>
<path class="st4" d="M1171.1,709l4.2-0.3c1.3-0.1,2-1.4,1.4-2.5l-4.5-9.1L1171.1,709z"/>
<g class="st25">
	<path class="st4" d="M1098.2,719.6l72.9-10.7l4.8-46.1l45.5,2.3l-9.3,59c-1.8,11.1-11.3,19.3-22.5,19.3h-82.9L1098.2,719.6z"/>
</g>
<path class="st5" d="M1088.3,719.6l83.7-7.3l3.9-50.8l45.4,3l-8.3,62c-1.8,11.1-11.3,19.3-22.5,19.3l-94-2.4L1088.3,719.6z"/>
<path class="st1" d="M1167.4,740.7c-0.2,0-0.4-0.1-0.5-0.2l-4.7-4.4c-0.3-0.3-0.3-0.8,0-1.1s0.8-0.3,1.1,0l4.7,4.4
	c0.3,0.3,0.3,0.8,0,1.1C1167.8,740.6,1167.7,740.7,1167.4,740.7z"/>
<path class="st1" d="M1162.9,740.8c-0.2,0-0.4-0.1-0.5-0.2c-0.3-0.3-0.3-0.8,0-1.1l4.4-4.6c0.3-0.3,0.8-0.3,1.1,0
	c0.3,0.3,0.3,0.8,0,1.1l-4.4,4.7C1163.3,740.7,1163.1,740.8,1162.9,740.8z"/>
<path class="st1" d="M1189,672.6c-0.2,0-0.4-0.1-0.5-0.2l-9-9c-0.2-0.2-0.3-0.5-0.2-0.7c0.1-0.3,0.3-0.5,0.5-0.5l12.3-3.3
	c0.3-0.1,0.5,0,0.7,0.2c0.2,0.2,0.3,0.5,0.2,0.7l-3.3,12.3c-0.1,0.3-0.3,0.5-0.5,0.5C1189.1,672.6,1189,672.6,1189,672.6z
	 M1181.4,663.2l7.2,7.2l1.3-4.9l1.3-4.9L1181.4,663.2z"/>
<path class="st1" d="M1188.4,718c-0.4,0-0.8-0.3-0.8-0.8c0-1.9,1.4-2.6,2.4-3.2c0.9-0.5,1.3-0.8,1.3-1.2c0-0.4,0.3-0.8,0.8-0.8
	s0.8,0.3,0.8,0.8c0,1.4-1.2,2.1-2.1,2.6c-1,0.5-1.6,0.9-1.6,1.9C1189.1,717.7,1188.8,718,1188.4,718z"/>
<path class="st1" d="M1188.4,709.2c-0.4,0-0.8-0.3-0.8-0.8c0-1.9,1.4-2.6,2.4-3.2c0.9-0.5,1.3-0.8,1.3-1.2c0-0.4,0.3-0.8,0.8-0.8
	s0.8,0.3,0.8,0.8c0,1.4-1.2,2.1-2.1,2.6c-1.1,0.6-1.6,0.9-1.6,1.8C1189.1,708.8,1188.8,709.2,1188.4,709.2z"/>
<path class="st1" d="M1192.1,713.6c-0.4,0-0.8-0.3-0.8-0.8c0-0.5-0.4-0.7-1.3-1.2c-1-0.6-2.4-1.3-2.4-3.2c0-0.4,0.3-0.8,0.8-0.8
	s0.8,0.3,0.8,0.8c0,0.9,0.6,1.3,1.6,1.9c0.9,0.5,2.1,1.1,2.1,2.6C1192.9,713.3,1192.5,713.6,1192.1,713.6z"/>
<path class="st1" d="M1192.1,704.8c-0.4,0-0.8-0.3-0.8-0.8c0-0.5-0.4-0.7-1.3-1.2c-1-0.6-2.4-1.3-2.4-3.2c0-0.4,0.3-0.8,0.8-0.8
	s0.8,0.3,0.8,0.8c0,0.9,0.6,1.3,1.6,1.8c0.9,0.5,2.1,1.1,2.1,2.6C1192.9,704.4,1192.5,704.8,1192.1,704.8z"/>
<path class="st1" d="M1115.3,729.4c-0.2,0-0.4-0.1-0.5-0.2c-0.3-0.3-0.3-0.8,0-1.1l7.7-7.7c0.3-0.3,0.8-0.3,1.1,0
	c0.3,0.3,0.3,0.8,0,1.1l-7.7,7.7C1115.7,729.4,1115.5,729.4,1115.3,729.4z"/>
<path class="st1" d="M1196,676.2l-9.4-9.4l12.9-3.5L1196,676.2z M1187.2,667l8.7,8.7l3.2-11.8L1187.2,667z"/>
<path class="st1" d="M1195.5,721.3h-0.3c0-1.5,1.1-2.1,2.1-2.7c0.9-0.5,1.6-0.9,1.6-1.8h0.3c0,1.1-0.9,1.6-1.8,2
	C1196.5,719.5,1195.5,720,1195.5,721.3z"/>
<path class="st1" d="M1195.5,712.5h-0.3c0-1.5,1.1-2.1,2.1-2.7c0.9-0.5,1.6-0.9,1.6-1.8h0.3c0,1.1-0.9,1.6-1.8,2
	C1196.5,710.6,1195.5,711.2,1195.5,712.5z"/>
<path class="st1" d="M1199.2,716.9h-0.3c0-0.9-0.8-1.3-1.6-1.8c-1-0.5-2.1-1.1-2.1-2.7h0.3c0,1.3,1,1.9,2,2.4
	C1198.3,715.3,1199.2,715.8,1199.2,716.9z"/>
<path class="st1" d="M1199.2,708.1h-0.3c0-0.9-0.8-1.3-1.6-1.8c-1-0.5-2.1-1.1-2.1-2.7h0.3c0,1.3,1,1.9,2,2.4
	C1198.3,706.5,1199.2,707,1199.2,708.1z"/>
<path class="st1" d="M1129.9,724.9l-7.7,7.7l0.2,0.2l7.7-7.7L1129.9,724.9z"/>
<path class="st1" d="M1211.3,687.1c-0.9,0-1.8-0.4-2.3-1.3c-0.8-1.3-0.4-2.9,0.8-3.7c1.3-0.8,2.9-0.4,3.7,0.8c0.4,0.6,0.5,1.3,0.3,2
	c-0.2,0.7-0.6,1.3-1.2,1.7C1212.3,687,1211.8,687.1,1211.3,687.1z M1211.3,683.3c-0.2,0-0.4,0.1-0.6,0.2c-0.5,0.3-0.7,1.1-0.4,1.6
	c0.3,0.5,1.1,0.7,1.6,0.4c0.3-0.2,0.4-0.4,0.5-0.7c0.1-0.3,0-0.6-0.1-0.9C1212.1,683.5,1211.7,683.3,1211.3,683.3z"/>
<path class="st26" d="M1096.5,718.6l-8.2,1l8.1,23.7h10.2L1096.5,718.6z"/>
<path class="st4" d="M1095.7,742.3l1.4,4.2l93.1-0.6c11.2,0,20.8-8.1,22.5-19.3l12.7-87.7c2.3-15.3-7.5-29.8-22.5-33.3l-7.9-1.9
	c12.1,5.3,19.3,18.1,17.3,31.6l-11.6,81.5c-1.8,11.1-11.3,19.3-22.5,19.3L1095.7,742.3z"/>
<path class="st4" d="M1086.9,739.2c2,0,3.5-1.8,3.3-3.7l-1.9-15.8l8.2,23.7h-1.2c-4.4,0-8.7-1-12.6-3l-5.8-2.7
	C1078.3,737.8,1081.9,739.2,1086.9,739.2z"/>
<path class="st5" d="M1107.8,742.6h-83.6c-0.7,0-1.3,0.6-1.3,1.3v2.1c0,0.7,0.6,1.3,1.3,1.3h83.6c0.7,0,1.3-0.6,1.3-1.3v-2.1
	C1109.1,743.2,1108.6,742.6,1107.8,742.6z"/>
<path class="st26" d="M1107.8,742.6h-83.6c-0.7,0-1.3,0.6-1.3,1.3v2.1c0,0.7,0.6,1.3,1.3,1.3h83.6c0.7,0,1.3-0.6,1.3-1.3v-2.1
	C1109.1,743.2,1108.6,742.6,1107.8,742.6z"/>
<path class="st5" d="M1051.4,742.6H905.6c-0.7,0-1.3,0.6-1.3,1.3v2.1c0,0.7,0.6,1.3,1.3,1.3h145.8c0.7,0,1.3-0.6,1.3-1.3v-2.1
	C1052.6,743.2,1052.1,742.6,1051.4,742.6z"/>
<g class="st27">
	<path class="st26" d="M907.5,743.5h148.5c0.3,0,0.4-0.2,0.4-0.4s-0.2-0.4-0.4-0.4H907.5c-0.3,0-0.4,0.2-0.4,0.4
		S907.3,743.5,907.5,743.5z"/>
</g>
<path class="st5" d="M1051.7,742.6h-22c-1.7,0-3.1-1.2-3.5-2.9l-18.4-96.8c-0.4-2.2,1.3-4.2,3.5-4.2h22c1.7,0,3.1,1.2,3.5,2.9
	l18.4,96.8C1055.6,740.7,1053.9,742.6,1051.7,742.6z"/>
<path class="st26" d="M1051.7,742.6h-22c-1.7,0-3.1-1.2-3.5-2.9l-18.4-96.8c-0.4-2.2,1.3-4.2,3.5-4.2h22c1.7,0,3.1,1.2,3.5,2.9
	l18.4,96.8C1055.6,740.7,1053.9,742.6,1051.7,742.6z"/>
<path class="st5" d="M1048.6,742.6H907.5c-1.7,0-3.1-1.2-3.5-2.9L885.7,643c-0.4-2.2,1.3-4.2,3.5-4.2h141c1.7,0,3.1,1.2,3.5,2.9
	l18.4,96.8C1052.4,740.7,1050.8,742.6,1048.6,742.6z"/>
<path class="st26" d="M968,688c0.8,2-0.1,3.7-2,3.7c-0.1,0-0.3,0-0.3,0c2.3,2.5,5.8,4.3,8.8,4.2c4.2-0.1,6.1-3.5,4.2-7.6
	c-1.8-4.2-6.7-7.4-10.9-7.3c-2.6,0.1-4.4,1.4-4.8,3.6C965,684.6,967.2,686,968,688z"/>
<path class="st28" d="M847.6,950.2l-9.6,27.2l15.9,14.5l19.7-8.9l10.1-18.9l-20.9-23.8L847.6,950.2z"/>
<path class="st11" d="M846.7,952.8l36,14.1l85-158.9h150.9v-60.8H945.2c-10.7,0-20.4,6.5-24.5,16.4L846.7,952.8z"/>
<path class="st29" d="M846.7,952.8l36,14.1l85-158.9h150.9v-60.8H945.2c-10.7,0-20.4,6.5-24.5,16.4L846.7,952.8z"/>
<path class="st12" d="M852.2,984.9h20.3L967.7,808h150.9v-60.8H975.1c-10.7,0-20.4,6.5-24.5,16.4L852.2,984.9z"/>
<path class="st28" d="M938.5,950.2l-9.7,27.7l16,14l18.9-7.6l10.9-20.2l-20.9-23.8L938.5,950.2z"/>
<path class="st11" d="M938.5,950.2l36.1,13.9l83.9-156.2h106.8c12,0,21.8-9.7,21.8-21.8v-40.3l-151.1,1.3
	c-10.7,0-20.4,6.5-24.5,16.4L938.5,950.2z"/>
<path class="st29" d="M938.5,950.2l36.1,13.9l83.9-156.2h106.8c12,0,21.8-9.7,21.8-21.8v-40.3l-151.1,1.3
	c-10.7,0-20.4,6.5-24.5,16.4L938.5,950.2z"/>
<path class="st12" d="M1035.2,795.1c6.1-11.9,12.8-15.4,26.2-15.4h103.9l-3.5-33.7h25.3v39.8c0,12.2-9.9,22.1-22.1,22.1h-13.2h-93.1
	l-98.9,184l-15.8-5.1L1035.2,795.1z"/>
<path d="M869.8,979.2c-5.5,2.5-12,3.6-19.6-0.2c0,0-3-9.3-11.5-3.9c0,0-9.7,10.9-24.2,13.8c-20.1,4.1-21,13.4-21,13.4h82.3
	c0,0-0.3-12.7-1.6-20.7C873.9,979.6,871.7,978.3,869.8,979.2z"/>
<path class="st8" d="M814.4,986.2c0,0,9.1,4.2,13.3,20.8l-34.2-1.4C793.6,1005.6,792.7,990.4,814.4,986.2z"/>
<path class="st8" d="M793.6,1011.7h82.3v-9.3h-82.3V1011.7z"/>
<path class="st1" d="M829.3,990c0.1,0.2,0.3,0.3,0.6,0.3c0.1,0,0.2,0,0.3-0.1c0.3-0.2,0.4-0.6,0.2-0.9c-1.6-2.8-3.5-4-4.8-4.4
	c-0.6,0.3-1.2,0.6-1.8,0.9c0.1,0.1,0.2,0.1,0.3,0.1C824.3,986,827,986,829.3,990z"/>
<path class="st1" d="M833.4,987.8c0.1,0.2,0.3,0.3,0.6,0.3c0.1,0,0.2,0,0.3-0.1c0.3-0.2,0.4-0.6,0.2-0.9c-1.7-3-3.8-4.1-5-4.5
	c-0.5,0.3-1,0.7-1.6,1c0.1,0.1,0.2,0.1,0.3,0.1C828.3,983.8,831.1,983.9,833.4,987.8z"/>
<path class="st1" d="M837.6,985.2c0.1,0.2,0.3,0.3,0.6,0.3c0.1,0,0.2,0,0.3-0.1c0.3-0.2,0.4-0.6,0.2-0.9c-1.9-3.3-4.2-4.3-5.4-4.6
	c-0.4,0.3-0.9,0.7-1.3,1c0.1,0.1,0.3,0.2,0.4,0.2C832.5,981.2,835.3,981.3,837.6,985.2z"/>
<path d="M825.2,1002.4h-31.6c0,0,0-0.2,0.1-0.4c0-0.2,0.1-0.4,0.1-0.4h31.4c0.2,0,0.4,0.2,0.4,0.4S825.5,1002.4,825.2,1002.4z"/>
<path d="M959.8,979.2c-5.5,2.5-12,3.6-19.6-0.2c0,0-3-9.3-11.4-3.9c0,0-9.7,10.9-24.2,13.8c-20,4.1-21,13.4-21,13.4h82.3
	c0,0-0.3-12.7-1.6-20.7C963.9,979.6,961.8,978.3,959.8,979.2z"/>
<path class="st8" d="M904.5,986.2c0,0,9.1,4.2,13.3,20.8l-34.1-1.4C883.7,1005.6,882.7,990.4,904.5,986.2z"/>
<path class="st8" d="M883.7,1011.7h82.3v-9.3h-82.3V1011.7z"/>
<path class="st1" d="M919.4,990c0.1,0.2,0.3,0.3,0.6,0.3c0.1,0,0.2,0,0.3-0.1c0.3-0.2,0.4-0.6,0.2-0.9c-1.6-2.8-3.5-4-4.8-4.4
	c-0.6,0.3-1.2,0.6-1.8,0.9c0.1,0.1,0.2,0.1,0.3,0.1C914.3,986,917.1,986,919.4,990z"/>
<path class="st1" d="M923.5,987.8c0.1,0.2,0.3,0.3,0.6,0.3c0.1,0,0.2,0,0.3-0.1c0.3-0.2,0.4-0.6,0.2-0.9c-1.7-3-3.8-4.1-5-4.5
	c-0.5,0.3-1,0.7-1.6,1c0.1,0.1,0.2,0.1,0.3,0.1C918.4,983.8,921.2,983.9,923.5,987.8z"/>
<path class="st1" d="M927.6,985.2c0.1,0.2,0.3,0.3,0.6,0.3c0.1,0,0.2,0,0.3-0.1c0.3-0.2,0.4-0.6,0.2-0.9c-1.9-3.3-4.2-4.3-5.4-4.6
	c-0.4,0.3-0.9,0.7-1.3,1c0.1,0.1,0.3,0.2,0.4,0.2C922.6,981.2,925.4,981.3,927.6,985.2z"/>
<path d="M915.3,1002.4h-31.6c0,0,0-0.2,0.1-0.4c0.1-0.2,0.1-0.4,0.1-0.4h31.4c0.2,0,0.4,0.2,0.4,0.4S915.5,1002.4,915.3,1002.4z"/>
<path class="st1" d="M1160.6,595.3c0,0,0.9,3.5-1.9,5.2c-3,1.8-14.8,9.7-31.5,4.7c0,0-5.3-1.4-10.3-5.1c-1.1-0.8-1.9-2-2.1-3.5
	c0-0.2,0-0.3,0-0.4v-1.2c0,0,0,0-4.7,1.1c0,1.4,0.4,4.2,2.8,6.5c1.4,1.4,21.5,16.9,47.1,2.5c0,0,5.6-2.2,5-8.7
	C1160.6,595.3,1160.6,595.3,1160.6,595.3z"/>
<path class="st5" d="M1113.3,546.2c1.5,0,2.6-1.2,2.6-2.7c0-1.5-1.2-2.6-2.7-2.6c-1.5,0-2.6,1.2-2.6,2.7
	C1110.6,545,1111.8,546.2,1113.3,546.2z"/>
<path class="st1" d="M1112.1,544.5c0.3,0,0.6-0.3,0.6-0.6c0-0.3-0.3-0.6-0.6-0.6c-0.3,0-0.6,0.3-0.6,0.6
	C1111.4,544.2,1111.7,544.5,1112.1,544.5z"/>
<path class="st5" d="M1133.7,547.5c1.5,0,2.6-1.2,2.6-2.7c0-1.5-1.2-2.6-2.7-2.6c-1.5,0-2.6,1.2-2.6,2.7
	C1131.1,546.3,1132.3,547.5,1133.7,547.5z"/>
<path class="st1" d="M1132.5,545.7c0.3,0,0.6-0.3,0.6-0.6c0-0.3-0.3-0.6-0.6-0.6c-0.3,0-0.6,0.3-0.6,0.6
	C1131.9,545.4,1132.1,545.7,1132.5,545.7z"/>
<g class="st30">
	<path class="st7" d="M1125.5,551.4l2.1-0.3c0.4,0,0.7-0.4,0.7-0.9c0-0.4-0.4-0.7-0.8-0.7l-2.1,0.3c-0.9,0.1-1.7-0.5-1.8-1.5
		c-0.1-0.9,0.5-1.7,1.5-1.8c0.4,0,0.7-0.4,0.7-0.9c0-0.4-0.4-0.7-0.8-0.7c-1.7,0.2-3,1.8-2.7,3.5
		C1122.2,550.4,1123.7,551.6,1125.5,551.4z"/>
</g>
<path class="st4" d="M645.7,472.6L621.1,547l0.5,26.9l24.1-89.3V472.6z"/>
<path class="st26" d="M598.1,484.8l40.4,11l2.3-6.7l-40.9-11.5L598.1,484.8z"/>
<path class="st4" d="M761.1,613.3c0,0-32.6-28-42.5-73.1c-7-32-7.6-45.2-8-74.2c0,0,19.1-0.1,21.7-19.3c0.6-4.6-0.2-7.4-1.4-10.7
	c0,0,0.6,16.8-12.8,21.7c-5,1.8-20.9,2.5-20.9,2.5S680.9,557.4,761.1,613.3z"/>
<path class="st26" d="M725.5,404.3c0,0-6.3,15.4-22.6,14.7c-21.5-0.9-21.9-15.6-21.9-15.6l-5.7,1c0,0,2.6,19,27.5,19.6
	c22.9,0.6,28.2-18.2,28.2-18.2L725.5,404.3z"/>
<path class="st11" d="M1139.4,657.9l-3.9,17.7l5-3.6l3.7,5.4l1.8-15.3L1139.4,657.9z"/>
<path class="st11" d="M1161.4,657.9l3.9,17.7l-5-3.6l-3.7,5.4l-1.8-15.3L1161.4,657.9z"/>
<path class="st11" d="M1150,665.4c9.2,0,16.7-7.5,16.7-16.7c0-9.2-7.5-16.7-16.7-16.7s-16.7,7.5-16.7,16.7
	C1133.3,657.9,1140.8,665.4,1150,665.4z"/>
<path class="st20" d="M1150,665.4c9.2,0,16.7-7.5,16.7-16.7c0-9.2-7.5-16.7-16.7-16.7s-16.7,7.5-16.7,16.7
	C1133.3,657.9,1140.8,665.4,1150,665.4z"/>
<path class="st11" d="M1150,660.8c6.6,0,12-5.4,12-12c0-6.6-5.4-12-12-12s-12,5.4-12,12C1138,655.4,1143.4,660.8,1150,660.8z"/>
<path class="st21" d="M1150,660.8c6.6,0,12-5.4,12-12c0-6.6-5.4-12-12-12s-12,5.4-12,12C1138,655.4,1143.4,660.8,1150,660.8z"/>
<path class="st11" d="M1152.3,646.4l5,0.7l-3.6,3.5l0.9,5l-4.5-2.4l-4.5,2.4l0.8-5l-3.6-3.5l5-0.7l2.2-4.5L1152.3,646.4z"/>
<path class="st31" d="M1420.2,1013.3H174.8c-0.4,0-0.8-0.3-0.8-0.8s0.4-0.8,0.8-0.8h1245.5c0.4,0,0.8,0.3,0.8,0.8
	S1420.7,1013.3,1420.2,1013.3z"/>
<path class="st32" d="M783.8,487.7h53.1c2.5,0,4.6,2,4.6,4.6v53.1c0,2.5-2,4.6-4.6,4.6h-53.1c-2.5,0-4.6-2-4.6-4.6v-53.1
	C779.2,489.8,781.2,487.7,783.8,487.7z"/>
<path class="st33" d="M785.9,485.6H839c2.5,0,4.6,2,4.6,4.6v53.1c0,2.5-2,4.6-4.6,4.6h-53.1c-2.5,0-4.6-2-4.6-4.6v-53.1
	C781.3,487.7,783.4,485.6,785.9,485.6z"/>
<path class="st34" d="M815.3,536.1v6.8c1.2,0.6,2.5,1,3.9,1.3c1.6,0.3,3.2,0.4,4.8,0.4c1.6,0,3.1-0.2,4.6-0.5
	c1.4-0.3,2.7-0.8,3.8-1.5c1.1-0.7,2-1.7,2.6-2.8c1.1-2.4,1.3-5.1,0.4-7.5c-0.4-0.9-0.9-1.8-1.6-2.5c-0.7-0.8-1.6-1.4-2.5-2
	c-1-0.6-2.1-1.2-3.2-1.6c-0.9-0.4-1.7-0.7-2.4-1.1c-0.6-0.3-1.2-0.7-1.8-1.1c-0.4-0.3-0.8-0.7-1.1-1.1c-0.3-0.4-0.4-0.9-0.4-1.4
	c0-0.4,0.1-0.9,0.4-1.3c0.3-0.4,0.6-0.7,1-1c0.5-0.3,1-0.5,1.6-0.6c0.7-0.2,1.4-0.2,2.1-0.2c0.6,0,1.2,0,1.8,0.1
	c0.6,0.1,1.3,0.2,1.9,0.4c0.6,0.2,1.3,0.4,1.9,0.7c0.6,0.3,1.1,0.6,1.7,0.9v-6.4c-1.1-0.4-2.2-0.7-3.4-0.9c-1.4-0.2-2.8-0.3-4.2-0.3
	c-1.5,0-3.1,0.2-4.6,0.5c-1.4,0.3-2.6,0.9-3.8,1.6c-1.1,0.7-2,1.7-2.6,2.8c-0.7,1.3-1,2.7-1,4.1c0,1.9,0.6,3.7,1.8,5.2
	c1.5,1.6,3.3,2.9,5.3,3.6c0.9,0.4,1.8,0.8,2.6,1.1c0.7,0.3,1.4,0.7,2.1,1.2c0.5,0.3,1,0.8,1.4,1.3c0.3,0.5,0.5,1,0.5,1.6
	c0,0.4-0.1,0.8-0.3,1.2c-0.2,0.4-0.6,0.8-1,1c-0.5,0.3-1,0.5-1.6,0.6c-0.7,0.2-1.5,0.3-2.3,0.2c-1.5,0-3-0.3-4.4-0.8
	C817.8,537.8,816.5,537.1,815.3,536.1z M803.8,519.1h8.9v-5.6h-24.8v5.6h8.8v25h7L803.8,519.1z"/>
</svg>
