<svg xmlns="http://www.w3.org/2000/svg" viewBox="0 0 1154.56 886.86"><defs><style>.cls-1{fill:#f4f4f4;}.cls-2{fill:#3b3b3b;}.cls-3,.cls-4,.cls-6{fill:#fff;}.cls-3{opacity:0.5;}.cls-12,.cls-3,.cls-4{isolation:isolate;}.cls-4{opacity:0.7;}.cls-5{fill:#e74c3c;}.cls-7{fill:none;stroke:#7383ff;}.cls-13,.cls-14,.cls-7{stroke-miterlimit:10;}.cls-14,.cls-7{stroke-width:2px;}.cls-8{fill:#999;}.cls-9{fill:#ccc;}.cls-10{fill:#41d17e;}.cls-11,.cls-13{fill:#f1c40f;}.cls-12{fill:#2ecc71;opacity:0.99;}.cls-13{stroke:#f2c925;}.cls-14{fill:#747474;stroke:#818181;}</style></defs><title>emulate_parser</title><g id="Layer_2" data-name="Layer 2"><g id="Layer_1-2" data-name="Layer 1"><path class="cls-1" d="M1119.42,886.86l34.9-351a56.18,56.18,0,0,0-2.4-22.3l-124-385a55.1,55.1,0,0,0-45.2-37.7L297.52.46a55,55,0,0,0-50.2,20.3L11.92,317a54.71,54.71,0,0,0-11.8,37.5l32,531.6Z"/><path class="cls-2" d="M774,884.56H349.12a14.72,14.72,0,0,1-14.7-14.7V268.16a14.72,14.72,0,0,1,14.7-14.7H774a14.72,14.72,0,0,1,14.7,14.7v601.6A14.75,14.75,0,0,1,774,884.56Z"/><path class="cls-3" d="M774,884.56H349.12a14.72,14.72,0,0,1-14.7-14.7V268.16a14.72,14.72,0,0,1,14.7-14.7H774a14.72,14.72,0,0,1,14.7,14.7v601.6A14.75,14.75,0,0,1,774,884.56Z"/><path class="cls-2" d="M761.22,884.56H336.32a14.72,14.72,0,0,1-14.7-14.7V268.16a14.72,14.72,0,0,1,14.7-14.7h424.9a14.72,14.72,0,0,1,14.7,14.7v601.6A14.75,14.75,0,0,1,761.22,884.56Z"/><path class="cls-4" d="M761.22,883.73H336.32a14.72,14.72,0,0,1-14.7-14.7V267.33a14.72,14.72,0,0,1,14.7-14.7h424.9a14.72,14.72,0,0,1,14.7,14.7v601.6A14.75,14.75,0,0,1,761.22,883.73Z"/><path class="cls-2" d="M648.52,813.26H465a7,7,0,0,1-7-7v-47.9a7,7,0,0,1,7-7h183.6a7,7,0,0,1,7,7v47.9A7.11,7.11,0,0,1,648.52,813.26Z"/><path class="cls-3" d="M648.52,812.24H465a7,7,0,0,1-7-7v-47.9a7,7,0,0,1,7-7h183.6a7,7,0,0,1,7,7v47.9A7.11,7.11,0,0,1,648.52,812.24Z"/><path class="cls-5" d="M641.62,812.24H458a7,7,0,0,1-7-7v-47.9a7,7,0,0,1,7-7h183.6a7,7,0,0,1,7,7v47.9A7,7,0,0,1,641.62,812.24Z"/><path class="cls-6" d="M513.87,781.54h-7.44v4.81h8.32v3.74H501.86V769.87h12.46v3.75h-7.89v4.21h7.44Z"/><path class="cls-6" d="M517.88,770.15a38.5,38.5,0,0,1,6.08-.43c3,0,5.1.45,6.54,1.6a5.13,5.13,0,0,1,1.87,4.24,5.37,5.37,0,0,1-3.57,5v.09c1.4.57,2.19,1.91,2.7,3.77.63,2.28,1.24,4.92,1.63,5.7h-4.68a25.9,25.9,0,0,1-1.39-4.71c-.56-2.53-1.41-3.2-3.29-3.23h-1.36v7.94h-4.53Zm4.53,8.7h1.79c2.27,0,3.63-1.16,3.63-2.92s-1.27-2.8-3.36-2.81a8.77,8.77,0,0,0-2.06.16Z"/><path class="cls-6" d="M535.67,770.15a38.5,38.5,0,0,1,6.08-.43c3,0,5.1.45,6.54,1.6a5.13,5.13,0,0,1,1.87,4.24,5.37,5.37,0,0,1-3.57,5v.09c1.4.57,2.19,1.91,2.7,3.77.63,2.28,1.24,4.92,1.63,5.7h-4.68a25.9,25.9,0,0,1-1.39-4.71c-.56-2.53-1.41-3.2-3.29-3.23H540.2v7.94h-4.53Zm4.53,8.7H542c2.27,0,3.62-1.16,3.62-2.92s-1.26-2.8-3.35-2.81a8.77,8.77,0,0,0-2.06.16Z"/><path class="cls-6" d="M571.83,779.78c0,6.63-4,10.64-9.91,10.64s-9.53-4.53-9.53-10.3c0-6,3.89-10.58,9.84-10.58C568.44,769.54,571.83,774.19,571.83,779.78Zm-14.61.25c0,4,1.87,6.76,4.92,6.76s4.86-2.92,4.86-6.85c0-3.65-1.72-6.76-4.87-6.76S557.22,776.1,557.22,780Z"/><path class="cls-6" d="M574.85,770.15a38.45,38.45,0,0,1,6.07-.43c3,0,5.1.45,6.55,1.6a5.16,5.16,0,0,1,1.87,4.24,5.37,5.37,0,0,1-3.57,5v.09c1.4.57,2.19,1.91,2.7,3.77.63,2.28,1.24,4.92,1.63,5.7h-4.68a25.9,25.9,0,0,1-1.39-4.71c-.56-2.53-1.41-3.2-3.29-3.23h-1.36v7.94h-4.53Zm4.53,8.7h1.79c2.27,0,3.62-1.16,3.62-2.92s-1.26-2.8-3.35-2.81a8.77,8.77,0,0,0-2.06.16Z"/><path d="M346.16,502l2.15-11.39h-1.9l.63-3.29h1.9l.13-.75a8,8,0,0,1,2.47-4.8,6.47,6.47,0,0,1,4.19-1.4,5.81,5.81,0,0,1,2.28.38l-.75,3.42a3.73,3.73,0,0,0-1.39-.24c-1.4,0-2.26,1.2-2.52,2.67l-.14.72h2.89l-.63,3.29h-2.86L350.46,502Z"/><path d="M361.34,487.3l.88,2.2c.46,1.17.72,1.91.94,2.46h.09c.53-.78.93-1.44,1.56-2.34l1.63-2.32h4.94l-6.18,7.13,3.41,7.55h-4.74l-.93-2.34c-.41-1.06-.67-1.79-.94-2.66h-.08c-.41.68-.82,1.43-1.49,2.46L358.68,502h-5l6.36-7.59-3.45-7.09Z"/><polyline class="cls-7" points="362 478.61 362 387.46 466.89 387.46"/><polyline class="cls-7" points="362 507.46 362 598.61 466.89 598.61"/><rect class="cls-8" x="455.94" y="312.32" width="272.19" height="153.19"/><rect class="cls-9" x="452.94" y="308.32" width="272.19" height="153.19"/><path class="cls-10" d="M690.25,361.46H553.85a7.8,7.8,0,0,1,0-15.6h136.4a7.8,7.8,0,0,1,0,15.6Z"/><path class="cls-5" d="M693.85,398.46H550.15a4.1,4.1,0,0,1,0-8.2h143.7a4.1,4.1,0,1,1,0,8.2Z"/><path class="cls-11" d="M635.05,434.26h-84.9a4.1,4.1,0,0,1,0-8.2h84.9a4.06,4.06,0,0,1,4.1,4.1A4.12,4.12,0,0,1,635.05,434.26Z"/><path class="cls-12" d="M500.59,372.4A16.6,16.6,0,1,0,484,355.8,16.6,16.6,0,0,0,500.59,372.4Z"/><path class="cls-6" d="M494.69,360.25l-3.34-7.19a.79.79,0,0,1,.37-1l1.88-.88a.79.79,0,0,1,1,.37l2.15,4.61L507.92,351a.79.79,0,0,1,1,.36l.88,1.88a.81.81,0,0,1-.36,1l-13.72,6.37A.76.76,0,0,1,494.69,360.25Z"/><rect class="cls-5" x="488.25" y="381.69" width="26.53" height="26.53" rx="1.27"/><rect class="cls-6" x="500.46" y="386.52" width="2.98" height="16.43" transform="translate(426.14 -239.32) rotate(45)"/><rect class="cls-6" x="500.46" y="386.52" width="2.98" height="16.43" transform="translate(1136.01 318.92) rotate(135)"/><path class="cls-13" d="M501.63,417.38l-12.72,22a.93.93,0,0,0,.8,1.4h25.45a.93.93,0,0,0,.8-1.4l-12.72-22A.93.93,0,0,0,501.63,417.38Z"/><path d="M501.43,425.13h2v7.48h-2Zm0,8.64h2v2h-2Z"/><path d="M552,291.28c0-.76,0-1.36-.06-2h1.16l.08,1.19h0a2.69,2.69,0,0,1,2.4-1.36c1,0,2.56.6,2.56,3.09v4.33h-1.32v-4.18c0-1.17-.44-2.16-1.67-2.16a1.91,1.91,0,0,0-1.78,1.36,2.18,2.18,0,0,0-.09.61v4.37H552Z"/><path d="M566.88,292.87a3.56,3.56,0,0,1-3.61,3.87,3.46,3.46,0,0,1-3.49-3.74,3.55,3.55,0,0,1,3.61-3.85A3.44,3.44,0,0,1,566.88,292.87Zm-5.75.09c0,1.59.91,2.79,2.2,2.79s2.21-1.18,2.21-2.83c0-1.23-.62-2.78-2.19-2.78S561.13,291.58,561.13,293Z"/><path d="M570.13,287.23v2.09H572v1h-1.9v3.91c0,.9.26,1.41,1,1.41a2.36,2.36,0,0,0,.76-.1l.06,1a3.35,3.35,0,0,1-1.18.18,1.84,1.84,0,0,1-1.42-.56,2.79,2.79,0,0,1-.51-1.89v-4h-1.13v-1h1.13v-1.75Z"/><path d="M575,287.27a.8.8,0,0,1-.84.82.79.79,0,0,1-.8-.82.82.82,0,1,1,1.64,0Zm-1.48,9.3v-7.25h1.31v7.25Z"/><path d="M583.59,292.87a3.56,3.56,0,0,1-3.61,3.87,3.46,3.46,0,0,1-3.49-3.74,3.55,3.55,0,0,1,3.6-3.85A3.44,3.44,0,0,1,583.59,292.87Zm-5.75.09c0,1.59.91,2.79,2.19,2.79s2.21-1.18,2.21-2.83c0-1.23-.61-2.78-2.18-2.78S577.84,291.58,577.84,293Z"/><path d="M585.26,291.28c0-.76,0-1.36-.06-2h1.16l.07,1.19h0a2.69,2.69,0,0,1,2.4-1.36c1,0,2.56.6,2.56,3.09v4.33h-1.32v-4.18c0-1.17-.44-2.16-1.67-2.16a1.91,1.91,0,0,0-1.78,1.36,2.18,2.18,0,0,0-.09.61v4.37h-1.31Z"/><path d="M601.93,296.31a5,5,0,0,1-2.08.42,3.46,3.46,0,0,1-3.62-3.71,3.7,3.7,0,0,1,3.9-3.87,4.19,4.19,0,0,1,1.83.39l-.29,1a3.24,3.24,0,0,0-1.54-.34,2.74,2.74,0,0,0,0,5.46,3.81,3.81,0,0,0,1.61-.35Z"/><path d="M603.48,285.92h1.31v10.65h-1.31Z"/><path d="M608.5,287.27a.8.8,0,0,1-.84.82.79.79,0,0,1-.8-.82.82.82,0,1,1,1.64,0Zm-1.48,9.3v-7.25h1.31v7.25Z"/><path d="M611.27,293.18a2.32,2.32,0,0,0,2.48,2.52,4.91,4.91,0,0,0,2-.37l.23.94a5.87,5.87,0,0,1-2.42.46,3.38,3.38,0,0,1-3.57-3.66c0-2.2,1.3-3.92,3.42-3.92,2.36,0,3,2.08,3,3.41a4.32,4.32,0,0,1,0,.62Zm3.86-.95a1.87,1.87,0,0,0-1.82-2.13,2.16,2.16,0,0,0-2,2.13Z"/><path d="M618.05,291.28c0-.76,0-1.36-.06-2h1.16l.07,1.19h0a2.69,2.69,0,0,1,2.4-1.36c1,0,2.56.6,2.56,3.09v4.33H622.9v-4.18c0-1.17-.44-2.16-1.67-2.16a1.91,1.91,0,0,0-1.78,1.36,1.87,1.87,0,0,0-.09.61v4.37h-1.31Z"/><path d="M627.89,287.23v2.09h1.9v1h-1.9v3.91c0,.9.26,1.41,1,1.41a2.47,2.47,0,0,0,.77-.1l.06,1a3.43,3.43,0,0,1-1.18.18,1.86,1.86,0,0,1-1.43-.56,2.79,2.79,0,0,1-.51-1.89v-4h-1.12v-1h1.12v-1.75Z"/><rect class="cls-8" x="455.94" y="542.32" width="272.19" height="153.19"/><rect class="cls-9" x="452.94" y="538.32" width="272.19" height="153.19"/><path class="cls-10" d="M690.25,591.46H553.85a7.8,7.8,0,0,1,0-15.6h136.4a7.8,7.8,0,0,1,0,15.6Z"/><path class="cls-5" d="M693.85,628.46H550.15a4.1,4.1,0,0,1,0-8.2h143.7a4.1,4.1,0,0,1,0,8.2Z"/><path class="cls-11" d="M635.05,664.26h-84.9a4.1,4.1,0,0,1,0-8.2h84.9a4.06,4.06,0,0,1,4.1,4.1A4.12,4.12,0,0,1,635.05,664.26Z"/><path class="cls-12" d="M500.59,602.4A16.6,16.6,0,1,0,484,585.8,16.6,16.6,0,0,0,500.59,602.4Z"/><path class="cls-6" d="M494.69,590.25l-3.34-7.19a.79.79,0,0,1,.37-1l1.88-.88a.79.79,0,0,1,1,.37l2.15,4.61L507.92,581a.79.79,0,0,1,1,.36l.88,1.88a.81.81,0,0,1-.36,1l-13.72,6.37A.76.76,0,0,1,494.69,590.25Z"/><rect class="cls-5" x="488.25" y="611.69" width="26.53" height="26.53" rx="1.27"/><rect class="cls-6" x="500.46" y="616.52" width="2.98" height="16.43" transform="translate(588.77 -171.95) rotate(45)"/><rect class="cls-6" x="500.46" y="616.52" width="2.98" height="16.43" transform="translate(1298.64 711.55) rotate(135)"/><path class="cls-13" d="M501.63,647.38l-12.72,22a.93.93,0,0,0,.8,1.4h25.45a.93.93,0,0,0,.8-1.4l-12.72-22A.93.93,0,0,0,501.63,647.38Z"/><path d="M501.43,655.13h2v7.48h-2Zm0,8.64h2v2h-2Z"/><path d="M527.75,527.53a5.55,5.55,0,0,1-2.67.6,4.46,4.46,0,0,1-4.55-4.68,5.48,5.48,0,0,1,5.48-5.76,4.16,4.16,0,0,1,4.36,4.33c0,2.25-1.26,3.57-2.66,3.57a1.11,1.11,0,0,1-1.12-1.31h-.05a2.37,2.37,0,0,1-2.12,1.31,1.69,1.69,0,0,1-1.62-1.88,3.54,3.54,0,0,1,3.55-3.56,4,4,0,0,1,1.61.31l-.51,2.72c-.22,1.14-.05,1.67.45,1.68.77,0,1.63-1,1.63-2.74a3.45,3.45,0,0,0-3.65-3.74c-2.44,0-4.49,1.94-4.49,5a3.75,3.75,0,0,0,3.85,4,4.62,4.62,0,0,0,2.27-.54Zm-.82-6.47a2.15,2.15,0,0,0-.75-.12,2.59,2.59,0,0,0-2.39,2.71c0,.66.33,1.14,1,1.14.87,0,1.67-1.12,1.83-2Z"/><path d="M532,521.28c0-.76,0-1.36-.06-2h1.17l.07,1.19h0a2.67,2.67,0,0,1,2.4-1.36c1,0,2.55.6,2.55,3.09v4.33H536.9v-4.18c0-1.17-.44-2.16-1.68-2.16a1.89,1.89,0,0,0-1.77,1.36,1.85,1.85,0,0,0-.1.61v4.37H532Z"/><path d="M541.84,517.27a.8.8,0,0,1-.84.82.82.82,0,1,1,.84-.82Zm-1.47,9.3v-7.25h1.31v7.25Z"/><path d="M543.69,525.23a3.58,3.58,0,0,0,1.75.52c1,0,1.41-.48,1.41-1.09s-.39-1-1.35-1.32c-1.31-.48-1.93-1.19-1.93-2.06a2.24,2.24,0,0,1,2.51-2.13,3.47,3.47,0,0,1,1.78.45l-.33,1a2.81,2.81,0,0,0-1.49-.43c-.78,0-1.2.45-1.2,1s.43.86,1.38,1.23c1.25.47,1.9,1.1,1.9,2.18,0,1.29-1,2.19-2.71,2.19a4.12,4.12,0,0,1-2-.51Z"/><path d="M549.82,515.92h1.31v4.53h0a2.65,2.65,0,0,1,1-.93,2.62,2.62,0,0,1,1.35-.37c1,0,2.53.6,2.53,3.1v4.32h-1.32V522.4c0-1.18-.44-2.16-1.67-2.16a1.9,1.9,0,0,0-1.78,1.32,1.71,1.71,0,0,0-.09.63v4.38h-1.31Z"/><path d="M562.16,526.57l-.11-.91h0a2.72,2.72,0,0,1-2.22,1.08,2.07,2.07,0,0,1-2.22-2.09c0-1.75,1.56-2.72,4.36-2.7v-.15a1.49,1.49,0,0,0-1.65-1.67,3.54,3.54,0,0,0-1.89.54l-.3-.88a4.55,4.55,0,0,1,2.4-.64c2.21,0,2.75,1.52,2.75,3v2.71a11.49,11.49,0,0,0,.11,1.74Zm-.2-3.7c-1.43,0-3.06.22-3.06,1.63a1.16,1.16,0,0,0,1.23,1.26,1.82,1.82,0,0,0,1.77-1.22,1.56,1.56,0,0,0,.06-.41Z"/><path d="M565.37,521.28c0-.76,0-1.36-.06-2h1.17l.07,1.19h0a2.67,2.67,0,0,1,2.4-1.36c1,0,2.55.6,2.55,3.09v4.33h-1.31v-4.18c0-1.17-.44-2.16-1.68-2.16a1.89,1.89,0,0,0-1.77,1.36,1.85,1.85,0,0,0-.1.61v4.37h-1.31Z"/><path d="M573.51,525.23a3.58,3.58,0,0,0,1.75.52c1,0,1.41-.48,1.41-1.09s-.39-1-1.35-1.32c-1.31-.48-1.93-1.19-1.93-2.06a2.24,2.24,0,0,1,2.51-2.13,3.5,3.5,0,0,1,1.78.45l-.33,1a2.81,2.81,0,0,0-1.49-.43c-.78,0-1.2.45-1.2,1s.43.86,1.38,1.23c1.25.47,1.9,1.1,1.9,2.18,0,1.29-1,2.19-2.71,2.19a4.12,4.12,0,0,1-2-.51Z"/><path d="M578.52,527.17l4.18-10.87h1l-4.2,10.87Z"/><path d="M584.78,521.28c0-.76,0-1.36-.06-2h1.17l.07,1.19h0a2.67,2.67,0,0,1,2.39-1.36c1,0,2.56.6,2.56,3.09v4.33h-1.31v-4.18c0-1.17-.44-2.16-1.68-2.16a1.91,1.91,0,0,0-1.78,1.36,2.18,2.18,0,0,0-.09.61v4.37h-1.31Z"/><path d="M599.67,522.87a3.56,3.56,0,0,1-3.61,3.87,3.46,3.46,0,0,1-3.48-3.74,3.54,3.54,0,0,1,3.6-3.85A3.43,3.43,0,0,1,599.67,522.87Zm-5.75.09c0,1.59.91,2.79,2.2,2.79s2.21-1.18,2.21-2.83c0-1.23-.62-2.78-2.19-2.78S593.92,521.58,593.92,523Z"/><path d="M602.92,517.23v2.09h1.9v1h-1.9v3.91c0,.9.26,1.41,1,1.41a2.47,2.47,0,0,0,.77-.1l.06,1a3.43,3.43,0,0,1-1.18.18,1.86,1.86,0,0,1-1.43-.56,2.79,2.79,0,0,1-.51-1.89v-4h-1.12v-1h1.12v-1.75Z"/><path d="M607.78,517.27a.82.82,0,1,1-.81-.82A.79.79,0,0,1,607.78,517.27Zm-1.47,9.3v-7.25h1.31v7.25Z"/><path d="M616.38,522.87a3.56,3.56,0,0,1-3.61,3.87,3.46,3.46,0,0,1-3.48-3.74,3.54,3.54,0,0,1,3.6-3.85A3.43,3.43,0,0,1,616.38,522.87Zm-5.75.09c0,1.59.91,2.79,2.2,2.79s2.21-1.18,2.21-2.83c0-1.23-.62-2.78-2.19-2.78S610.63,521.58,610.63,523Z"/><path d="M618.05,521.28c0-.76,0-1.36-.06-2h1.17l.07,1.19h0a2.67,2.67,0,0,1,2.39-1.36c1,0,2.56.6,2.56,3.09v4.33h-1.31v-4.18c0-1.17-.44-2.16-1.68-2.16a1.91,1.91,0,0,0-1.78,1.36,2.18,2.18,0,0,0-.09.61v4.37h-1.31Z"/><path d="M629.43,522v1h-3.7v-1Z"/><path d="M631.11,526.57v-6.25h-1v-1h1V519a3.45,3.45,0,0,1,.84-2.54,2.54,2.54,0,0,1,1.77-.67,2.89,2.89,0,0,1,1.12.21l-.17,1a2,2,0,0,0-.85-.16c-1.11,0-1.41,1-1.41,2.1v.4h1.76v1h-1.75v6.25Z"/><path d="M641.73,522.87a3.56,3.56,0,0,1-3.61,3.87,3.46,3.46,0,0,1-3.48-3.74,3.54,3.54,0,0,1,3.6-3.85A3.43,3.43,0,0,1,641.73,522.87ZM636,523c0,1.59.91,2.79,2.2,2.79s2.21-1.18,2.21-2.83c0-1.23-.62-2.78-2.19-2.78S636,521.58,636,523Z"/><path d="M643.4,521.58c0-.86,0-1.59-.06-2.26h1.15l0,1.42h.05a2.21,2.21,0,0,1,2-1.59,1.45,1.45,0,0,1,.37,0v1.24a2,2,0,0,0-.45,0,1.85,1.85,0,0,0-1.77,1.69,3.89,3.89,0,0,0,0,.62v3.87H643.4Z"/><path d="M648.37,521.28c0-.76,0-1.36-.06-2h1.14l.07,1.17h0a2.49,2.49,0,0,1,2.29-1.34,2.13,2.13,0,0,1,2,1.46h0a3,3,0,0,1,.82-1,2.47,2.47,0,0,1,1.6-.51c1,0,2.39.63,2.39,3.15v4.27h-1.29v-4.1c0-1.41-.51-2.24-1.57-2.24a1.71,1.71,0,0,0-1.57,1.19,2.28,2.28,0,0,0-.11.66v4.49h-1.28v-4.35c0-1.16-.52-2-1.51-2a1.84,1.84,0,0,0-1.65,1.32,2.21,2.21,0,0,0-.1.65v4.37h-1.28Z"/><path d="M666.94,524.59c0,.76,0,1.41.06,2h-1.16l-.07-1.19h0a2.71,2.71,0,0,1-2.4,1.36c-1.14,0-2.5-.64-2.5-3.18v-4.24h1.31v4c0,1.38.43,2.32,1.62,2.32a1.93,1.93,0,0,0,1.75-1.21,2,2,0,0,0,.12-.68v-4.44h1.31Z"/><path d="M669.14,515.92h1.31v10.65h-1.31Z"/><path d="M676.7,526.57l-.11-.91h0a2.72,2.72,0,0,1-2.22,1.08,2.07,2.07,0,0,1-2.22-2.09c0-1.75,1.56-2.72,4.36-2.7v-.15a1.49,1.49,0,0,0-1.65-1.67,3.51,3.51,0,0,0-1.89.54l-.3-.88a4.54,4.54,0,0,1,2.39-.64c2.22,0,2.76,1.52,2.76,3v2.71a11.49,11.49,0,0,0,.11,1.74Zm-.2-3.7c-1.43,0-3.07.22-3.07,1.63a1.17,1.17,0,0,0,1.24,1.26,1.81,1.81,0,0,0,1.76-1.22,1.26,1.26,0,0,0,.07-.41Z"/><line class="cls-14" x1="415.1" y1="495.38" x2="745.49" y2="495.38"/></g></g></svg>