<svg xmlns="http://www.w3.org/2000/svg" viewBox="0 0 111.85 119.3"><defs><style>.cls-1{fill:#cdcdcd;}.cls-2{fill:#c8c8c8;}.cls-3{fill:#ac2d37;}.cls-4{fill:#812229;}.cls-5{fill:#585858;}.cls-30,.cls-6{fill:#3b3b3b;}.cls-7{fill:#ea636d;}.cls-8{fill:#e53c49;}.cls-9{fill:#565656;}.cls-10{fill:#d9d9d9;}.cls-11{fill:#bfbfbf;}.cls-12{fill:#e5e5e5;}.cls-13{fill:#fff;}.cls-14{fill:#919191;}.cls-15,.cls-30{font-size:48.76px;font-family:BerlinSansFB-Reg, Berlin Sans FB;}.cls-15{fill:#2c2c2c;}.cls-16{fill:#2d2d2d;}.cls-17{fill:#2e2e2e;}.cls-18{fill:#2f2f2f;}.cls-19{fill:#303030;}.cls-20{fill:#313131;}.cls-21{fill:#323232;}.cls-22{fill:#333;}.cls-23{fill:#343434;}.cls-24{fill:#353535;}.cls-25{fill:#363636;}.cls-26{fill:#373737;}.cls-27{fill:#383838;}.cls-28{fill:#393939;}.cls-29{fill:#3a3a3a;}</style></defs><title>notion-formula</title><g id="Layer_1" data-name="Layer 1"><g id="Layer_2" data-name="Layer 2"><g id="Logo_1" data-name="Logo 1"><g id="BG"><rect class="cls-1" x="30.56" y="21.46" width="69.44" height="78.54"/><polygon class="cls-2" points="98.69 18.81 29.24 18.81 1.5 0.02 70.85 0 98.69 18.81"/></g><ellipse class="cls-3" cx="80.39" cy="38.99" rx="3.48" ry="3.32"/><ellipse class="cls-4" cx="80.39" cy="38.99" rx="2.68" ry="2.56"/><ellipse cx="80.39" cy="38.99" rx="1.96" ry="1.87"/><polygon class="cls-5" points="84.14 49.43 76.73 49.48 80.39 43.33 84.14 49.43"/><polygon class="cls-6" points="78.78 57.85 81.95 62.21 82 49.43 80.37 46.78 78.8 49.44 78.78 57.85"/><polygon class="cls-5" points="48.43 48.9 51.6 53.88 51.6 70.05 48.54 70.05 48.43 48.9"/><polygon class="cls-7" points="48.54 70.05 46.28 72.01 46.28 77.77 50.01 75.16 50.01 70.05 48.54 70.05"/><polygon class="cls-8" points="51.58 70.05 53.85 72.01 53.85 77.77 50.11 75.16 50.11 70.05 51.58 70.05"/><polygon class="cls-9" points="71.87 77.77 81.93 77.77 81.93 64.96 63.29 39.08 48.27 39.08 48.27 44.36 71.87 77.77"/><ellipse class="cls-3" cx="56.16" cy="64.44" rx="2.46" ry="2.35"/><polygon class="cls-10" points="98.69 18.81 100 21.46 30.56 21.46 29.24 18.81 98.69 18.81"/><polygon class="cls-11" points="1.5 0.02 0 2.87 27.78 21.35 29.24 18.81 1.5 0.02"/><polyline class="cls-12" points="27.78 99.29 30.56 100 30.56 21.46 29.24 18.81 27.78 21.35"/><polygon class="cls-13" points="27.78 21.35 30.56 21.46 29.24 18.81 27.78 21.35"/><polygon class="cls-6" points="48.27 39.08 75.59 77.77 71.87 77.77 48.27 44.36 48.27 39.08"/><polygon class="cls-14" points="0 2.89 27.78 21.35 27.78 99.29 0 80.47 0 2.89"/></g></g></g><g id="fx"><text class="cls-15" transform="translate(74.19 108.57)">fx</text><path class="cls-16" d="M289,278.09c0,.19-.15.3-.43.33-.78.09-1.55.13-2.31.22a3.2,3.2,0,0,0-2.07.95Q283,280.85,283,286c.52,0,1.35,0,2.48,0s2,0,2.54,0c.38,0,.58.14.58.43,0,.44,0,1.11,0,2s.05,1.53.05,2-.16.45-.48.45c-.55,0-1.39,0-2.52-.08s-2-.08-2.5-.08v7.12q0,1.67.12,5c.08,2.26.12,3.94.12,5.05,0,.43-.16.64-.48.64h-4.35c-.42,0-.62-.24-.62-.73V291.5c0-.43-.49-.64-1.46-.62a4.43,4.43,0,0,1-1.66-.12,2.46,2.46,0,0,1-.07-.88c0-.35,0-.87-.05-1.56s0-1.21,0-1.56,1-.56,3-.67c0-1-.07-1.84-.07-2.48,0-2.81.51-4.86,1.5-6.16a8.72,8.72,0,0,1,3.91-2.76,12.85,12.85,0,0,1,4.78-.91.36.36,0,0,1,.34.26s.15.71.41,2S289,278,289,278.09Z" transform="translate(-200 -200)"/><path class="cls-16" d="M308.91,308.18c0,.23-.16.38-.5.46a4.06,4.06,0,0,1-1,0l-.86-.05c-1.25,0-2-.14-2.26-.43q-1.45-2.16-4.43-6.35a3.81,3.81,0,0,0-.64-.76,21.75,21.75,0,0,0-2.67,3.64c-1.67,2.47-2.67,3.74-3,3.81a33.23,33.23,0,0,1-3.38.09c-.39,0-.58-.14-.58-.43v-2.59a34.08,34.08,0,0,1,3.17-4.1c2.11-2.55,3.17-4,3.17-4.21s-1.06-1.63-3.17-4.17-3.17-3.93-3.17-4.19v-2.54c0-.32.19-.48.58-.48s1,0,1.78.1,1.39.09,1.79.09a.74.74,0,0,1,.59.33q1.41,2.18,4.29,6.38a4.41,4.41,0,0,0,.62.79,2.74,2.74,0,0,0,.52-.62c.92-1.25,2.44-3.47,4.55-6.64a.68.68,0,0,1,.55-.33c.39,0,1,0,1.76-.05s1.35-.05,1.74-.05.59.16.59.48v2.5q0,.42-3.18,4.23t-3.18,4.19a35.66,35.66,0,0,0,3.18,4.08q3.18,3.83,3.18,4.26Z" transform="translate(-200 -200)"/><path class="cls-16" d="M289.11,278.13c0,.19-.14.3-.43.33-.78.09-1.55.13-2.31.22a3.22,3.22,0,0,0-2.07.95c-.78.84-1.17,3-1.17,6.4.53,0,1.35,0,2.48.05s2,.05,2.55.05c.38,0,.57.14.57.43s0,1.11,0,2,0,1.53,0,2-.16.45-.47.45c-.56,0-1.4,0-2.53-.08s-2-.08-2.5-.08v7.11c0,1.12,0,2.8.12,5s.12,3.94.12,5.05c0,.43-.16.64-.47.64h-4.36c-.41,0-.62-.24-.62-.74V291.53c0-.42-.48-.63-1.45-.61a4.47,4.47,0,0,1-1.67-.12,2.5,2.5,0,0,1-.07-.88c0-.35,0-.87-.05-1.56s-.05-1.21-.05-1.56,1-.56,3-.67c-.05-1-.07-1.84-.07-2.48q0-4.22,1.5-6.16a8.78,8.78,0,0,1,3.9-2.77,13.09,13.09,0,0,1,4.79-.9.35.35,0,0,1,.33.26s.15.7.42,2S289.11,278.08,289.11,278.13Z" transform="translate(-200 -200)"/><path class="cls-16" d="M309,308.22c0,.23-.16.38-.5.46a4,4,0,0,1-1,0l-.86-.05c-1.25,0-2-.14-2.26-.43-1-1.44-2.44-3.56-4.43-6.35a3.7,3.7,0,0,0-.64-.77,23.71,23.71,0,0,0-2.67,3.65q-2.49,3.71-3,3.81a33.23,33.23,0,0,1-3.38.09c-.38,0-.57-.14-.57-.43v-2.59a32.33,32.33,0,0,1,3.16-4.1c2.11-2.55,3.17-4,3.17-4.21s-1.06-1.63-3.17-4.17-3.16-3.93-3.16-4.19v-2.54q0-.48.57-.48c.39,0,1,0,1.78.09s1.39.1,1.79.1a.77.77,0,0,1,.6.33c.93,1.45,2.36,3.57,4.28,6.38a5,5,0,0,0,.62.79c.05,0,.22-.21.52-.62.92-1.25,2.44-3.47,4.55-6.64a.69.69,0,0,1,.55-.34c.4,0,1,0,1.76,0s1.36-.05,1.74-.05.59.16.59.48v2.5q0,.42-3.18,4.23t-3.17,4.19a35.62,35.62,0,0,0,3.17,4.07q3.18,3.84,3.18,4.27Z" transform="translate(-200 -200)"/><path class="cls-17" d="M289.21,278.17c0,.19-.14.3-.43.33-.77.09-1.55.13-2.31.22a3.24,3.24,0,0,0-2.07.95q-1.15,1.26-1.16,6.4c.52,0,1.35,0,2.47.05s2,.05,2.55.05c.38,0,.57.14.57.43s0,1.1.05,2,.05,1.53.05,2-.16.45-.48.45c-.56,0-1.4,0-2.52-.08s-2-.08-2.5-.08V298c0,1.11,0,2.8.12,5.05s.12,3.94.12,5.05c0,.43-.16.64-.48.64h-4.36c-.41,0-.62-.24-.62-.74V291.57c0-.43-.48-.63-1.45-.62a4.39,4.39,0,0,1-1.67-.11A2.85,2.85,0,0,1,275,290c0-.35,0-.86,0-1.56s0-1.21,0-1.55,1-.56,3-.67c-.05-1-.07-1.84-.07-2.48q0-4.21,1.5-6.16a8.78,8.78,0,0,1,3.9-2.77,13.09,13.09,0,0,1,4.79-.9.34.34,0,0,1,.33.26s.16.7.42,2S289.21,278.12,289.21,278.17Z" transform="translate(-200 -200)"/><path class="cls-17" d="M309.12,308.26c0,.23-.17.38-.5.46a4.13,4.13,0,0,1-1,0l-.85-.05c-1.26,0-2-.14-2.27-.43-1-1.44-2.44-3.56-4.42-6.35a3.91,3.91,0,0,0-.65-.77,23.35,23.35,0,0,0-2.66,3.65q-2.5,3.7-3,3.81a33.09,33.09,0,0,1-3.38.09c-.38,0-.57-.14-.57-.43v-2.59a33.15,33.15,0,0,1,3.17-4.1c2.11-2.55,3.16-4,3.16-4.21s-1-1.63-3.16-4.17-3.17-3.93-3.17-4.19v-2.55c0-.31.19-.47.57-.47s1,0,1.79.09,1.39.1,1.78.1a.76.76,0,0,1,.6.33c.93,1.45,2.36,3.57,4.28,6.38a5,5,0,0,0,.62.79c.05,0,.23-.21.53-.62.92-1.25,2.43-3.47,4.54-6.64a.67.67,0,0,1,.55-.34c.4,0,1,0,1.76,0s1.36,0,1.74,0,.6.16.6.47V289q0,.44-3.18,4.24t-3.18,4.19a35.15,35.15,0,0,0,3.18,4.07q3.18,3.84,3.18,4.27Z" transform="translate(-200 -200)"/><path class="cls-18" d="M289.32,278.21c0,.19-.15.3-.43.33-.78.08-1.55.13-2.31.22a3.2,3.2,0,0,0-2.07.95q-1.17,1.26-1.17,6.4c.52,0,1.35,0,2.48.05s2,0,2.54,0c.38,0,.57.14.57.43,0,.44,0,1.1.05,2s0,1.54,0,2-.16.45-.48.45c-.55,0-1.39,0-2.52-.08s-2-.09-2.5-.09V298c0,1.11,0,2.8.12,5.05s.12,3.94.12,5c0,.43-.16.64-.48.64h-4.36c-.41,0-.61-.25-.61-.74V291.61c0-.43-.49-.63-1.46-.62s-1.6,0-1.66-.12a2.41,2.41,0,0,1-.07-.88c0-.35,0-.87-.05-1.56s-.05-1.21-.05-1.56,1-.55,3-.66c0-1-.07-1.84-.07-2.48,0-2.81.51-4.86,1.5-6.16a8.68,8.68,0,0,1,3.91-2.77,13,13,0,0,1,4.78-.9.36.36,0,0,1,.34.26s.15.7.41,2S289.32,278.16,289.32,278.21Z" transform="translate(-200 -200)"/><path class="cls-18" d="M309.22,308.3c0,.22-.17.38-.5.45a3.56,3.56,0,0,1-1,0l-.86,0c-1.26,0-2-.14-2.26-.43q-1.45-2.16-4.43-6.35a4.12,4.12,0,0,0-.64-.77,22.18,22.18,0,0,0-2.67,3.65q-2.5,3.71-3,3.81a33.35,33.35,0,0,1-3.39.09c-.38,0-.57-.14-.57-.43v-2.59a33.15,33.15,0,0,1,3.17-4.1c2.11-2.55,3.17-4,3.17-4.21s-1.06-1.63-3.17-4.17-3.17-3.93-3.17-4.19v-2.55c0-.31.19-.47.57-.47s1,0,1.79.09,1.39.1,1.79.1a.74.74,0,0,1,.59.33c.94,1.45,2.37,3.57,4.29,6.38a4.41,4.41,0,0,0,.62.79,2.74,2.74,0,0,0,.52-.62q1.38-1.89,4.55-6.64a.66.66,0,0,1,.54-.34c.4,0,1,0,1.77,0s1.35-.05,1.73-.05.6.16.6.47V289q0,.43-3.18,4.24t-3.18,4.19a35.15,35.15,0,0,0,3.18,4.07q3.18,3.84,3.18,4.26Z" transform="translate(-200 -200)"/><path class="cls-19" d="M289.42,278.25c0,.19-.14.3-.43.33-.78.08-1.55.13-2.31.21a3.28,3.28,0,0,0-2.07,1q-1.17,1.26-1.17,6.4c.53,0,1.35,0,2.48.05s2,.05,2.55.05c.38,0,.57.14.57.43s0,1.1,0,2,0,1.54,0,2-.16.45-.47.45c-.56,0-1.4,0-2.53-.08s-2-.09-2.5-.09V298c0,1.11,0,2.8.12,5.05s.12,3.94.12,5.05c0,.43-.16.64-.48.64H279c-.41,0-.62-.25-.62-.74V291.65c0-.43-.49-.63-1.45-.62s-1.61,0-1.67-.12a2.41,2.41,0,0,1-.07-.88c0-.35,0-.87-.05-1.56s-.05-1.21-.05-1.56,1-.55,3-.66c-.05-1-.07-1.84-.07-2.48,0-2.81.5-4.86,1.5-6.17a8.76,8.76,0,0,1,3.9-2.76,13.06,13.06,0,0,1,4.79-.9.35.35,0,0,1,.33.26s.15.7.42,2S289.42,278.2,289.42,278.25Z" transform="translate(-200 -200)"/><path class="cls-19" d="M309.32,308.34c0,.22-.16.38-.5.45a4,4,0,0,1-1,0l-.86-.05c-1.25,0-2-.14-2.26-.43-1-1.44-2.44-3.56-4.43-6.35a3.7,3.7,0,0,0-.64-.77,23.71,23.71,0,0,0-2.67,3.65q-2.49,3.7-3,3.8a29.06,29.06,0,0,1-3.38.1c-.38,0-.57-.14-.57-.43v-2.59a32.33,32.33,0,0,1,3.16-4.1c2.11-2.55,3.17-4,3.17-4.21s-1.06-1.63-3.17-4.17-3.16-3.94-3.16-4.19v-2.55c0-.31.19-.47.57-.47s1,0,1.78.09,1.39.1,1.79.1a.74.74,0,0,1,.59.33c.94,1.45,2.37,3.57,4.29,6.38a5,5,0,0,0,.62.79c.05,0,.22-.21.52-.62q1.38-1.89,4.55-6.64a.67.67,0,0,1,.55-.34c.39,0,1,0,1.76,0s1.36,0,1.74,0,.59.16.59.47V289q0,.44-3.18,4.24T303,297.46a35.62,35.62,0,0,0,3.17,4.07q3.18,3.84,3.18,4.26Z" transform="translate(-200 -200)"/><path class="cls-19" d="M289.52,278.29c0,.19-.14.3-.43.33-.77.08-1.55.13-2.31.21a3.3,3.3,0,0,0-2.07,1c-.78.84-1.16,3-1.16,6.4.52,0,1.34,0,2.47.05s2,.05,2.55.05q.57,0,.57.42c0,.45,0,1.11.05,2s.05,1.54.05,2-.16.45-.48.45c-.56,0-1.4,0-2.52-.08s-2-.09-2.5-.09v7.12c0,1.11,0,2.8.12,5.05s.11,3.94.11,5.05c0,.43-.15.64-.47.64h-4.36c-.41,0-.62-.25-.62-.74V291.69c0-.43-.48-.63-1.45-.62a4,4,0,0,1-1.67-.12,2.71,2.71,0,0,1-.07-.88c0-.35,0-.87-.05-1.56s0-1.21,0-1.56,1-.55,3-.66c-.05-1-.07-1.84-.07-2.48,0-2.81.5-4.86,1.5-6.17a8.76,8.76,0,0,1,3.9-2.76,13.09,13.09,0,0,1,4.79-.9.33.33,0,0,1,.33.26s.16.7.42,2S289.52,278.24,289.52,278.29Z" transform="translate(-200 -200)"/><path class="cls-19" d="M309.43,308.38c0,.22-.17.38-.5.45a4.56,4.56,0,0,1-1,0l-.86-.05c-1.25,0-2-.14-2.26-.43q-1.44-2.16-4.43-6.36a3.79,3.79,0,0,0-.64-.76,23.35,23.35,0,0,0-2.66,3.65q-2.51,3.7-3,3.8a28.94,28.94,0,0,1-3.38.1c-.38,0-.57-.14-.57-.43v-2.59a31.94,31.94,0,0,1,3.17-4.1c2.11-2.55,3.16-4,3.16-4.21s-1-1.63-3.16-4.17-3.17-3.94-3.17-4.19v-2.55c0-.32.19-.47.57-.47s1,0,1.79.09,1.39.1,1.78.1a.77.77,0,0,1,.6.33q1.4,2.16,4.28,6.38a5.77,5.77,0,0,0,.62.79c.05,0,.22-.21.52-.62.93-1.26,2.44-3.47,4.55-6.65a.68.68,0,0,1,.55-.33c.4,0,1,0,1.76-.05s1.36,0,1.74,0,.6.15.6.47v2.5q0,.44-3.18,4.24t-3.18,4.19a35.15,35.15,0,0,0,3.18,4.07q3.18,3.84,3.18,4.26Z" transform="translate(-200 -200)"/><path class="cls-20" d="M289.62,278.33q0,.29-.42.33c-.78.08-1.55.13-2.31.21a3.25,3.25,0,0,0-2.08,1q-1.15,1.26-1.16,6.4c.52,0,1.35,0,2.47,0s2,.05,2.55.05q.57,0,.57.42c0,.45,0,1.11.05,2s0,1.54,0,2-.16.45-.48.45c-.55,0-1.39,0-2.52-.08s-2-.09-2.5-.09v7.12c0,1.11,0,2.79.12,5.05s.12,3.93.12,5c0,.42-.16.64-.48.64h-4.36c-.41,0-.61-.25-.61-.74V291.73c0-.43-.49-.63-1.46-.62s-1.6,0-1.66-.12a2.32,2.32,0,0,1-.08-.88c0-.35,0-.87,0-1.56s-.05-1.21-.05-1.56,1-.55,3-.66c0-1-.07-1.85-.07-2.48,0-2.81.51-4.86,1.5-6.17a8.74,8.74,0,0,1,3.91-2.76,13,13,0,0,1,4.78-.9.33.33,0,0,1,.33.26s.16.7.42,2S289.62,278.28,289.62,278.33Z" transform="translate(-200 -200)"/><path class="cls-20" d="M309.53,308.42c0,.22-.17.38-.5.45a4.56,4.56,0,0,1-1,0l-.85,0c-1.26,0-2-.14-2.26-.43q-1.45-2.16-4.43-6.36a3.62,3.62,0,0,0-.65-.76,23.51,23.51,0,0,0-2.66,3.64q-2.5,3.72-3,3.81a28.82,28.82,0,0,1-3.38.1c-.38,0-.57-.14-.57-.43v-2.59a33.15,33.15,0,0,1,3.17-4.1q3.17-3.84,3.16-4.21t-3.16-4.17q-3.16-3.81-3.17-4.19v-2.55q0-.48.57-.48c.4,0,1,0,1.79.1s1.39.1,1.78.1a.74.74,0,0,1,.6.33c.94,1.44,2.36,3.57,4.29,6.38a6.36,6.36,0,0,0,.61.79c.05,0,.23-.21.53-.62.92-1.26,2.43-3.47,4.55-6.65a.66.66,0,0,1,.54-.33c.4,0,1,0,1.77-.05s1.35-.05,1.73-.05.6.16.6.48v2.5q0,.43-3.18,4.24t-3.18,4.19a35.15,35.15,0,0,0,3.18,4.07q3.18,3.84,3.18,4.26Z" transform="translate(-200 -200)"/><path class="cls-21" d="M289.73,278.36c0,.19-.15.31-.43.34-.78.08-1.55.13-2.31.21a3.25,3.25,0,0,0-2.07.95c-.78.85-1.17,3-1.17,6.41.52,0,1.35,0,2.48.05s2,0,2.54,0c.39,0,.58.15.58.43,0,.45,0,1.11,0,2s.05,1.54.05,2-.16.45-.47.45c-.56,0-1.4,0-2.53-.09s-2-.08-2.5-.08v7.12c0,1.11,0,2.79.12,5.05s.12,3.93.12,5.05c0,.42-.16.64-.48.64h-4.35c-.42,0-.62-.25-.62-.74V291.77c0-.43-.49-.64-1.46-.62s-1.6,0-1.66-.12a2.46,2.46,0,0,1-.07-.88c0-.35,0-.87-.05-1.56s-.05-1.21-.05-1.56,1-.55,3-.67c-.05-1-.08-1.84-.08-2.47,0-2.81.51-4.86,1.5-6.17A8.8,8.8,0,0,1,283.8,275a13,13,0,0,1,4.78-.9.34.34,0,0,1,.34.26s.15.7.41,2S289.73,278.32,289.73,278.36Z" transform="translate(-200 -200)"/><path class="cls-21" d="M309.63,308.46c0,.22-.16.38-.5.45a4.49,4.49,0,0,1-1,0l-.86-.05c-1.25,0-2-.14-2.26-.43-1-1.45-2.45-3.56-4.43-6.36a3.45,3.45,0,0,0-.64-.76,22.46,22.46,0,0,0-2.67,3.64c-1.67,2.48-2.67,3.75-3,3.81a29.06,29.06,0,0,1-3.38.1c-.38,0-.58-.14-.58-.43v-2.6a33.61,33.61,0,0,1,3.17-4.09c2.11-2.56,3.17-4,3.17-4.22s-1.06-1.62-3.17-4.16-3.17-3.94-3.17-4.19v-2.55c0-.32.2-.48.58-.48s1,0,1.78.1,1.39.09,1.79.09a.75.75,0,0,1,.59.34q1.41,2.16,4.29,6.38a5.21,5.21,0,0,0,.62.78c.05,0,.22-.2.52-.61.92-1.26,2.44-3.47,4.55-6.65a.68.68,0,0,1,.55-.33c.39,0,1,0,1.76,0s1.36-.05,1.74-.05.59.16.59.48v2.5q0,.44-3.18,4.24t-3.18,4.19a36.22,36.22,0,0,0,3.18,4.07q3.18,3.84,3.18,4.26Z" transform="translate(-200 -200)"/><path class="cls-21" d="M289.83,278.4c0,.19-.14.31-.43.34-.78.08-1.55.13-2.31.21a3.27,3.27,0,0,0-2.07.95c-.78.85-1.17,3-1.17,6.41.53,0,1.35,0,2.48.05s2,0,2.55,0c.38,0,.57.15.57.43,0,.45,0,1.11.05,2s0,1.54,0,2-.15.46-.47.46c-.56,0-1.4,0-2.53-.09s-2-.08-2.5-.08v7.12c0,1.11,0,2.79.12,5.05s.12,3.93.12,5c0,.43-.16.65-.47.65h-4.36c-.41,0-.62-.25-.62-.74V291.81c0-.43-.48-.64-1.45-.62a4,4,0,0,1-1.67-.12,2.46,2.46,0,0,1-.07-.88c0-.35,0-.87-.05-1.56s0-1.21,0-1.56,1-.56,3-.67c-.05-1-.07-1.84-.07-2.47,0-2.81.5-4.86,1.5-6.17a8.76,8.76,0,0,1,3.9-2.76,13.09,13.09,0,0,1,4.79-.9.33.33,0,0,1,.33.26s.16.7.42,2S289.83,278.36,289.83,278.4Z" transform="translate(-200 -200)"/><path class="cls-21" d="M309.73,308.5c0,.22-.16.38-.5.45a4,4,0,0,1-1,0l-.86,0c-1.25,0-2-.15-2.26-.43-1-1.45-2.44-3.57-4.43-6.36a3.45,3.45,0,0,0-.64-.76,23.22,23.22,0,0,0-2.67,3.64q-2.49,3.72-3,3.81a31.8,31.8,0,0,1-3.38.1c-.38,0-.57-.15-.57-.43v-2.6a32.76,32.76,0,0,1,3.16-4.09c2.12-2.56,3.17-4,3.17-4.22s-1-1.62-3.17-4.16-3.16-3.94-3.16-4.19v-2.55q0-.48.57-.48c.4,0,1,0,1.79.1s1.38.09,1.78.09a.76.76,0,0,1,.6.34q1.39,2.16,4.28,6.38a5.21,5.21,0,0,0,.62.78c.05,0,.22-.2.52-.62q1.38-1.87,4.55-6.64a.68.68,0,0,1,.55-.33c.4,0,1,0,1.76-.05s1.36-.05,1.74-.05.59.16.59.48v2.5c0,.28-1.06,1.7-3.17,4.24s-3.18,3.93-3.18,4.19a36.22,36.22,0,0,0,3.18,4.07c2.11,2.55,3.17,4,3.17,4.26Z" transform="translate(-200 -200)"/><path class="cls-22" d="M289.93,278.44c0,.19-.14.31-.43.34-.77.08-1.54.13-2.3.21a3.25,3.25,0,0,0-2.08.95Q284,281.2,284,286.35c.52,0,1.35,0,2.47,0s2,.05,2.55.05c.38,0,.57.15.57.43,0,.45,0,1.11.05,2s0,1.53,0,2-.16.46-.48.46c-.55,0-1.4,0-2.52-.09s-2-.08-2.5-.08v7.12c0,1.11,0,2.79.12,5s.12,3.93.12,5c0,.43-.16.65-.48.65h-4.36c-.41,0-.62-.25-.62-.74V291.85c0-.43-.48-.64-1.45-.62a4.51,4.51,0,0,1-1.67-.12,2.76,2.76,0,0,1-.07-.88c0-.35,0-.87,0-1.56s-.05-1.21-.05-1.56,1-.56,3-.67c-.05-1-.07-1.84-.07-2.47,0-2.81.5-4.86,1.5-6.17A8.74,8.74,0,0,1,284,275a13,13,0,0,1,4.78-.91.34.34,0,0,1,.33.27s.16.7.42,2S289.93,278.4,289.93,278.44Z" transform="translate(-200 -200)"/><path class="cls-22" d="M309.84,308.54c0,.22-.17.38-.5.45a4.13,4.13,0,0,1-1,0l-.85,0c-1.26,0-2-.15-2.27-.43-1-1.45-2.44-3.57-4.42-6.36a3.31,3.31,0,0,0-.65-.76,22.87,22.87,0,0,0-2.66,3.64q-2.5,3.72-3,3.81a31.66,31.66,0,0,1-3.38.1c-.38,0-.57-.15-.57-.43v-2.6a33.61,33.61,0,0,1,3.17-4.09c2.11-2.56,3.16-4,3.16-4.22s-1.05-1.62-3.16-4.16-3.17-3.94-3.17-4.19v-2.55q0-.48.57-.48c.4,0,1,0,1.79.1s1.39.09,1.78.09a.74.74,0,0,1,.6.34c.94,1.44,2.36,3.57,4.28,6.38a6.15,6.15,0,0,0,.62.78c.05,0,.23-.2.53-.62q1.38-1.87,4.54-6.64a.69.69,0,0,1,.55-.33c.4,0,1,0,1.76-.05s1.36-.05,1.74-.05.6.16.6.48v2.5c0,.28-1.06,1.7-3.18,4.24s-3.18,3.93-3.18,4.19a36.22,36.22,0,0,0,3.18,4.07q3.18,3.82,3.18,4.26Z" transform="translate(-200 -200)"/><path class="cls-23" d="M290,278.48c0,.19-.15.31-.43.34-.78.08-1.55.13-2.31.21a3.2,3.2,0,0,0-2.07,1q-1.17,1.26-1.17,6.41c.52,0,1.35,0,2.48,0s2,.05,2.54.05c.38,0,.57.15.57.43,0,.45,0,1.11.05,2s.05,1.53.05,2a.42.42,0,0,1-.48.46q-.82,0-2.52-.09c-1.13-.05-2-.08-2.5-.08v7.12c0,1.11,0,2.79.12,5.05s.12,3.93.12,5c0,.43-.16.65-.48.65h-4.36c-.41,0-.61-.25-.61-.74V291.89c0-.43-.49-.64-1.46-.62a4.43,4.43,0,0,1-1.66-.12,2.46,2.46,0,0,1-.07-.88c0-.35,0-.87-.05-1.56s-.05-1.21-.05-1.56,1-.56,3-.67c0-1-.07-1.84-.07-2.47,0-2.81.51-4.87,1.5-6.17a8.72,8.72,0,0,1,3.91-2.76,13.05,13.05,0,0,1,4.78-.91.35.35,0,0,1,.34.27s.15.7.41,2S290,278.44,290,278.48Z" transform="translate(-200 -200)"/><path class="cls-23" d="M309.94,308.58c0,.22-.16.38-.5.45a4.06,4.06,0,0,1-1,0l-.86,0c-1.25,0-2-.15-2.26-.43q-1.46-2.18-4.43-6.36a3.81,3.81,0,0,0-.64-.76,21.75,21.75,0,0,0-2.67,3.64c-1.67,2.48-2.67,3.75-3,3.81a31.91,31.91,0,0,1-3.39.1c-.38,0-.57-.15-.57-.43V306a33.61,33.61,0,0,1,3.17-4.09c2.11-2.56,3.17-4,3.17-4.22s-1.06-1.62-3.17-4.16-3.17-3.94-3.17-4.19v-2.55q0-.48.57-.48c.4,0,1,0,1.79.1s1.39.09,1.79.09a.73.73,0,0,1,.59.34q1.41,2.16,4.29,6.38a4.53,4.53,0,0,0,.62.78,2.47,2.47,0,0,0,.52-.62q1.38-1.87,4.55-6.64a.68.68,0,0,1,.55-.33c.39,0,1,0,1.76-.05s1.35,0,1.74,0,.59.16.59.48v2.5c0,.28-1.06,1.7-3.18,4.24s-3.18,3.93-3.18,4.19a36.22,36.22,0,0,0,3.18,4.07q3.18,3.83,3.18,4.26Z" transform="translate(-200 -200)"/><path class="cls-24" d="M290.14,278.52c0,.19-.14.3-.43.34-.78.08-1.55.12-2.31.21a3.22,3.22,0,0,0-2.07.95q-1.17,1.26-1.17,6.41c.53,0,1.35,0,2.48,0s2,0,2.55,0c.38,0,.57.14.57.43,0,.44,0,1.11.05,2s0,1.53,0,2-.16.45-.47.45c-.56,0-1.4,0-2.53-.08s-2-.08-2.5-.08v7.12q0,1.67.12,5c.08,2.26.12,3.94.12,5,0,.43-.16.64-.47.64h-4.36c-.41,0-.62-.24-.62-.73V291.93c0-.43-.48-.64-1.45-.62a4.47,4.47,0,0,1-1.67-.12,2.46,2.46,0,0,1-.07-.88c0-.35,0-.87-.05-1.56s0-1.21,0-1.56,1-.56,3-.67c-.05-1-.07-1.84-.07-2.47q0-4.21,1.5-6.17a8.69,8.69,0,0,1,3.9-2.76,12.86,12.86,0,0,1,4.79-.91.35.35,0,0,1,.33.26s.15.71.42,2S290.14,278.47,290.14,278.52Z" transform="translate(-200 -200)"/><path class="cls-24" d="M310,308.62c0,.22-.16.37-.5.45a4,4,0,0,1-1,0l-.86,0c-1.25,0-2-.14-2.26-.42-1-1.45-2.44-3.57-4.43-6.36a3.45,3.45,0,0,0-.64-.76,23.22,23.22,0,0,0-2.67,3.64q-2.49,3.72-3,3.81a33.23,33.23,0,0,1-3.38.09q-.57,0-.57-.42V306a32.76,32.76,0,0,1,3.16-4.09c2.11-2.56,3.17-4,3.17-4.22s-1.06-1.63-3.17-4.17-3.16-3.93-3.16-4.19v-2.54q0-.48.57-.48c.39,0,1,0,1.78.1s1.39.09,1.79.09a.73.73,0,0,1,.59.34q1.41,2.16,4.29,6.38a5.21,5.21,0,0,0,.62.78c.05,0,.22-.2.52-.62.92-1.25,2.44-3.47,4.55-6.64a.68.68,0,0,1,.55-.33c.39,0,1,0,1.76-.05s1.36-.05,1.74-.05.59.16.59.48v2.5c0,.28-1.06,1.7-3.18,4.23s-3.17,3.94-3.17,4.2a37.89,37.89,0,0,0,3.17,4.07q3.18,3.82,3.18,4.26Z" transform="translate(-200 -200)"/><path class="cls-24" d="M290.24,278.56c0,.19-.14.3-.43.33-.77.09-1.55.13-2.31.22a3.24,3.24,0,0,0-2.07.95c-.78.84-1.16,3-1.16,6.41.52,0,1.34,0,2.47,0s2,.05,2.55.05c.38,0,.57.14.57.43s0,1.11.05,2,0,1.53,0,2-.16.45-.48.45c-.56,0-1.4,0-2.52-.08s-2-.08-2.5-.08v7.12q0,1.66.12,5c.07,2.26.11,3.94.11,5.05,0,.43-.15.64-.47.64h-4.36c-.41,0-.62-.24-.62-.73V292c0-.43-.48-.64-1.45-.62a4.51,4.51,0,0,1-1.67-.12,2.76,2.76,0,0,1-.07-.88c0-.35,0-.87-.05-1.56s0-1.21,0-1.56,1-.56,3-.67c-.05-1-.07-1.84-.07-2.48,0-2.8.5-4.86,1.5-6.16a8.69,8.69,0,0,1,3.9-2.76,12.9,12.9,0,0,1,4.79-.91.34.34,0,0,1,.33.26s.16.71.42,2S290.24,278.51,290.24,278.56Z" transform="translate(-200 -200)"/><path class="cls-24" d="M310.15,308.66c0,.22-.17.37-.5.45a4.13,4.13,0,0,1-1,0l-.85-.05c-1.26,0-2-.14-2.27-.42q-1.44-2.18-4.43-6.36a3.45,3.45,0,0,0-.64-.76,22.87,22.87,0,0,0-2.66,3.64c-1.67,2.48-2.68,3.74-3,3.81a33.09,33.09,0,0,1-3.38.09q-.57,0-.57-.42v-2.6A34.08,34.08,0,0,1,294,302c2.11-2.55,3.16-4,3.16-4.21s-1.05-1.63-3.16-4.17-3.17-3.93-3.17-4.19v-2.54q0-.48.57-.48c.4,0,1,0,1.79.1s1.39.09,1.78.09a.77.77,0,0,1,.6.33q1.39,2.17,4.28,6.38a5,5,0,0,0,.62.79c.05,0,.22-.21.53-.62.92-1.25,2.43-3.47,4.54-6.64a.68.68,0,0,1,.55-.33c.4,0,1,0,1.76-.05s1.36-.05,1.74-.05.6.16.6.48v2.5q0,.42-3.18,4.23t-3.18,4.19a35.66,35.66,0,0,0,3.18,4.08q3.18,3.82,3.18,4.26Z" transform="translate(-200 -200)"/><path class="cls-25" d="M290.34,278.6q0,.28-.42.33c-.78.09-1.55.13-2.31.22a3.2,3.2,0,0,0-2.07,1c-.78.84-1.17,3-1.17,6.4.52,0,1.35,0,2.47.05s2,.05,2.55.05c.38,0,.57.14.57.43,0,.44,0,1.11.05,2s.05,1.53.05,2-.16.45-.48.45c-.55,0-1.39,0-2.52-.08s-2-.08-2.5-.08v7.11c0,1.12,0,2.8.12,5.05s.12,3.94.12,5.05c0,.43-.16.64-.48.64H280c-.41,0-.61-.24-.61-.74V292c0-.42-.49-.63-1.46-.61a4.43,4.43,0,0,1-1.66-.12,2.5,2.5,0,0,1-.07-.88c0-.35,0-.87-.05-1.56s-.05-1.21-.05-1.56,1-.56,3-.67c0-1-.07-1.84-.07-2.48,0-2.81.51-4.86,1.5-6.16a8.67,8.67,0,0,1,3.91-2.76,12.85,12.85,0,0,1,4.78-.91.36.36,0,0,1,.34.26s.15.7.41,2S290.34,278.55,290.34,278.6Z" transform="translate(-200 -200)"/><path class="cls-25" d="M310.25,308.69c0,.23-.17.38-.5.46a4.06,4.06,0,0,1-1,0l-.86-.05c-1.26,0-2-.14-2.26-.43q-1.46-2.16-4.43-6.35a3.81,3.81,0,0,0-.64-.76,21.75,21.75,0,0,0-2.67,3.64q-2.5,3.7-3,3.81a32.94,32.94,0,0,1-3.38.09c-.38,0-.57-.14-.57-.43V306.1a33.15,33.15,0,0,1,3.17-4.1c2.11-2.55,3.17-4,3.17-4.21s-1.06-1.63-3.17-4.17-3.17-3.93-3.17-4.19v-2.54q0-.48.57-.48c.4,0,1,0,1.79.09s1.39.1,1.79.1a.74.74,0,0,1,.59.33c.94,1.45,2.37,3.57,4.29,6.38a4.41,4.41,0,0,0,.62.79,2.74,2.74,0,0,0,.52-.62c.92-1.25,2.44-3.47,4.55-6.64a.67.67,0,0,1,.54-.34c.4,0,1,0,1.77,0s1.35,0,1.73,0,.6.16.6.48v2.5q0,.42-3.18,4.23t-3.18,4.19a35.15,35.15,0,0,0,3.18,4.07q3.18,3.84,3.18,4.27Z" transform="translate(-200 -200)"/><path class="cls-26" d="M290.45,278.64c0,.19-.14.3-.43.33-.78.09-1.55.13-2.31.22a3.2,3.2,0,0,0-2.07.95c-.78.84-1.17,3-1.17,6.4.53,0,1.35,0,2.48,0s2,.05,2.55.05c.38,0,.57.14.57.43s0,1.1,0,2,.05,1.53.05,2-.16.45-.47.45c-.56,0-1.4,0-2.53-.08s-2-.08-2.5-.08v7.11c0,1.12,0,2.8.12,5.05s.12,3.94.12,5c0,.43-.16.64-.48.64h-4.35c-.42,0-.62-.24-.62-.74V292c0-.42-.49-.63-1.45-.62a4.36,4.36,0,0,1-1.67-.11,2.53,2.53,0,0,1-.07-.89c0-.34,0-.86-.05-1.55s0-1.21,0-1.56,1-.56,3-.67c-.05-1-.08-1.84-.08-2.48,0-2.81.51-4.86,1.5-6.16a8.87,8.87,0,0,1,3.91-2.77,13.06,13.06,0,0,1,4.79-.9.35.35,0,0,1,.33.26s.15.7.42,2S290.45,278.59,290.45,278.64Z" transform="translate(-200 -200)"/><path class="cls-26" d="M310.35,308.73c0,.23-.16.38-.5.46a4.06,4.06,0,0,1-1,0l-.86,0c-1.25,0-2-.14-2.26-.43-1-1.44-2.44-3.56-4.43-6.35a3.7,3.7,0,0,0-.64-.77,23.71,23.71,0,0,0-2.67,3.65q-2.49,3.71-3,3.81a33.23,33.23,0,0,1-3.38.09c-.38,0-.57-.14-.57-.43v-2.59a32.33,32.33,0,0,1,3.16-4.1c2.11-2.55,3.17-4,3.17-4.21s-1.06-1.63-3.17-4.17-3.16-3.93-3.16-4.19v-2.55c0-.31.19-.47.57-.47s1,0,1.78.09,1.39.1,1.79.1a.74.74,0,0,1,.59.33c.94,1.45,2.37,3.57,4.29,6.38a5,5,0,0,0,.62.79c.05,0,.22-.21.52-.62.92-1.25,2.44-3.47,4.55-6.64a.69.69,0,0,1,.55-.34c.39,0,1,0,1.76,0s1.36-.05,1.74-.05.59.16.59.47v2.5q0,.43-3.18,4.24T304,297.85a35.62,35.62,0,0,0,3.17,4.07q3.18,3.84,3.18,4.27Z" transform="translate(-200 -200)"/><path class="cls-26" d="M290.55,278.68c0,.19-.14.3-.43.33-.77.09-1.55.13-2.31.22a3.22,3.22,0,0,0-2.07.95c-.78.84-1.16,3-1.16,6.4.52,0,1.34,0,2.47.05s2,.05,2.55.05c.38,0,.57.14.57.43s0,1.1.05,2,0,1.53,0,2-.16.45-.48.45c-.56,0-1.4,0-2.52-.08s-2-.08-2.5-.08v7.11c0,1.11,0,2.8.11,5.05s.12,3.94.12,5.05c0,.43-.16.64-.47.64h-4.36c-.41,0-.62-.24-.62-.74V292.08c0-.43-.48-.63-1.45-.62a4.39,4.39,0,0,1-1.67-.11,2.53,2.53,0,0,1-.07-.89c0-.35,0-.86-.05-1.56s0-1.21,0-1.55,1-.56,3-.67c-.05-1-.07-1.84-.07-2.48q0-4.21,1.5-6.16a8.7,8.7,0,0,1,3.9-2.77,13.09,13.09,0,0,1,4.79-.9.34.34,0,0,1,.33.26s.16.7.42,2S290.55,278.63,290.55,278.68Z" transform="translate(-200 -200)"/><path class="cls-26" d="M310.45,308.77c0,.23-.16.38-.5.45a3.53,3.53,0,0,1-1,0l-.86-.05c-1.25,0-2-.14-2.26-.43-1-1.44-2.44-3.56-4.43-6.35a3.7,3.7,0,0,0-.64-.77,23.35,23.35,0,0,0-2.66,3.65q-2.5,3.7-3,3.81a33.09,33.09,0,0,1-3.38.09c-.38,0-.57-.14-.57-.43v-2.59a31.94,31.94,0,0,1,3.17-4.1c2.11-2.55,3.16-4,3.16-4.21s-1.05-1.63-3.16-4.17-3.17-3.93-3.17-4.19V287c0-.31.19-.47.57-.47s1,0,1.79.09,1.38.1,1.78.1a.77.77,0,0,1,.6.33c.93,1.45,2.36,3.57,4.28,6.38a5,5,0,0,0,.62.79c.05,0,.22-.21.52-.62.93-1.26,2.44-3.47,4.55-6.64a.67.67,0,0,1,.55-.34c.4,0,1,0,1.76,0s1.36-.05,1.74-.05.59.16.59.47v2.5c0,.29-1.05,1.7-3.17,4.24s-3.18,3.94-3.18,4.19a35.15,35.15,0,0,0,3.18,4.07c2.12,2.56,3.17,4,3.17,4.26Z" transform="translate(-200 -200)"/><path class="cls-27" d="M290.65,278.72c0,.19-.14.3-.43.33-.77.08-1.54.13-2.3.22a3.25,3.25,0,0,0-2.08,1q-1.15,1.26-1.16,6.4c.52,0,1.35,0,2.47.05s2,.05,2.55.05c.38,0,.57.14.57.43,0,.44,0,1.1.05,2s.05,1.54.05,2-.16.45-.48.45c-.55,0-1.39,0-2.52-.08s-2-.09-2.5-.09v7.12c0,1.11,0,2.8.12,5.05s.12,3.94.12,5.05c0,.43-.16.64-.48.64h-4.36c-.41,0-.62-.25-.62-.74V292.12c0-.43-.48-.63-1.45-.62s-1.6,0-1.66-.12a2.28,2.28,0,0,1-.08-.88c0-.35,0-.87,0-1.56s-.05-1.21-.05-1.56,1-.55,3-.66c0-1-.07-1.84-.07-2.48,0-2.81.51-4.86,1.5-6.17a8.74,8.74,0,0,1,3.91-2.76,13,13,0,0,1,4.78-.9.34.34,0,0,1,.33.26s.16.7.42,2S290.65,278.67,290.65,278.72Z" transform="translate(-200 -200)"/><path class="cls-27" d="M310.56,308.81c0,.22-.17.38-.5.45a3.62,3.62,0,0,1-1,0l-.85-.05c-1.26,0-2-.14-2.26-.43q-1.46-2.16-4.43-6.35a3.54,3.54,0,0,0-.65-.77,23.35,23.35,0,0,0-2.66,3.65q-2.51,3.71-3,3.8a28.94,28.94,0,0,1-3.38.1c-.38,0-.57-.14-.57-.43v-2.59a33.15,33.15,0,0,1,3.17-4.1c2.11-2.55,3.16-4,3.16-4.21s-1-1.63-3.16-4.17-3.17-3.93-3.17-4.19V287c0-.31.19-.47.57-.47s1,0,1.79.09,1.39.1,1.78.1a.76.76,0,0,1,.6.33c.94,1.45,2.36,3.57,4.28,6.38a5.91,5.91,0,0,0,.62.79c.05,0,.23-.21.53-.62.92-1.26,2.43-3.47,4.55-6.64a.65.65,0,0,1,.54-.34c.4,0,1,0,1.76-.05s1.36,0,1.74,0,.6.16.6.47v2.5q0,.44-3.18,4.24t-3.18,4.19a35.15,35.15,0,0,0,3.18,4.07q3.18,3.84,3.18,4.26Z" transform="translate(-200 -200)"/><path class="cls-28" d="M290.76,278.76c0,.19-.15.3-.43.33-.78.08-1.55.13-2.31.21a3.25,3.25,0,0,0-2.07,1q-1.17,1.26-1.17,6.4c.52,0,1.35,0,2.48,0s2,.05,2.54.05c.39,0,.58.14.58.43s0,1.1,0,2,.05,1.54.05,2-.16.45-.48.45c-.55,0-1.39,0-2.52-.08s-2-.09-2.5-.09v7.12c0,1.11,0,2.8.12,5s.12,3.94.12,5.05c0,.43-.16.64-.48.64h-4.35c-.42,0-.62-.25-.62-.74V292.16c0-.43-.49-.63-1.46-.62s-1.6,0-1.66-.12a2.41,2.41,0,0,1-.07-.88c0-.35,0-.87-.05-1.56s0-1.21,0-1.56,1-.55,3-.66c0-1-.07-1.84-.07-2.48,0-2.81.51-4.86,1.5-6.17a8.8,8.8,0,0,1,3.91-2.76,13,13,0,0,1,4.78-.9.34.34,0,0,1,.34.26s.15.7.41,2S290.76,278.71,290.76,278.76Z" transform="translate(-200 -200)"/><path class="cls-28" d="M310.66,308.85c0,.22-.16.38-.5.45a4,4,0,0,1-1,0l-.86-.05c-1.25,0-2-.14-2.26-.43q-1.45-2.16-4.43-6.36a4.23,4.23,0,0,0-.64-.76,22.18,22.18,0,0,0-2.67,3.65c-1.67,2.47-2.67,3.74-3,3.8a29.06,29.06,0,0,1-3.38.1c-.39,0-.58-.14-.58-.43v-2.59a33.15,33.15,0,0,1,3.17-4.1c2.11-2.55,3.17-4,3.17-4.21s-1.06-1.63-3.17-4.17-3.17-3.94-3.17-4.19V287c0-.31.19-.47.58-.47s1,0,1.78.09,1.39.1,1.79.1a.74.74,0,0,1,.59.33q1.41,2.16,4.29,6.38a5,5,0,0,0,.62.79,2.74,2.74,0,0,0,.52-.62c.92-1.26,2.44-3.47,4.55-6.65a.68.68,0,0,1,.55-.33c.39,0,1,0,1.76-.05s1.36,0,1.74,0,.59.16.59.47v2.5q0,.43-3.18,4.24T304.3,298a35.15,35.15,0,0,0,3.18,4.07q3.18,3.84,3.18,4.26Z" transform="translate(-200 -200)"/><path class="cls-29" d="M290.86,278.8c0,.19-.14.3-.43.33-.78.08-1.55.13-2.31.21a3.23,3.23,0,0,0-2.07,1q-1.17,1.26-1.17,6.4c.53,0,1.35,0,2.48.05s2,.05,2.55.05q.57,0,.57.42c0,.45,0,1.11,0,2s0,1.54,0,2-.15.45-.47.45c-.56,0-1.4,0-2.53-.08s-2-.09-2.5-.09v7.12c0,1.11,0,2.79.12,5.05s.12,3.94.12,5.05c0,.43-.16.64-.47.64h-4.36c-.41,0-.62-.25-.62-.74V292.2c0-.43-.48-.63-1.45-.62s-1.61,0-1.67-.12a2.46,2.46,0,0,1-.07-.88c0-.35,0-.87-.05-1.56s-.05-1.21-.05-1.56,1-.55,3-.66c-.05-1-.07-1.85-.07-2.48,0-2.81.5-4.86,1.5-6.17a8.76,8.76,0,0,1,3.9-2.76,13.09,13.09,0,0,1,4.79-.9.33.33,0,0,1,.33.26s.16.7.42,2S290.86,278.75,290.86,278.8Z" transform="translate(-200 -200)"/><path class="cls-29" d="M310.76,308.89c0,.22-.16.38-.5.45a4.44,4.44,0,0,1-1,0l-.86-.05c-1.25,0-2-.14-2.26-.43-1-1.44-2.44-3.56-4.43-6.36a3.79,3.79,0,0,0-.64-.76,23.88,23.88,0,0,0-2.67,3.64q-2.49,3.72-3,3.81a29.06,29.06,0,0,1-3.38.1c-.38,0-.57-.14-.57-.43V306.3a32.33,32.33,0,0,1,3.16-4.1c2.11-2.55,3.17-4,3.17-4.21s-1.06-1.63-3.17-4.17-3.16-3.94-3.16-4.19v-2.55c0-.32.19-.47.57-.47s1,0,1.78.09,1.39.1,1.79.1a.77.77,0,0,1,.6.33q1.39,2.16,4.28,6.38a5.77,5.77,0,0,0,.62.79c.05,0,.22-.21.52-.62.92-1.26,2.44-3.47,4.55-6.65a.68.68,0,0,1,.55-.33c.4,0,1,0,1.76-.05s1.36,0,1.74,0,.59.15.59.47v2.5q0,.44-3.17,4.24T304.41,298a35.15,35.15,0,0,0,3.18,4.07q3.17,3.84,3.17,4.26Z" transform="translate(-200 -200)"/><path class="cls-29" d="M291,278.83c0,.2-.14.31-.43.34-.77.08-1.55.13-2.3.21a3.3,3.3,0,0,0-2.08.95c-.77.85-1.16,3-1.16,6.41.52,0,1.35,0,2.47.05s2,0,2.55,0c.38,0,.57.15.57.43,0,.45,0,1.11.05,2s.05,1.54.05,2-.16.45-.48.45c-.55,0-1.4,0-2.52-.09s-2-.08-2.5-.08v7.12c0,1.11,0,2.79.12,5.05s.12,3.93.12,5.05c0,.42-.16.64-.48.64h-4.36c-.41,0-.62-.25-.62-.74V292.24c0-.43-.48-.63-1.45-.62a4,4,0,0,1-1.67-.12,2.76,2.76,0,0,1-.07-.88c0-.35,0-.87,0-1.56s-.05-1.21-.05-1.56,1-.55,3-.67c-.05-1-.07-1.84-.07-2.47,0-2.81.5-4.86,1.5-6.17a8.76,8.76,0,0,1,3.9-2.76,13.09,13.09,0,0,1,4.79-.9.33.33,0,0,1,.33.26s.16.7.42,2S291,278.79,291,278.83Z" transform="translate(-200 -200)"/><path class="cls-29" d="M310.87,308.93c0,.22-.17.38-.5.45a4.56,4.56,0,0,1-1,0l-.85-.05c-1.26,0-2-.14-2.27-.43-1-1.44-2.44-3.56-4.42-6.36a4,4,0,0,0-.65-.76,23.51,23.51,0,0,0-2.66,3.64q-2.5,3.72-3,3.81a28.94,28.94,0,0,1-3.38.1c-.38,0-.57-.14-.57-.43v-2.6a33.61,33.61,0,0,1,3.17-4.09q3.17-3.84,3.16-4.21t-3.16-4.17q-3.17-3.81-3.17-4.19v-2.55q0-.48.57-.48c.4,0,1,0,1.79.1s1.39.09,1.78.09a.77.77,0,0,1,.6.34c.94,1.44,2.36,3.57,4.28,6.38a5.21,5.21,0,0,0,.62.78c.05,0,.23-.2.53-.61.92-1.26,2.43-3.47,4.54-6.65a.69.69,0,0,1,.55-.33c.4,0,1,0,1.76-.05s1.36-.05,1.74-.05.6.16.6.48v2.5q0,.44-3.18,4.24t-3.18,4.19a35.15,35.15,0,0,0,3.18,4.07q3.18,3.84,3.18,4.26Z" transform="translate(-200 -200)"/><text class="cls-30" transform="translate(76.35 109.4)">fx</text></g></svg>