<svg xmlns="http://www.w3.org/2000/svg" viewBox="0 0 1329.51 824.55"><defs><style>.cls-1{fill:#f2f2f2;}.cls-18,.cls-19,.cls-2,.cls-21,.cls-22,.cls-30,.cls-49{fill:#fff;}.cls-3{fill:#e8e8e8;}.cls-4{fill:#f99a9a;}.cls-26,.cls-5{opacity:0.15;}.cls-11,.cls-13,.cls-14,.cls-18,.cls-19,.cls-21,.cls-22,.cls-27,.cls-30,.cls-5,.cls-8{isolation:isolate;}.cls-6{fill:#21252b;}.cls-7{opacity:0.45;}.cls-31,.cls-8{opacity:0.3;}.cls-9{fill:#3f4249;}.cls-10{fill:#242830;}.cls-11,.cls-21{opacity:0.5;}.cls-12{fill:#3b3b3b;}.cls-13,.cls-30{opacity:0.2;}.cls-14{opacity:0.8;}.cls-15{fill:none;stroke:#fff;stroke-linecap:round;stroke-linejoin:round;stroke-width:23px;}.cls-16{fill:#b0b4b9;}.cls-17{fill:#84888f;}.cls-18{opacity:0.9;}.cls-19,.cls-49{fill-rule:evenodd;}.cls-19,.cls-22{opacity:0.7;}.cls-20{fill:#d8dbdd;}.cls-23{fill:#ffd16e;}.cls-24{fill:#f69797;}.cls-25{fill:#fa9b9b;}.cls-27,.cls-28{opacity:0.6;}.cls-29{fill:#fb9c9c;}.cls-32{fill:#22548b;}.cls-33{fill:#23568f;}.cls-34{fill:#245992;}.cls-35{fill:#255b96;}.cls-36{fill:#265d9a;}.cls-37{fill:#275f9d;}.cls-38{fill:#2862a1;}.cls-39{fill:#2964a5;}.cls-40{fill:#2a66a9;}.cls-41{fill:#2a68ac;}.cls-42{fill:#2b6bb0;}.cls-43{fill:#2c6db4;}.cls-44{fill:#2d6fb7;}.cls-45{fill:#2e71bb;}.cls-46{fill:#2f74bf;}.cls-47{fill:#3076c2;}.cls-48{fill:#3178c6;}</style></defs><title>ts_support</title><g id="Layer_2" data-name="Layer 2"><g id="Layer_1-2" data-name="Layer 1"><path class="cls-1" d="M1261.08,824.1H74.8L.78,367.35a60.57,60.57,0,0,1,11.85-46.71L224.17,46.78A60.55,60.55,0,0,1,270.3,23.27L1051.51,0a60.56,60.56,0,0,1,57,35.55l215.63,476.05a60.56,60.56,0,0,1,3.67,39.35Z"/><path class="cls-2" d="M1216.64,504.89H719.33V768.55h497.31Z"/><path class="cls-1" d="M1204.59,756.48V516.94H731.4V756.48Z"/><path class="cls-1" d="M1203.91,756.48V516.94H731.4V756.48Z"/><path class="cls-3" d="M1246.66,768.55V504.89h-30V768.55Z"/><path class="cls-2" d="M1204.59,643.15V630.29H731.4v12.86Z"/><path class="cls-3" d="M839.59,525.71H814.4V630.29h25.19Z"/><path class="cls-2" d="M839.59,630.29h67.33V525.71H839.59Z"/><path class="cls-3" d="M862,537.67H847.76v92.61H862V537.67Z"/><path class="cls-2" d="M862,630.29h37.93V537.68H862v92.61Z"/><path class="cls-3" d="M905.12,630.29h-21L872,543h21Z"/><path class="cls-2" d="M905.12,630.29h56.19L949.19,543H893Z"/><path class="cls-3" d="M820.63,756.49h-21l-12.12-87.27h21Z"/><path class="cls-2" d="M820.63,756.49h56.19L864.7,669.22H808.51Z"/><path class="cls-2" d="M1122.5,756.5V729.37H993.38V756.5Z"/><path class="cls-2" d="M1084.45,708.21V686.28H993.38v21.93Z"/><path class="cls-2" d="M1106,729.36V708.21H993.39v21.15Z"/><path class="cls-3" d="M1099.88,545.56h-20.41v84.73h20.41Z"/><path class="cls-2" d="M1099.88,630.29h54.55V545.56h-54.55Z"/><path class="cls-3" d="M1145,555.25H1125.4v75H1145Z"/><path class="cls-2" d="M1145,630.29h33.5v-75H1145Z"/><path class="cls-3" d="M1084.45,704.56H993.38v3.66h91.07Z"/><path class="cls-3" d="M1106,725.71H993.38v3.66H1106Z"/><path class="cls-3" d="M1122.5,752.84H993.38v3.66H1122.5v-3.66Z"/><path class="cls-2" d="M1239.48,768.55l4.63,51.39a3,3,0,0,1-5.79,1.6l-13.45-53Z"/><path class="cls-3" d="M1237.78,798.47l-5.61-1.34-7.21-28.5h14.61L1244.2,820a3.09,3.09,0,0,1-1.78,3.38Z"/><path class="cls-2" d="M1187,768.55l4.63,51.39a3,3,0,0,1-5.79,1.6l-13.45-53Z"/><path class="cls-3" d="M1182.12,774.25l-8.37-1.6-1.43-4.1h14.61l4.63,51.39a3.09,3.09,0,0,1-1.78,3.38Z"/><path class="cls-2" d="M798,768.55l-4.63,51.39a3,3,0,0,0,5.79,1.6l13.45-53Z"/><path class="cls-3" d="M800.57,795.89l-5-1.25,2.4-26.1h14.61l-13.45,53a3,3,0,0,1-2.85,2.05h-.18Z"/><path class="cls-2" d="M744.1,768.55l-4.63,51.39a3,3,0,0,0,5.79,1.6l13.45-53Z"/><path class="cls-3" d="M749.8,773l-6.41-1.16.71-3.3h14.61l-13.45,53a3,3,0,0,1-2.85,2.05h-.18Z"/><path class="cls-4" d="M484.37,363.75l25.05-75.9-42-6.27-22.25,76.53,2,6.25C452.91,382.83,479.19,382.39,484.37,363.75Z"/><path class="cls-4" d="M426.06,276.17,396.83,234a2.64,2.64,0,0,1,.83-3.32l.11-.08a2.47,2.47,0,0,1,3.77.72c2.95,4.12,10.52,13.17,10.52,13.17s-9.18-14.25-11.64-19.36a2.64,2.64,0,0,1,.68-3.16h0a2.65,2.65,0,0,1,4,.71c3.32,5.83,11.19,17.28,11.19,17.28-5.4-10.92-9.54-17.08-10.65-20.23a2.66,2.66,0,0,1,4.84-2.14l10.25,18.86,3.6-8.25,15.4,3.37a2.61,2.61,0,0,1-.9,5.12l-8.78-.87-1.17,7.87a2.81,2.81,0,0,0,.3,1.73s4.25,4.69,7,5c1.51,0,2-1.19,2-2.7v-1.61c-.21-11.92,7.32-9.2,7.32-9.2l.74,12.82s4.55,10-.55,16.66l37,70a22.51,22.51,0,0,1-31.05,30.07,13.71,13.71,0,0,1-6.52-8.77l-14.82-63Z"/><path class="cls-5" d="M422.11,238.79l-1.35-2.4,3.6-8.24Z"/><path class="cls-5" d="M417.64,238.59l-1.32,1.31L406,220.44a3.07,3.07,0,0,1-.22-2.7l.19-.36Z"/><path class="cls-5" d="M412.07,244.44s-9.26-14.57-11.79-19.75a2.82,2.82,0,0,1,.06-1.69l13.06,20.11Z"/><path class="cls-5" d="M441.57,237.13a4.47,4.47,0,0,0-2.11,2.2c-2,3.57-.56,9-1.73,10.36s-2.91.22-3.47-.07a23.64,23.64,0,0,1-4-3.19l4,4.28a3.29,3.29,0,0,0,5.32-.69l0,0c.59-1.18-.38-5.09-.28-6.11S439.37,239.42,441.57,237.13Z"/><path class="cls-5" d="M482.63,339.85,462.52,298l3.41-11.34L484.59,339a1.06,1.06,0,0,1-2,.81Z"/><path class="cls-4" d="M758.81,381.91l-92.92-29.42a17.66,17.66,0,0,1-9.38-7.47l-27.2-44.76,39.92-14.43,21.33,46.68,72.49,34.84"/><path class="cls-5" d="M748.53,384.19l2.36-5.74c-14.8-5.19-60.55-26.44-78-33.35a22.49,22.49,0,0,1-11.33-9.87l-21.92-38.17-7.52,7.74,22.41,37.93a22.52,22.52,0,0,0,11.95,9.71Z"/><path class="cls-4" d="M590.56,176.76,590.27,216a4.48,4.48,0,0,1-.86,2.67l.57,1.49c-9.53,14.21-30.13,16.15-43.29,5.28A5,5,0,0,1,545,220.9l7.15-47.29Z"/><path class="cls-4" d="M547.94,157.31s-7.82,51.68,20.69,53.77c27.84,2.1,28.7-50.15,28.7-50.15l.76-15-35.85-6.29-9.06,4.67Z"/><path class="cls-5" d="M547.27,206.8l2.1-14.21c2.57,9.15,7.91,16.78,17.26,18.31h-.1l2,.29c7.44.57,13.63-2.86,18.31-10.2a.62.62,0,1,1,1,.67c-5,7.82-11.54,11.44-19.45,10.87a20.43,20.43,0,0,1-4.86-.95A22.85,22.85,0,0,1,547.27,206.8Z"/><path class="cls-6" d="M554.71,145.77s-9.06-6-13.35,4.29c-3.62,8.68,2.48,18.12,2.48,18.12l5.24-.57c2.19-.1,3.72-1.14,3.91-3.24Z"/><path class="cls-6" d="M548.22,139.48c-.76,9.82,7.63,12.39,11.06,12.68l28.13,2.38a4.31,4.31,0,0,1,3.91,4.48l-.48,9a2.31,2.31,0,0,0,2,2.48l1.72.19,1.91,2.38c11.06-2.67,15.64-34-4.67-40.33a8.65,8.65,0,0,1-5-4.29c-3-6.1-15.06-7.72-21.17-.86a5.91,5.91,0,0,1-4.86,2.1C553.37,129.47,548.6,134.05,548.22,139.48Z"/><path class="cls-4" d="M594.47,173.71a4.64,4.64,0,0,1,7.53-3.15l.1.1c4.86,4.2,1.72,17.35-9,16.21Z"/><path class="cls-4" d="M541.36,166.75l.1-.1a4.63,4.63,0,0,1,7,4.2l-.58,12.59C537.07,183.05,536,170.18,541.36,166.75Z"/><path class="cls-6" d="M593.13,175.33a1.25,1.25,0,0,0,1.14,1.33,1.29,1.29,0,0,0,1.43-.95l1.24-8.49-3.53.1Z"/><path class="cls-6" d="M546.22,171.9a1.25,1.25,0,0,0,1.14,1.33,1.29,1.29,0,0,0,1.43-.95l1.24-8.49-3.53.1Z"/><path class="cls-4" d="M559.09,153.4a5.76,5.76,0,0,0,1.43,0,.62.62,0,0,0-.1-1.24c-.1,0-5.72.29-8.1-3.43a.62.62,0,0,0-1.05.67C553.37,152.54,557.09,153.31,559.09,153.4Z"/><path class="cls-6" d="M580.26,181.05a2.48,2.48,0,1,0-2.48-2.48A2.48,2.48,0,0,0,580.26,181.05Z"/><path class="cls-2" d="M581.4,178.86a.57.57,0,0,0,0-1.14.58.58,0,0,0-.57.57A.56.56,0,0,0,581.4,178.86Z"/><path class="cls-6" d="M561.19,179.62a2.48,2.48,0,1,0-2.48-2.48A2.48,2.48,0,0,0,561.19,179.62Z"/><path class="cls-2" d="M562.33,177.52a.57.57,0,0,0,.57-.57.57.57,0,0,0-1.14,0A.56.56,0,0,0,562.33,177.52Z"/><g class="cls-7"><path class="cls-8" d="M569.48,190.3l-2-.19a.72.72,0,0,1,.09-1.43l2,.19a1.53,1.53,0,0,0,.19-3.05.72.72,0,0,1,.09-1.43,2.85,2.85,0,0,1,2.67,3.15A2.75,2.75,0,0,1,569.48,190.3Z"/></g><path class="cls-6" d="M550.51,174.09l-.19,2.76a9.69,9.69,0,1,0,19.35,1.05l.19-2.76a3.41,3.41,0,0,0-.57-2.19l3.72.19a3.4,3.4,0,0,0-.86,2.1L572,178a9.69,9.69,0,1,0,19.35,1.05l.19-2.76a3.54,3.54,0,0,0-3.34-3.81l-12.11-.67H576l-9.44-.57-1.43-.1-10.77-.57A3.57,3.57,0,0,0,550.51,174.09Zm25.27-.86h.1l12.11.67a2.2,2.2,0,0,1,2,2.29L589.8,179a8.21,8.21,0,0,1-16.4-1l.19-2.76A2,2,0,0,1,575.78,173.23Zm-23.93.77a2.2,2.2,0,0,1,2.29-2l10.77.57,1.43.1a2.2,2.2,0,0,1,2,2.29l-.19,2.76a8.21,8.21,0,0,1-16.4-1Z"/><g class="cls-7"><path class="cls-8" d="M597.13,180.58a.81.81,0,0,0,.76-.67l.19-1.53a5.26,5.26,0,0,1,1.33-3.34,1.5,1.5,0,0,1,1.14-.38.73.73,0,0,0,.29-1.43,3.4,3.4,0,0,0-2.29.57,5.86,5.86,0,0,0-1.91,4.29l-.19,1.53A1,1,0,0,0,597.13,180.58Z"/></g><g class="cls-7"><path class="cls-8" d="M544.7,176.67a.74.74,0,0,1-.67-.76v-1.53a4.35,4.35,0,0,0-.86-3.43,1.49,1.49,0,0,0-1.14-.57.72.72,0,1,1-.09-1.43,2.94,2.94,0,0,1,2.1,1c1,.95,1.33,2.48,1.24,4.58V176C545.46,176.38,545.17,176.67,544.7,176.67Z"/></g><g class="cls-7"><path class="cls-8" d="M564.82,198.18c0,.08.06.11,0,0l3.19,1.33a.79.79,0,0,0,1-.44.74.74,0,0,0-.44-1l-3.1-1.3a.73.73,0,0,0-1,.35C564.33,197.64,564.47,198.07,564.82,198.18Z"/></g><g class="cls-7"><path class="cls-8" d="M564.62,194.68c5.58,2.77,9.29.46,10.74-.78a.73.73,0,0,0-1-1.08c-1.37,1.27-5.39,3.67-11.7-1a.72.72,0,1,0-.85,1.15A16.89,16.89,0,0,0,564.62,194.68Z"/></g><path class="cls-9" d="M624.41,428.4,613.8,774.31H581.86L564,478.74a6.49,6.49,0,0,0-13,.1L534.86,774.3H502.92L493.1,432Z"/><path class="cls-4" d="M610.47,794.33l.86-27.84H584.25l1.24,28.69Z"/><path class="cls-5" d="M584.54,774.3l.86,20.88,6.48-.19-.19-12.3a4.3,4.3,0,0,1,3.24-4.2l16.21-4.2Z"/><path class="cls-4" d="M506.54,794.33l-.85-27.84h27.17l-1.24,28.69Z"/><path class="cls-10" d="M585.49,819.5V795.19a13.39,13.39,0,0,1,13.35-13.35h.57A12.57,12.57,0,0,1,611.8,792a20.36,20.36,0,0,0,4.58,9.44l3.81,4.48a21.15,21.15,0,0,1,5,13.63Z"/><path class="cls-2" d="M608.47,794.8a.54.54,0,0,0,.48-.29c.1-.29.1-.57-.19-.67a14.87,14.87,0,0,0-14.68,0c-.19.19-.29.48-.1.67s.48.29.67.1a13.8,13.8,0,0,1,13.63,0C608.28,794.8,608.37,794.8,608.47,794.8Z"/><path class="cls-2" d="M610.09,798.24a.54.54,0,0,0,.48-.29c.1-.29.1-.57-.19-.67a14.87,14.87,0,0,0-14.68,0c-.19.19-.29.48-.1.67s.48.29.67.1a13.8,13.8,0,0,1,13.63,0C609.9,798.24,610,798.24,610.09,798.24Z"/><path class="cls-2" d="M611.8,801.86a.54.54,0,0,0,.48-.29c.1-.29.1-.57-.19-.67a14.87,14.87,0,0,0-14.68,0c-.19.19-.29.48-.1.67s.48.29.67.1a13.8,13.8,0,0,1,13.63,0C611.71,801.86,611.8,801.86,611.8,801.86Z"/><path class="cls-11" d="M623.53,824.55H587.2a1.71,1.71,0,0,1-1.72-1.72v-3.24h39.76v3.24A1.69,1.69,0,0,1,623.53,824.55Z"/><path class="cls-12" d="M614.47,774.3l.29-11.06H580.44l.66,11.06Z"/><path class="cls-6" d="M580.44,763.24l.66,11.06h33.37l.29-11.06Z"/><path class="cls-5" d="M557.55,472.63a6.48,6.48,0,0,1,6.48,6.1l17.16,284.51h10.2l-4.1-271.73a19.17,19.17,0,0,0-19.16-18.88Z"/><path class="cls-13" d="M581.1,774.3l-.66-11.06h11l.19,11.06Z"/><path class="cls-5" d="M506,774.3l.57,20,11.35.38-.19-13.54a3,3,0,0,1,2-2.86l12.78-4.1H506Z"/><path class="cls-5" d="M493.18,434.5l9.74,339.8H506l-.28-7.81h11.82l-5-333.12Z"/><path class="cls-10" d="M531.62,819.5V795.19a13.39,13.39,0,0,0-13.35-13.35h-.57A12.57,12.57,0,0,0,505.31,792a20.36,20.36,0,0,1-4.58,9.44l-3.81,4.48a21.15,21.15,0,0,0-5.05,13.63Z"/><path class="cls-2" d="M508.55,794.8a.35.35,0,0,0,.29-.1,13.41,13.41,0,0,1,13.63,0,.48.48,0,1,0,.57-.77,14.67,14.67,0,0,0-14.68,0c-.29.1-.29.48-.19.67A.62.62,0,0,0,508.55,794.8Z"/><path class="cls-2" d="M507,798.24a.35.35,0,0,0,.29-.1,13.41,13.41,0,0,1,13.63,0,.48.48,0,0,0,.57-.77,14.67,14.67,0,0,0-14.68,0c-.29.1-.29.48-.19.67S506.83,798.24,507,798.24Z"/><path class="cls-2" d="M505.21,801.86a.35.35,0,0,0,.29-.1,13.41,13.41,0,0,1,13.63,0,.48.48,0,1,0,.57-.77A14.67,14.67,0,0,0,505,801c-.29.1-.29.48-.19.67A.48.48,0,0,0,505.21,801.86Z"/><path class="cls-9" d="M493.58,824.55h36.33a1.71,1.71,0,0,0,1.72-1.72v-3.24H491.78v3.24A1.77,1.77,0,0,0,493.58,824.55Z"/><path class="cls-11" d="M623.53,824.55H587.2a1.71,1.71,0,0,1-1.72-1.72v-3.24h39.76v3.24A1.69,1.69,0,0,1,623.53,824.55Z"/><path class="cls-14" d="M623.53,824.55H587.2a1.71,1.71,0,0,1-1.72-1.72v-3.24h39.76v3.24A1.69,1.69,0,0,1,623.53,824.55Z"/><path class="cls-14" d="M493.58,824.55h36.33a1.71,1.71,0,0,0,1.72-1.72v-3.24H491.78v3.24A1.77,1.77,0,0,0,493.58,824.55Z"/><path class="cls-6" d="M536.29,763.24l-.67,11.06H502.25l-.19-11.06Z"/><path class="cls-13" d="M517.51,763.24V774.3H502.25l-.19-11.06Z"/><path class="cls-2" d="M590.21,216.77l28.85,7.69c.65.15,1.29.32,1.94.49a52.87,52.87,0,0,1,34.07,29.51l14.16,31.38-36.85,18.81L621.87,289.8"/><path class="cls-12" d="M485.78,359.47l2.17,68a7.19,7.19,0,0,0,6.83,7l127.2-2.2a7.2,7.2,0,0,0,7.53-6.55l-5-140.37,39.87,6.88,19.89-31.55-31.94-22.34a85.32,85.32,0,0,0-27.54-12.68l-34.56-8.92s-6.25,15.36-22.59,14.7c-21.51-.86-21.88-15.6-21.88-15.6l-40.12,6.81a39,39,0,0,0-31.46,29.58l-11.42,45,40.41,11L510.4,285Z"/><path class="cls-13" d="M632.07,304.8l-10.09-15,.84-19.91,18.5,30.2Z"/><path class="cls-15" d="M614.78,332.62l22.45,34.08,80.62-64.93"/><path class="cls-16" d="M976.14,143.61a73.28,73.28,0,0,0-65.22-72.83v-.49h-8.09a73.32,73.32,0,0,0,0,146.64l8.09-.49A73.28,73.28,0,0,0,976.14,143.61Z"/><path class="cls-17" d="M896.92,216.93a73.32,73.32,0,1,0-73.32-73.32A73.32,73.32,0,0,0,896.92,216.93Z"/><path class="cls-2" d="M896.92,208.83a65.22,65.22,0,1,0-65.22-65.22A65.22,65.22,0,0,0,896.92,208.83Z"/><path class="cls-17" d="M896.92,208.83a65.22,65.22,0,1,0-65.22-65.22A65.22,65.22,0,0,0,896.92,208.83Z"/><path class="cls-18" d="M896.92,208.83a65.22,65.22,0,1,0-65.22-65.22A65.22,65.22,0,0,0,896.92,208.83Z"/><path class="cls-16" d="M896.94,78.38a27.72,27.72,0,0,1,3.56.16,65.15,65.15,0,0,0,0,130.12c-1.13,0-2.27.16-3.56.16a65.22,65.22,0,0,1,0-130.44Z"/><path class="cls-12" d="M898.77,148.93l-1.84-48.17a3.37,3.37,0,0,1,6.73-.31l1.53,41.45,27.57-.76a3.4,3.4,0,0,1,.1,6.8Z"/><path class="cls-19" d="M859.8,95.69l94.64,78.67s2.54-5.26,3.25-7c.61-1.5,2-6,2-6L902.66,78.51S881.78,75.78,859.8,95.69Z"/><path class="cls-19" d="M846.43,174.36l66.66,32.45a37.5,37.5,0,0,1-14.94,1.69C883.61,207.51,861.46,200.34,846.43,174.36Z"/><path class="cls-16" d="M180,552.64H111.78a3.45,3.45,0,0,1,0-6.9H180Z"/><path class="cls-16" d="M189.39,549.29H120.61V761.12h68.78Z"/><path class="cls-20" d="M397.67,549.29H187.26V761.12H397.67Z"/><path class="cls-16" d="M197.93,579l189.89-.2V745H197.93Zm188.36,1.53H199.45v163H386.29Z"/><path class="cls-20" d="M405.49,552.64H179.84a3.45,3.45,0,0,1,0-6.9H405.49a3.42,3.42,0,0,1,3.45,3.45A3.55,3.55,0,0,1,405.49,552.64Z"/><path class="cls-16" d="M387.82,660.84H197.93v1.52H387.82Z"/><path class="cls-16" d="M301.05,605.47a5.28,5.28,0,1,0-5.28-5.28A5.27,5.27,0,0,0,301.05,605.47Z"/><path class="cls-5" d="M299.12,600.19a5.28,5.28,0,0,1,3.56-5,4.84,4.84,0,0,0-1.73-.3,5.28,5.28,0,1,0,1.73,10.26A5.28,5.28,0,0,1,299.12,600.19Z"/><path class="cls-16" d="M301.05,687.25a5.28,5.28,0,1,0-5.28-5.28A5.27,5.27,0,0,0,301.05,687.25Z"/><path class="cls-5" d="M299.12,682a5.28,5.28,0,0,1,3.56-5,4.84,4.84,0,0,0-1.73-.3A5.28,5.28,0,1,0,302.68,687,5.28,5.28,0,0,1,299.12,682Z"/><path class="cls-16" d="M176.39,559.75l10.87-7.11H397.67v3.25Z"/><path class="cls-20" d="M134.12,761.12l-5.28,58.62a3.43,3.43,0,0,0,6.6,1.83l15.34-60.45Z"/><path class="cls-16" d="M136.06,795.26l6.4-1.52,8.23-32.51H134l-5.28,58.62a3.55,3.55,0,0,0,2,3.86Z"/><path class="cls-20" d="M194,761.12l-5.28,58.62a3.43,3.43,0,0,0,6.6,1.83l15.34-60.45Z"/><path class="cls-16" d="M199.55,767.62l9.55-1.83,1.63-4.67H194.07l-5.28,58.62a3.55,3.55,0,0,0,2,3.86Z"/><path class="cls-20" d="M325.84,761.12l5.28,58.62a3.43,3.43,0,0,1-6.6,1.83l-15.34-60.45Z"/><path class="cls-16" d="M322.89,792.31l5.69-1.42-2.74-29.77H309.18l15.34,60.45a3.49,3.49,0,0,0,3.25,2.34h.2Z"/><path class="cls-20" d="M387.31,761.12l5.28,58.62a3.43,3.43,0,0,1-6.6,1.83l-15.34-60.45Z"/><path class="cls-16" d="M380.8,766.2l7.32-1.32-.81-3.76H370.65L386,821.57a3.49,3.49,0,0,0,3.25,2.34h.2Z"/><path class="cls-20" d="M252.21,522.17H218.12v23.56h34.09V522.17Z"/><path class="cls-16" d="M252.21,522.17H161.32v23.56h56.8V528.45h34.09v-6.28Z"/><path class="cls-16" d="M295.09,545.73H273.76a5.89,5.89,0,0,1,0-11.78H295.1v11.78Z"/><path class="cls-20" d="M359.31,545.73H295.1V534h64.21a5.89,5.89,0,0,1,0,11.78Z"/><path class="cls-16" d="M317.2,536.84H288.33V534H317.2a1.44,1.44,0,1,1,0,2.88Z"/><path class="cls-16" d="M200.22,90.52H355.69a3.5,3.5,0,0,1,3.5,3.5V451.63a3.5,3.5,0,0,1-3.5,3.5H200.22a3.5,3.5,0,0,1-3.5-3.5V94A3.5,3.5,0,0,1,200.22,90.52Z"/><path class="cls-20" d="M207.27,90.52H362.74a3.5,3.5,0,0,1,3.5,3.5V451.63a3.5,3.5,0,0,1-3.5,3.5H207.27a3.5,3.5,0,0,1-3.5-3.5V94A3.49,3.49,0,0,1,207.27,90.52Z"/><path class="cls-16" d="M238.09,156.24h-6.61V326.07h6.61Z"/><path class="cls-16" d="M352.11,181.39v-6.61H215.17v6.61Z"/><path class="cls-16" d="M275.82,192.64H246.73v29.09h29.09Z"/><path class="cls-16" d="M319.63,229.87H290.54V259h29.09Z"/><path class="cls-16" d="M355.06,196.43H326v29.09h29.09Z"/><path class="cls-16" d="M344.91,273.82H315.82v29.09h29.09Z"/><path class="cls-12" d="M755.05,256.52a21.91,21.91,0,0,1,1.54-8c-23.18-14.82-53-20.65-80.49-20.65s-57.31,5.83-80.49,20.65a21.91,21.91,0,0,1-20.31,30c.54,35.43,4,77.65,21,110,18.36,35,55.1,59.22,79.78,70.38,24.68-11.16,61.42-35.42,79.78-70.38,17-32.39,20.48-74.61,21-110A21.94,21.94,0,0,1,755.05,256.52Z"/><path class="cls-21" d="M755.05,256.52a21.91,21.91,0,0,1,1.54-8c-23.18-14.82-53-20.65-80.49-20.65s-57.31,5.83-80.49,20.65a21.91,21.91,0,0,1-20.31,30c.54,35.43,4,77.65,21,110,18.36,35,55.1,59.22,79.78,70.38,24.68-11.16,61.42-35.42,79.78-70.38,17-32.39,20.48-74.61,21-110A21.94,21.94,0,0,1,755.05,256.52Z"/><path class="cls-12" d="M676.09,440.59c-23.44-11.95-51.1-32.93-65.19-59.76-14-26.6-17.74-61.85-18.8-89.83a38.5,38.5,0,0,0,21.51-33.76c17.16-8.39,38.92-13,62.48-13s45.32,4.55,62.48,13A38.52,38.52,0,0,0,760.08,291c-1.06,28-4.83,63.22-18.8,89.83C727.19,407.66,699.53,428.64,676.09,440.59Z"/><path class="cls-12" d="M676.09,440.59c-23.44-11.95-51.1-32.93-65.19-59.76-14-26.6-17.74-61.85-18.8-89.83a38.5,38.5,0,0,0,21.51-33.76c17.16-8.39,38.92-13,62.48-13s45.32,4.55,62.48,13A38.52,38.52,0,0,0,760.08,291c-1.06,28-4.83,63.22-18.8,89.83C727.19,407.66,699.53,428.64,676.09,440.59Z"/><path class="cls-22" d="M676.09,434.33c-21.94-11.19-47.84-30.83-61-55.95-13.08-24.91-16.61-57.9-17.6-84.09a36,36,0,0,0,20.14-31.61c16.07-7.86,36.44-12.12,58.49-12.12s42.43,4.26,58.49,12.12a36.08,36.08,0,0,0,20.14,31.61c-1,26.19-4.52,59.19-17.6,84.09C723.93,403.5,698,423.14,676.09,434.33Z"/><path class="cls-23" d="M760.09,291v0c-.32-.16-.63-.34-1-.51Z"/><path class="cls-4" d="M771.21,296a3,3,0,0,1,1.83-4.23l11.35-3.12a2.22,2.22,0,0,1,2.68,1.39l1.23,3.46a2.21,2.21,0,0,1-1.89,2.95l-12.33,1.1A2.93,2.93,0,0,1,771.21,296Z"/><path class="cls-4" d="M767.48,308.8a3.54,3.54,0,0,1,3.61-3.58l1.39,0a.51.51,0,0,0,.37.28l7.21,1.18a17.36,17.36,0,0,0,4.64.44l3.17-.41h0a.63.63,0,0,0,.2-.1,2.3,2.3,0,0,1,.28.64l.9,3.42a2.34,2.34,0,0,1-2,2.93l-3.35.33a14.23,14.23,0,0,1-3.63-.11l-9.82-1.57A3.57,3.57,0,0,1,767.48,308.8Z"/><path class="cls-4" d="M787.87,306.74l-3.17.41a17.74,17.74,0,0,1-4.64-.44l-8.25-1.47,6.57.13,1.86.31a16.74,16.74,0,0,0,4.34.43l2.58-.34a2.32,2.32,0,0,1,1,.86.54.54,0,0,1-.2.1Z"/><path class="cls-4" d="M780.25,305.67l-1.86-.31,7.8.16a2.42,2.42,0,0,1,1,.25l-2.58.34A16.83,16.83,0,0,1,780.25,305.67Z"/><path class="cls-4" d="M781.87,315.14l-11.74-1.88a2.33,2.33,0,0,1,1.72-.79L782,314.09l3.25-.29a2.34,2.34,0,0,1,.89,1l-4.11.36Z"/><path class="cls-4" d="M769.55,314.61a2.31,2.31,0,0,1,.58-1.35l11.74,1.88H782l4.11-.36a2.33,2.33,0,0,1,.23,1.26l-.25,2.34a2.34,2.34,0,0,1-3,2l-11.87-3.34A2.34,2.34,0,0,1,769.55,314.61Z"/><path class="cls-5" d="M787.87,306.74l-3.17.41a17.74,17.74,0,0,1-4.64-.44l-8.25-1.47,6.57.13,1.86.31a16.74,16.74,0,0,0,4.34.43l2.58-.34a2.32,2.32,0,0,1,1,.86.54.54,0,0,1-.2.1Z"/><path class="cls-5" d="M781.87,315.14l-11.74-1.88a2.33,2.33,0,0,1,1.72-.79L782,314.09l3.25-.29a2.34,2.34,0,0,1,.89,1l-4.11.36Z"/><path class="cls-4" d="M771.24,297.85a.53.53,0,0,1-.3-.27,3,3,0,0,1,1.41-.41l2.38.42,1.15-.11h.33l10.43-.94a2.35,2.35,0,0,1,1.65.91l-12,1.08A12.1,12.1,0,0,1,771.24,297.85Z"/><path class="cls-4" d="M775.89,297.48l5.49-.5,5-.46h.31l-10.43.94Z"/><path class="cls-4" d="M770.94,297.58a.53.53,0,0,0,.3.27,12.13,12.13,0,0,0,5.07.67l12-1.08a2.25,2.25,0,0,1,.43.91l1,4.46a2.34,2.34,0,0,1-2,2.82L785,306a10.5,10.5,0,0,1-4.1-.25l-7.57-1.24a4.76,4.76,0,0,1-3.72-3.11A3.12,3.12,0,0,1,770.94,297.58Z"/><path class="cls-5" d="M771.24,297.85a.53.53,0,0,1-.3-.27,3,3,0,0,1,1.41-.41l2.38.42,1.15-.11h.33l10.43-.94a2.35,2.35,0,0,1,1.65.91l-12,1.08A12.1,12.1,0,0,1,771.24,297.85Z"/><path class="cls-16" d="M1014.93,607.11H991.5l32.39,216.4H1037Z"/><path class="cls-17" d="M1037,823.51h-9.37l-21.43-176.34-8.7.08-.77-5.15,5.72-24.8a5.3,5.3,0,0,0-4.8-4.63l-5.48-.51-.69-5h23.42Z"/><path class="cls-16" d="M1103.27,607.11h-23.42L1110,823.51h13.14Z"/><path class="cls-16" d="M883.78,823.51h13.45l30.24-216.4H903.72Z"/><path class="cls-17" d="M1123.1,823.51h-9.46l-16.91-128.68-5.23-3-11-79.75-.69-5h23.51Z"/><path class="cls-17" d="M888.72,823.51l16.45-127.65-5.91-4.11,5.36-47.88-4.28-.06.47-5.09h4.39L908.75,607h18.72L897.24,823.52h-8.52Z"/><path class="cls-16" d="M1106.33,410H991.24a14.67,14.67,0,0,0-14.67,14.67V628.4a14.67,14.67,0,0,0,14.67,14.67h115.09Z"/><path class="cls-16" d="M1106.09,620.69H896.92a11.23,11.23,0,1,0,0,22.46h209.17Z"/><path class="cls-17" d="M1121.16,620.69H1011a11.23,11.23,0,0,0,0,22.46h110.15Z"/><path class="cls-17" d="M1109.93,410a11.23,11.23,0,0,0-11.23,11.23V636.54a6.43,6.43,0,0,0,6.43,6.43h9.59a6.43,6.43,0,0,0,6.43-6.43V421.2A11.22,11.22,0,0,0,1109.93,410Z"/><path class="cls-6" d="M894.6,559.65l17-116.89a29.72,29.72,0,0,1,22.48-24.6l45.38-10.77,45.72.42,42.24,10.09a29.72,29.72,0,0,1,22.48,33.34l-4.92,32.4-8.31,18a21.25,21.25,0,0,0-.93,3.05L1068,546.83c-1.36,7.46-7.89,11.64-15.44,11.64Z"/><path class="cls-2" d="M1079.51,435.91a.75.75,0,0,1-.52-.21l-4.65-4.36a.76.76,0,0,1,1.05-1.11l4.65,4.36a.76.76,0,0,1-.53,1.32Z"/><path class="cls-2" d="M1075,436.06a.75.75,0,0,1-.52-.21.76.76,0,0,1,0-1.08l4.36-4.65a.76.76,0,0,1,1.11,1.05l-4.36,4.65A.77.77,0,0,1,1075,436.06Z"/><path class="cls-2" d="M1025,456.14a.75.75,0,0,1-.52-.21l-4.65-4.36a.76.76,0,1,1,1-1.11l4.65,4.36a.76.76,0,0,1-.53,1.32Z"/><path class="cls-2" d="M1020.53,456.28a.75.75,0,0,1-.52-.21.76.76,0,0,1,0-1.08l4.36-4.65a.76.76,0,1,1,1.11,1.05l-4.36,4.65A.77.77,0,0,1,1020.53,456.28Z"/><path class="cls-2" d="M978.62,436a5.61,5.61,0,1,1,5.61-5.61A5.62,5.62,0,0,1,978.62,436Zm0-9.7a4.09,4.09,0,1,0,4.09,4.09A4.09,4.09,0,0,0,978.62,426.26Z"/><path class="cls-2" d="M993.44,516.85a.76.76,0,0,1-.76-.76,4.09,4.09,0,1,0-8.18,0,.76.76,0,0,1-1.52,0,5.61,5.61,0,0,1,11.22,0A.77.77,0,0,1,993.44,516.85Z"/><path class="cls-2" d="M924.69,442a.76.76,0,0,1-.76-.76,4.06,4.06,0,1,0-8.12,0,.76.76,0,1,1-1.52,0,5.59,5.59,0,1,1,11.18,0A.79.79,0,0,1,924.69,442Z"/><path class="cls-2" d="M918.08,516.85a5.61,5.61,0,1,1,5.61-5.61A5.62,5.62,0,0,1,918.08,516.85Zm0-9.69a4.09,4.09,0,1,0,4.09,4.09A4.09,4.09,0,0,0,918.08,507.16Z"/><path class="cls-2" d="M964.16,474.51a.76.76,0,0,1-.76-.76c0-1.88,1.41-2.64,2.44-3.19s1.3-.75,1.3-1.23a.76.76,0,0,1,1.52,0c0,1.44-1.16,2.07-2.1,2.57s-1.64.93-1.64,1.85A.76.76,0,0,1,964.16,474.51Z"/><path class="cls-2" d="M964.16,465.65a.76.76,0,0,1-.76-.76c0-1.88,1.41-2.64,2.44-3.19s1.3-.75,1.3-1.23a.76.76,0,1,1,1.52,0c0,1.44-1.16,2.07-2.1,2.57s-1.64.93-1.64,1.85A.76.76,0,0,1,964.16,465.65Z"/><path class="cls-2" d="M967.89,470.08a.76.76,0,0,1-.76-.76c0-.49-.38-.74-1.3-1.23s-2.44-1.32-2.44-3.19a.76.76,0,0,1,1.52,0c0,.92.62,1.31,1.64,1.85s2.1,1.13,2.1,2.57A.76.76,0,0,1,967.89,470.08Z"/><path class="cls-2" d="M967.89,461.22a.76.76,0,0,1-.76-.76c0-.49-.38-.74-1.3-1.23s-2.44-1.32-2.44-3.19a.76.76,0,1,1,1.52,0c0,.92.62,1.31,1.64,1.85s2.1,1.13,2.1,2.57A.76.76,0,0,1,967.89,461.22Z"/><path class="cls-2" d="M929.52,475.4H918.59a.76.76,0,0,1,0-1.52h10.93a.76.76,0,0,1,0,1.52Z"/><path class="cls-2" d="M1027.5,424.79h-10.93a.76.76,0,0,1,0-1.52h10.93a.76.76,0,1,1,0,1.52Z"/><path class="cls-2" d="M1067.51,464.14a.76.76,0,0,1-.54-1.3l7.73-7.73a.76.76,0,1,1,1.08,1.08l-7.73,7.73A.81.81,0,0,1,1067.51,464.14Z"/><path class="cls-2" d="M985.57,439.42a5,5,0,1,1,5-5A5,5,0,0,1,985.57,439.42Zm0-9.7a4.7,4.7,0,1,0,4.7,4.7A4.71,4.71,0,0,0,985.57,429.72Z"/><path class="cls-2" d="M1000.54,520.15h-.3a4.7,4.7,0,0,0-9.4,0h-.3a5,5,0,0,1,10,0Z"/><path class="cls-2" d="M931.79,445.26h-.3a4.67,4.67,0,1,0-9.34,0h-.3a5,5,0,1,1,9.94,0Z"/><path class="cls-2" d="M925,520.31a5,5,0,1,1,5-5A5,5,0,0,1,925,520.31Zm0-9.69a4.7,4.7,0,1,0,4.7,4.7A4.71,4.71,0,0,0,925,510.62Z"/><path class="cls-2" d="M971.26,477.82H971c0-1.52,1.12-2.12,2.12-2.66s1.62-.87,1.62-1.77h.3c0,1.08-.9,1.57-1.78,2S971.26,476.48,971.26,477.82Z"/><path class="cls-2" d="M971.26,469H971c0-1.52,1.12-2.12,2.12-2.66s1.62-.87,1.62-1.77h.3c0,1.08-.9,1.57-1.78,2S971.26,467.62,971.26,469Z"/><path class="cls-2" d="M975,473.39h-.3c0-.9-.75-1.3-1.62-1.77S971,470.48,971,469h.3c0,1.33,1,1.87,2,2.39S975,472.31,975,473.39Z"/><path class="cls-2" d="M975,464.53h-.3c0-.9-.75-1.3-1.62-1.77S971,461.62,971,460.1h.3c0,1.33,1,1.87,2,2.39S975,463.45,975,464.53Z"/><path class="cls-2" d="M936.48,478.56H925.55v.3h10.93Z"/><path class="cls-2" d="M1034.46,427.94h-10.93v.3h10.93Z"/><path class="cls-2" d="M1082.07,459.61l-7.73,7.73.21.21,7.73-7.73Z"/><path class="cls-2" d="M1006.55,486a2.46,2.46,0,0,1-.6-.07,2.66,2.66,0,0,1-1.67-1.18,2.63,2.63,0,0,1-.34-2,2.66,2.66,0,0,1,1.18-1.67,2.63,2.63,0,0,1,2-.34,2.66,2.66,0,0,1,1.67,1.18,2.63,2.63,0,0,1,.34,2,2.66,2.66,0,0,1-1.18,1.67A2.61,2.61,0,0,1,1006.55,486Zm0-3.82a1.16,1.16,0,0,0-1.12.9,1.11,1.11,0,0,0,.15.87,1.14,1.14,0,0,0,.72.51,1.11,1.11,0,0,0,.87-.15,1.14,1.14,0,0,0,.51-.72,1.11,1.11,0,0,0-.15-.87,1.14,1.14,0,0,0-.72-.51A1.09,1.09,0,0,0,1006.54,482.18Z"/><path class="cls-2" d="M963.4,496.91a2.46,2.46,0,0,1-.6-.07A2.67,2.67,0,0,1,962,492a2.63,2.63,0,0,1,2-.34,2.66,2.66,0,0,1,1.67,1.18,2.63,2.63,0,0,1,.34,2,2.66,2.66,0,0,1-1.18,1.67A2.63,2.63,0,0,1,963.4,496.91Zm0-3.82a1.15,1.15,0,0,0-.25,2.27,1.11,1.11,0,0,0,.87-.15,1.14,1.14,0,0,0,.51-.72,1.11,1.11,0,0,0-.15-.87,1.14,1.14,0,0,0-.72-.51Z"/><path class="cls-2" d="M952.93,435.9a2.46,2.46,0,0,1-.6-.07,2.66,2.66,0,0,1-1.67-1.18,2.63,2.63,0,0,1-.34-2A2.66,2.66,0,0,1,951.5,431a2.63,2.63,0,0,1,2-.34,2.66,2.66,0,0,1,1.67,1.18,2.63,2.63,0,0,1,.34,2,2.67,2.67,0,0,1-2.59,2.08Zm0-3.82a1.16,1.16,0,0,0-1.12.9,1.11,1.11,0,0,0,.15.87,1.14,1.14,0,0,0,.72.51,1.11,1.11,0,0,0,.87-.15,1.14,1.14,0,0,0,.51-.72,1.11,1.11,0,0,0-.15-.87,1.14,1.14,0,0,0-.72-.51Z"/><path class="cls-2" d="M1047.55,435.9a2.67,2.67,0,1,1,1.42-.41A2.64,2.64,0,0,1,1047.55,435.9Zm0-3.82a1.16,1.16,0,0,0-1.12.9,1.11,1.11,0,0,0,.15.87,1.15,1.15,0,0,0,2.09-.36,1.11,1.11,0,0,0-.15-.87,1.14,1.14,0,0,0-.72-.51A1,1,0,0,0,1047.54,432.08Z"/><path class="cls-5" d="M1035.76,521.48l6.79-67.27a.69.69,0,0,0-1.36-.25l-21,69.73Z"/><path class="cls-17" d="M911.23,550.57a2.52,2.52,0,0,0,3.48.42l15-11-19.09,8.74A2.52,2.52,0,0,0,911.23,550.57Z"/><path class="cls-5" d="M937.78,453.87l-8.06,79.48-7,7-6.45-4.24,14.08-76.35C931.76,453.44,937.78,452.94,937.78,453.87Z"/><path class="cls-9" d="M1024.1,309.91c12.42.33,16.22,14.36,15.78,31.17s-4.42,26.56-16.84,26.24-22.23-10.44-21.79-27.25S1011.68,309.58,1024.1,309.91Z"/><path class="cls-24" d="M981.94,346.24s41-24.25,41.78,6.74l-.05,8,1.58,46.72c0,1.19-46.24,2.34-46,.87l1-8.08,3.2-24a30.74,30.74,0,0,1-.6-7.14C982.74,357.24,981.94,346.24,981.94,346.24Z"/><path class="cls-9" d="M978.69,348A13.65,13.65,0,1,0,965,334.38,13.65,13.65,0,0,0,978.69,348Z"/><path class="cls-24" d="M978,324.27s-15.91,59.74,14.83,64.6c26.6,4.26,30.66-37.29,30.66-37.29l-.58-27Z"/><path class="cls-9" d="M1019,344.35c-.07,14.53-6,22.64-6,22.64-32.93-5.33-38.22.6-38.22.6s1.58,16.54,15.1,20.47,34.32-3.95,34.74-22.6c.1-4.61-6.79-29.7-6.79-29.7Z"/><path class="cls-2" d="M993.19,373.54c7.17,1.19,10.66-5.78,10.25-6.11s-14.3,2.6-14.52,3S991.14,373.36,993.19,373.54Z"/><path class="cls-9" d="M1015.51,316.11c.25-9.59-9.35-17.62-21.44-17.94S972,305.37,971.72,315s9.35,17.62,21.44,17.94S1015.26,325.7,1015.51,316.11Z"/><path class="cls-9" d="M1022.18,310.15c7.57.2,13.51,8.1,13.26,17.66s-6.65,19.21-14.22,19-13.46-10.17-13.2-19.73S1014.6,310,1022.18,310.15Z"/><path class="cls-5" d="M1024.05,363s-2.58.13-3.93-1l4.17,6.84Z"/><path class="cls-24" d="M1020.68,346.71s4.43-5.38,10.29-2.65c6.65,3.14,4.86,18.33-6.53,18.92-6,.34-4.67-3.09-3.56-7.71A48.15,48.15,0,0,0,1020.68,346.71Z"/><path class="cls-8" d="M1031.17,348a4.39,4.39,0,0,0-3.24-1,4,4,0,0,0-2.63,2,8.13,8.13,0,0,0-1.2,4.12l-.13,1.28a.69.69,0,0,0,1.38,0l.13-1.28a8.38,8.38,0,0,1,1-3.44,2.37,2.37,0,0,1,3.88-.79.76.76,0,0,0,1-.17C1031.54,348.73,1031.46,348.33,1031.17,348Z"/><path class="cls-24" d="M977.63,329.11a28.92,28.92,0,0,0,3.74,2.19.64.64,0,0,0,.86-.29c.15-.37.08-.72-.29-.86,0,0-3.54-2.22-3.87-2.46a22.48,22.48,0,0,1-2.71-2.65.65.65,0,0,0-.9-.15.64.64,0,0,0-.15.9A19.25,19.25,0,0,0,977.63,329.11Z"/><path class="cls-5" d="M981.32,393l1.11-9.2c3.22,3.26,8.61,5.85,17.13,5.19a33,33,0,0,0,12-3.42c.45-.27.72-.29,1-.06a.55.55,0,0,1-.15.78c-1.24,1-5.89,3.17-13.14,4C989.06,396.46,981.32,393,981.32,393Z"/><path class="cls-6" d="M969.29,349.37l-.07,2.77a9.69,9.69,0,0,0,19.38.5l.07-2.77a3.35,3.35,0,0,0-.64-2.19l3.76.1a3.44,3.44,0,0,0-.85,2.15l-.07,2.77a9.69,9.69,0,0,0,19.38.5l.07-2.77a3.54,3.54,0,0,0-3.47-3.65l-12.16-.32h-.1l-9.39-.25-1.48,0-10.78-.28A3.56,3.56,0,0,0,969.29,349.37ZM994.46,348h.1l12.16.32a2.2,2.2,0,0,1,2.12,2.23l-.07,2.77a8.26,8.26,0,1,1-16.51-.53l.07-2.77A2.09,2.09,0,0,1,994.46,348Zm-23.89,1.55a2.2,2.2,0,0,1,2.23-2.12l10.78.28,1.48,0a2.2,2.2,0,0,1,2.12,2.23l-.07,2.77a8.26,8.26,0,1,1-16.51-.53Z"/><path class="cls-24" d="M979.2,407.71c.19-7.18,10.75-12.72,23.59-12.38s20.1,5.61,22.45,12.39c2.16,6.22-10.29,13.93-23.13,13.59S979,414.89,979.2,407.71Z"/><path class="cls-25" d="M961.26,531.37l-12.37,1.31-25.7-2.29a8.64,8.64,0,0,0-5.94,2.54L901.39,547.1a2.53,2.53,0,0,0,3.23,3.9l15-11-9.76,11.54a2.46,2.46,0,0,0,1,3.9,2.5,2.5,0,0,0,2.54-.51l13.06-12.81-9.93,9.76a2.3,2.3,0,0,0,3,3.48l13.91-10.18-9.42,7a2,2,0,0,0,0,3.22,2,2,0,0,0,2,.25l12.64-5.26a4.63,4.63,0,0,1,3.82.08l4.84,2.38a28.52,28.52,0,0,0,12.64,3h7.89C979.09,555.75,961.26,531.37,961.26,531.37Z"/><path class="cls-5" d="M1035.76,521.48l4.24-.34a1.77,1.77,0,0,0,1.44-2.54l-4.5-9.08Z"/><g class="cls-26"><path class="cls-5" d="M962.89,532.08l72.87-10.69,4.75-46.15,45.47,2.29-9.25,59a22.78,22.78,0,0,1-22.48,19.26H971.37Z"/></g><path class="cls-6" d="M953,532.08l83.73-7.34,3.92-50.8,45.36,3-8.31,62a22.78,22.78,0,0,1-22.48,19.26l-94-2.39Z"/><path class="cls-2" d="M1032.1,553.09a.75.75,0,0,1-.52-.21l-4.65-4.36a.76.76,0,0,1,1-1.11l4.65,4.36a.76.76,0,0,1-.53,1.32Z"/><path class="cls-2" d="M1027.6,553.24a.75.75,0,0,1-.52-.21.76.76,0,0,1,0-1.08l4.36-4.65a.76.76,0,0,1,1.11,1.05l-4.36,4.65A.77.77,0,0,1,1027.6,553.24Z"/><path class="cls-2" d="M1053.62,485a.79.79,0,0,1-.54-.22l-9-9a.76.76,0,0,1,.34-1.28l12.34-3.32a.76.76,0,0,1,.74.2.77.77,0,0,1,.2.74l-3.3,12.35a.77.77,0,0,1-.54.54A.71.71,0,0,1,1053.62,485Zm-7.58-9.4,7.18,7.17,1.31-4.9,1.31-4.9Z"/><path class="cls-2" d="M1053,530.48a.76.76,0,0,1-.76-.76c0-1.88,1.41-2.64,2.44-3.19s1.3-.75,1.3-1.23a.76.76,0,0,1,1.52,0c0,1.44-1.16,2.07-2.1,2.57s-1.64.93-1.64,1.85A.76.76,0,0,1,1053,530.48Z"/><path class="cls-2" d="M1053,521.62a.76.76,0,0,1-.76-.76c0-1.88,1.41-2.64,2.44-3.19s1.3-.75,1.3-1.23a.76.76,0,0,1,1.52,0c0,1.44-1.16,2.07-2.1,2.57s-1.64.93-1.64,1.85A.76.76,0,0,1,1053,521.62Z"/><path class="cls-2" d="M1056.76,526.05a.76.76,0,0,1-.76-.76c0-.49-.38-.74-1.3-1.23s-2.44-1.32-2.44-3.19a.76.76,0,0,1,1.52,0c0,.92.62,1.31,1.64,1.85s2.1,1.13,2.1,2.57A.76.76,0,0,1,1056.76,526.05Z"/><path class="cls-2" d="M1056.76,517.2a.76.76,0,0,1-.76-.76c0-.49-.38-.74-1.3-1.23s-2.44-1.32-2.44-3.19a.76.76,0,0,1,1.52,0c0,.92.62,1.31,1.64,1.85s2.1,1.13,2.1,2.57A.77.77,0,0,1,1056.76,517.2Z"/><path class="cls-2" d="M980,541.88a.76.76,0,0,1-.54-1.3l7.73-7.73a.76.76,0,1,1,1.08,1.08l-7.73,7.73A.76.76,0,0,1,980,541.88Z"/><path class="cls-2" d="M1060.65,488.65l-9.42-9.4,12.85-3.45Zm-8.83-9.25,8.67,8.66,3.16-11.84Z"/><path class="cls-2" d="M1060.13,533.79h-.3c0-1.52,1.12-2.12,2.12-2.66s1.62-.87,1.62-1.77h.3c0,1.08-.9,1.57-1.78,2S1060.13,532.45,1060.13,533.79Z"/><path class="cls-2" d="M1060.13,524.93h-.3c0-1.52,1.12-2.12,2.12-2.66s1.62-.87,1.62-1.77h.3c0,1.08-.9,1.57-1.78,2S1060.13,523.6,1060.13,524.93Z"/><path class="cls-2" d="M1063.86,529.36h-.3c0-.9-.75-1.3-1.62-1.77s-2.12-1.14-2.12-2.66h.3c0,1.33,1,1.87,2,2.39S1063.86,528.28,1063.86,529.36Z"/><path class="cls-2" d="M1063.86,520.5h-.3c0-.9-.75-1.3-1.62-1.77s-2.12-1.14-2.12-2.66h.3c0,1.33,1,1.87,2,2.39S1063.86,519.42,1063.86,520.5Z"/><path class="cls-2" d="M994.52,537.36l-7.73,7.73.21.21,7.73-7.73Z"/><path class="cls-2" d="M1076,499.58a2.67,2.67,0,1,1,1.42-.41A2.64,2.64,0,0,1,1076,499.58Zm0-3.82a1.15,1.15,0,1,0,1.12,1.4,1.11,1.11,0,0,0-.15-.87A1.14,1.14,0,0,0,1076,495.76Z"/><path class="cls-27" d="M961.19,531.06l-8.22,1,8.14,23.65h10.18Z"/><path class="cls-5" d="M960.33,554.76l1.36,4.16,93.06-.58a22.71,22.71,0,0,0,22.48-19.26l12.66-87.67a29.71,29.71,0,0,0-22.48-33.34l-7.89-1.87a29.66,29.66,0,0,1,17.31,31.56l-11.64,81.55a22.78,22.78,0,0,1-22.48,19.26Z"/><path class="cls-5" d="M951.52,551.59a3.42,3.42,0,0,0,3.31-3.73L953,532.08l8.23,23.67H960a28.27,28.27,0,0,1-12.64-3l-5.77-2.71C943,550.23,946.52,551.59,951.52,551.59Z"/><path class="cls-6" d="M972.48,555.07H888.84a1.3,1.3,0,0,0-1.27,1.27v2.12a1.3,1.3,0,0,0,1.27,1.27h83.64a1.3,1.3,0,0,0,1.27-1.27v-2.12A1.25,1.25,0,0,0,972.48,555.07Z"/><path class="cls-27" d="M972.48,555.07H888.84a1.3,1.3,0,0,0-1.27,1.27v2.12a1.3,1.3,0,0,0,1.27,1.27h83.64a1.3,1.3,0,0,0,1.27-1.27v-2.12A1.25,1.25,0,0,0,972.48,555.07Z"/><path class="cls-6" d="M916.07,555.07H770.25a1.3,1.3,0,0,0-1.27,1.27v2.12a1.3,1.3,0,0,0,1.27,1.27H916.07a1.3,1.3,0,0,0,1.27-1.27v-2.12A1.37,1.37,0,0,0,916.07,555.07Z"/><g class="cls-28"><path class="cls-27" d="M772.11,555.92H920.56a.42.42,0,1,0,0-.84H772.11a.4.4,0,0,0-.42.42A.45.45,0,0,0,772.11,555.92Z"/></g><path class="cls-6" d="M916.4,555.07h-22a3.54,3.54,0,0,1-3.48-2.88L872.54,455.4a3.5,3.5,0,0,1,3.48-4.16h22a3.54,3.54,0,0,1,3.48,2.88l18.41,96.79A3.54,3.54,0,0,1,916.4,555.07Z"/><path class="cls-27" d="M916.4,555.07h-22a3.54,3.54,0,0,1-3.48-2.88L872.54,455.4a3.5,3.5,0,0,1,3.48-4.16h22a3.54,3.54,0,0,1,3.48,2.88l18.41,96.79A3.54,3.54,0,0,1,916.4,555.07Z"/><path class="cls-6" d="M913.27,555.07H772.2a3.54,3.54,0,0,1-3.48-2.88L750.31,455.4a3.5,3.5,0,0,1,3.48-4.16h141a3.54,3.54,0,0,1,3.48,2.88l18.41,96.79A3.45,3.45,0,0,1,913.27,555.07Z"/><path class="cls-27" d="M832.68,500.44c.85,1.95-.08,3.65-2,3.65h-.34c2.29,2.54,5.77,4.33,8.82,4.24,4.16-.08,6.11-3.48,4.24-7.63s-6.7-7.38-10.86-7.3c-2.63.08-4.41,1.44-4.84,3.56A6.14,6.14,0,0,1,832.68,500.44Z"/><path class="cls-29" d="M712.23,762.68l-9.56,27.22,15.86,14.49,19.68-8.94,10.09-18.88L727.4,752.8Z"/><path class="cls-12" d="M711.34,765.22l36,14.06,85-158.86H983.23V559.65H809.84a26.47,26.47,0,0,0-24.46,16.41Z"/><path class="cls-30" d="M711.34,765.22l36,14.06,85-158.86H983.23V559.65H809.84a26.47,26.47,0,0,0-24.46,16.41Z"/><path class="cls-13" d="M716.86,797.34h20.28l95.2-176.91H983.22V559.66H839.74a26.47,26.47,0,0,0-24.46,16.41Z"/><path class="cls-29" d="M803.21,762.68l-9.74,27.71,16,14,18.89-7.59,10.88-20.23-20.9-23.77Z"/><path class="cls-12" d="M803.21,762.68l36.07,13.89,83.9-156.15H1030a21.75,21.75,0,0,0,21.75-21.75V558.34l-151.07,1.31a26.47,26.47,0,0,0-24.46,16.41Z"/><path class="cls-30" d="M803.21,762.68l36.07,13.89,83.9-156.15H1030a21.75,21.75,0,0,0,21.75-21.75V558.34l-151.07,1.31a26.47,26.47,0,0,0-24.46,16.41Z"/><path class="cls-13" d="M899.86,607.51C906,595.65,912.7,592.15,926,592.15h103.92l-3.49-33.67h25.3v39.8a22.14,22.14,0,0,1-22.14,22.14H923.27l-98.94,184-15.81-5.06Z"/><path d="M734.45,791.64c-5.52,2.47-12,3.59-19.62-.15,0,0-3-9.29-11.45-3.89,0,0-9.73,10.88-24.19,13.81-20.05,4.06-21,13.4-21,13.4h82.28s-.3-12.67-1.64-20.68A3.22,3.22,0,0,0,734.45,791.64Z"/><path class="cls-9" d="M679.08,798.65s9.12,4.2,13.33,20.81l-34.15-1.4S657.33,802.86,679.08,798.65Z"/><path class="cls-9" d="M658.25,824.1h82.28v-9.29H658.25Z"/><path class="cls-2" d="M694,802.46a.65.65,0,0,0,.57.33.62.62,0,0,0,.32-.09.65.65,0,0,0,.24-.89,9.09,9.09,0,0,0-4.82-4.4c-.59.31-1.2.61-1.82.9a.65.65,0,0,0,.34.11C688.92,798.42,691.7,798.48,694,802.46Z"/><path class="cls-2" d="M698.07,800.27a.65.65,0,0,0,.57.33.62.62,0,0,0,.32-.09.65.65,0,0,0,.24-.89,8.94,8.94,0,0,0-5-4.47c-.51.33-1,.65-1.59,1a.6.6,0,0,0,.32.1C693,796.24,695.79,796.29,698.07,800.27Z"/><path class="cls-2" d="M702.25,797.68a.65.65,0,0,0,.57.33.62.62,0,0,0,.32-.09.65.65,0,0,0,.24-.89c-1.89-3.3-4.16-4.28-5.4-4.57-.42.33-.87.66-1.33,1a.68.68,0,0,0,.43.17C697.19,793.64,700,793.7,702.25,797.68Z"/><path d="M689.89,814.8H658.25s0-.19.09-.44a3,3,0,0,1,.13-.44h31.42a.44.44,0,1,1,0,.88Z"/><path d="M824.5,791.64c-5.52,2.47-12,3.59-19.62-.15,0,0-3-9.29-11.45-3.89,0,0-9.73,10.88-24.19,13.81-20,4.06-21,13.4-21,13.4h82.28s-.3-12.67-1.64-20.68A3.22,3.22,0,0,0,824.5,791.64Z"/><path class="cls-9" d="M769.13,798.65s9.12,4.2,13.33,20.81l-34.15-1.4S747.38,802.86,769.13,798.65Z"/><path class="cls-9" d="M748.31,824.1h82.28v-9.29H748.31Z"/><path class="cls-2" d="M784,802.46a.65.65,0,0,0,.57.33.62.62,0,0,0,.32-.09.65.65,0,0,0,.24-.89,9.09,9.09,0,0,0-4.82-4.4c-.59.31-1.2.61-1.82.9a.65.65,0,0,0,.34.11C779,798.42,781.76,798.48,784,802.46Z"/><path class="cls-2" d="M788.12,800.27a.65.65,0,0,0,.57.33.62.62,0,0,0,.32-.09.65.65,0,0,0,.24-.89,8.94,8.94,0,0,0-5-4.47c-.51.33-1,.65-1.59,1a.6.6,0,0,0,.32.1C783.06,796.24,785.84,796.29,788.12,800.27Z"/><path class="cls-2" d="M792.3,797.68a.65.65,0,0,0,.57.33.62.62,0,0,0,.32-.09.65.65,0,0,0,.24-.89c-1.89-3.3-4.16-4.28-5.4-4.57-.42.33-.87.66-1.33,1a.68.68,0,0,0,.43.17C787.24,793.64,790,793.7,792.3,797.68Z"/><path d="M779.94,814.8H748.3s0-.19.09-.44a3,3,0,0,1,.13-.44h31.42a.44.44,0,0,1,0,.88Z"/><path class="cls-2" d="M1025.24,407.72s.85,3.48-1.87,5.17c-3,1.78-14.85,9.67-31.47,4.67a35.34,35.34,0,0,1-10.26-5.09,5.23,5.23,0,0,1-2.12-3.48v-1.61l-4.67,1.1a9.28,9.28,0,0,0,2.8,6.53c1.36,1.36,21.46,16.88,47.08,2.54a8.49,8.49,0,0,0,5-8.74Z"/><path class="cls-6" d="M978,358.63a2.65,2.65,0,1,0-2.68-2.62A2.64,2.64,0,0,0,978,358.63Z"/><path class="cls-2" d="M976.72,356.91a.61.61,0,0,0,.6-.62.6.6,0,0,0-.61-.6.61.61,0,1,0,0,1.22Z"/><path class="cls-6" d="M998.38,360a2.65,2.65,0,1,0-2.68-2.62A2.64,2.64,0,0,0,998.38,360Z"/><path class="cls-2" d="M997.14,358.13a.61.61,0,0,0,.6-.62.6.6,0,0,0-.62-.6.61.61,0,1,0,0,1.22Z"/><g class="cls-31"><path class="cls-8" d="M990.12,363.84l2.13-.29a.77.77,0,1,0-.17-1.53l-2.13.29a1.64,1.64,0,0,1-.34-3.26.77.77,0,1,0-.17-1.53,3,3,0,0,0-2.71,3.48A3,3,0,0,0,990.12,363.84Z"/></g><path class="cls-5" d="M510.4,285l-24.62,74.45.51,26.86,24.11-89.27Z"/><path class="cls-27" d="M462.74,297.28l40.41,11,2.32-6.69-40.91-11.49Z"/><path class="cls-5" d="M625.75,425.75s-32.58-28-42.48-73.13c-7-32-7.57-45.24-8-74.16,0,0,19.09,0,21.7-19.32a19.3,19.3,0,0,0-1.39-10.66s.59,16.75-12.84,21.73c-5,1.85-20.88,2.46-20.88,2.46S545.6,369.81,625.75,425.75Z"/><path class="cls-27" d="M590.21,216.77s-6.25,15.36-22.59,14.7c-21.51-.86-21.88-15.6-21.88-15.6l-5.66,1s2.6,19,27.54,19.62c22.93.59,28.19-18.23,28.19-18.23Z"/><path class="cls-12" d="M1004.06,470.32l-3.9,17.65,5-3.61,3.71,5.36,1.85-15.31Z"/><path class="cls-12" d="M1026,470.32l3.9,17.65-5-3.61-3.71,5.36-1.85-15.31Z"/><path class="cls-12" d="M1014.66,477.86A16.69,16.69,0,1,0,998,461.17,16.69,16.69,0,0,0,1014.66,477.86Z"/><path class="cls-21" d="M1014.66,477.86A16.69,16.69,0,1,0,998,461.17,16.69,16.69,0,0,0,1014.66,477.86Z"/><path class="cls-12" d="M1014.66,473.19a12,12,0,1,0-12-12A12,12,0,0,0,1014.66,473.19Z"/><path class="cls-22" d="M1014.66,473.19a12,12,0,1,0-12-12A12,12,0,0,0,1014.66,473.19Z"/><path class="cls-12" d="M1016.91,458.81l5,.73-3.63,3.54.86,5-4.49-2.36-4.49,2.36.85-5-3.63-3.54,5-.73,2.24-4.55Z"/><rect class="cls-32" x="649" y="298.76" width="62.21" height="62.21" rx="4.56"/><rect class="cls-33" x="648.82" y="299.01" width="62.21" height="62.21" rx="4.56"/><rect class="cls-34" x="648.63" y="299.26" width="62.21" height="62.21" rx="4.56"/><rect class="cls-35" x="648.44" y="299.51" width="62.21" height="62.21" rx="4.56"/><rect class="cls-36" x="648.25" y="299.76" width="62.21" height="62.21" rx="4.56"/><rect class="cls-37" x="648.07" y="300.01" width="62.21" height="62.21" rx="4.56"/><rect class="cls-38" x="647.88" y="300.26" width="62.21" height="62.21" rx="4.56"/><rect class="cls-39" x="647.69" y="300.51" width="62.21" height="62.21" rx="4.56"/><rect class="cls-40" x="647.5" y="300.76" width="62.21" height="62.21" rx="4.56"/><rect class="cls-41" x="647.32" y="301.01" width="62.21" height="62.21" rx="4.56"/><rect class="cls-42" x="647.13" y="301.26" width="62.21" height="62.21" rx="4.56"/><rect class="cls-43" x="646.94" y="301.51" width="62.21" height="62.21" rx="4.56"/><rect class="cls-44" x="646.75" y="301.76" width="62.21" height="62.21" rx="4.56"/><rect class="cls-45" x="646.57" y="302.01" width="62.21" height="62.21" rx="4.56"/><rect class="cls-46" x="646.38" y="302.26" width="62.21" height="62.21" rx="4.56"/><rect class="cls-47" x="646.19" y="302.51" width="62.21" height="62.21" rx="4.56"/><rect class="cls-48" x="646" y="302.76" width="62.21" height="62.21" rx="4.56"/><path class="cls-49" d="M682.1,351.11v6.81A14.1,14.1,0,0,0,686,359.2a25.26,25.26,0,0,0,4.77.43,22.39,22.39,0,0,0,4.64-.47,11.43,11.43,0,0,0,3.85-1.54,7.91,7.91,0,0,0,2.63-2.82,10,10,0,0,0,.41-7.54,7.63,7.63,0,0,0-1.59-2.48,12.16,12.16,0,0,0-2.5-1.95A27.09,27.09,0,0,0,695,341.2c-.89-.37-1.69-.73-2.4-1.07a12.73,12.73,0,0,1-1.81-1.07,4.76,4.76,0,0,1-1.14-1.15,2.4,2.4,0,0,1-.41-1.37,2.3,2.3,0,0,1,.36-1.27,3.28,3.28,0,0,1,1-1,5.48,5.48,0,0,1,1.62-.63,9.27,9.27,0,0,1,2.12-.22,14.31,14.31,0,0,1,1.8.12,14.63,14.63,0,0,1,1.9.4,13.75,13.75,0,0,1,1.86.67,9.91,9.91,0,0,1,1.66.94v-6.37a16.23,16.23,0,0,0-3.38-.89,27.87,27.87,0,0,0-4.22-.28,19.51,19.51,0,0,0-4.59.52,11.71,11.71,0,0,0-3.81,1.63,8.16,8.16,0,0,0-2.6,2.82,8.26,8.26,0,0,0-1,4.1,8,8,0,0,0,1.75,5.2,13.38,13.38,0,0,0,5.33,3.64c.93.39,1.8.76,2.61,1.13a14.86,14.86,0,0,1,2.09,1.15,5.47,5.47,0,0,1,1.39,1.3,2.65,2.65,0,0,1,.51,1.6,2.44,2.44,0,0,1-.32,1.22,2.72,2.72,0,0,1-1,1,5.12,5.12,0,0,1-1.62.65,9.44,9.44,0,0,1-2.26.24,12.89,12.89,0,0,1-4.38-.78A13.22,13.22,0,0,1,682.1,351.11Zm-11.45-17h8.89v-5.62H654.75v5.62h8.85v25h7Z"/></g></g></svg>