<svg xmlns="http://www.w3.org/2000/svg" viewBox="0 0 115.85 115.95"><defs><style>.cls-1{fill:#cdcdcd;}.cls-2{fill:#c8c8c8;}.cls-3{fill:#ac2d37;}.cls-4{fill:#812229;}.cls-5{fill:#585858;}.cls-6{fill:#3b3b3b;}.cls-7{fill:#ea636d;}.cls-8{fill:#e53c49;}.cls-9{fill:#565656;}.cls-10{fill:#d9d9d9;}.cls-11{fill:#bfbfbf;}.cls-12{fill:#e5e5e5;}.cls-13{fill:#fff;}.cls-14{fill:#919191;}.cls-15{fill:#ce309a;}.cls-16{fill:#e535ab;}</style></defs><title>logo</title><g id="Layer_2" data-name="Layer 2"><g id="graphql"><g id="BG"><rect class="cls-1" x="30.6" y="21.5" width="69.4" height="78.5"/><polygon class="cls-2" points="98.7 18.8 29.2 18.8 1.5 0 70.9 0 98.7 18.8"/></g><ellipse class="cls-3" cx="80.4" cy="39" rx="3.5" ry="3.3"/><ellipse class="cls-4" cx="80.4" cy="39" rx="2.7" ry="2.6"/><ellipse cx="80.4" cy="39" rx="2" ry="1.9"/><polygon class="cls-5" points="84.1 49.4 76.7 49.5 80.4 43.3 84.1 49.4"/><polygon class="cls-6" points="78.8 57.9 82 62.2 82 49.4 80.4 46.8 78.8 49.4 78.8 57.9"/><polygon class="cls-5" points="48.4 48.9 51.6 53.9 51.6 70 48.5 70 48.4 48.9"/><polygon class="cls-7" points="48.5 70 46.3 72 46.3 77.8 50 75.2 50 70 48.5 70"/><polygon class="cls-8" points="51.6 70 53.9 72 53.9 77.8 50.1 75.2 50.1 70 51.6 70"/><polygon class="cls-9" points="71.9 77.8 81.9 77.8 81.9 65 63.3 39.1 48.3 39.1 48.3 44.4 71.9 77.8"/><ellipse class="cls-3" cx="56.2" cy="64.4" rx="2.5" ry="2.3"/><polygon class="cls-10" points="98.7 18.8 100 21.5 30.6 21.5 29.2 18.8 98.7 18.8"/><polygon class="cls-11" points="1.5 0 0 2.9 27.8 21.4 29.2 18.8 1.5 0"/><polyline class="cls-12" points="27.8 99.3 30.6 100 30.6 21.5 29.2 18.8 27.8 21.4"/><polygon class="cls-13" points="27.8 21.4 30.6 21.5 29.2 18.8 27.8 21.4"/><polygon class="cls-6" points="48.3 39.1 75.6 77.8 71.9 77.8 48.3 44.4 48.3 39.1"/><polygon class="cls-14" points="0 2.9 27.8 21.4 27.8 99.3 0 80.5 0 2.9"/><path class="cls-15" d="M112,106a4.46,4.46,0,0,0-1.3-.49V92.36a5,5,0,0,0,1.32-.5,4.93,4.93,0,1,0-6.74-1.81,4.88,4.88,0,0,0,3.08,2.31v13.18a5,5,0,0,0-1.51.66L93.94,90.71a5.24,5.24,0,0,0,.47-.66,4.93,4.93,0,1,0-6.74,1.81,5,5,0,0,0,1.32.5v13.19a4.46,4.46,0,0,0-1.3.49,5,5,0,1,0,3.64-.5V92.36a4.85,4.85,0,0,0,.86-.3l13.07,15.73,0,.06A4.93,4.93,0,1,0,112,106Z"/><rect class="cls-16" x="90.39" y="86.58" width="2.35" height="26.14"/><rect class="cls-16" x="109.72" y="86.58" width="2.35" height="26.14"/><path class="cls-16" d="M113.37,106.74a5,5,0,0,0-5.16.16L95.34,91.41a5.31,5.31,0,0,0,.48-.66,5,5,0,1,0-2.22,2l13.07,15.74,0,0a4.93,4.93,0,1,0,6.74-1.81Z"/><path class="cls-16" d="M89.09,106.74a4.93,4.93,0,1,0,6.74,1.81A4.95,4.95,0,0,0,89.09,106.74Z"/><path class="cls-16" d="M113.38,92.56a4.93,4.93,0,1,0-6.74-1.81A4.94,4.94,0,0,0,113.38,92.56Z"/></g></g></svg>