<svg xmlns="http://www.w3.org/2000/svg" viewBox="0 0 119.26 119.99"><defs><style>.cls-1{fill:#cdcdcd;}.cls-2{fill:#c8c8c8;}.cls-3{fill:#ac2d37;}.cls-4{fill:#812229;}.cls-5{fill:#585858;}.cls-6{fill:#3b3b3b;}.cls-7{fill:#ea636d;}.cls-8{fill:#e53c49;}.cls-9{fill:#565656;}.cls-10{fill:#d9d9d9;}.cls-11{fill:#bfbfbf;}.cls-12{fill:#e5e5e5;}.cls-13{fill:#fff;}.cls-14{fill:#919191;}.cls-15{fill:#677282;}.cls-16{fill:#727f90;}.cls-17{fill:#a7bad3;}.cls-18{fill:#b0c4de;}.cls-19{fill:#b4c7e0;}.cls-20{fill:#abbdd5;}</style></defs><title>logo_3</title><g id="Layer_2" data-name="Layer 2"><g id="utils"><g id="BG"><rect class="cls-1" x="30.6" y="21.5" width="69.4" height="78.5"/><polygon class="cls-2" points="98.7 18.8 29.2 18.8 1.5 0 70.9 0 98.7 18.8"/></g><ellipse class="cls-3" cx="80.4" cy="39" rx="3.5" ry="3.3"/><ellipse class="cls-4" cx="80.4" cy="39" rx="2.7" ry="2.6"/><ellipse cx="80.4" cy="39" rx="2" ry="1.9"/><polygon class="cls-5" points="84.1 49.4 76.7 49.5 80.4 43.3 84.1 49.4"/><polygon class="cls-6" points="78.8 57.9 82 62.2 82 49.4 80.4 46.8 78.8 49.4 78.8 57.9"/><polygon class="cls-5" points="48.4 48.9 51.6 53.9 51.6 70 48.5 70 48.4 48.9"/><polygon class="cls-7" points="48.5 70 46.3 72 46.3 77.8 50 75.2 50 70 48.5 70"/><polygon class="cls-8" points="51.6 70 53.9 72 53.9 77.8 50.1 75.2 50.1 70 51.6 70"/><polygon class="cls-9" points="71.9 77.8 81.9 77.8 81.9 65 63.3 39.1 48.3 39.1 48.3 44.4 71.9 77.8"/><ellipse class="cls-3" cx="56.2" cy="64.4" rx="2.5" ry="2.3"/><polygon class="cls-10" points="98.7 18.8 100 21.5 30.6 21.5 29.2 18.8 98.7 18.8"/><polygon class="cls-11" points="1.5 0 0 2.9 27.8 21.4 29.2 18.8 1.5 0"/><polyline class="cls-12" points="27.8 99.3 30.6 100 30.6 21.5 29.2 18.8 27.8 21.4"/><polygon class="cls-13" points="27.8 21.4 30.6 21.5 29.2 18.8 27.8 21.4"/><polygon class="cls-6" points="48.3 39.1 75.6 77.8 71.9 77.8 48.3 44.4 48.3 39.1"/><polygon class="cls-14" points="0 2.9 27.8 21.4 27.8 99.3 0 80.5 0 2.9"/><path class="cls-15" d="M102.23,101.27,109.52,94a7.22,7.22,0,1,0-4.21-4.16L98,97.09l-8.83,8.79-5.41-.47-4.48,4.47v7.06l6.5-6.49,3,3.09L82.37,120h7.07l4.47-4.47-.47-5.42Zm11-18.66L116.66,86l-1.24,4.62-4.62,1.24-3.38-3.38,1.24-4.62Z"/><g id="Wrench"><polyline class="cls-16" points="101.59 100.1 89.09 87.6 88.34 84.96 82.82 81.4 82.22 82 81.87 82.35 81.28 82.95 84.83 88.46 87.47 89.21 99.97 101.72"/><polyline class="cls-17" points="103.8 99.51 101.58 100.09 99.96 101.7 99.38 103.92"/><polyline class="cls-18" points="105 100.71 103.8 99.51 99.38 103.92 100.58 105.13"/><path class="cls-19" d="M110.71,105.26l7.81,7.86s1.52,1.55-1,4.18v0l-.18.16-.17.19,0,0c-2.62,2.52-4.18,1-4.18,1l-7.85-7.81"/><path class="cls-20" d="M105.14,110.84c-2.42-5.65-4.56-5.71-4.56-5.71l4.42-4.42s.06,2.14,5.71,4.55"/></g></g></g></svg>