<svg xmlns="http://www.w3.org/2000/svg" viewBox="0 0 39.94 39.99"><defs><style>.cls-1{fill:#677282;}.cls-2{fill:#727f90;}.cls-3{fill:#a7bad3;}.cls-4{fill:#b0c4de;}.cls-5{fill:#b4c7e0;}.cls-6{fill:#abbdd5;}</style></defs><title>logo_standalone_7</title><g id="Layer_2" data-name="Layer 2"><g id="utils"><path class="cls-1" d="M22.91,21.27,30.2,14A7.21,7.21,0,1,0,26,9.82l-7.27,7.26L9.89,25.87,4.47,25.4,0,29.87v7.07l6.5-6.5,3,3.1L3.05,40h7.06l4.48-4.48-.47-5.41ZM34,2.6,37.33,6,36.1,10.6l-4.62,1.24L28.1,8.46l1.24-4.62Z"/><g id="Wrench"><polyline class="cls-2" points="22.27 20.09 9.77 7.59 9.02 4.95 3.5 1.4 2.9 1.99 2.55 2.35 1.95 2.94 5.51 8.46 8.15 9.21 20.65 21.71"/><polyline class="cls-3" points="24.48 19.5 22.26 20.08 20.64 21.7 20.06 23.92"/><polyline class="cls-4" points="25.68 20.7 24.48 19.5 20.06 23.92 21.26 25.12"/><path class="cls-5" d="M31.39,25.26l7.81,7.85s1.52,1.56-1,4.18v0c-.06.07-.12.1-.18.17s-.1.12-.17.18h0c-2.62,2.51-4.18,1-4.18,1l-7.85-7.81"/><path class="cls-6" d="M25.82,30.83c-2.42-5.65-4.56-5.71-4.56-5.71l4.42-4.42s.06,2.14,5.71,4.56"/></g></g></g></svg>