<svg xmlns="http://www.w3.org/2000/svg" viewBox="0 0 31.14 37.73"><defs><style>.cls-1{fill:#3fa037;}.cls-2{fill:#3f3e42;}.cls-3{fill:#399031;}</style></defs><title>logo_standalone_2</title><g id="Layer_2" data-name="Layer 2"><g id="sync"><polygon class="cls-1" points="0.05 28.62 4.49 26.04 4.53 28.13 15.62 32.93 26.71 28.17 26.72 20.99 15.59 15.97 14.92 17.3 10.58 10.91 18.32 10.15 17.46 12.01 31.14 17.95 31.14 30.96 15.62 37.73 0.05 30.92 0.05 28.62"/><polygon class="cls-2" points="15.56 21.77 16.18 20.57 20.54 27.02 12.8 27.8 13.59 25.74 0 19.87 0 6.76 15.56 0 31.14 6.72 31.14 13.66 26.66 11.75 26.67 9.74 15.56 4.89 4.49 9.64 4.45 16.98 15.56 21.77"/><polygon class="cls-3" points="0.05 28.62 4.49 26.04 4.53 28.13 0.05 30.92 0.05 28.62"/></g></g></svg>