<svg xmlns="http://www.w3.org/2000/svg" viewBox="0 0 123.55 119.63"><defs><style>.cls-1{fill:#cdcdcd;}.cls-2{fill:#c8c8c8;}.cls-3{fill:#ac2d37;}.cls-4{fill:#812229;}.cls-5{fill:#585858;}.cls-6{fill:#3b3b3b;}.cls-7{fill:#ea636d;}.cls-8{fill:#e53c49;}.cls-9{fill:#565656;}.cls-10{fill:#d9d9d9;}.cls-11{fill:#bfbfbf;}.cls-12{fill:#e5e5e5;}.cls-13{fill:#fff;}.cls-14{fill:#919191;}.cls-15,.cls-16,.cls-17,.cls-18,.cls-19,.cls-20,.cls-21{fill:none;}.cls-15{stroke:#e6bf5f;}.cls-15,.cls-16,.cls-17,.cls-18,.cls-19,.cls-20,.cls-21,.cls-22,.cls-23{stroke-miterlimit:10;}.cls-15,.cls-16{stroke-width:1.81px;}.cls-16,.cls-19,.cls-20{stroke:#e3b94f;}.cls-17{stroke:#cca647;}.cls-17,.cls-19{stroke-width:1.36px;}.cls-18{stroke:#b6943f;}.cls-18,.cls-21,.cls-22{stroke-width:0.45px;}.cls-20{stroke-width:2.71px;}.cls-21,.cls-22,.cls-23{stroke:#e8c66f;}.cls-22{fill:#d1b264;}.cls-23{fill:#eacb7c;stroke-width:0.53px;}</style></defs><title>endpoints</title><g id="Layer_2" data-name="Layer 2"><g id="endpoints"><g id="BG"><rect class="cls-1" x="30.6" y="21.5" width="69.4" height="78.5"/><polygon class="cls-2" points="98.7 18.8 29.2 18.8 1.5 0 70.9 0 98.7 18.8"/></g><ellipse class="cls-3" cx="80.4" cy="39" rx="3.5" ry="3.3"/><ellipse class="cls-4" cx="80.4" cy="39" rx="2.7" ry="2.6"/><ellipse cx="80.4" cy="39" rx="2" ry="1.9"/><polygon class="cls-5" points="84.1 49.4 76.7 49.5 80.4 43.3 84.1 49.4"/><polygon class="cls-6" points="78.8 57.9 82 62.2 82 49.4 80.4 46.8 78.8 49.4 78.8 57.9"/><polygon class="cls-5" points="48.4 48.9 51.6 53.9 51.6 70 48.5 70 48.4 48.9"/><polygon class="cls-7" points="48.5 70 46.3 72 46.3 77.8 50 75.2 50 70 48.5 70"/><polygon class="cls-8" points="51.6 70 53.9 72 53.9 77.8 50.1 75.2 50.1 70 51.6 70"/><polygon class="cls-9" points="71.9 77.8 81.9 77.8 81.9 65 63.3 39.1 48.3 39.1 48.3 44.4 71.9 77.8"/><ellipse class="cls-3" cx="56.2" cy="64.4" rx="2.5" ry="2.3"/><polygon class="cls-10" points="98.7 18.8 100 21.5 30.6 21.5 29.2 18.8 98.7 18.8"/><polygon class="cls-11" points="1.5 0 0 2.9 27.8 21.4 29.2 18.8 1.5 0"/><polyline class="cls-12" points="27.8 99.3 30.6 100 30.6 21.5 29.2 18.8 27.8 21.4"/><polygon class="cls-13" points="27.8 21.4 30.6 21.5 29.2 18.8 27.8 21.4"/><polygon class="cls-6" points="48.3 39.1 75.6 77.8 71.9 77.8 48.3 44.4 48.3 39.1"/><polygon class="cls-14" points="0 2.9 27.8 21.4 27.8 99.3 0 80.5 0 2.9"/><line class="cls-15" x1="111.19" y1="100" x2="119.39" y2="100"/><circle class="cls-16" cx="100" cy="100" r="11.19"/><circle class="cls-17" cx="100" cy="100" r="6.87"/><circle class="cls-18" cx="100" cy="100" r="3.43"/><line class="cls-19" x1="100" y1="111.19" x2="100" y2="115.4"/><line class="cls-20" x1="100" y1="88.81" x2="100" y2="83.04"/><circle class="cls-21" cx="121.27" cy="100" r="2.06"/><circle class="cls-22" cx="100" cy="117.35" r="2.06"/><circle class="cls-23" cx="99.96" cy="80.75" r="2.4"/></g></g></svg>