<svg xmlns="http://www.w3.org/2000/svg" viewBox="0 0 122.9 109.94"><defs><style>.cls-1{fill:#cdcdcd;}.cls-2{fill:#c8c8c8;}.cls-3{fill:#ac2d37;}.cls-4{fill:#812229;}.cls-5{fill:#585858;}.cls-6{fill:#3b3b3b;}.cls-7{fill:#ea636d;}.cls-8{fill:#e53c49;}.cls-9{fill:#565656;}.cls-10{fill:#d9d9d9;}.cls-11{fill:#bfbfbf;}.cls-12{fill:#e5e5e5;}.cls-13{fill:#fff;}.cls-14{fill:#919191;}.cls-15{fill:#171717;}.cls-16{fill:#181818;}.cls-17{fill:#1a1a1a;}.cls-18{fill:#1b1b1b;}.cls-19{fill:#1d1d1d;}.cls-20{fill:#1e1e1e;}.cls-21{fill:#202020;}.cls-22{fill:#212121;}.cls-23{fill:#232323;}.cls-24{fill:#242424;}.cls-25{fill:#252525;}.cls-26{fill:#272727;}.cls-27{fill:#282828;}.cls-28{fill:#2a2a2a;}.cls-29{fill:#2b2b2b;}.cls-30{fill:#2d2d2d;}.cls-31{fill:#2e2e2e;}.cls-32{fill:#2e73ab;}.cls-33{fill:#2f76b0;}.cls-34{fill:#3179b4;}.cls-35{fill:#327cb9;}.cls-36{fill:#3380be;}.cls-37{fill:#3483c2;}.cls-38{fill:#3686c7;}.cls-39{fill:#3789cb;}.cls-40{fill:#388cd0;}.cls-41{fill:#398fd5;}.cls-42{fill:#3b92d9;}.cls-43{fill:#3c95de;}.cls-44{fill:#3d99e3;}.cls-45{fill:#3e9ce7;}.cls-46{fill:#409fec;}.cls-47{fill:#41a2f0;}.cls-48{fill:#42a5f5;}</style></defs><title>logo_1</title><g id="Layer_2" data-name="Layer 2"><g id="markdown"><g id="BG"><rect class="cls-1" x="30.6" y="21.5" width="69.4" height="78.5"/><polygon class="cls-2" points="98.7 18.8 29.2 18.8 1.5 0 70.9 0 98.7 18.8"/></g><ellipse class="cls-3" cx="80.4" cy="39" rx="3.5" ry="3.3"/><ellipse class="cls-4" cx="80.4" cy="39" rx="2.7" ry="2.6"/><ellipse cx="80.4" cy="39" rx="2" ry="1.9"/><polygon class="cls-5" points="84.1 49.4 76.7 49.5 80.4 43.3 84.1 49.4"/><polygon class="cls-6" points="78.8 57.9 82 62.2 82 49.4 80.4 46.8 78.8 49.4 78.8 57.9"/><polygon class="cls-5" points="48.4 48.9 51.6 53.9 51.6 70 48.5 70 48.4 48.9"/><polygon class="cls-7" points="48.5 70 46.3 72 46.3 77.8 50 75.2 50 70 48.5 70"/><polygon class="cls-8" points="51.6 70 53.9 72 53.9 77.8 50.1 75.2 50.1 70 51.6 70"/><polygon class="cls-9" points="71.9 77.8 81.9 77.8 81.9 65 63.3 39.1 48.3 39.1 48.3 44.4 71.9 77.8"/><ellipse class="cls-3" cx="56.2" cy="64.4" rx="2.5" ry="2.3"/><polygon class="cls-10" points="98.7 18.8 100 21.5 30.6 21.5 29.2 18.8 98.7 18.8"/><polygon class="cls-11" points="1.5 0 0 2.9 27.8 21.4 29.2 18.8 1.5 0"/><polyline class="cls-12" points="27.8 99.3 30.6 100 30.6 21.5 29.2 18.8 27.8 21.4"/><polygon class="cls-13" points="27.8 21.4 30.6 21.5 29.2 18.8 27.8 21.4"/><polygon class="cls-6" points="48.3 39.1 75.6 77.8 71.9 77.8 48.3 44.4 48.3 39.1"/><polygon class="cls-14" points="0 2.9 27.8 21.4 27.8 99.3 0 80.5 0 2.9"/><rect class="cls-15" x="70.36" y="88.66" width="50.96" height="19.69" rx="2.08"/><rect class="cls-16" x="70.46" y="88.76" width="50.96" height="19.69" rx="2.08"/><rect class="cls-17" x="70.55" y="88.86" width="50.96" height="19.69" rx="2.08"/><rect class="cls-18" x="70.65" y="88.96" width="50.96" height="19.69" rx="2.08"/><rect class="cls-19" x="70.75" y="89.06" width="50.96" height="19.69" rx="2.08"/><rect class="cls-20" x="70.85" y="89.16" width="50.96" height="19.69" rx="2.08"/><rect class="cls-21" x="70.95" y="89.25" width="50.96" height="19.69" rx="2.08"/><rect class="cls-22" x="71.05" y="89.35" width="50.96" height="19.69" rx="2.08"/><rect class="cls-23" x="71.15" y="89.45" width="50.96" height="19.69" rx="2.08"/><rect class="cls-24" x="71.25" y="89.55" width="50.96" height="19.69" rx="2.08"/><rect class="cls-25" x="71.35" y="89.65" width="50.96" height="19.69" rx="2.08"/><rect class="cls-26" x="71.45" y="89.75" width="50.96" height="19.69" rx="2.08"/><rect class="cls-27" x="71.55" y="89.85" width="50.96" height="19.69" rx="2.08"/><rect class="cls-28" x="71.65" y="89.95" width="50.96" height="19.69" rx="2.08"/><rect class="cls-29" x="71.75" y="90.05" width="50.96" height="19.69" rx="2.08"/><rect class="cls-30" x="71.85" y="90.15" width="50.96" height="19.69" rx="2.08"/><rect class="cls-31" x="71.95" y="90.25" width="50.96" height="19.69" rx="2.08"/><path class="cls-32" d="M104.43,93.09h4.94v6.59h4.12l-6.59,7.42-6.59-7.42h4.12ZM81.36,106.28V93.09h3.29l4.95,5,4.94-5h3.3v13.19h-3.3V97.75l-4.94,5-4.95-5v8.53H81.36"/><path class="cls-33" d="M104.48,93.14h4.94v6.59h4.12L107,107.15l-6.59-7.42h4.12ZM81.41,106.32V93.14H84.7l5,4.94,4.94-4.94h3.3v13.18h-3.3V97.8l-4.94,5-5-5v8.52H81.41"/><path class="cls-34" d="M104.53,93.19h4.94v6.59h4.12L107,107.2l-6.59-7.42h4.12ZM81.46,106.37V93.19h3.29l5,4.94,4.94-4.94h3.3v13.18h-3.3V97.85l-4.94,5-5-5v8.52H81.46"/><path class="cls-35" d="M104.58,93.24h4.94v6.59h4.12l-6.59,7.42-6.59-7.42h4.12ZM81.51,106.42V93.24H84.8l5,4.94,4.94-4.94H98v13.18h-3.3V97.9l-4.94,4.95-5-4.95v8.52H81.51"/><path class="cls-36" d="M104.63,93.29h4.94v6.59h4.12l-6.59,7.42-6.59-7.42h4.12ZM81.56,106.47V93.29h3.29l5,4.94,4.94-4.94H98v13.18h-3.3V98l-4.94,5-5-5v8.52H81.56"/><path class="cls-37" d="M104.68,93.34h4.94v6.59h4.12l-6.59,7.42-6.59-7.42h4.12ZM81.61,106.52V93.34H84.9l4.95,4.94,4.94-4.94h3.3v13.18h-3.3V98l-4.94,5L84.9,98v8.52H81.61"/><path class="cls-38" d="M104.73,93.39h4.94V100h4.12l-6.59,7.42L100.61,100h4.12ZM81.65,106.57V93.39H85l5,4.94,4.94-4.94h3.3v13.18h-3.3V98.05l-4.94,5-5-5v8.52h-3.3"/><path class="cls-39" d="M104.78,93.44h4.94V100h4.12l-6.59,7.42L100.66,100h4.12ZM81.7,106.62V93.44H85l4.94,4.94,5-4.94h3.29v13.18H94.89V98.1l-5,5L85,98.1v8.52H81.7"/><path class="cls-40" d="M104.83,93.49h4.94v6.59h4.12l-6.59,7.42-6.59-7.42h4.12ZM81.75,106.67V93.49h3.3L90,98.43l5-4.94h3.29v13.18H94.94V98.15l-5,4.95-4.94-4.95v8.52h-3.3"/><path class="cls-41" d="M104.88,93.54h4.94v6.59h4.12l-6.59,7.42-6.59-7.42h4.12ZM81.8,106.72V93.54h3.3L90,98.48,95,93.54h3.29v13.18H95V98.2l-4.95,5-4.94-5v8.52H81.8"/><path class="cls-42" d="M104.93,93.59h4.94v6.59H114l-6.59,7.42-6.59-7.42h4.12ZM81.85,106.77V93.59h3.3l4.94,4.94,5-4.94h3.29v13.18H95V98.25l-5,5-4.94-5v8.52h-3.3"/><path class="cls-43" d="M105,93.64h4.94v6.59H114l-6.59,7.42-6.59-7.42H105ZM81.9,106.82V93.64h3.3l4.94,4.94,5-4.94h3.29v13.18H95.09V98.3l-5,5-4.94-5v8.52H81.9"/><path class="cls-44" d="M105,93.69H110v6.59h4.12l-6.59,7.42-6.59-7.42H105ZM82,106.87V93.69h3.3l4.94,4.94,5-4.94h3.29v13.18H95.14V98.35l-5,5-4.94-5v8.52H82"/><path class="cls-45" d="M105.08,93.74H110v6.59h4.12l-6.59,7.42L101,100.33h4.12ZM82,106.92V93.74h3.3l4.94,4.94,5-4.94h3.29v13.18H95.19V98.4l-5,4.95L85.3,98.4v8.52H82"/><path class="cls-46" d="M105.12,93.79h4.95v6.59h4.12l-6.59,7.42-6.6-7.42h4.12ZM82.05,107V93.79h3.3l4.94,4.94,4.95-4.94h3.29V107H95.24V98.45l-4.95,4.94-4.94-4.94V107h-3.3"/><path class="cls-47" d="M105.17,93.84h5v6.59h4.12l-6.59,7.41-6.6-7.41h4.12ZM82.1,107V93.84h3.3l4.94,4.94,5-4.94h3.29V107H95.29V98.5l-5,4.94L85.4,98.5V107H82.1"/><path class="cls-48" d="M105.22,93.89h5v6.59h4.12l-6.59,7.41-6.6-7.41h4.12ZM82.15,107.07V93.89h3.3l4.94,4.94,5-4.94h3.29v13.18H95.34V98.55l-5,4.94-4.94-4.94v8.52h-3.3"/></g></g></svg>