<svg xmlns="http://www.w3.org/2000/svg" viewBox="0 0 114.33 114.33"><defs><style>.cls-1{fill:#cdcdcd;}.cls-2{fill:#c8c8c8;}.cls-3{fill:#ac2d37;}.cls-4{fill:#812229;}.cls-5{fill:#585858;}.cls-6{fill:#3b3b3b;}.cls-7{fill:#ea636d;}.cls-8{fill:#e53c49;}.cls-9{fill:#565656;}.cls-10{fill:#d9d9d9;}.cls-11{fill:#bfbfbf;}.cls-12{fill:#e5e5e5;}.cls-13,.cls-38{fill:#fff;}.cls-14{fill:#919191;}.cls-15,.cls-16{fill:#27609e;}.cls-15,.cls-38{fill-rule:evenodd;}.cls-17{fill:#2761a0;}.cls-18{fill:#2862a2;}.cls-19{fill:#2863a4;}.cls-20{fill:#2965a6;}.cls-21{fill:#2966a8;}.cls-22{fill:#2a67a9;}.cls-23{fill:#2a68ab;}.cls-24{fill:#2b69ad;}.cls-25{fill:#2b6aaf;}.cls-26{fill:#2c6bb1;}.cls-27{fill:#2c6db3;}.cls-28{fill:#2d6eb5;}.cls-29{fill:#2d6fb7;}.cls-30{fill:#2e70b9;}.cls-31{fill:#2e71bb;}.cls-32{fill:#2f72bc;}.cls-33{fill:#2f73be;}.cls-34{fill:#3075c0;}.cls-35{fill:#3076c2;}.cls-36{fill:#3177c4;}.cls-37{fill:#3178c6;}</style></defs><title>types</title><g id="Layer_2" data-name="Layer 2"><g id="types"><g id="BG"><rect class="cls-1" x="30.6" y="21.5" width="69.4" height="78.5"/><polygon class="cls-2" points="98.7 18.8 29.2 18.8 1.5 0 70.9 0 98.7 18.8"/></g><ellipse class="cls-3" cx="80.4" cy="39" rx="3.5" ry="3.3"/><ellipse class="cls-4" cx="80.4" cy="39" rx="2.7" ry="2.6"/><ellipse cx="80.4" cy="39" rx="2" ry="1.9"/><polygon class="cls-5" points="84.1 49.4 76.7 49.5 80.4 43.3 84.1 49.4"/><polygon class="cls-6" points="78.8 57.9 82 62.2 82 49.4 80.4 46.8 78.8 49.4 78.8 57.9"/><polygon class="cls-5" points="48.4 48.9 51.6 53.9 51.6 70 48.5 70 48.4 48.9"/><polygon class="cls-7" points="48.5 70 46.3 72 46.3 77.8 50 75.2 50 70 48.5 70"/><polygon class="cls-8" points="51.6 70 53.9 72 53.9 77.8 50.1 75.2 50.1 70 51.6 70"/><polygon class="cls-9" points="71.9 77.8 81.9 77.8 81.9 65 63.3 39.1 48.3 39.1 48.3 44.4 71.9 77.8"/><ellipse class="cls-3" cx="56.2" cy="64.4" rx="2.5" ry="2.3"/><polygon class="cls-10" points="98.7 18.8 100 21.5 30.6 21.5 29.2 18.8 98.7 18.8"/><polygon class="cls-11" points="1.5 0 0 2.9 27.8 21.4 29.2 18.8 1.5 0"/><polyline class="cls-12" points="27.8 99.3 30.6 100 30.6 21.5 29.2 18.8 27.8 21.4"/><polygon class="cls-13" points="27.8 21.4 30.6 21.5 29.2 18.8 27.8 21.4"/><polygon class="cls-6" points="48.3 39.1 75.6 77.8 71.9 77.8 48.3 44.4 48.3 39.1"/><polygon class="cls-14" points="0 2.9 27.8 21.4 27.8 99.3 0 80.5 0 2.9"/><path class="cls-15" d="M101.14,106.39v2.92a6.14,6.14,0,0,0,1.68.54,10.24,10.24,0,0,0,2,.19,9.8,9.8,0,0,0,2-.2,4.89,4.89,0,0,0,1.65-.67,3.23,3.23,0,0,0,1.12-1.2,4.2,4.2,0,0,0,.18-3.23,3.21,3.21,0,0,0-.68-1.06,5.38,5.38,0,0,0-1.07-.84,11.58,11.58,0,0,0-1.41-.7c-.38-.16-.72-.31-1-.46a4.89,4.89,0,0,1-.77-.46,1.75,1.75,0,0,1-.49-.49,1.08,1.08,0,0,1,0-1.13,1.37,1.37,0,0,1,.44-.42,2.42,2.42,0,0,1,.69-.26,3.68,3.68,0,0,1,.91-.1,7.09,7.09,0,0,1,.77.05A7.78,7.78,0,0,1,108,99a5.44,5.44,0,0,1,.8.29,4.37,4.37,0,0,1,.71.4V97a7.49,7.49,0,0,0-1.45-.38,12,12,0,0,0-1.8-.12,8.87,8.87,0,0,0-2,.22,5.12,5.12,0,0,0-1.63.7,3.37,3.37,0,0,0-1.53,3,3.43,3.43,0,0,0,.75,2.23,5.79,5.79,0,0,0,2.28,1.56c.4.16.78.32,1.12.48a6.17,6.17,0,0,1,.9.49,2.27,2.27,0,0,1,.59.56,1.12,1.12,0,0,1,.22.69,1.06,1.06,0,0,1-.13.52,1.2,1.2,0,0,1-.42.42,2.21,2.21,0,0,1-.69.28,4,4,0,0,1-1,.1,5.54,5.54,0,0,1-1.87-.33A5.74,5.74,0,0,1,101.14,106.39Zm-4.91-7.27H100V96.71H89.42v2.41h3.79v10.71h3Z"/><rect class="cls-16" x="85.67" y="85.67" width="26.66" height="26.66" rx="1.95"/><rect class="cls-17" x="85.77" y="85.77" width="26.66" height="26.66" rx="1.95"/><rect class="cls-18" x="85.86" y="85.86" width="26.66" height="26.66" rx="1.95"/><rect class="cls-19" x="85.96" y="85.96" width="26.66" height="26.66" rx="1.95"/><rect class="cls-20" x="86.05" y="86.05" width="26.66" height="26.66" rx="1.95"/><rect class="cls-21" x="86.15" y="86.15" width="26.66" height="26.66" rx="1.95"/><rect class="cls-22" x="86.24" y="86.24" width="26.66" height="26.66" rx="1.95"/><rect class="cls-23" x="86.34" y="86.34" width="26.66" height="26.66" rx="1.95"/><rect class="cls-24" x="86.43" y="86.43" width="26.66" height="26.66" rx="1.95"/><rect class="cls-25" x="86.53" y="86.53" width="26.66" height="26.66" rx="1.95"/><rect class="cls-26" x="86.62" y="86.62" width="26.66" height="26.66" rx="1.95"/><rect class="cls-27" x="86.72" y="86.72" width="26.66" height="26.66" rx="1.95"/><rect class="cls-28" x="86.81" y="86.81" width="26.66" height="26.66" rx="1.95"/><rect class="cls-29" x="86.91" y="86.91" width="26.66" height="26.66" rx="1.95"/><rect class="cls-30" x="87.01" y="87.01" width="26.66" height="26.66" rx="1.95"/><rect class="cls-31" x="87.1" y="87.1" width="26.66" height="26.66" rx="1.95"/><rect class="cls-32" x="87.2" y="87.2" width="26.66" height="26.66" rx="1.95"/><rect class="cls-33" x="87.29" y="87.29" width="26.66" height="26.66" rx="1.95"/><rect class="cls-34" x="87.39" y="87.39" width="26.66" height="26.66" rx="1.95"/><rect class="cls-35" x="87.48" y="87.48" width="26.66" height="26.66" rx="1.95"/><rect class="cls-36" x="87.58" y="87.58" width="26.66" height="26.66" rx="1.95"/><rect class="cls-37" x="87.67" y="87.67" width="26.66" height="26.66" rx="1.95"/><path class="cls-38" d="M103.14,108.39v2.92a6.14,6.14,0,0,0,1.68.54,10.24,10.24,0,0,0,2,.19,9.8,9.8,0,0,0,2-.2,4.89,4.89,0,0,0,1.65-.67,3.23,3.23,0,0,0,1.12-1.2,4.2,4.2,0,0,0,.18-3.23,3.21,3.21,0,0,0-.68-1.06,5.38,5.38,0,0,0-1.07-.84,11.58,11.58,0,0,0-1.41-.7c-.38-.16-.72-.31-1-.46a4.89,4.89,0,0,1-.77-.46,1.75,1.75,0,0,1-.49-.49,1.08,1.08,0,0,1,0-1.13,1.37,1.37,0,0,1,.44-.42,2.42,2.42,0,0,1,.69-.26,3.68,3.68,0,0,1,.91-.1,7.09,7.09,0,0,1,.77.05,7.78,7.78,0,0,1,.81.17,5.44,5.44,0,0,1,.8.29,4.37,4.37,0,0,1,.71.4V99a7.49,7.49,0,0,0-1.45-.38,12,12,0,0,0-1.8-.12,8.87,8.87,0,0,0-2,.22,5.12,5.12,0,0,0-1.63.7,3.37,3.37,0,0,0-1.53,3,3.43,3.43,0,0,0,.75,2.23,5.79,5.79,0,0,0,2.28,1.56c.4.16.78.32,1.12.48a6.17,6.17,0,0,1,.9.49,2.27,2.27,0,0,1,.59.56,1.12,1.12,0,0,1,.22.69,1.06,1.06,0,0,1-.13.52,1.2,1.2,0,0,1-.42.42,2.21,2.21,0,0,1-.69.28,4,4,0,0,1-1,.1,5.54,5.54,0,0,1-1.87-.33A5.74,5.74,0,0,1,103.14,108.39Zm-4.91-7.27H102V98.71H91.42v2.41h3.79v10.71h3Z"/></g></g></svg>