<svg viewBox="0 0 16 16" class="addFilterGroup" style="width: 100%; height: 100%; display: block; fill: inherit; flex-shrink: 0; backface-visibility: hidden;"><path d="M2.374 12.42h1.293v1.157c0 1.557.787 2.344 2.375 2.344h7.591c1.573 0 2.367-.787 2.367-2.344V5.924c0-1.557-.794-2.344-2.367-2.344h-1.3V2.423C12.333.866 11.539.08 9.966.08H2.374C.786.08 0 .866 0 2.423v7.653c0 1.557.786 2.344 2.374 2.344zm.015-1.218c-.756 0-1.172-.408-1.172-1.194V2.49c0-.786.416-1.194 1.172-1.194h7.554c.749 0 1.172.408 1.172 1.194v1.09H6.042c-1.588 0-2.375.778-2.375 2.343v5.278H2.39zm3.668 3.501c-.749 0-1.172-.408-1.172-1.194V5.991c0-.786.423-1.194 1.172-1.194h7.554c.748 0 1.172.408 1.172 1.194v7.516c0 .787-.424 1.195-1.172 1.195H6.057zm3.773-1.565c.4 0 .643-.272.643-.71v-2.042h2.17c.423 0 .718-.227.718-.628 0-.408-.272-.643-.718-.643h-2.17V6.938c0-.447-.242-.719-.643-.719-.4 0-.628.288-.628.719v2.177h-2.17c-.438 0-.718.235-.718.643 0 .4.295.628.718.628h2.17v2.041c0 .424.227.711.628.711z"></path></svg>