<svg viewBox="0 0 14 14" class="typesCreatedBy" style="width: 14px; height: 14px; display: block; fill: rgb(202, 204, 206); flex-shrink: 0; backface-visibility: hidden;"><path d="M13.125,10.0354 C12.5536,9.48588 10.801,8.53125 9.625,7.875 L9.625,7.04112 C9.849,6.71912 10.045,6.37 10.1911,5.98588 C10.5849,5.7435 10.9375,5.28412 10.9375,4.8125 C10.9375,4.35488 10.9323,3.94275 10.4668,3.605 C10.3049,1.5575 9.436,0 7,0 C4.564,0 3.69513,1.5575 3.53325,3.605 C3.06775,3.94275 3.0625,4.35488 3.0625,4.8125 C3.0625,5.28412 3.41513,5.7435 3.80888,5.98588 C3.955,6.37 4.151,6.71912 4.375,7.04112 L4.375,7.875 C3.199,8.53125 1.44638,9.48588 0.875,10.0354 C0.1645,10.7188 0,11.8125 0,14 L14,14 C14,11.8125 13.8364,10.7188 13.125,10.0354 Z"></path></svg>